<?xml version="1.0" encoding="utf-8"?>
<!-- Generator: Adobe Illustrator 17.0.0, SVG Export Plug-In . SVG Version: 6.00 Build 0)  -->
<!DOCTYPE svg PUBLIC "-//W3C//DTD SVG 1.1//EN" "http://www.w3.org/Graphics/SVG/1.1/DTD/svg11.dtd">
<svg version="1.1" id="Layer_1" xmlns="http://www.w3.org/2000/svg" xmlns:xlink="http://www.w3.org/1999/xlink" x="0px" y="0px"
	 width="456.415px" height="81.974px" viewBox="0 0 456.415 81.974" enable-background="new 0 0 456.415 81.974"
	 xml:space="preserve">
<polygon fill="#F9EDA7" points="43.096,0 56.414,26.984 86.193,31.311 64.644,52.316 69.731,81.974 43.096,67.971 16.461,81.974 
	21.548,52.316 0,31.311 29.779,26.984 "/>
<polygon fill="#F9EDA7" points="135.652,0 148.969,26.984 178.748,31.311 157.2,52.316 162.287,81.974 135.652,67.971 
	109.017,81.974 114.104,52.316 92.556,31.311 122.335,26.984 "/>
<polygon fill="#F9EDA7" points="228.208,0 241.525,26.984 271.304,31.311 249.756,52.316 254.843,81.974 228.208,67.971 
	201.573,81.974 206.66,52.316 185.111,31.311 214.89,26.984 "/>
<polygon fill="#F9EDA7" points="320.763,0 334.081,26.984 363.86,31.311 342.312,52.316 347.398,81.974 320.763,67.971 
	294.128,81.974 299.215,52.316 277.667,31.311 307.446,26.984 "/>
<polygon opacity="0.4" fill="#FFFFFF" enable-background="new    " points="16.461,81.974 56.414,26.984 86.193,31.311 
	64.644,52.316 69.731,81.974 43.096,67.971 "/>
<polygon opacity="0.4" fill="#FFFFFF" enable-background="new    " points="109.017,81.974 148.969,26.984 178.748,31.311 
	157.2,52.316 162.287,81.974 135.652,67.971 "/>
<polygon opacity="0.4" fill="#FFFFFF" enable-background="new    " points="201.573,81.974 241.525,26.984 271.304,31.311 
	249.756,52.316 254.843,81.974 228.208,67.971 "/>
<polygon opacity="0.4" fill="#FFFFFF" enable-background="new    " points="294.128,81.974 334.081,26.984 363.86,31.311 
	342.312,52.316 347.398,81.974 320.763,67.971 "/>
<polygon fill="#F9EDA7" points="412.171,0 425.488,26.984 455.267,31.311 433.719,52.316 438.806,81.974 412.171,67.971 
	385.536,81.974 390.622,52.316 369.074,31.311 398.853,26.984 "/>
<polygon opacity="0.4" fill="#FFFFFF" enable-background="new    " points="385.536,81.974 425.488,26.984 455.267,31.311 
	433.719,52.316 438.806,81.974 412.171,67.971 "/>
</svg>
