<?xml version="1.0" encoding="utf-8"?>
<!-- Generator: Adobe Illustrator 17.0.0, SVG Export Plug-In . SVG Version: 6.00 Build 0)  -->
<!DOCTYPE svg PUBLIC "-//W3C//DTD SVG 1.1//EN" "http://www.w3.org/Graphics/SVG/1.1/DTD/svg11.dtd">
<svg version="1.1" id="Layer_1" xmlns="http://www.w3.org/2000/svg" xmlns:xlink="http://www.w3.org/1999/xlink" x="0px" y="0px"
	 width="384.246px" height="200px" viewBox="0 0 384.246 200" enable-background="new 0 0 384.246 200" xml:space="preserve">
<line fill="none" stroke="#33C6DD" stroke-width="5" stroke-miterlimit="10" x1="331.289" y1="104.763" x2="331.289" y2="52.235"/>
<g>
	<line fill="none" stroke="#33C6DD" stroke-width="5" stroke-miterlimit="10" x1="243.727" y1="105.027" x2="243.727" y2="52.264"/>
	<line fill="none" stroke="#33C6DD" stroke-width="5" stroke-miterlimit="10" x1="295.102" y1="50.37" x2="245.769" y2="50.37"/>
	<line fill="none" stroke="#33C6DD" stroke-width="5" stroke-miterlimit="10" x1="296.602" y1="52.264" x2="296.602" y2="104.763"/>
	<path fill="#33C6DD" d="M245.769,47.844c0,0-4.583-0.337-4.5,4.42l2.249,1.894l3.917-3.16L245.769,47.844z"/>
	<path fill="#33C6DD" d="M295.114,47.844c0,0,4.222-0.001,3.983,4.388l-2.617,4.801l-2.68-5.659L295.114,47.844z"/>
</g>
<line fill="none" stroke="#33C6DD" stroke-width="5" stroke-miterlimit="10" x1="47.269" y1="59.006" x2="47.269" y2="8.797"/>
<circle fill="#33C6DD" cx="47.269" cy="150.506" r="45.167"/>
<polygon fill="#33C6DD" points="37.102,106.339 44.436,118.339 56.436,106.339 56.436,63.339 37.102,63.339 "/>
<line opacity="0.4" fill="none" stroke="#FFFFFF" stroke-width="5" stroke-miterlimit="10" enable-background="new    " x1="47.436" y1="63.339" x2="47.436" y2="126.006"/>
<line fill="none" stroke="#706D72" stroke-width="5" stroke-miterlimit="10" x1="35.436" y1="61.006" x2="58.436" y2="61.006"/>
<circle opacity="0.3" fill="#FFFFFF" enable-background="new    " cx="30.894" cy="179.422" r="5.75"/>
<circle opacity="0.3" fill="#FFFFFF" enable-background="new    " cx="25.144" cy="170.381" r="3.292"/>
<circle opacity="0.3" fill="#FFFFFF" enable-background="new    " cx="28.436" cy="164.464" r="1.833"/>
<path opacity="0.5" fill="#FFFFFF" enable-background="new    " d="M30.894,174.756c0,0,3.958,0.583,4.625,4.667
	C35.519,179.422,35.602,174.839,30.894,174.756z"/>
<path opacity="0.5" fill="#FFFFFF" enable-background="new    " d="M23.956,167.839c0,0,2.625-0.688,3.75,1.812
	C27.706,169.652,26.894,166.714,23.956,167.839z"/>
<path opacity="0.5" fill="#FFFFFF" enable-background="new    " d="M28.436,163.089c0,0,0.958,0,1.333,1.375
	C29.769,164.464,29.727,163.015,28.436,163.089z"/>
<path opacity="0.2" fill="#FFFFFF" enable-background="new    " d="M3.422,139.129c0,0,5.353-5.172,12.353,0
	c0,0,6.167,5.672,13.833,2.005c0,0,9.167-5.167,14.833,0c0,0,7.5,6.302,14,1.234c0,0,7.333-5.901,13.333,0.266
	c0,0,9,9.333,15.333-0.5c0,0,2.744-4.467,4.289-0.4c0,0,4.621,18.983-7.771,35.483c0,0-13.884,21.437-42.263,18.218
	c0,0-17.75-1.446-29.906-17.518C11.456,177.919-2.127,162.631,3.422,139.129z"/>
<g opacity="0.3">
	<ellipse fill="#FFFFFF" cx="47.437" cy="134.057" rx="2.413" ry="2.928"/>
	<path fill="#FFFFFF" d="M45.022,134.057c0,0,0.523-2.928,2.413-5.1c0,0,2.721,3.034,2.307,5.916
		C49.327,137.755,45.022,134.057,45.022,134.057z"/>
</g>
<path opacity="0.4" fill="#FFFFFF" enable-background="new    " d="M47.404,136.54c0,0,1.201,0.054,1.984-1.512
	C49.388,135.027,49.147,136.756,47.404,136.54z"/>
<line fill="none" stroke="#33C6DD" stroke-width="5" stroke-miterlimit="10" x1="119.519" y1="6.87" x2="48.623" y2="6.87"/>
<line fill="none" stroke="#33C6DD" stroke-width="5" stroke-miterlimit="10" x1="121.352" y1="8.641" x2="121.352" y2="104.256"/>
<path fill="#33C6DD" d="M44.811,9.089c0,0-0.6-5.031,4.521-4.75l0.375,4.458L44.811,9.089z"/>
<path fill="#33C6DD" d="M119.519,4.402c0,0,4.583-0.792,4.312,4.24l-1.458,2.51c0,0-4.167-2.896-4.208-3
	C118.123,8.047,119.519,4.402,119.519,4.402z"/>
<line fill="none" stroke="#706D72" stroke-width="5" stroke-miterlimit="10" x1="112.644" y1="106.589" x2="165.852" y2="106.589"/>
<line fill="none" stroke="#706D72" stroke-width="5" stroke-miterlimit="10" x1="127.727" y1="91.527" x2="149.936" y2="91.527"/>
<polygon fill="#33C6DD" points="129.936,94.006 129.936,103.086 113.269,119.902 113.269,169.341 165.436,169.341 165.436,119.902 
	147.769,103.675 147.602,94.006 "/>
<line fill="none" stroke="#33C6DD" stroke-width="5" stroke-miterlimit="10" x1="117.102" y1="109.089" x2="117.102" y2="119.922"/>
<line fill="none" stroke="#33C6DD" stroke-width="5" stroke-miterlimit="10" x1="161.519" y1="109.089" x2="161.519" y2="119.922"/>
<line fill="none" stroke="#33C6DD" stroke-width="5" stroke-miterlimit="10" x1="138.831" y1="28.464" x2="138.831" y2="89.027"/>
<line fill="none" stroke="#33C6DD" stroke-width="5" stroke-miterlimit="10" x1="156.227" y1="104.172" x2="156.227" y2="52.214"/>
<line fill="none" stroke="#33C6DD" stroke-width="5" stroke-miterlimit="10" x1="207.602" y1="50.339" x2="158.269" y2="50.339"/>
<line fill="none" stroke="#33C6DD" stroke-width="5" stroke-miterlimit="10" x1="209.102" y1="52.214" x2="209.102" y2="104.506"/>
<path fill="#33C6DD" d="M158.269,47.839c0,0-4.583-0.333-4.5,4.375l2.249,1.875l3.917-3.128L158.269,47.839z"/>
<path fill="#33C6DD" d="M207.614,47.839c0,0,4.55-0.157,3.983,4.342l-2.617,4.751l-2.68-5.601L207.614,47.839z"/>
<line fill="none" stroke="#FFFFFF" stroke-width="2" stroke-miterlimit="10" x1="237.102" y1="122.172" x2="246.936" y2="122.172"/>
<line fill="none" stroke="#FFFFFF" stroke-width="2" stroke-miterlimit="10" x1="237.102" y1="127.006" x2="246.936" y2="127.006"/>
<line fill="none" stroke="#FFFFFF" stroke-width="2" stroke-miterlimit="10" x1="237.102" y1="131.172" x2="246.936" y2="131.172"/>
<line fill="none" stroke="#FFFFFF" stroke-width="2" stroke-miterlimit="10" x1="237.102" y1="135.339" x2="246.936" y2="135.339"/>
<line fill="none" stroke="#FFFFFF" stroke-width="2" stroke-miterlimit="10" x1="237.102" y1="139.506" x2="246.936" y2="139.506"/>
<line fill="none" stroke="#FFFFFF" stroke-width="2" stroke-miterlimit="10" x1="237.102" y1="144.339" x2="246.936" y2="144.339"/>
<line fill="none" stroke="#FFFFFF" stroke-width="2" stroke-miterlimit="10" x1="237.102" y1="148.672" x2="246.936" y2="148.672"/>
<line fill="none" stroke="#FFFFFF" stroke-width="2" stroke-miterlimit="10" x1="237.102" y1="153.339" x2="246.936" y2="153.339"/>
<line fill="none" stroke="#FFFFFF" stroke-width="2" stroke-miterlimit="10" x1="237.102" y1="157.506" x2="246.936" y2="157.506"/>
<line fill="none" stroke="#FFFFFF" stroke-width="2" stroke-miterlimit="10" x1="237.102" y1="161.506" x2="246.936" y2="161.506"/>
<line fill="none" stroke="#FFFFFF" stroke-width="2" stroke-miterlimit="10" x1="237.102" y1="165.839" x2="246.936" y2="165.839"/>
<g opacity="0.6">
	
		<line fill="none" stroke="#FFFFFF" stroke-width="2" stroke-miterlimit="10" x1="151.311" y1="122.506" x2="161.144" y2="122.506"/>
	
		<line fill="none" stroke="#FFFFFF" stroke-width="2" stroke-miterlimit="10" x1="151.311" y1="126.872" x2="161.144" y2="126.872"/>
	
		<line fill="none" stroke="#FFFFFF" stroke-width="2" stroke-miterlimit="10" x1="151.311" y1="131.239" x2="161.144" y2="131.239"/>
	
		<line fill="none" stroke="#FFFFFF" stroke-width="2" stroke-miterlimit="10" x1="151.311" y1="135.606" x2="161.144" y2="135.606"/>
	
		<line fill="none" stroke="#FFFFFF" stroke-width="2" stroke-miterlimit="10" x1="151.311" y1="139.972" x2="161.144" y2="139.972"/>
	
		<line fill="none" stroke="#FFFFFF" stroke-width="2" stroke-miterlimit="10" x1="151.311" y1="144.339" x2="161.144" y2="144.339"/>
	
		<line fill="none" stroke="#FFFFFF" stroke-width="2" stroke-miterlimit="10" x1="151.311" y1="148.706" x2="161.144" y2="148.706"/>
	
		<line fill="none" stroke="#FFFFFF" stroke-width="2" stroke-miterlimit="10" x1="151.311" y1="153.072" x2="161.144" y2="153.072"/>
	
		<line fill="none" stroke="#FFFFFF" stroke-width="2" stroke-miterlimit="10" x1="151.311" y1="157.439" x2="161.144" y2="157.439"/>
	
		<line fill="none" stroke="#FFFFFF" stroke-width="2" stroke-miterlimit="10" x1="151.311" y1="161.806" x2="161.144" y2="161.806"/>
	
		<line fill="none" stroke="#FFFFFF" stroke-width="2" stroke-miterlimit="10" x1="151.311" y1="166.172" x2="161.144" y2="166.172"/>
</g>
<line fill="none" stroke="#706D72" stroke-width="5" stroke-miterlimit="10" x1="200.352" y1="106.933" x2="253.561" y2="106.933"/>
<polygon fill="#33C6DD" points="217.644,94.35 217.644,103.43 200.977,120.245 200.977,169.685 253.144,169.685 253.144,120.245 
	235.477,104.019 235.311,94.35 "/>
<line fill="none" stroke="#33C6DD" stroke-width="5" stroke-miterlimit="10" x1="204.81" y1="109.433" x2="204.81" y2="120.266"/>
<line fill="none" stroke="#33C6DD" stroke-width="5" stroke-miterlimit="10" x1="249.227" y1="109.433" x2="249.227" y2="120.266"/>
<g opacity="0.6">
	<line fill="none" stroke="#FFFFFF" stroke-width="2" stroke-miterlimit="10" x1="239.019" y1="122.85" x2="248.852" y2="122.85"/>
	
		<line fill="none" stroke="#FFFFFF" stroke-width="2" stroke-miterlimit="10" x1="239.019" y1="127.216" x2="248.852" y2="127.216"/>
	
		<line fill="none" stroke="#FFFFFF" stroke-width="2" stroke-miterlimit="10" x1="239.019" y1="131.583" x2="248.852" y2="131.583"/>
	<line fill="none" stroke="#FFFFFF" stroke-width="2" stroke-miterlimit="10" x1="239.019" y1="135.95" x2="248.852" y2="135.95"/>
	
		<line fill="none" stroke="#FFFFFF" stroke-width="2" stroke-miterlimit="10" x1="239.019" y1="140.316" x2="248.852" y2="140.316"/>
	
		<line fill="none" stroke="#FFFFFF" stroke-width="2" stroke-miterlimit="10" x1="239.019" y1="144.683" x2="248.852" y2="144.683"/>
	<line fill="none" stroke="#FFFFFF" stroke-width="2" stroke-miterlimit="10" x1="239.019" y1="149.05" x2="248.852" y2="149.05"/>
	
		<line fill="none" stroke="#FFFFFF" stroke-width="2" stroke-miterlimit="10" x1="239.019" y1="153.416" x2="248.852" y2="153.416"/>
	
		<line fill="none" stroke="#FFFFFF" stroke-width="2" stroke-miterlimit="10" x1="239.019" y1="157.783" x2="248.852" y2="157.783"/>
	<line fill="none" stroke="#FFFFFF" stroke-width="2" stroke-miterlimit="10" x1="239.019" y1="162.15" x2="248.852" y2="162.15"/>
	
		<line fill="none" stroke="#FFFFFF" stroke-width="2" stroke-miterlimit="10" x1="239.019" y1="166.516" x2="248.852" y2="166.516"/>
</g>
<line fill="none" stroke="#33C6DD" stroke-width="5" stroke-miterlimit="10" x1="226.54" y1="28.339" x2="226.54" y2="89.464"/>
<line fill="none" stroke="#33C6DD" stroke-width="5" stroke-miterlimit="10" x1="314.29" y1="28.339" x2="314.29" y2="89.464"/>
<line opacity="0.4" fill="none" stroke="#FFFFFF" stroke-width="5" stroke-miterlimit="10" enable-background="new    " x1="138.831" y1="94.006" x2="138.831" y2="125.339"/>
<line opacity="0.4" fill="none" stroke="#FFFFFF" stroke-width="5" stroke-miterlimit="10" enable-background="new    " x1="226.54" y1="94.35" x2="226.54" y2="125.683"/>
<line fill="none" stroke="#706D72" stroke-width="5" stroke-miterlimit="10" x1="288.102" y1="106.933" x2="341.31" y2="106.933"/>
<line fill="none" stroke="#706D72" stroke-width="5" stroke-miterlimit="10" x1="303.185" y1="91.87" x2="325.394" y2="91.87"/>
<polygon fill="#33C6DD" points="305.394,94.35 305.394,103.43 288.727,120.245 288.727,169.685 340.894,169.685 340.894,120.245 
	323.227,104.019 323.06,94.35 "/>
<line fill="none" stroke="#33C6DD" stroke-width="5" stroke-miterlimit="10" x1="292.56" y1="109.433" x2="292.56" y2="120.266"/>
<line fill="none" stroke="#33C6DD" stroke-width="5" stroke-miterlimit="10" x1="336.977" y1="109.433" x2="336.977" y2="120.266"/>
<g opacity="0.6">
	<line fill="none" stroke="#FFFFFF" stroke-width="2" stroke-miterlimit="10" x1="326.769" y1="122.85" x2="336.602" y2="122.85"/>
	
		<line fill="none" stroke="#FFFFFF" stroke-width="2" stroke-miterlimit="10" x1="326.769" y1="127.216" x2="336.602" y2="127.216"/>
	
		<line fill="none" stroke="#FFFFFF" stroke-width="2" stroke-miterlimit="10" x1="326.769" y1="131.583" x2="336.602" y2="131.583"/>
	<line fill="none" stroke="#FFFFFF" stroke-width="2" stroke-miterlimit="10" x1="326.769" y1="135.95" x2="336.602" y2="135.95"/>
	
		<line fill="none" stroke="#FFFFFF" stroke-width="2" stroke-miterlimit="10" x1="326.769" y1="140.316" x2="336.602" y2="140.316"/>
	
		<line fill="none" stroke="#FFFFFF" stroke-width="2" stroke-miterlimit="10" x1="326.769" y1="144.683" x2="336.602" y2="144.683"/>
	<line fill="none" stroke="#FFFFFF" stroke-width="2" stroke-miterlimit="10" x1="326.769" y1="149.05" x2="336.602" y2="149.05"/>
	
		<line fill="none" stroke="#FFFFFF" stroke-width="2" stroke-miterlimit="10" x1="326.769" y1="153.416" x2="336.602" y2="153.416"/>
	
		<line fill="none" stroke="#FFFFFF" stroke-width="2" stroke-miterlimit="10" x1="326.769" y1="157.783" x2="336.602" y2="157.783"/>
	<line fill="none" stroke="#FFFFFF" stroke-width="2" stroke-miterlimit="10" x1="326.769" y1="162.15" x2="336.602" y2="162.15"/>
	
		<line fill="none" stroke="#FFFFFF" stroke-width="2" stroke-miterlimit="10" x1="326.769" y1="166.516" x2="336.602" y2="166.516"/>
</g>
<line opacity="0.4" fill="none" stroke="#FFFFFF" stroke-width="5" stroke-miterlimit="10" enable-background="new    " x1="314.29" y1="94.35" x2="314.29" y2="125.683"/>
<line fill="none" stroke="#33C6DD" stroke-width="5" stroke-miterlimit="10" x1="368.902" y1="50.355" x2="333.331" y2="50.355"/>
<line fill="none" stroke="#33C6DD" stroke-width="5" stroke-miterlimit="10" x1="369.269" y1="52.407" x2="369.269" y2="113.339"/>
<path fill="#33C6DD" d="M333.331,47.848c0,0-4.583-0.334-4.5,4.387l2.249,1.88l3.917-3.136L333.331,47.848z"/>
<path fill="#33C6DD" d="M368.911,47.848c0,0,3.233,0.741,2.872,4.354l-1.887,4.764l-1.932-5.616L368.911,47.848z"/>
<rect x="357.769" y="118.089" fill="#33C6DD" width="22" height="51.596"/>
<line opacity="0.4" fill="none" stroke="#FFFFFF" stroke-width="5" stroke-miterlimit="10" enable-background="new    " x1="368.956" y1="118.089" x2="368.956" y2="140.173"/>
<path opacity="0.2" fill="#FFFFFF" enable-background="new    " d="M357.769,150.089c0,0,2.125-2,3.875,0c0,0,2.25,2,4.875,0
	c0,0,2.875-2.375,5.625,0c0,0,2.125,2.528,4.875,0.889c0,0,1.25-1.639,2.75-0.014v18.721h-22V150.089z"/>
<line fill="none" stroke="#706D72" stroke-width="5" stroke-miterlimit="10" x1="215.436" y1="91.87" x2="237.644" y2="91.87"/>
<line fill="none" stroke="#706D72" stroke-width="5" stroke-miterlimit="10" x1="355.769" y1="115.714" x2="382.144" y2="115.714"/>
<circle opacity="0.3" fill="#FFFFFF" enable-background="new    " cx="366.239" cy="164.953" r="2.717"/>
<circle opacity="0.3" fill="#FFFFFF" enable-background="new    " cx="369.274" cy="161.255" r="1.397"/>
<path opacity="0.5" fill="#FFFFFF" enable-background="new    " d="M365.259,162.856c0,0,2.167-0.567,3.095,1.496
	C368.354,164.352,367.684,161.927,365.259,162.856z"/>
<path opacity="0.5" fill="#FFFFFF" enable-background="new    " d="M369.274,160.207c0,0,0.73,0,1.016,1.048
	C370.29,161.255,370.258,160.151,369.274,160.207z"/>
<circle opacity="0.3" fill="#FFFFFF" enable-background="new    " cx="367.876" cy="158.625" r="0.949"/>
<path opacity="0.5" fill="#FFFFFF" enable-background="new    " d="M367.876,157.913c0,0,0.496,0,0.69,0.712
	C368.566,158.625,368.545,157.875,367.876,157.913z"/>
</svg>
