<?xml version="1.0" encoding="utf-8"?>
<!-- Generator: Adobe Illustrator 17.0.0, SVG Export Plug-In . SVG Version: 6.00 Build 0)  -->
<!DOCTYPE svg PUBLIC "-//W3C//DTD SVG 1.1//EN" "http://www.w3.org/Graphics/SVG/1.1/DTD/svg11.dtd">
<svg version="1.1" id="Layer_1" xmlns="http://www.w3.org/2000/svg" xmlns:xlink="http://www.w3.org/1999/xlink" x="0px" y="0px"
	 width="320.016px" height="326.448px" viewBox="0 0 320.016 326.448" enable-background="new 0 0 320.016 326.448"
	 xml:space="preserve">
<g opacity="0.6" enable-background="new    ">
	<g>
		<ellipse id="SVGID_1_" fill="#FFFFFF" cx="160.101" cy="161.478" rx="159.915" ry="160.333"/>
	</g>
</g>
<g>
	<path fill="#3BC3D8" d="M108.003,75.459c0,0,4.971-15.158,21.561-15.333l3.026,17.871l-7.456,8.743L108.003,75.459z"/>
	<path fill="#3BC3D8" d="M121.79,75.28c0,0,4.103-29.902,43.04-24.073c0,0,21.477,3.116,28.189,27.339l-11.222,50.676L121.79,75.28z
		"/>
	<path fill="#3BC3D8" d="M131.108,58.621c0,0,6.207-15.198,21.947-8.167v11.963L131.108,58.621z"/>
	<path fill="#8FD6E4" d="M149.559,162.288c0,0-14.975-0.595-11.854-6.316c0,0-13-0.881-6.367-9.362c0,0-5.236-6.404,3.293-8.401
		c0,0-11.591-11.098-7.817-23.623c0,0-7.016-10.637,7.636-16.734c0,0,14.153-34.786,58.293-31.149c0,0,49.513,5.222,53.396,47.202
		c0,0,5.894,27.732-13.315,42.016C232.823,155.922,171.528,176.048,149.559,162.288z"/>
	<path fill="#D3EDF2" d="M78.915,155.168c0,0-11.898-2.855-8.423-7.451c0,0-10.266-2.802-3.508-9.304c0,0-3.105-6.501,4.068-6.95
		c0,0-7.398-11.657-2.242-22.194c0,0-3.811-10.537,8.967-13.675c0,0,17.262-28.695,52.01-18.607c0,0,38.783,12.33,34.748,50.217
		c0,0,0.001,25.545-17.822,35.246C146.714,162.451,94.175,170.802,78.915,155.168z"/>
	<path fill="#F1F2F2" d="M72.061,160.719l11.097,90.793l0.448,1.962c1.347,9.311,38.391,12.162,38.391,12.162
		s25.052,3.026,59.184,1.009c0,0,55.989-2.69,58.343-17.15l7.062-90.625C246.586,158.87,149.74,177.421,72.061,160.719z"/>
	<path fill="#3BC3D8" d="M70.492,147.717c0,0-3.026,3.587,6.613,6.95c0,0,13.787,4.035,29.816,5.941c0,0,26.005,2.242,42.707,1.793
		c0,0,35.869,0.785,61.538-2.69c0,0,24.324-3.811,29.704-6.501c0,0,13.675-4.596,3.475-10.761l1.121-1.569
		c0,0,16.527,7.622,2.659,17.486c0,0-10.617,8.519-46.598,10.2c0,0-30.825,2.018-48.199,1.681c0,0-63.783,1.906-83.285-11.377
		c0,0-9.526-5.436-2.016-12.722L70.492,147.717z"/>
	<path fill="#D3EDF2" d="M108.003,160.697c0,0,1.553,5.35,5.756,4.451c0,0,5.38-1.066,7.062,2.296c0,0,4.203,8.989,9.584,2.897
		c0,0,4.54-3.57,8.407-2.393c0,0,10.665,1.195,14.244-10.247L108.003,160.697z"/>
	<path fill="#D3EDF2" d="M149.919,163.49c0,0,6.737-5.704,10.075-16.04C159.995,147.45,145.551,156.717,149.919,163.49z"/>
	<g>
		<ellipse fill="#D3EDF2" cx="125.57" cy="182.241" rx="2.816" ry="2.858"/>
		<path fill="#D3EDF2" d="M122.754,182.241c0,0,0.168-1.934,2.816-6.305c0,0,3.153,4.035,2.816,7.146L122.754,182.241z"/>
	</g>
	<g>
		<ellipse fill="#D3EDF2" cx="125.558" cy="206.861" rx="2.816" ry="2.858"/>
		<path fill="#D3EDF2" d="M122.742,206.861c0,0,0.168-1.934,2.816-6.305c0,0,3.153,4.035,2.816,7.146L122.742,206.861z"/>
	</g>
	<g>
		<ellipse fill="#8FD6E4" cx="218.615" cy="176.524" rx="2.816" ry="2.858"/>
		<path fill="#8FD6E4" d="M215.798,176.524c0,0,0.168-1.934,2.816-6.305c0,0,3.153,4.035,2.816,7.146L215.798,176.524z"/>
	</g>
	<g>
		<ellipse fill="#8FD6E4" cx="212.962" cy="180.581" rx="1.753" ry="1.779"/>
		<path fill="#8FD6E4" d="M211.209,180.581c0,0,0.105-1.203,1.753-3.924c0,0,1.962,2.511,1.753,4.447L211.209,180.581z"/>
	</g>
	<path fill="#8FD6E4" d="M233.41,155.47c0,0,4.881,6.744,10.262,0c0,0,0.808-3.83,3.318-3.83c0,0,4.164-1.508,0.647-6.235
		c0,0,0.536-2.799-3.06-6.016L233.41,155.47z"/>
	<path fill="#8FD6E4" d="M198.526,161.049c0,0,0.646,4.861,5.354,4.031c0,0,2.69-4.033,7.734-1.591c0,0,7.833,10.211,6.943-5.023
		L198.526,161.049z"/>
	<path fill="#8FD6E4" d="M205.076,69.415c0,0,37.202-1.138,40.197,38.694L205.076,69.415z"/>
	<path fill="#8FD6E4" d="M198.526,67.712c0,0,15.623-7.129,27.47,7.126l-7.369,9.548L198.526,67.712z"/>
	<path fill="#8FD6E4" d="M246.586,130.364c0,0,5.068,5.435,0.404,11.338l-5.761,4.962l-1.817-9.551L246.586,130.364z"/>
	<path opacity="0.3" fill="#FFFFFF" d="M150.076,83.334c0,0,18.719-16.141,45.733-13.675
		C195.809,69.659,166.778,62.261,150.076,83.334z"/>
	<path opacity="0.3" fill="#FFFFFF" d="M85.005,89.838c0,0,17.344-15.281,41.816-12.34C126.82,77.497,100.624,69.731,85.005,89.838z
		"/>
	<path fill="#3BC3D8" d="M121.79,61.469c0,0,2.169-8.199,12.145-7.325l3.363,12.292L121.79,61.469z"/>
	<g>
		<g>
			<g>
				<path fill="#4FC7E5" d="M103.877,82.342c0.322,0,1.657-0.621,0.932-0.621C104.488,81.721,103.152,82.342,103.877,82.342
					L103.877,82.342z"/>
			</g>
		</g>
		<g>
			<g>
				<path fill="#4FC7E5" d="M113.294,83.691c0.326,0,1.659-0.628,0.93-0.628C113.897,83.063,112.565,83.691,113.294,83.691
					L113.294,83.691z"/>
			</g>
		</g>
		<g>
			<g>
				<path fill="#4FC7E5" d="M98.828,84.06c0.297,0,1.649-0.581,0.942-0.581C99.473,83.478,98.122,84.06,98.828,84.06L98.828,84.06z"
					/>
			</g>
		</g>
		<g>
			<g>
				<path fill="#4FC7E5" d="M91.077,88.9c0.631,0,1.507-0.958,0.527-0.958C90.974,87.942,90.097,88.9,91.077,88.9L91.077,88.9z"/>
			</g>
		</g>
		<g>
			<g>
				<path fill="#4FC7E5" d="M113.687,89.258c0.806,0,1.13-1.002,0.144-1.002C113.025,88.256,112.701,89.258,113.687,89.258
					L113.687,89.258z"/>
			</g>
		</g>
		<g>
			<g>
				<path fill="#4FC7E5" d="M109.529,85.041c0.423,0,1.58-0.639,0.613-0.639C109.719,84.402,108.563,85.041,109.529,85.041
					L109.529,85.041z"/>
			</g>
		</g>
		<g>
			<g>
				<path fill="#4FC7E5" d="M124.917,82.132c0.576,0,1.53-0.874,0.55-0.874C124.891,81.259,123.937,82.132,124.917,82.132
					L124.917,82.132z"/>
			</g>
		</g>
		<g>
			<g>
				<path fill="#4FC7E5" d="M124.909,88.828c0.536,0,1.545-0.813,0.566-0.813C124.939,88.014,123.93,88.828,124.909,88.828
					L124.909,88.828z"/>
			</g>
		</g>
		<g>
			<g>
				<path fill="#4FC7E5" d="M118.51,89.799c0.487,0,1.561-0.739,0.586-0.739C118.608,89.06,117.535,89.799,118.51,89.799
					L118.51,89.799z"/>
			</g>
		</g>
		<g>
			<g>
				<path fill="#4FC7E5" d="M118.739,83.574c0.83,0,1.11-1.066,0.127-1.066C118.036,82.507,117.757,83.574,118.739,83.574
					L118.739,83.574z"/>
			</g>
		</g>
		<g>
			<g>
				<path fill="#4FC7E5" d="M98.105,90.148c0.322,0,1.657-0.621,0.932-0.621C98.715,89.527,97.379,90.148,98.105,90.148
					L98.105,90.148z"/>
			</g>
		</g>
		<g>
			<g>
				<path fill="#4FC7E5" d="M86.468,90.868c0.565,0,1.534-0.858,0.554-0.858C86.456,90.009,85.488,90.868,86.468,90.868
					L86.468,90.868z"/>
			</g>
		</g>
		<g>
			<g>
				<path fill="#4FC7E5" d="M96.633,86.724c0.838,0,1.103-1.089,0.121-1.089C95.915,85.634,95.651,86.724,96.633,86.724
					L96.633,86.724z"/>
			</g>
		</g>
		<g>
			<g>
				<path fill="#4FC7E5" d="M93.359,91.662c0.843,0,1.099-1.102,0.118-1.102C92.634,90.56,92.378,91.662,93.359,91.662
					L93.359,91.662z"/>
			</g>
		</g>
		<g>
			<g>
				<path fill="#4FC7E5" d="M108.575,81.294c0.274,0,1.639-0.542,0.953-0.542C109.254,80.752,107.888,81.294,108.575,81.294
					L108.575,81.294z"/>
			</g>
		</g>
		<g>
			<g>
				<path fill="#4FC7E5" d="M108.99,90.979c0.836,0,1.105-1.082,0.123-1.082C108.277,89.898,108.007,90.979,108.99,90.979
					L108.99,90.979z"/>
			</g>
		</g>
		<g>
			<g>
				<path fill="#4FC7E5" d="M121.52,79.88c0.599,0,1.521-0.909,0.54-0.909C121.461,78.971,120.539,79.88,121.52,79.88L121.52,79.88z
					"/>
			</g>
		</g>
		<g>
			<g>
				<path fill="#4FC7E5" d="M133.463,96.106c0.292,0,1.647-0.574,0.944-0.574C134.115,95.532,132.76,96.106,133.463,96.106
					L133.463,96.106z"/>
			</g>
		</g>
		<g>
			<g>
				<path fill="#4FC7E5" d="M120.216,96.618c0.61,0,1.516-0.926,0.536-0.926C120.142,95.692,119.236,96.618,120.216,96.618
					L120.216,96.618z"/>
			</g>
		</g>
		<g>
			<g>
				<path fill="#4FC7E5" d="M110,94.347c0.839,0,1.102-1.091,0.121-1.091C109.281,93.256,109.018,94.347,110,94.347L110,94.347z"/>
			</g>
		</g>
		<g>
			<g>
				<path fill="#4FC7E5" d="M100.792,96.117c0.307,0,1.652-0.597,0.938-0.597C101.423,95.52,100.078,96.117,100.792,96.117
					L100.792,96.117z"/>
			</g>
		</g>
		<g>
			<g>
				<path fill="#4FC7E5" d="M90.477,97.398c0.297,0,1.649-0.581,0.942-0.581C91.123,96.817,89.771,97.398,90.477,97.398
					L90.477,97.398z"/>
			</g>
		</g>
		<g>
			<g>
				<path fill="#4FC7E5" d="M132.532,92.336c0.844,0,1.098-1.104,0.117-1.104C131.805,91.231,131.55,92.336,132.532,92.336
					L132.532,92.336z"/>
			</g>
		</g>
		<g>
			<path fill="#4FC7E5" d="M166.554,88.757"/>
		</g>
		<g>
			<g>
				<path fill="#4FC7E5" d="M129.287,84.815c0.565,0,1.534-0.858,0.554-0.858C129.275,83.956,128.306,84.815,129.287,84.815
					L129.287,84.815z"/>
			</g>
		</g>
		<g>
			<g>
				<path fill="#4FC7E5" d="M141.363,91.43c0.422,0,1.58-0.638,0.613-0.638C141.554,90.792,140.396,91.43,141.363,91.43
					L141.363,91.43z"/>
			</g>
		</g>
		<g>
			<g>
				<path fill="#4FC7E5" d="M139.849,97.437c0.276,0,1.641-0.547,0.952-0.547C140.524,96.891,139.16,97.437,139.849,97.437
					L139.849,97.437z"/>
			</g>
		</g>
		<g>
			<g>
				<path fill="#4FC7E5" d="M146.309,98.688c0.817,0,1.121-1.031,0.137-1.031C145.628,97.657,145.325,98.688,146.309,98.688
					L146.309,98.688z"/>
			</g>
		</g>
		<g>
			<g>
				<path fill="#4FC7E5" d="M137.02,86.156c0.561,0,1.536-0.851,0.556-0.851C137.015,85.305,136.04,86.156,137.02,86.156
					L137.02,86.156z"/>
			</g>
		</g>
		<g>
			<g>
				<path fill="#4FC7E5" d="M81.194,101.271c0.538,0,1.544-0.816,0.565-0.816C81.221,100.455,80.215,101.271,81.194,101.271
					L81.194,101.271z"/>
			</g>
		</g>
		<g>
			<g>
				<path fill="#4FC7E5" d="M71.772,100.91c0.505,0,1.556-0.766,0.579-0.766C71.846,100.144,70.795,100.91,71.772,100.91
					L71.772,100.91z"/>
			</g>
		</g>
		<g>
			<g>
				<path fill="#4FC7E5" d="M72.006,105.799c0.853,0,1.091-1.129,0.11-1.129C71.264,104.67,71.026,105.799,72.006,105.799
					L72.006,105.799z"/>
			</g>
		</g>
		<g>
			<g>
				<path fill="#4FC7E5" d="M95.531,102.721c0.815,0,1.123-1.025,0.138-1.025C94.854,101.695,94.547,102.721,95.531,102.721
					L95.531,102.721z"/>
			</g>
		</g>
		<g>
			<g>
				<path fill="#4FC7E5" d="M117.19,113.432c0.611,0,1.516-0.927,0.535-0.927C117.115,112.505,116.21,113.432,117.19,113.432
					L117.19,113.432z"/>
			</g>
		</g>
		<g>
			<g>
				<path fill="#4FC7E5" d="M107.065,106.569c0.431,0,1.577-0.652,0.609-0.652C107.243,105.917,106.097,106.569,107.065,106.569
					L107.065,106.569z"/>
			</g>
		</g>
		<g>
			<g>
				<path fill="#4FC7E5" d="M116.653,104.863c0.309,0,1.653-0.602,0.937-0.602C117.281,104.261,115.937,104.863,116.653,104.863
					L116.653,104.863z"/>
			</g>
		</g>
		<g>
			<g>
				<path fill="#4FC7E5" d="M131.948,82.352c0.423,0,1.579-0.64,0.612-0.64C132.137,81.712,130.981,82.352,131.948,82.352
					L131.948,82.352z"/>
			</g>
		</g>
		<g>
			<g>
				<path fill="#4FC7E5" d="M132.29,106.585c0.451,0,1.572-0.684,0.601-0.684C132.439,105.901,131.318,106.585,132.29,106.585
					L132.29,106.585z"/>
			</g>
		</g>
		<g>
			<g>
				<path fill="#4FC7E5" d="M127.154,100.416c0.851,0,1.092-1.124,0.112-1.124C126.415,99.292,126.173,100.416,127.154,100.416
					L127.154,100.416z"/>
			</g>
		</g>
		<g>
			<g>
				<path fill="#4FC7E5" d="M150.487,91.934c0.641,0,1.503-0.974,0.523-0.974C150.369,90.96,149.508,91.934,150.487,91.934
					L150.487,91.934z"/>
			</g>
		</g>
		<g>
			<g>
				<path fill="#4FC7E5" d="M147.422,92.126c0.452,0,1.572-0.685,0.6-0.685C147.571,91.441,146.451,92.126,147.422,92.126
					L147.422,92.126z"/>
			</g>
		</g>
		<g opacity="0.5">
			
				<image overflow="visible" width="306" height="304" xlink:href="432F4646459C2598.png"  transform="matrix(0.24 0 0 0.24 120.2167 49.2993)">
			</image>
		</g>
		<g opacity="0.5">
			
				<image overflow="visible" width="306" height="304" xlink:href="432F4646459C259E.png"  transform="matrix(0.24 0 0 0.24 132.3206 49.285)">
			</image>
		</g>
		<g>
			
				<image overflow="visible" width="306" height="304" xlink:href="432F4646459C259A.png"  transform="matrix(0.24 0 0 0.24 137.4774 58.9291)">
			</image>
		</g>
		<g>
			<g>
				<path fill="#4FC7E5" d="M190.256,79.998c0.839,0,1.103-1.09,0.121-1.09C189.538,78.909,189.275,79.998,190.256,79.998
					L190.256,79.998z"/>
			</g>
		</g>
		<g>
			<g>
				<path fill="#4FC7E5" d="M170.304,84.784c0.525,0,1.549-0.798,0.57-0.798C170.348,83.987,169.325,84.784,170.304,84.784
					L170.304,84.784z"/>
			</g>
		</g>
		<g>
			<g>
				<path fill="#4FC7E5" d="M175.049,81.535c0.293,0,1.648-0.576,0.944-0.576C175.699,80.959,174.345,81.535,175.049,81.535
					L175.049,81.535z"/>
			</g>
		</g>
		<g>
			<g>
				<path fill="#4FC7E5" d="M173.205,77.259c0.802,0,1.133-0.991,0.147-0.991C172.55,76.268,172.219,77.259,173.205,77.259
					L173.205,77.259z"/>
			</g>
		</g>
		<g>
			<g>
				<path fill="#4FC7E5" d="M185.323,85.598c0.835,0,1.106-1.08,0.123-1.08C184.611,84.518,184.341,85.598,185.323,85.598
					L185.323,85.598z"/>
			</g>
		</g>
		<g>
			<g>
				<path fill="#4FC7E5" d="M185.099,78.727c0.52,0,1.551-0.789,0.572-0.789C185.151,77.938,184.12,78.727,185.099,78.727
					L185.099,78.727z"/>
			</g>
		</g>
		<g>
			<g>
				<path fill="#4FC7E5" d="M201.937,72.99c0.639,0,1.503-0.971,0.524-0.971C201.821,72.018,200.957,72.99,201.937,72.99
					L201.937,72.99z"/>
			</g>
		</g>
		<g>
			<g>
				<path fill="#4FC7E5" d="M202.126,79.506c0.806,0,1.13-1.001,0.145-1.001C201.465,78.505,201.14,79.506,202.126,79.506
					L202.126,79.506z"/>
			</g>
		</g>
		<g>
			<g>
				<path fill="#4FC7E5" d="M214.255,73.17c0.583,0,1.527-0.884,0.547-0.884C214.219,72.286,213.274,73.17,214.255,73.17
					L214.255,73.17z"/>
			</g>
		</g>
		<g>
			<g>
				<path fill="#4FC7E5" d="M211.541,69.945c0.468,0,1.567-0.71,0.594-0.71C211.667,69.235,210.568,69.945,211.541,69.945
					L211.541,69.945z"/>
			</g>
		</g>
		<g>
			<g>
				<path fill="#4FC7E5" d="M215.141,83.218c0.529,0,1.548-0.803,0.569-0.803C215.181,82.415,214.162,83.218,215.141,83.218
					L215.141,83.218z"/>
			</g>
		</g>
		<g>
			<g>
				<path fill="#4FC7E5" d="M171.201,92.634c0.53,0,1.547-0.804,0.568-0.804C171.24,91.83,170.223,92.634,171.201,92.634
					L171.201,92.634z"/>
			</g>
		</g>
		<g>
			<g>
				<path fill="#4FC7E5" d="M162.893,91.236c0.461,0,1.569-0.699,0.596-0.699C163.028,90.537,161.92,91.236,162.893,91.236
					L162.893,91.236z"/>
			</g>
		</g>
		<g>
			<g>
				<path fill="#4FC7E5" d="M162.912,82.566c0.556,0,1.538-0.844,0.558-0.844C162.913,81.722,161.932,82.566,162.912,82.566
					L162.912,82.566z"/>
			</g>
		</g>
		<g>
			<g>
				<path fill="#4FC7E5" d="M153.498,87.279c0.564,0,1.535-0.856,0.555-0.856C153.489,86.424,152.518,87.279,153.498,87.279
					L153.498,87.279z"/>
			</g>
		</g>
		<g>
			<g>
				<path fill="#4FC7E5" d="M160.012,96.52c0.628,0,1.509-0.953,0.528-0.953C159.913,95.566,159.032,96.52,160.012,96.52
					L160.012,96.52z"/>
			</g>
		</g>
		<g>
			<g>
				<path fill="#4FC7E5" d="M188.502,89.39c0.304,0,1.651-0.592,0.939-0.592C189.138,88.797,187.79,89.39,188.502,89.39
					L188.502,89.39z"/>
			</g>
		</g>
		<g>
			<g>
				<path fill="#4FC7E5" d="M179.474,88.964c0.423,0,1.58-0.639,0.613-0.639C179.664,88.326,178.507,88.964,179.474,88.964
					L179.474,88.964z"/>
			</g>
		</g>
		<g>
			<g>
				<path fill="#4FC7E5" d="M180.827,74.646c0.46,0,1.569-0.697,0.597-0.697C180.964,73.949,179.854,74.646,180.827,74.646
					L180.827,74.646z"/>
			</g>
		</g>
		<g>
			<g>
				<path fill="#4FC7E5" d="M195.428,74.309c0.606,0,1.518-0.919,0.537-0.919C195.36,73.389,194.448,74.309,195.428,74.309
					L195.428,74.309z"/>
			</g>
		</g>
		<g>
			<g>
				<path fill="#4FC7E5" d="M184.88,94.216c0.547,0,1.541-0.83,0.561-0.83C184.895,93.386,183.9,94.216,184.88,94.216L184.88,94.216
					z"/>
			</g>
		</g>
		<g>
			<g>
				<path fill="#4FC7E5" d="M204.401,86.66c0.634,0,1.506-0.962,0.526-0.962C204.294,85.698,203.421,86.66,204.401,86.66
					L204.401,86.66z"/>
			</g>
		</g>
		<g>
			<g>
				<path fill="#4FC7E5" d="M222.522,77.102c0.448,0,1.573-0.678,0.602-0.678C222.677,76.424,221.551,77.102,222.522,77.102
					L222.522,77.102z"/>
			</g>
		</g>
		<g>
			<g>
				<path fill="#4FC7E5" d="M222.35,88.254c0.286,0,1.645-0.564,0.947-0.564C223.01,87.69,221.652,88.254,222.35,88.254
					L222.35,88.254z"/>
			</g>
		</g>
		<g>
			<g>
				<path fill="#4FC7E5" d="M218.516,96.493c0.593,0,1.523-0.899,0.543-0.899C218.467,95.593,217.536,96.493,218.516,96.493
					L218.516,96.493z"/>
			</g>
		</g>
		<g>
			<g>
				<path fill="#4FC7E5" d="M204.594,96.552c0.812,0,1.125-1.019,0.14-1.019C203.922,95.534,203.609,96.552,204.594,96.552
					L204.594,96.552z"/>
			</g>
		</g>
		<g>
			<g>
				<path fill="#4FC7E5" d="M200.557,90.572c0.472,0,1.566-0.716,0.592-0.716C200.677,89.856,199.583,90.572,200.557,90.572
					L200.557,90.572z"/>
			</g>
		</g>
		<g>
			<g>
				<path fill="#4FC7E5" d="M193.876,100.351c0.276,0,1.64-0.546,0.952-0.546C194.552,99.805,193.188,100.351,193.876,100.351
					L193.876,100.351z"/>
			</g>
		</g>
		<g>
			<g>
				<path fill="#4FC7E5" d="M195.229,83.567c0.312,0,1.654-0.605,0.936-0.605C195.853,82.962,194.511,83.567,195.229,83.567
					L195.229,83.567z"/>
			</g>
		</g>
		<g>
			<g>
				<path fill="#4FC7E5" d="M210.676,78.133c0.623,0,1.511-0.946,0.53-0.946C210.583,77.187,209.696,78.133,210.676,78.133
					L210.676,78.133z"/>
			</g>
		</g>
		<g>
			<g>
				<path fill="#4FC7E5" d="M210.455,91.369c0.636,0,1.505-0.965,0.525-0.965C210.344,90.404,209.475,91.369,210.455,91.369
					L210.455,91.369z"/>
			</g>
		</g>
		<g>
			<g>
				<path fill="#4FC7E5" d="M227.687,83.86c0.489,0,1.561-0.741,0.585-0.741C227.783,83.118,226.711,83.86,227.687,83.86
					L227.687,83.86z"/>
			</g>
		</g>
		<g>
			<g>
				<path fill="#4FC7E5" d="M227.672,90.531c0.42,0,1.58-0.634,0.614-0.634C227.867,89.897,226.706,90.531,227.672,90.531
					L227.672,90.531z"/>
			</g>
		</g>
		<g>
			<g>
				<path fill="#4FC7E5" d="M171.428,106.239c0.847,0,1.095-1.113,0.115-1.113C170.696,105.126,170.447,106.239,171.428,106.239
					L171.428,106.239z"/>
			</g>
		</g>
		<g>
			<g>
				<path fill="#4FC7E5" d="M181.55,104.625c0.292,0,1.647-0.574,0.944-0.574C182.202,104.051,180.847,104.625,181.55,104.625
					L181.55,104.625z"/>
			</g>
		</g>
		<g>
			<g>
				<path fill="#4FC7E5" d="M204.197,69.222c0.315,0,1.655-0.611,0.934-0.611C204.817,68.612,203.477,69.222,204.197,69.222
					L204.197,69.222z"/>
			</g>
		</g>
		<g>
			<g>
				<path fill="#4FC7E5" d="M233.336,97.451c0.293,0,1.647-0.574,0.944-0.574C233.987,96.877,232.633,97.451,233.336,97.451
					L233.336,97.451z"/>
			</g>
		</g>
		<g>
			<g>
				<path fill="#4FC7E5" d="M233.34,89.396c0.311,0,1.654-0.604,0.936-0.604C233.965,88.791,232.622,89.396,233.34,89.396
					L233.34,89.396z"/>
			</g>
		</g>
		<g>
			<g>
				<path fill="#4FC7E5" d="M207.971,102.88c0.849,0,1.094-1.119,0.113-1.119C207.235,101.761,206.99,102.88,207.971,102.88
					L207.971,102.88z"/>
			</g>
		</g>
		<g>
			<g>
				<path fill="#4FC7E5" d="M169.222,103.511c0.301,0,1.65-0.589,0.94-0.589C169.861,102.923,168.512,103.511,169.222,103.511
					L169.222,103.511z"/>
			</g>
		</g>
		<g>
			<g>
				<path fill="#4FC7E5" d="M176.56,100.175c0.425,0,1.579-0.642,0.612-0.642C176.747,99.533,175.593,100.175,176.56,100.175
					L176.56,100.175z"/>
			</g>
		</g>
		<g>
			<g>
				<path fill="#4FC7E5" d="M175.476,90.899c0.607,0,1.518-0.921,0.537-0.921C175.407,89.978,174.496,90.899,175.476,90.899
					L175.476,90.899z"/>
			</g>
		</g>
		<g>
			<g>
				<path fill="#4FC7E5" d="M179.955,81.242c0.584,0,1.527-0.886,0.546-0.886C179.918,80.356,178.975,81.242,179.955,81.242
					L179.955,81.242z"/>
			</g>
		</g>
		<g>
			<g>
				<path fill="#4FC7E5" d="M197.226,92.708c0.627,0,1.509-0.952,0.529-0.952C197.128,91.756,196.246,92.708,197.226,92.708
					L197.226,92.708z"/>
			</g>
		</g>
		<g>
			<g>
				<path fill="#4FC7E5" d="M191.412,96.325c0.286,0,1.645-0.563,0.947-0.563C192.073,95.761,190.715,96.325,191.412,96.325
					L191.412,96.325z"/>
			</g>
		</g>
		<g>
			<g>
				<path fill="#4FC7E5" d="M210.249,84.015c0.311,0,1.654-0.605,0.936-0.605C210.874,83.411,209.531,84.015,210.249,84.015
					L210.249,84.015z"/>
			</g>
		</g>
		<g>
			<g>
				<path fill="#4FC7E5" d="M206.636,76.993c0.598,0,1.521-0.907,0.541-0.907C206.579,76.086,205.655,76.993,206.636,76.993
					L206.636,76.993z"/>
			</g>
		</g>
		<g>
			<g>
				<path fill="#4FC7E5" d="M218.27,78.922c0.481,0,1.563-0.73,0.588-0.73C218.377,78.192,217.295,78.922,218.27,78.922
					L218.27,78.922z"/>
			</g>
		</g>
		<g>
			<g>
				<path fill="#4FC7E5" d="M214.229,90.334c0.454,0,1.571-0.688,0.6-0.688C214.374,89.646,213.257,90.334,214.229,90.334
					L214.229,90.334z"/>
			</g>
		</g>
		<g>
			<g>
				<path fill="#4FC7E5" d="M216.978,71.922c0.327,0,1.659-0.629,0.93-0.629C217.581,71.293,216.249,71.922,216.978,71.922
					L216.978,71.922z"/>
			</g>
		</g>
		<g>
			<g>
				<path fill="#4FC7E5" d="M222.989,98.39c0.845,0,1.097-1.107,0.116-1.107C222.26,97.283,222.008,98.39,222.989,98.39
					L222.989,98.39z"/>
			</g>
		</g>
		<g>
			<g>
				<path fill="#4FC7E5" d="M221.859,92.382c0.494,0,1.559-0.749,0.583-0.749C221.948,91.633,220.883,92.382,221.859,92.382
					L221.859,92.382z"/>
			</g>
		</g>
		<g>
			<g>
				<path fill="#4FC7E5" d="M166.927,96.389c0.457,0,1.57-0.693,0.598-0.693C167.068,95.696,165.955,96.389,166.927,96.389
					L166.927,96.389z"/>
			</g>
		</g>
		<g>
			<g>
				<path fill="#D3EDF2" d="M113.027,74.848c0.843,0,1.099-1.101,0.118-1.101C112.302,73.747,112.046,74.848,113.027,74.848
					L113.027,74.848z"/>
			</g>
		</g>
		<g>
			<g>
				<path fill="#4FC7E5" d="M102.056,85.179c0.602,0,1.52-0.914,0.539-0.914C101.993,84.265,101.076,85.179,102.056,85.179
					L102.056,85.179z"/>
			</g>
		</g>
		<g>
			<g>
				<path fill="#4FC7E5" d="M115.346,80.384c0.635,0,1.506-0.964,0.526-0.964C115.237,79.42,114.366,80.384,115.346,80.384
					L115.346,80.384z"/>
			</g>
		</g>
		<g>
			<g>
				<path fill="#4FC7E5" d="M105.911,87.15c0.541,0,1.543-0.821,0.564-0.821C105.934,86.329,104.931,87.15,105.911,87.15
					L105.911,87.15z"/>
			</g>
		</g>
		<g>
			<g>
				<path fill="#4FC7E5" d="M105.609,97.158c0.437,0,1.576-0.662,0.606-0.662C105.779,96.497,104.64,97.158,105.609,97.158
					L105.609,97.158z"/>
			</g>
		</g>
		<g>
			<g>
				<path fill="#4FC7E5" d="M140.691,87.398c0.426,0,1.579-0.645,0.611-0.645C140.876,86.753,139.724,87.398,140.691,87.398
					L140.691,87.398z"/>
			</g>
		</g>
		<g>
			<g>
				<path fill="#4FC7E5" d="M130.07,80.325c0.558,0,1.537-0.847,0.557-0.847C130.069,79.479,129.09,80.325,130.07,80.325
					L130.07,80.325z"/>
			</g>
		</g>
		<g>
			<g>
				<path fill="#4FC7E5" d="M126.628,105.418c0.303,0,1.651-0.591,0.94-0.591C127.265,104.827,125.917,105.418,126.628,105.418
					L126.628,105.418z"/>
			</g>
		</g>
		<g>
			<g>
				<path fill="#4FC7E5" d="M108.995,102.85c0.551,0,1.54-0.836,0.56-0.836C109.005,102.014,108.015,102.85,108.995,102.85
					L108.995,102.85z"/>
			</g>
		</g>
		<g>
			<g>
				<path fill="#4FC7E5" d="M82.66,95.139c0.582,0,1.528-0.883,0.547-0.883C82.626,94.256,81.68,95.139,82.66,95.139L82.66,95.139z"
					/>
			</g>
		</g>
		<g>
			<g>
				<path fill="#4FC7E5" d="M76.079,98.484c0.322,0,1.657-0.622,0.931-0.622C76.688,97.862,75.353,98.484,76.079,98.484
					L76.079,98.484z"/>
			</g>
		</g>
		<g>
			<g>
				<path fill="#4FC7E5" d="M153.864,95.435c0.295,0,1.648-0.578,0.943-0.578C154.512,94.857,153.159,95.435,153.864,95.435
					L153.864,95.435z"/>
			</g>
		</g>
		<g>
			<g>
				<path fill="#4FC7E5" d="M154.18,100.319c0.612,0,1.515-0.929,0.535-0.929C154.103,99.39,153.2,100.319,154.18,100.319
					L154.18,100.319z"/>
			</g>
		</g>
		<path opacity="0.4" fill="#D3EDF2" d="M122.166,63.2c0,0-8.519,3.923-12.106,11.097C110.06,74.297,112.078,64.77,122.166,63.2z"/>
	</g>
	<path opacity="0.4" fill="#D3EDF2" d="M135.112,54.079c0,0,5.997-7.37,16.477-3.496C151.589,50.583,142.398,48.376,135.112,54.079z
		"/>
	<g>
		<g>
			<g>
				<path fill="#D3EDF2" d="M140.359,53.787c0.446,0,1.573-0.676,0.603-0.676C140.515,53.11,139.389,53.787,140.359,53.787
					L140.359,53.787z"/>
			</g>
		</g>
		<g>
			<g>
				<path fill="#D3EDF2" d="M136.19,58.957c0.612,0,1.515-0.929,0.535-0.929C136.112,58.028,135.209,58.957,136.19,58.957
					L136.19,58.957z"/>
			</g>
		</g>
		<g>
			<g>
				<path fill="#D3EDF2" d="M146.743,52.548c0.279,0,1.642-0.552,0.95-0.552C147.414,51.996,146.051,52.548,146.743,52.548
					L146.743,52.548z"/>
			</g>
		</g>
		<g>
			<g>
				<path fill="#D3EDF2" d="M127.437,58.583c0.562,0,1.535-0.853,0.555-0.853C127.43,57.73,126.456,58.583,127.437,58.583
					L127.437,58.583z"/>
			</g>
		</g>
		<g>
			<g>
				<path fill="#D3EDF2" d="M125.093,63.665c0.612,0,1.515-0.93,0.535-0.93C125.015,62.736,124.112,63.665,125.093,63.665
					L125.093,63.665z"/>
			</g>
		</g>
		<g>
			<g>
				<path fill="#D3EDF2" d="M144.062,56.996c0.465,0,1.568-0.706,0.595-0.706C144.192,56.29,143.089,56.996,144.062,56.996
					L144.062,56.996z"/>
			</g>
		</g>
		<g>
			<g>
				<path fill="#D3EDF2" d="M151.692,54.815c0.825,0,1.115-1.051,0.131-1.051C150.999,53.764,150.708,54.815,151.692,54.815
					L151.692,54.815z"/>
			</g>
		</g>
		<g>
			<g>
				<path fill="#D3EDF2" d="M158.852,53.401c0.294,0,1.648-0.577,0.944-0.577C159.501,52.824,158.148,53.401,158.852,53.401
					L158.852,53.401z"/>
			</g>
		</g>
		<g>
			<g>
				<path fill="#D3EDF2" d="M138.538,65.66c0.583,0,1.527-0.885,0.547-0.885C138.502,64.776,137.557,65.66,138.538,65.66
					L138.538,65.66z"/>
			</g>
		</g>
		<g>
			<g>
				<path fill="#D3EDF2" d="M131.174,62.529c0.81,0,1.127-1.011,0.142-1.011C130.506,61.518,130.189,62.529,131.174,62.529
					L131.174,62.529z"/>
			</g>
		</g>
		<g>
			<g>
				<path fill="#D3EDF2" d="M164.974,53.299c0.823,0,1.116-1.046,0.132-1.046C164.284,52.253,163.99,53.299,164.974,53.299
					L164.974,53.299z"/>
			</g>
		</g>
		<g>
			<g>
				<path fill="#D3EDF2" d="M173.654,56.997c0.466,0,1.568-0.707,0.594-0.707C173.782,56.289,172.681,56.997,173.654,56.997
					L173.654,56.997z"/>
			</g>
		</g>
		<g>
			<g>
				<path fill="#D3EDF2" d="M151.288,57.483c0.443,0,1.574-0.672,0.604-0.672C151.448,56.812,150.317,57.483,151.288,57.483
					L151.288,57.483z"/>
			</g>
		</g>
		<g>
			<g>
				<path fill="#D3EDF2" d="M145.737,61.973c0.291,0,1.647-0.572,0.945-0.572C146.391,61.401,145.035,61.973,145.737,61.973
					L145.737,61.973z"/>
			</g>
		</g>
		<g>
			<g>
				<path fill="#D3EDF2" d="M159.094,62.06c0.836,0,1.105-1.082,0.123-1.082C158.381,60.978,158.112,62.06,159.094,62.06
					L159.094,62.06z"/>
			</g>
		</g>
		<g>
			<g>
				<path fill="#D3EDF2" d="M123.401,66.651c0.558,0,1.537-0.847,0.557-0.847C123.399,65.803,122.42,66.651,123.401,66.651
					L123.401,66.651z"/>
			</g>
		</g>
		<g>
			<g>
				<path fill="#D3EDF2" d="M117.319,71.378c0.279,0,1.642-0.551,0.95-0.551C117.991,70.827,116.628,71.378,117.319,71.378
					L117.319,71.378z"/>
			</g>
		</g>
		<g>
			<g>
				<path fill="#D3EDF2" d="M120.016,67.984c0.308,0,1.653-0.6,0.937-0.6C120.644,67.384,119.3,67.984,120.016,67.984
					L120.016,67.984z"/>
			</g>
		</g>
		<g>
			<g>
				<path fill="#D3EDF2" d="M158.048,56.942c0.615,0,1.514-0.933,0.534-0.933C157.967,56.008,157.068,56.942,158.048,56.942
					L158.048,56.942z"/>
			</g>
		</g>
		<g>
			<g>
				<path fill="#D3EDF2" d="M121.864,71.439c0.444,0,1.574-0.672,0.604-0.672C122.024,70.767,120.894,71.439,121.864,71.439
					L121.864,71.439z"/>
			</g>
		</g>
		<g>
			<g>
				<path fill="#D3EDF2" d="M131.949,58.314c0.431,0,1.577-0.652,0.609-0.652C132.128,57.662,130.981,58.314,131.949,58.314
					L131.949,58.314z"/>
			</g>
		</g>
		<g>
			<g>
				<path fill="#D3EDF2" d="M124.461,60.949c0.843,0,1.099-1.102,0.118-1.102C123.736,59.847,123.479,60.949,124.461,60.949
					L124.461,60.949z"/>
			</g>
		</g>
		<g>
			<g>
				<path fill="#D3EDF2" d="M131.588,68.126c0.582,0,1.528-0.883,0.547-0.883C131.553,67.242,130.607,68.126,131.588,68.126
					L131.588,68.126z"/>
			</g>
		</g>
		<g>
			<g>
				<path fill="#D3EDF2" d="M127.773,71.305c0.562,0,1.536-0.853,0.555-0.853C127.766,70.452,126.793,71.305,127.773,71.305
					L127.773,71.305z"/>
			</g>
		</g>
		<g>
			<g>
				<path fill="#D3EDF2" d="M140.086,60.705c0.478,0,1.564-0.725,0.589-0.725C140.197,59.979,139.111,60.705,140.086,60.705
					L140.086,60.705z"/>
			</g>
		</g>
		<g>
			<g>
				<path fill="#D3EDF2" d="M163.568,57.899c0.473,0,1.566-0.717,0.592-0.717C163.686,57.181,162.594,57.899,163.568,57.899
					L163.568,57.899z"/>
			</g>
		</g>
		<g>
			<g>
				<path fill="#D3EDF2" d="M154.607,52.799c0.826,0,1.114-1.054,0.13-1.054C153.912,51.745,153.623,52.799,154.607,52.799
					L154.607,52.799z"/>
			</g>
		</g>
		<g>
			<g>
				<path fill="#D3EDF2" d="M168.834,58.06c0.464,0,1.568-0.704,0.595-0.704C168.965,57.356,167.861,58.06,168.834,58.06
					L168.834,58.06z"/>
			</g>
		</g>
		<g>
			<g>
				<path fill="#D3EDF2" d="M146.757,69.454c0.486,0,1.562-0.737,0.586-0.737C146.857,68.717,145.781,69.454,146.757,69.454
					L146.757,69.454z"/>
			</g>
		</g>
		<g>
			<g>
				<path fill="#D3EDF2" d="M148.535,64.54c0.547,0,1.541-0.83,0.561-0.83C148.549,63.71,147.555,64.54,148.535,64.54L148.535,64.54
					z"/>
			</g>
		</g>
	</g>
</g>
<path opacity="0.2" fill="#FFFFFF" enable-background="new    " d="M68.777,293.405L235.093,19.839
	c0,0-105.241-61.04-196.574,36.627c0,0-42.667,46.667-38.19,113.812C0.329,170.278,0.57,245.665,68.777,293.405z"/>
</svg>
