<?xml version="1.0" encoding="utf-8"?>
<!-- Generator: Adobe Illustrator 17.0.0, SVG Export Plug-In . SVG Version: 6.00 Build 0)  -->
<!DOCTYPE svg PUBLIC "-//W3C//DTD SVG 1.1//EN" "http://www.w3.org/Graphics/SVG/1.1/DTD/svg11.dtd">
<svg version="1.1" id="Layer_1" xmlns="http://www.w3.org/2000/svg" xmlns:xlink="http://www.w3.org/1999/xlink" x="0px" y="0px"
	 width="157.044px" height="155.201px" viewBox="0 0 157.044 155.201" enable-background="new 0 0 157.044 155.201"
	 xml:space="preserve">
<g>
	<circle fill="#FFF3E1" cx="78.145" cy="77.333" r="77.333"/>
</g>
<path fill="#FDD9B6" d="M51.063,27.61c0,0,2.815-8.584,12.21-8.683l1.714,10.12l-4.222,4.951L51.063,27.61z"/>
<path fill="#FDD9B6" d="M58.871,27.508c0,0,2.324-16.933,24.373-13.632c0,0,12.162,1.765,15.963,15.482l-6.355,28.697L58.871,27.508
	z"/>
<path fill="#FDD9B6" d="M64.147,18.075c0,0,3.515-8.606,12.428-4.625v6.774L64.147,18.075z"/>
<path fill="#FDE1C4" d="M74.596,76.78c0,0-8.48-0.337-6.713-3.577c0,0-7.362-0.499-3.606-5.301c0,0-2.965-3.627,1.865-4.757
	c0,0-6.564-6.285-4.427-13.377c0,0-3.973-6.023,4.324-9.476c0,0,8.014-19.699,33.01-17.639c0,0,28.038,2.957,30.238,26.73
	c0,0,3.338,15.704-7.54,23.793C121.747,73.175,87.036,84.572,74.596,76.78z"/>
<path fill="#FFEAD4" d="M34.591,72.748c0,0-6.737-1.617-4.77-4.219c0,0-5.814-1.587-1.986-5.268c0,0-1.759-3.682,2.304-3.935
	c0,0-4.189-6.601-1.27-12.568c0,0-2.158-5.967,5.078-7.744c0,0,9.775-16.25,29.452-10.537c0,0,21.962,6.982,19.677,28.437
	c0,0,0.001,14.465-10.092,19.96C72.985,76.872,43.233,81.601,34.591,72.748z"/>
<path fill="#F1F1F2" d="M30.71,75.892l6.284,51.415l0.254,1.111c0.763,5.273,21.74,6.887,21.74,6.887s14.187,1.714,33.515,0.571
	c0,0,31.706-1.523,33.039-9.712l3.999-51.32C129.541,74.844,74.698,85.349,30.71,75.892z"/>
<path fill="#FDD9B6" d="M29.821,68.528c0,0-1.714,2.031,3.745,3.935c0,0,7.807,2.285,16.884,3.364c0,0,14.726,1.27,24.184,1.016
	c0,0,20.312,0.444,34.848-1.523c0,0,13.774-2.158,16.821-3.682c0,0,7.744-2.602,1.968-6.094l0.635-0.889
	c0,0,9.359,4.316,1.506,9.902c0,0-6.012,4.824-26.388,5.776c0,0-17.456,1.143-27.294,0.952c0,0-36.12,1.079-47.163-6.443
	c0,0-5.394-3.079-1.141-7.204L29.821,68.528z"/>
<path fill="#FFEAD4" d="M51.063,75.879c0,0,0.879,3.029,3.26,2.521c0,0,3.047-0.604,3.999,1.3c0,0,2.38,5.09,5.427,1.641
	c0,0,2.571-2.021,4.761-1.355c0,0,6.04,0.677,8.066-5.803L51.063,75.879z"/>
<path fill="#FFEAD4" d="M74.8,77.46c0,0,3.815-3.23,5.706-9.083C80.506,68.377,72.327,73.625,74.8,77.46z"/>
<g>
	<ellipse fill="#FFEAD4" cx="61.012" cy="88.079" rx="1.595" ry="1.619"/>
	<path fill="#FFEAD4" d="M59.417,88.079c0,0,0.095-1.095,1.595-3.57c0,0,1.785,2.285,1.595,4.047L59.417,88.079z"/>
</g>
<g>
	<ellipse fill="#FFEAD4" cx="61.004" cy="102.021" rx="1.595" ry="1.619"/>
	<path fill="#FFEAD4" d="M59.41,102.021c0,0,0.095-1.095,1.595-3.57c0,0,1.785,2.285,1.595,4.047L59.41,102.021z"/>
</g>
<g>
	<ellipse fill="#FDE1C4" cx="113.701" cy="84.842" rx="1.595" ry="1.619"/>
	<path fill="#FDE1C4" d="M112.106,84.842c0,0,0.095-1.095,1.595-3.57c0,0,1.785,2.285,1.595,4.047L112.106,84.842z"/>
</g>
<g>
	<ellipse fill="#FDE1C4" cx="110.5" cy="87.139" rx="0.992" ry="1.007"/>
	<path fill="#FDE1C4" d="M109.507,87.139c0,0,0.059-0.681,0.992-2.222c0,0,1.111,1.422,0.992,2.518L109.507,87.139z"/>
</g>
<path fill="#FDE1C4" d="M122.08,72.919c0,0,2.764,3.819,5.811,0c0,0,0.458-2.169,1.879-2.169c0,0,2.358-0.854,0.367-3.531
	c0,0,0.304-1.585-1.733-3.407L122.08,72.919z"/>
<path fill="#FDE1C4" d="M102.325,76.078c0,0,0.366,2.753,3.032,2.283c0,0,1.523-2.284,4.38-0.901c0,0,4.436,5.782,3.932-2.844
	L102.325,76.078z"/>
<path fill="#FDE1C4" d="M106.034,24.187c0,0,21.067-0.644,22.763,21.912L106.034,24.187z"/>
<path fill="#FDE1C4" d="M102.325,23.223c0,0,8.847-4.037,15.556,4.036l-4.173,5.407L102.325,23.223z"/>
<path fill="#FDE1C4" d="M129.541,58.702c0,0,2.87,3.078,0.229,6.42l-3.262,2.81l-1.029-5.408L129.541,58.702z"/>
<path opacity="0.3" fill="#FFFFFF" d="M74.889,32.069c0,0,10.6-9.14,25.898-7.744C100.787,24.325,84.347,20.136,74.889,32.069z"/>
<path opacity="0.3" fill="#FFFFFF" d="M38.04,35.752c0,0,9.822-8.653,23.68-6.988C61.719,28.764,46.885,24.366,38.04,35.752z"/>
<path fill="#FDD9B6" d="M58.871,19.688c0,0,1.228-4.643,6.878-4.148l1.904,6.961L58.871,19.688z"/>
<g>
	<g>
		<g>
			<path fill="#FDD9B6" d="M48.525,31.642c0.322,0,1.657-0.621,0.932-0.621C49.135,31.021,47.8,31.642,48.525,31.642L48.525,31.642z
				"/>
		</g>
	</g>
	<g>
		<g>
			<path fill="#FDD9B6" d="M53.858,32.408c0.326,0,1.659-0.628,0.93-0.628C54.461,31.779,53.129,32.408,53.858,32.408L53.858,32.408
				z"/>
		</g>
	</g>
	<g>
		<g>
			<path fill="#FDD9B6" d="M45.663,32.606c0.297,0,1.649-0.581,0.942-0.581C46.309,32.025,44.957,32.606,45.663,32.606
				L45.663,32.606z"/>
		</g>
	</g>
	<g>
		<g>
			<path fill="#FDD9B6" d="M41.364,35.429c0.631,0,1.507-0.958,0.527-0.958C41.261,34.471,40.384,35.429,41.364,35.429
				L41.364,35.429z"/>
		</g>
	</g>
	<g>
		<g>
			<path fill="#FDD9B6" d="M54.251,35.642c0.806,0,1.13-1.002,0.144-1.002C53.589,34.639,53.265,35.642,54.251,35.642L54.251,35.642
				z"/>
		</g>
	</g>
	<g>
		<g>
			<path fill="#FDD9B6" d="M51.795,33.175c0.423,0,1.58-0.639,0.613-0.639C51.985,32.536,50.828,33.175,51.795,33.175L51.795,33.175
				z"/>
		</g>
	</g>
	<g>
		<g>
			<path fill="#FDD9B6" d="M60.523,31.578c0.576,0,1.53-0.874,0.55-0.874C60.497,30.705,59.542,31.578,60.523,31.578L60.523,31.578z
				"/>
		</g>
	</g>
	<g>
		<g>
			<path fill="#FDD9B6" d="M60.514,35.357c0.536,0,1.545-0.813,0.566-0.813C60.544,34.543,59.535,35.357,60.514,35.357
				L60.514,35.357z"/>
		</g>
	</g>
	<g>
		<g>
			<path fill="#FDD9B6" d="M56.886,35.891c0.487,0,1.561-0.739,0.586-0.739C56.985,35.152,55.911,35.891,56.886,35.891
				L56.886,35.891z"/>
		</g>
	</g>
	<g>
		<g>
			<path fill="#FDD9B6" d="M57.116,32.436c0.83,0,1.11-1.066,0.127-1.066C56.413,31.37,56.133,32.436,57.116,32.436L57.116,32.436z"
				/>
		</g>
	</g>
	<g>
		<g>
			<path fill="#FDD9B6" d="M45.256,36.063c0.322,0,1.657-0.621,0.932-0.621C45.866,35.442,44.531,36.063,45.256,36.063
				L45.256,36.063z"/>
		</g>
	</g>
	<g>
		<g>
			<path fill="#FDD9B6" d="M38.748,36.522c0.565,0,1.534-0.858,0.554-0.858C38.737,35.663,37.768,36.522,38.748,36.522
				L38.748,36.522z"/>
		</g>
	</g>
	<g>
		<g>
			<path fill="#FDD9B6" d="M44.598,34.225c0.838,0,1.103-1.089,0.121-1.089C43.881,33.136,43.616,34.225,44.598,34.225
				L44.598,34.225z"/>
		</g>
	</g>
	<g>
		<g>
			<path fill="#FDD9B6" d="M42.745,37.024c0.843,0,1.099-1.102,0.118-1.102C42.02,35.923,41.764,37.024,42.745,37.024L42.745,37.024
				z"/>
		</g>
	</g>
	<g>
		<g>
			<path fill="#FDD9B6" d="M51.18,31.032c0.274,0,1.639-0.542,0.953-0.542C51.86,30.49,50.494,31.032,51.18,31.032L51.18,31.032z"/>
		</g>
	</g>
	<g>
		<g>
			<path fill="#FDD9B6" d="M51.595,36.633c0.836,0,1.105-1.082,0.123-1.082C50.883,35.552,50.613,36.633,51.595,36.633
				L51.595,36.633z"/>
		</g>
	</g>
	<g>
		<g>
			<path fill="#FDD9B6" d="M58.601,30.311c0.599,0,1.521-0.909,0.54-0.909C58.542,29.401,57.62,30.311,58.601,30.311L58.601,30.311z
				"/>
		</g>
	</g>
	<g>
		<g>
			<path fill="#FDD9B6" d="M65.276,39.426c0.292,0,1.647-0.574,0.944-0.574C65.928,38.852,64.573,39.426,65.276,39.426
				L65.276,39.426z"/>
		</g>
	</g>
	<g>
		<g>
			<path fill="#FDD9B6" d="M57.864,39.793c0.61,0,1.516-0.926,0.536-0.926C57.789,38.867,56.883,39.793,57.864,39.793L57.864,39.793
				z"/>
		</g>
	</g>
	<g>
		<g>
			<path fill="#FDD9B6" d="M52.168,38.542c0.839,0,1.102-1.091,0.121-1.091C51.449,37.451,51.186,38.542,52.168,38.542
				L52.168,38.542z"/>
		</g>
	</g>
	<g>
		<g>
			<path fill="#FDD9B6" d="M46.776,39.438c0.307,0,1.652-0.597,0.938-0.597C47.408,38.841,46.062,39.438,46.776,39.438
				L46.776,39.438z"/>
		</g>
	</g>
	<g>
		<g>
			<path fill="#FDD9B6" d="M40.934,40.16c0.297,0,1.649-0.581,0.942-0.581C41.58,39.579,40.228,40.16,40.934,40.16L40.934,40.16z"/>
		</g>
	</g>
	<g>
		<g>
			<path fill="#FDD9B6" d="M64.928,37.406c0.844,0,1.098-1.104,0.117-1.104C64.201,36.302,63.947,37.406,64.928,37.406
				L64.928,37.406z"/>
		</g>
	</g>
	<g>
		<g>
			<path fill="#FDD9B6" d="M83.754,35.451c0.321,0,1.657-0.62,0.932-0.62C84.365,34.83,83.029,35.451,83.754,35.451L83.754,35.451z"
				/>
		</g>
	</g>
	<g>
		<g>
			<path fill="#FDD9B6" d="M62.996,33.094c0.565,0,1.534-0.858,0.554-0.858C62.984,32.236,62.016,33.094,62.996,33.094
				L62.996,33.094z"/>
		</g>
	</g>
	<g>
		<g>
			<path fill="#FDD9B6" d="M69.822,36.792c0.422,0,1.58-0.638,0.613-0.638C70.013,36.155,68.855,36.792,69.822,36.792L69.822,36.792
				z"/>
		</g>
	</g>
	<g>
		<g>
			<path fill="#FDD9B6" d="M68.891,40.174c0.276,0,1.641-0.547,0.952-0.547C69.566,39.628,68.202,40.174,68.891,40.174
				L68.891,40.174z"/>
		</g>
	</g>
	<g>
		<g>
			<path fill="#FDD9B6" d="M72.517,40.9c0.564,0,1.535-0.856,0.554-0.856C72.508,40.044,71.537,40.9,72.517,40.9L72.517,40.9z"/>
		</g>
	</g>
	<g>
		<g>
			<path fill="#FDD9B6" d="M67.375,33.852c0.561,0,1.536-0.851,0.556-0.851C67.37,33.001,66.395,33.852,67.375,33.852L67.375,33.852
				z"/>
		</g>
	</g>
	<g>
		<g>
			<path fill="#FDD9B6" d="M35.759,42.404c0.538,0,1.544-0.816,0.565-0.816C35.787,41.588,34.78,42.404,35.759,42.404L35.759,42.404
				z"/>
		</g>
	</g>
	<g>
		<g>
			<path fill="#FDD9B6" d="M30.421,42.188c0.505,0,1.556-0.766,0.579-0.766C30.495,41.422,29.444,42.188,30.421,42.188
				L30.421,42.188z"/>
		</g>
	</g>
	<g>
		<g>
			<path fill="#FDD9B6" d="M30.655,45.036c0.853,0,1.091-1.129,0.11-1.129C29.913,43.907,29.675,45.036,30.655,45.036L30.655,45.036
				z"/>
		</g>
	</g>
	<g>
		<g>
			<path fill="#FDD9B6" d="M43.971,43.27c0.815,0,1.123-1.025,0.138-1.025C43.294,42.245,42.986,43.27,43.971,43.27L43.971,43.27z"
				/>
		</g>
	</g>
	<g>
		<g>
			<path fill="#FDD9B6" d="M56.15,49.315c0.611,0,1.516-0.927,0.535-0.927C56.075,48.388,55.169,49.315,56.15,49.315L56.15,49.315z"
				/>
		</g>
	</g>
	<g>
		<g>
			<path fill="#FDD9B6" d="M50.4,45.369c0.431,0,1.577-0.652,0.609-0.652C50.578,44.717,49.432,45.369,50.4,45.369L50.4,45.369z"/>
		</g>
	</g>
	<g>
		<g>
			<path fill="#FDD9B6" d="M55.759,44.391c0.309,0,1.653-0.602,0.937-0.602C56.386,43.79,55.042,44.391,55.759,44.391L55.759,44.391
				z"/>
		</g>
	</g>
	<g>
		<g>
			<path fill="#FDD9B6" d="M64.49,31.652c0.423,0,1.579-0.64,0.612-0.64C64.679,31.012,63.523,31.652,64.49,31.652L64.49,31.652z"/>
		</g>
	</g>
	<g>
		<g>
			<path fill="#FDD9B6" d="M64.686,45.384c0.451,0,1.572-0.684,0.601-0.684C64.836,44.701,63.715,45.384,64.686,45.384
				L64.686,45.384z"/>
		</g>
	</g>
	<g>
		<g>
			<path fill="#FDD9B6" d="M61.884,41.986c0.851,0,1.092-1.124,0.112-1.124C61.145,40.863,60.904,41.986,61.884,41.986
				L61.884,41.986z"/>
		</g>
	</g>
	<g>
		<g>
			<path fill="#FDD9B6" d="M74.804,36.976c0.324,0,1.658-0.624,0.931-0.624C75.411,36.352,74.077,36.976,74.804,36.976
				L74.804,36.976z"/>
		</g>
	</g>
	<g>
		<g>
			<path fill="#FDD9B6" d="M73.292,37.331c0.628,0,1.508-0.954,0.528-0.954C73.192,36.377,72.312,37.331,73.292,37.331
				L73.292,37.331z"/>
		</g>
	</g>
	<g opacity="0.5">
		
			<image overflow="visible" width="74" height="74" xlink:href="E4AF0283B40966C8.png"  transform="matrix(1 0 0 1 41.6229 -3.4736)">
		</image>
	</g>
	<g opacity="0.5">
		
			<image overflow="visible" width="74" height="74" xlink:href="E4AF0283B40966C9.png"  transform="matrix(1 0 0 1 48.6229 -3.4736)">
		</image>
	</g>
	<g>
		
			<image overflow="visible" width="74" height="74" xlink:href="E4AF0283B40966CF.png"  transform="matrix(1 0 0 1 51.6229 1.5264)">
		</image>
	</g>
	<g>
		<g>
			<path fill="#FDD9B6" d="M97.376,30.213c0.449,0,1.572-0.681,0.601-0.681C97.528,29.531,96.405,30.213,97.376,30.213
				L97.376,30.213z"/>
		</g>
	</g>
	<g>
		<g>
			<path fill="#FDD9B6" d="M86.033,32.952c0.292,0,1.647-0.573,0.944-0.573C86.685,32.378,85.33,32.952,86.033,32.952L86.033,32.952
				z"/>
		</g>
	</g>
	<g>
		<g>
			<path fill="#FDD9B6" d="M88.996,31.223c0.443,0,1.574-0.67,0.604-0.67C89.157,30.552,88.026,31.223,88.996,31.223L88.996,31.223z
				"/>
		</g>
	</g>
	<g>
		<g>
			<path fill="#FDD9B6" d="M87.753,28.785c0.575,0,1.53-0.873,0.55-0.873C87.728,27.912,86.773,28.785,87.753,28.785L87.753,28.785z
				"/>
		</g>
	</g>
	<g>
		<g>
			<path fill="#FDD9B6" d="M94.825,33.596c0.843,0,1.099-1.102,0.118-1.102C94.099,32.495,93.843,33.596,94.825,33.596
				L94.825,33.596z"/>
		</g>
	</g>
	<g>
		<g>
			<path fill="#FDD9B6" d="M94.6,29.643c0.535,0,1.545-0.812,0.566-0.812C94.632,28.831,93.621,29.643,94.6,29.643L94.6,29.643z"/>
		</g>
	</g>
	<g>
		<g>
			<path fill="#FDD9B6" d="M104.114,26.314c0.497,0,1.558-0.755,0.582-0.755C104.198,25.559,103.138,26.314,104.114,26.314
				L104.114,26.314z"/>
		</g>
	</g>
	<g>
		<g>
			<path fill="#FDD9B6" d="M104.137,30.082c0.612,0,1.516-0.928,0.535-0.928C104.061,29.154,103.157,30.082,104.137,30.082
				L104.137,30.082z"/>
		</g>
	</g>
	<g>
		<g>
			<path fill="#FDD9B6" d="M111.091,26.42c0.47,0,1.566-0.713,0.593-0.713C111.213,25.707,110.117,26.42,111.091,26.42
				L111.091,26.42z"/>
		</g>
	</g>
	<g>
		<g>
			<path fill="#FDD9B6" d="M109.395,24.586c0.309,0,1.653-0.601,0.937-0.601C110.024,23.986,108.679,24.586,109.395,24.586
				L109.395,24.586z"/>
		</g>
	</g>
	<g>
		<g>
			<path fill="#FDD9B6" d="M111.426,32.075c0.306,0,1.652-0.597,0.938-0.597C112.058,31.478,110.712,32.075,111.426,32.075
				L111.426,32.075z"/>
		</g>
	</g>
	<g>
		<g>
			<path fill="#FDD9B6" d="M86.735,37.536c0.564,0,1.535-0.856,0.554-0.856C86.725,36.68,85.755,37.536,86.735,37.536L86.735,37.536
				z"/>
		</g>
	</g>
	<g>
		<g>
			<path fill="#FDD9B6" d="M82.26,36.911c0.853,0,1.09-1.13,0.11-1.13C81.518,35.782,81.28,36.911,82.26,36.911L82.26,36.911z"/>
		</g>
	</g>
	<g>
		<g>
			<path fill="#FDD9B6" d="M82.037,31.82c0.56,0,1.536-0.85,0.556-0.85C82.033,30.97,81.057,31.82,82.037,31.82L82.037,31.82z"/>
		</g>
	</g>
	<g>
		<g>
			<path fill="#FDD9B6" d="M76.922,34.601c0.835,0,1.106-1.078,0.124-1.078C76.211,33.522,75.939,34.601,76.922,34.601
				L76.922,34.601z"/>
		</g>
	</g>
	<g>
		<g>
			<path fill="#FDD9B6" d="M80.4,39.739c0.622,0,1.511-0.944,0.531-0.944C80.308,38.794,79.419,39.739,80.4,39.739L80.4,39.739z"/>
		</g>
	</g>
	<g>
		<g>
			<path fill="#FDD9B6" d="M96.852,35.867c0.832,0,1.108-1.073,0.125-1.073C96.145,34.794,95.869,35.867,96.852,35.867
				L96.852,35.867z"/>
		</g>
	</g>
	<g>
		<g>
			<path fill="#FDD9B6" d="M91.652,35.632c0.846,0,1.096-1.111,0.115-1.111C90.921,34.522,90.671,35.632,91.652,35.632
				L91.652,35.632z"/>
		</g>
	</g>
	<g>
		<g>
			<path fill="#FDD9B6" d="M92.005,27.261c0.32,0,1.657-0.618,0.932-0.618C92.618,26.643,91.281,27.261,92.005,27.261L92.005,27.261
				z"/>
		</g>
	</g>
	<g>
		<g>
			<path fill="#FDD9B6" d="M100.251,26.986c0.294,0,1.648-0.576,0.944-0.576C100.901,26.41,99.547,26.986,100.251,26.986
				L100.251,26.986z"/>
		</g>
	</g>
	<g>
		<g>
			<path fill="#FDD9B6" d="M94.49,38.466c0.618,0,1.513-0.938,0.532-0.938C94.405,37.528,93.51,38.466,94.49,38.466L94.49,38.466z"
				/>
		</g>
	</g>
	<g>
		<g>
			<path fill="#FDD9B6" d="M105.525,34.113c0.57,0,1.532-0.866,0.552-0.866C105.507,33.248,104.545,34.113,105.525,34.113
				L105.525,34.113z"/>
		</g>
	</g>
	<g>
		<g>
			<path fill="#FDD9B6" d="M115.815,28.808c0.605,0,1.518-0.918,0.538-0.918C115.748,27.889,114.835,28.808,115.815,28.808
				L115.815,28.808z"/>
		</g>
	</g>
	<g>
		<g>
			<path fill="#FDD9B6" d="M115.814,35.149c0.596,0,1.522-0.905,0.541-0.905C115.758,34.243,114.833,35.149,115.814,35.149
				L115.814,35.149z"/>
		</g>
	</g>
	<g>
		<g>
			<path fill="#FDD9B6" d="M113.493,39.586c0.422,0,1.58-0.639,0.613-0.639C113.683,38.947,112.526,39.586,113.493,39.586
				L113.493,39.586z"/>
		</g>
	</g>
	<g>
		<g>
			<path fill="#FDD9B6" d="M105.734,39.787c0.821,0,1.118-1.041,0.134-1.041C105.047,38.746,104.75,39.787,105.734,39.787
				L105.734,39.787z"/>
		</g>
	</g>
	<g>
		<g>
			<path fill="#FDD9B6" d="M103.349,36.332c0.483,0,1.563-0.733,0.587-0.733C103.454,35.599,102.374,36.332,103.349,36.332
				L103.349,36.332z"/>
		</g>
	</g>
	<g>
		<g>
			<path fill="#FDD9B6" d="M99.685,41.98c0.565,0,1.534-0.858,0.554-0.858C99.674,41.123,98.704,41.98,99.685,41.98L99.685,41.98z"
				/>
		</g>
	</g>
	<g>
		<g>
			<path fill="#FDD9B6" d="M100.433,32.409c0.499,0,1.558-0.757,0.581-0.757C100.515,31.652,99.456,32.409,100.433,32.409
				L100.433,32.409z"/>
		</g>
	</g>
	<g>
		<g>
			<path fill="#FDD9B6" d="M109.3,29.419c0.851,0,1.092-1.126,0.111-1.126C108.56,28.294,108.32,29.419,109.3,29.419L109.3,29.419z"
				/>
		</g>
	</g>
	<g>
		<g>
			<path fill="#FDD9B6" d="M108.754,36.625c0.282,0,1.643-0.556,0.949-0.556C109.421,36.068,108.06,36.625,108.754,36.625
				L108.754,36.625z"/>
		</g>
	</g>
	<g>
		<g>
			<path fill="#FDD9B6" d="M118.949,32.721c0.852,0,1.091-1.127,0.111-1.127C118.207,31.593,117.968,32.721,118.949,32.721
				L118.949,32.721z"/>
		</g>
	</g>
	<g>
		<g>
			<path fill="#FDD9B6" d="M118.721,36.371c0.535,0,1.545-0.812,0.566-0.812C118.753,35.56,117.742,36.371,118.721,36.371
				L118.721,36.371z"/>
		</g>
	</g>
	<g>
		<g>
			<path fill="#FDD9B6" d="M86.716,45.079c0.467,0,1.567-0.709,0.594-0.709C86.842,44.371,85.742,45.079,86.716,45.079
				L86.716,45.079z"/>
		</g>
	</g>
	<g>
		<g>
			<path fill="#FDD9B6" d="M92.713,44.431c0.615,0,1.514-0.934,0.533-0.934C92.631,43.496,91.732,44.431,92.713,44.431
				L92.713,44.431z"/>
		</g>
	</g>
	<g>
		<g>
			<path fill="#FDD9B6" d="M105.336,24.219c0.326,0,1.658-0.628,0.93-0.628C105.94,23.591,104.608,24.219,105.336,24.219
				L105.336,24.219z"/>
		</g>
	</g>
	<g>
		<g>
			<path fill="#FDD9B6" d="M122.007,40.253c0.465,0,1.568-0.705,0.595-0.705C122.138,39.549,121.034,40.253,122.007,40.253
				L122.007,40.253z"/>
		</g>
	</g>
	<g>
		<g>
			<path fill="#FDD9B6" d="M122.005,35.673c0.452,0,1.572-0.685,0.6-0.685C122.153,34.988,121.033,35.673,122.005,35.673
				L122.005,35.673z"/>
		</g>
	</g>
	<g>
		<g>
			<path fill="#FDD9B6" d="M107.41,43.18c0.473,0,1.566-0.718,0.591-0.718C107.528,42.462,106.436,43.18,107.41,43.18L107.41,43.18z
				"/>
		</g>
	</g>
	<g>
		<g>
			<path fill="#FDD9B6" d="M85.942,43.892c0.852,0,1.091-1.127,0.111-1.127C85.2,42.765,84.961,43.892,85.942,43.892L85.942,43.892z
				"/>
		</g>
	</g>
	<g>
		<g>
			<path fill="#FDD9B6" d="M89.989,41.932c0.811,0,1.126-1.016,0.141-1.016C89.318,40.917,89.004,41.932,89.989,41.932
				L89.989,41.932z"/>
		</g>
	</g>
	<g>
		<g>
			<path fill="#FDD9B6" d="M89.14,36.494c0.53,0,1.547-0.804,0.568-0.804C89.179,35.691,88.162,36.494,89.14,36.494L89.14,36.494z"
				/>
		</g>
	</g>
	<g>
		<g>
			<path fill="#FDD9B6" d="M91.891,31.134c0.806,0,1.13-1.001,0.145-1.001C91.23,30.133,90.906,31.134,91.891,31.134L91.891,31.134z
				"/>
		</g>
	</g>
	<g>
		<g>
			<path fill="#FDD9B6" d="M101.441,37.46c0.464,0,1.568-0.703,0.595-0.703C101.573,36.757,100.468,37.46,101.441,37.46
				L101.441,37.46z"/>
		</g>
	</g>
	<g>
		<g>
			<path fill="#FDD9B6" d="M98.501,39.796c0.828,0,1.112-1.06,0.129-1.06C97.802,38.737,97.517,39.796,98.501,39.796L98.501,39.796z
				"/>
		</g>
	</g>
	<g>
		<g>
			<path fill="#FDD9B6" d="M108.937,32.656c0.491,0,1.56-0.745,0.584-0.745C109.03,31.912,107.961,32.656,108.937,32.656
				L108.937,32.656z"/>
		</g>
	</g>
	<g>
		<g>
			<path fill="#FDD9B6" d="M106.795,28.653c0.569,0,1.533-0.864,0.552-0.864C106.778,27.79,105.814,28.653,106.795,28.653
				L106.795,28.653z"/>
		</g>
	</g>
	<g>
		<g>
			<path fill="#FDD9B6" d="M113.396,29.796c0.569,0,1.533-0.864,0.552-0.864C113.379,28.932,112.416,29.796,113.396,29.796
				L113.396,29.796z"/>
		</g>
	</g>
	<g>
		<g>
			<path fill="#FDD9B6" d="M110.913,36.12c0.285,0,1.644-0.562,0.947-0.562C111.575,35.558,110.216,36.12,110.913,36.12
				L110.913,36.12z"/>
		</g>
	</g>
	<g>
		<g>
			<path fill="#FDD9B6" d="M112.749,25.814c0.507,0,1.555-0.77,0.577-0.77C112.819,25.044,111.771,25.814,112.749,25.814
				L112.749,25.814z"/>
		</g>
	</g>
	<g>
		<g>
			<path fill="#FDD9B6" d="M116.153,40.834c0.844,0,1.098-1.104,0.117-1.104C115.426,39.73,115.171,40.834,116.153,40.834
				L116.153,40.834z"/>
		</g>
	</g>
	<g>
		<g>
			<path fill="#FDD9B6" d="M115.644,37.529c0.841,0,1.101-1.096,0.119-1.096C114.922,36.433,114.662,37.529,115.644,37.529
				L115.644,37.529z"/>
		</g>
	</g>
	<g>
		<g>
			<path fill="#FDD9B6" d="M84.321,39.684c0.551,0,1.54-0.836,0.56-0.836C84.329,38.848,83.341,39.684,84.321,39.684L84.321,39.684z
				"/>
		</g>
	</g>
	<g>
		<g>
			<path fill="#FDD9B6" d="M54.048,26.425c0.577,0,1.53-0.876,0.549-0.876C54.02,25.549,53.068,26.425,54.048,26.425L54.048,26.425z
				"/>
		</g>
	</g>
	<g>
		<g>
			<path fill="#FDD9B6" d="M47.579,33.312c0.602,0,1.52-0.914,0.539-0.914C47.516,32.398,46.598,33.312,47.579,33.312L47.579,33.312
				z"/>
		</g>
	</g>
	<g>
		<g>
			<path fill="#FDD9B6" d="M55.107,30.608c0.635,0,1.506-0.964,0.526-0.964C54.998,29.644,54.127,30.608,55.107,30.608
				L55.107,30.608z"/>
		</g>
	</g>
	<g>
		<g>
			<path fill="#FDD9B6" d="M49.756,34.408c0.541,0,1.543-0.821,0.564-0.821C49.779,33.587,48.777,34.408,49.756,34.408
				L49.756,34.408z"/>
		</g>
	</g>
	<g>
		<g>
			<path fill="#FDD9B6" d="M49.576,40.041c0.437,0,1.576-0.662,0.606-0.662C49.746,39.38,48.607,40.041,49.576,40.041L49.576,40.041
				z"/>
		</g>
	</g>
	<g>
		<g>
			<path fill="#FDD9B6" d="M69.442,34.511c0.426,0,1.579-0.645,0.611-0.645C69.627,33.866,68.474,34.511,69.442,34.511
				L69.442,34.511z"/>
		</g>
	</g>
	<g>
		<g>
			<path fill="#FDD9B6" d="M63.439,30.549c0.558,0,1.537-0.847,0.557-0.847C63.438,29.702,62.459,30.549,63.439,30.549
				L63.439,30.549z"/>
		</g>
	</g>
	<g>
		<g>
			<path fill="#FDD9B6" d="M61.407,44.703c0.303,0,1.651-0.591,0.94-0.591C62.044,44.113,60.695,44.703,61.407,44.703L61.407,44.703
				z"/>
		</g>
	</g>
	<g>
		<g>
			<path fill="#FDD9B6" d="M51.504,43.302c0.551,0,1.54-0.836,0.56-0.836C51.513,42.467,50.524,43.302,51.504,43.302L51.504,43.302z
				"/>
		</g>
	</g>
	<g>
		<g>
			<path fill="#FDD9B6" d="M36.594,38.946c0.582,0,1.528-0.883,0.547-0.883C36.559,38.063,35.613,38.946,36.594,38.946
				L36.594,38.946z"/>
		</g>
	</g>
	<g>
		<g>
			<path fill="#FDD9B6" d="M32.783,40.784c0.322,0,1.657-0.622,0.931-0.622C33.392,40.161,32.057,40.784,32.783,40.784
				L32.783,40.784z"/>
		</g>
	</g>
	<g>
		<g>
			<path fill="#FDD9B6" d="M76.829,39.048c0.295,0,1.648-0.578,0.943-0.578C77.477,38.469,76.124,39.048,76.829,39.048
				L76.829,39.048z"/>
		</g>
	</g>
	<g>
		<g>
			<path fill="#FDD9B6" d="M77.097,41.889c0.612,0,1.515-0.929,0.535-0.929C77.02,40.96,76.116,41.889,77.097,41.889L77.097,41.889z
				"/>
		</g>
	</g>
	<path opacity="0.3" fill="#FFFFFF" d="M59.084,20.668c0,0-4.824,2.222-6.855,6.284C52.228,26.952,53.371,21.557,59.084,20.668z"/>
</g>
<path opacity="0.4" fill="#FFFFFF" d="M66.415,15.503c0,0,3.396-4.174,9.331-1.98C75.746,13.523,70.541,12.273,66.415,15.503z"/>
<g>
	<g>
		<g>
			<path fill="#FFEAD4" d="M69.256,15.484c0.446,0,1.573-0.676,0.603-0.676C69.412,14.808,68.285,15.484,69.256,15.484
				L69.256,15.484z"/>
		</g>
	</g>
	<g>
		<g>
			<path fill="#FFEAD4" d="M66.909,18.467c0.612,0,1.515-0.929,0.535-0.929C66.832,17.537,65.929,18.467,66.909,18.467
				L66.909,18.467z"/>
		</g>
	</g>
	<g>
		<g>
			<path fill="#FFEAD4" d="M72.795,14.755c0.279,0,1.642-0.552,0.95-0.552C73.466,14.203,72.103,14.755,72.795,14.755L72.795,14.755
				z"/>
		</g>
	</g>
	<g>
		<g>
			<path fill="#FFEAD4" d="M61.948,18.238c0.562,0,1.535-0.853,0.555-0.853C61.941,17.385,60.968,18.238,61.948,18.238
				L61.948,18.238z"/>
		</g>
	</g>
	<g>
		<g>
			<path fill="#FFEAD4" d="M60.625,21.133c0.612,0,1.515-0.93,0.535-0.93C60.548,20.203,59.645,21.133,60.625,21.133L60.625,21.133z
				"/>
		</g>
	</g>
	<g>
		<g>
			<path fill="#FFEAD4" d="M71.354,17.308c0.465,0,1.568-0.706,0.595-0.706C71.484,16.602,70.381,17.308,71.354,17.308
				L71.354,17.308z"/>
		</g>
	</g>
	<g>
		<g>
			<path fill="#FFEAD4" d="M75.775,16.147c0.825,0,1.115-1.051,0.131-1.051C75.082,15.096,74.792,16.147,75.775,16.147
				L75.775,16.147z"/>
		</g>
	</g>
	<g>
		<g>
			<path fill="#FFEAD4" d="M79.654,15.244c0.294,0,1.648-0.577,0.944-0.577C80.303,14.667,78.95,15.244,79.654,15.244L79.654,15.244
				z"/>
		</g>
	</g>
	<g>
		<g>
			<path fill="#FFEAD4" d="M68.236,22.253c0.583,0,1.527-0.885,0.547-0.885C68.2,21.368,67.256,22.253,68.236,22.253L68.236,22.253z
				"/>
		</g>
	</g>
	<g>
		<g>
			<path fill="#FFEAD4" d="M64.154,20.507c0.81,0,1.127-1.011,0.142-1.011C63.486,19.496,63.169,20.507,64.154,20.507L64.154,20.507
				z"/>
		</g>
	</g>
	<g>
		<g>
			<path fill="#FFEAD4" d="M83.297,15.288c0.823,0,1.116-1.046,0.132-1.046C82.606,14.242,82.313,15.288,83.297,15.288
				L83.297,15.288z"/>
		</g>
	</g>
	<g>
		<g>
			<path fill="#FFEAD4" d="M88.112,17.308c0.466,0,1.568-0.707,0.594-0.707C88.24,16.601,87.139,17.308,88.112,17.308L88.112,17.308
				z"/>
		</g>
	</g>
	<g>
		<g>
			<path fill="#FFEAD4" d="M75.444,17.576c0.443,0,1.574-0.672,0.604-0.672C75.604,16.905,74.474,17.576,75.444,17.576
				L75.444,17.576z"/>
		</g>
	</g>
	<g>
		<g>
			<path fill="#FFEAD4" d="M72.226,20.097c0.291,0,1.647-0.572,0.945-0.572C72.88,19.525,71.525,20.097,72.226,20.097L72.226,20.097
				z"/>
		</g>
	</g>
	<g>
		<g>
			<path fill="#FFEAD4" d="M79.969,20.257c0.836,0,1.105-1.082,0.123-1.082C79.256,19.175,78.987,20.257,79.969,20.257
				L79.969,20.257z"/>
		</g>
	</g>
	<g>
		<g>
			<path fill="#FFEAD4" d="M59.662,22.806c0.558,0,1.537-0.847,0.557-0.847C59.66,21.958,58.682,22.806,59.662,22.806L59.662,22.806
				z"/>
		</g>
	</g>
	<g>
		<g>
			<path fill="#FFEAD4" d="M56.133,25.419c0.279,0,1.642-0.551,0.95-0.551C56.804,24.868,55.442,25.419,56.133,25.419L56.133,25.419
				z"/>
		</g>
	</g>
	<g>
		<g>
			<path fill="#FFEAD4" d="M57.663,23.507c0.308,0,1.653-0.6,0.937-0.6C58.292,22.907,56.947,23.507,57.663,23.507L57.663,23.507z"
				/>
		</g>
	</g>
	<g>
		<g>
			<path fill="#FFEAD4" d="M79.287,17.326c0.615,0,1.514-0.933,0.534-0.933C79.207,16.393,78.307,17.326,79.287,17.326
				L79.287,17.326z"/>
		</g>
	</g>
	<g>
		<g>
			<path fill="#FFEAD4" d="M58.782,25.479c0.444,0,1.574-0.672,0.604-0.672C58.942,24.807,57.811,25.479,58.782,25.479
				L58.782,25.479z"/>
		</g>
	</g>
	<g>
		<g>
			<path fill="#FFEAD4" d="M64.492,18.042c0.431,0,1.577-0.652,0.609-0.652C64.67,17.391,63.523,18.042,64.492,18.042L64.492,18.042
				z"/>
		</g>
	</g>
	<g>
		<g>
			<path fill="#FFEAD4" d="M60.358,19.632c0.843,0,1.099-1.102,0.118-1.102C59.632,18.53,59.376,19.632,60.358,19.632L60.358,19.632
				z"/>
		</g>
	</g>
	<g>
		<g>
			<path fill="#FFEAD4" d="M64.301,23.649c0.582,0,1.528-0.883,0.547-0.883C64.266,22.766,63.32,23.649,64.301,23.649L64.301,23.649
				z"/>
		</g>
	</g>
	<g>
		<g>
			<path fill="#FFEAD4" d="M62.138,25.442c0.562,0,1.536-0.853,0.555-0.853C62.132,24.59,61.158,25.442,62.138,25.442L62.138,25.442
				z"/>
		</g>
	</g>
	<g>
		<g>
			<path fill="#FFEAD4" d="M69.104,19.412c0.478,0,1.564-0.725,0.589-0.725C69.215,18.687,68.129,19.412,69.104,19.412
				L69.104,19.412z"/>
		</g>
	</g>
	<g>
		<g>
			<path fill="#FFEAD4" d="M82.401,17.821c0.473,0,1.566-0.717,0.592-0.717C82.519,17.104,81.426,17.821,82.401,17.821
				L82.401,17.821z"/>
		</g>
	</g>
	<g>
		<g>
			<path fill="#FFEAD4" d="M77.426,15.006c0.826,0,1.114-1.054,0.13-1.054C76.731,13.952,76.443,15.006,77.426,15.006L77.426,15.006
				z"/>
		</g>
	</g>
	<g>
		<g>
			<path fill="#FFEAD4" d="M85.382,17.91c0.464,0,1.568-0.704,0.595-0.704C85.513,17.206,84.409,17.91,85.382,17.91L85.382,17.91z"
				/>
		</g>
	</g>
	<g>
		<g>
			<path fill="#FFEAD4" d="M72.882,24.369c0.486,0,1.562-0.737,0.586-0.737C72.982,23.632,71.906,24.369,72.882,24.369
				L72.882,24.369z"/>
		</g>
	</g>
	<g>
		<g>
			<path fill="#FFEAD4" d="M73.894,21.607c0.547,0,1.541-0.83,0.561-0.83C73.908,20.777,72.914,21.607,73.894,21.607L73.894,21.607z
				"/>
		</g>
	</g>
</g>
<path opacity="0.3" fill="#FFFFFF" d="M20.386,128.383L132.711,22.226c0,0,53.525,52.43-0.91,111.693
	C131.801,133.919,76.212,185.305,20.386,128.383z"/>
</svg>
