<?xml version="1.0" encoding="utf-8"?>
<!-- Generator: Adobe Illustrator 17.0.0, SVG Export Plug-In . SVG Version: 6.00 Build 0)  -->
<!DOCTYPE svg PUBLIC "-//W3C//DTD SVG 1.1//EN" "http://www.w3.org/Graphics/SVG/1.1/DTD/svg11.dtd">
<svg version="1.1" id="Layer_1" xmlns="http://www.w3.org/2000/svg" xmlns:xlink="http://www.w3.org/1999/xlink" x="0px" y="0px"
	 width="157.044px" height="155.201px" viewBox="0 0 157.044 155.201" enable-background="new 0 0 157.044 155.201"
	 xml:space="preserve">
<g>
	<circle fill="#A6D280" cx="78.145" cy="77.333" r="77.333"/>
</g>
<path fill="#639541" d="M50.511,29.534c0,0,2.815-8.584,12.21-8.683l1.714,10.12l-4.222,4.951L50.511,29.534z"/>
<path fill="#639541" d="M58.318,29.433c0,0,2.324-16.933,24.373-13.632c0,0,12.162,1.765,15.963,15.482L92.3,59.98L58.318,29.433z"
	/>
<path fill="#639541" d="M63.595,19.999c0,0,3.515-8.606,12.428-4.625v6.774L63.595,19.999z"/>
<path fill="#B7D09C" d="M74.043,78.704c0,0-8.48-0.337-6.713-3.577c0,0-7.362-0.499-3.606-5.301c0,0-2.965-3.627,1.864-4.757
	c0,0-6.564-6.285-4.427-13.377c0,0-3.973-6.023,4.324-9.476c0,0,8.014-19.699,33.01-17.639c0,0,28.038,2.957,30.238,26.73
	c0,0,3.337,15.704-7.54,23.793C121.194,75.1,86.484,86.497,74.043,78.704z"/>
<path fill="#513F27" d="M34.038,74.673c0,0-6.737-1.617-4.77-4.219c0,0-5.814-1.587-1.986-5.268c0,0-1.759-3.682,2.304-3.935
	c0,0-4.189-6.601-1.27-12.568c0,0-2.158-5.967,5.078-7.744c0,0,9.775-16.25,29.452-10.537c0,0,21.962,6.982,19.677,28.437
	c0,0,0.001,14.465-10.092,19.96C72.432,78.797,42.68,83.526,34.038,74.673z"/>
<path fill="#F1F1F2" d="M30.157,77.816l6.284,51.415l0.254,1.111c0.763,5.273,21.74,6.887,21.74,6.887s14.187,1.714,33.515,0.571
	c0,0,31.706-1.523,33.039-9.712l3.999-51.32C128.988,76.769,74.146,87.274,30.157,77.816z"/>
<path fill="#639541" d="M29.269,70.453c0,0-1.714,2.031,3.745,3.935c0,0,7.807,2.285,16.884,3.364c0,0,14.726,1.27,24.184,1.016
	c0,0,20.312,0.444,34.848-1.523c0,0,13.774-2.158,16.821-3.682c0,0,7.744-2.602,1.968-6.094l0.635-0.889
	c0,0,9.359,4.316,1.506,9.902c0,0-6.012,4.824-26.388,5.776c0,0-17.456,1.143-27.294,0.952c0,0-36.12,1.079-47.163-6.443
	c0,0-5.394-3.079-1.141-7.204L29.269,70.453z"/>
<path fill="#513F27" d="M50.511,77.804c0,0,0.879,3.029,3.26,2.521c0,0,3.047-0.604,3.999,1.3c0,0,2.38,5.09,5.427,1.641
	c0,0,2.571-2.021,4.761-1.355c0,0,6.04,0.677,8.066-5.803L50.511,77.804z"/>
<path fill="#513F27" d="M74.247,79.385c0,0,3.815-3.23,5.706-9.083C79.953,70.302,71.774,75.55,74.247,79.385z"/>
<g>
	<ellipse fill="#513F27" cx="60.459" cy="90.004" rx="1.595" ry="1.619"/>
	<path fill="#513F27" d="M58.864,90.004c0,0,0.095-1.095,1.595-3.57c0,0,1.785,2.285,1.595,4.047L58.864,90.004z"/>
</g>
<g>
	<ellipse fill="#513F27" cx="60.452" cy="103.945" rx="1.595" ry="1.619"/>
	<path fill="#513F27" d="M58.857,103.945c0,0,0.095-1.095,1.595-3.57c0,0,1.785,2.285,1.595,4.047L58.857,103.945z"/>
</g>
<g>
	<ellipse fill="#B7D09C" cx="113.148" cy="86.766" rx="1.595" ry="1.619"/>
	<path fill="#B7D09C" d="M111.554,86.766c0,0,0.095-1.095,1.595-3.57c0,0,1.785,2.285,1.595,4.047L111.554,86.766z"/>
</g>
<g>
	<ellipse fill="#B7D09C" cx="109.947" cy="89.064" rx="0.992" ry="1.007"/>
	<path fill="#B7D09C" d="M108.955,89.064c0,0,0.059-0.681,0.992-2.222c0,0,1.111,1.422,0.992,2.518L108.955,89.064z"/>
</g>
<path fill="#B7D09C" d="M121.527,74.843c0,0,2.764,3.819,5.811,0c0,0,0.458-2.169,1.879-2.169c0,0,2.358-0.854,0.367-3.531
	c0,0,0.304-1.585-1.733-3.407L121.527,74.843z"/>
<path fill="#B7D09C" d="M101.773,78.003c0,0,0.366,2.753,3.032,2.283c0,0,1.523-2.284,4.38-0.901c0,0,4.436,5.782,3.932-2.844
	L101.773,78.003z"/>
<path fill="#B7D09C" d="M105.482,26.112c0,0,21.067-0.644,22.763,21.912L105.482,26.112z"/>
<path fill="#B7D09C" d="M101.773,25.148c0,0,8.847-4.037,15.556,4.036l-4.173,5.407L101.773,25.148z"/>
<path fill="#B7D09C" d="M128.988,60.627c0,0,2.87,3.078,0.229,6.42l-3.262,2.81l-1.029-5.408L128.988,60.627z"/>
<path opacity="0.3" fill="#FFFFFF" d="M74.336,33.994c0,0,10.6-9.14,25.898-7.744C100.234,26.25,83.794,22.061,74.336,33.994z"/>
<path opacity="0.3" fill="#FFFFFF" d="M37.487,37.677c0,0,9.822-8.653,23.68-6.988C61.167,30.689,46.332,26.291,37.487,37.677z"/>
<path fill="#639541" d="M58.318,21.612c0,0,1.228-4.643,6.878-4.148l1.904,6.961L58.318,21.612z"/>
<g>
	<g>
		<g>
			<path fill="#639541" d="M48.176,33.742c0.639,0,1.504-0.97,0.524-0.97C48.062,32.772,47.196,33.742,48.176,33.742L48.176,33.742z
				"/>
		</g>
	</g>
	<g>
		<g>
			<path fill="#639541" d="M53.466,34.344c0.431,0,1.577-0.652,0.609-0.652C53.644,33.693,52.497,34.344,53.466,34.344
				L53.466,34.344z"/>
		</g>
	</g>
	<g>
		<g>
			<path fill="#639541" d="M45.51,34.741c0.806,0,1.131-1,0.145-1C44.849,33.74,44.524,34.741,45.51,34.741L45.51,34.741z"/>
		</g>
	</g>
	<g>
		<g>
			<path fill="#639541" d="M40.795,37.292c0.55,0,1.54-0.835,0.56-0.835C40.805,36.457,39.815,37.292,40.795,37.292L40.795,37.292z"
				/>
		</g>
	</g>
	<g>
		<g>
			<path fill="#639541" d="M53.491,37.487c0.555,0,1.538-0.843,0.558-0.843C53.494,36.644,52.511,37.487,53.491,37.487
				L53.491,37.487z"/>
		</g>
	</g>
	<g>
		<g>
			<path fill="#639541" d="M51.079,35.077c0.304,0,1.651-0.593,0.939-0.593C51.714,34.483,50.367,35.077,51.079,35.077
				L51.079,35.077z"/>
		</g>
	</g>
	<g>
		<g>
			<path fill="#639541" d="M59.938,33.385c0.421,0,1.58-0.637,0.613-0.637C60.13,32.748,58.971,33.385,59.938,33.385L59.938,33.385z
				"/>
		</g>
	</g>
	<g>
		<g>
			<path fill="#639541" d="M59.769,37.147c0.276,0,1.64-0.545,0.952-0.545C60.445,36.602,59.08,37.147,59.769,37.147L59.769,37.147z
				"/>
		</g>
	</g>
	<g>
		<g>
			<path fill="#639541" d="M56.354,37.892c0.588,0,1.525-0.892,0.545-0.892C56.311,37,55.374,37.892,56.354,37.892L56.354,37.892z"
				/>
		</g>
	</g>
	<g>
		<g>
			<path fill="#639541" d="M56.364,34.311c0.636,0,1.505-0.966,0.525-0.966C56.253,33.345,55.384,34.311,56.364,34.311
				L56.364,34.311z"/>
		</g>
	</g>
	<g>
		<g>
			<path fill="#639541" d="M44.871,38.026c0.46,0,1.569-0.698,0.597-0.698C45.008,37.328,43.898,38.026,44.871,38.026L44.871,38.026
				z"/>
		</g>
	</g>
	<g>
		<g>
			<path fill="#639541" d="M38.172,38.359c0.451,0,1.572-0.684,0.601-0.684C38.322,37.675,37.201,38.359,38.172,38.359
				L38.172,38.359z"/>
		</g>
	</g>
	<g>
		<g>
			<path fill="#639541" d="M43.817,35.988c0.505,0,1.556-0.766,0.579-0.766C43.891,35.222,42.84,35.988,43.817,35.988L43.817,35.988
				z"/>
		</g>
	</g>
	<g>
		<g>
			<path fill="#639541" d="M42.183,38.913c0.816,0,1.122-1.029,0.137-1.029C41.504,37.884,41.198,38.913,42.183,38.913
				L42.183,38.913z"/>
		</g>
	</g>
	<g>
		<g>
			<path fill="#639541" d="M50.831,33.128c0.583,0,1.527-0.884,0.547-0.884C50.795,32.243,49.85,33.128,50.831,33.128L50.831,33.128
				z"/>
		</g>
	</g>
	<g>
		<g>
			<path fill="#639541" d="M50.84,38.494c0.627,0,1.509-0.953,0.529-0.953C50.741,37.541,49.86,38.494,50.84,38.494L50.84,38.494z"
				/>
		</g>
	</g>
	<g>
		<g>
			<path fill="#639541" d="M58.249,32.294c0.815,0,1.122-1.026,0.138-1.026C57.572,31.268,57.264,32.294,58.249,32.294
				L58.249,32.294z"/>
		</g>
	</g>
	<g>
		<g>
			<path fill="#639541" d="M65.129,41.586c0.822,0,1.117-1.044,0.133-1.044C64.44,40.542,64.145,41.586,65.129,41.586L65.129,41.586
				z"/>
		</g>
	</g>
	<g>
		<g>
			<path fill="#639541" d="M57.513,41.779c0.824,0,1.115-1.05,0.132-1.05C56.821,40.73,56.529,41.779,57.513,41.779L57.513,41.779z"
				/>
		</g>
	</g>
	<g>
		<g>
			<path fill="#639541" d="M51.393,40.331c0.54,0,1.544-0.82,0.564-0.82C51.418,39.512,50.414,40.331,51.393,40.331L51.393,40.331z"
				/>
		</g>
	</g>
	<g>
		<g>
			<path fill="#639541" d="M46.41,41.47c0.535,0,1.545-0.812,0.566-0.812C46.441,40.658,45.43,41.47,46.41,41.47L46.41,41.47z"/>
		</g>
	</g>
	<g>
		<g>
			<path fill="#639541" d="M40.59,42.276c0.635,0,1.505-0.965,0.525-0.965C40.481,41.312,39.61,42.276,40.59,42.276L40.59,42.276z"
				/>
		</g>
	</g>
	<g>
		<g>
			<path fill="#639541" d="M64.362,39.282c0.808,0,1.129-1.006,0.143-1.006C63.698,38.276,63.377,39.282,64.362,39.282
				L64.362,39.282z"/>
		</g>
	</g>
	<g>
		<g>
			<path fill="#639541" d="M83.361,37.384c0.422,0,1.58-0.638,0.613-0.638C83.551,36.746,82.394,37.384,83.361,37.384L83.361,37.384
				z"/>
		</g>
	</g>
	<g>
		<g>
			<path fill="#639541" d="M62.649,35.095c0.81,0,1.127-1.012,0.142-1.012C61.981,34.084,61.664,35.095,62.649,35.095L62.649,35.095
				z"/>
		</g>
	</g>
	<g>
		<g>
			<path fill="#639541" d="M69.102,38.682c0.288,0,1.646-0.567,0.946-0.567C69.76,38.115,68.403,38.682,69.102,38.682L69.102,38.682
				z"/>
		</g>
	</g>
	<g>
		<g>
			<path fill="#639541" d="M68.523,42.202c0.496,0,1.559-0.753,0.582-0.753C68.609,41.45,67.546,42.202,68.523,42.202L68.523,42.202
				z"/>
		</g>
	</g>
	<g>
		<g>
			<path fill="#639541" d="M71.952,42.78c0.505,0,1.556-0.766,0.579-0.766C72.026,42.014,70.975,42.78,71.952,42.78L71.952,42.78z"
				/>
		</g>
	</g>
	<g>
		<g>
			<path fill="#639541" d="M66.801,35.698c0.458,0,1.57-0.694,0.598-0.694C66.941,35.005,65.829,35.698,66.801,35.698L66.801,35.698
				z"/>
		</g>
	</g>
	<g>
		<g>
			<path fill="#639541" d="M35.024,44.232c0.322,0,1.657-0.622,0.931-0.622C35.633,43.609,34.298,44.232,35.024,44.232
				L35.024,44.232z"/>
		</g>
	</g>
	<g>
		<g>
			<path fill="#639541" d="M29.859,44.08c0.461,0,1.569-0.7,0.596-0.7C29.994,43.38,28.887,44.08,29.859,44.08L29.859,44.08z"/>
		</g>
	</g>
	<g>
		<g>
			<path fill="#639541" d="M29.887,46.849c0.597,0,1.521-0.907,0.541-0.907C29.83,45.943,28.906,46.849,29.887,46.849L29.887,46.849
				z"/>
		</g>
	</g>
	<g>
		<g>
			<path fill="#639541" d="M43.414,45.178c0.802,0,1.133-0.992,0.147-0.992C42.758,44.186,42.428,45.178,43.414,45.178
				L43.414,45.178z"/>
		</g>
	</g>
	<g>
		<g>
			<path fill="#639541" d="M55.56,51.102c0.431,0,1.577-0.652,0.609-0.652C55.738,50.45,54.592,51.102,55.56,51.102L55.56,51.102z"
				/>
		</g>
	</g>
	<g>
		<g>
			<path fill="#639541" d="M49.88,47.415c0.589,0,1.525-0.895,0.544-0.895C49.835,46.52,48.899,47.415,49.88,47.415L49.88,47.415z"
				/>
		</g>
	</g>
	<g>
		<g>
			<path fill="#639541" d="M55.367,46.33c0.417,0,1.581-0.63,0.615-0.63C55.565,45.7,54.401,46.33,55.367,46.33L55.367,46.33z"/>
		</g>
	</g>
	<g>
		<g>
			<path fill="#639541" d="M63.774,33.551c0.302,0,1.651-0.59,0.94-0.59C64.412,32.962,63.063,33.551,63.774,33.551L63.774,33.551z"
				/>
		</g>
	</g>
	<g>
		<g>
			<path fill="#639541" d="M64.154,47.384c0.549,0,1.54-0.833,0.561-0.833C64.165,46.551,63.174,47.384,64.154,47.384L64.154,47.384
				z"/>
		</g>
	</g>
	<g>
		<g>
			<path fill="#639541" d="M61.095,43.723c0.492,0,1.56-0.747,0.584-0.747C61.187,42.976,60.119,43.723,61.095,43.723L61.095,43.723
				z"/>
		</g>
	</g>
	<g>
		<g>
			<path fill="#639541" d="M74.413,38.916c0.433,0,1.577-0.656,0.608-0.656C74.588,38.261,73.444,38.916,74.413,38.916
				L74.413,38.916z"/>
		</g>
	</g>
	<g>
		<g>
			<path fill="#639541" d="M72.941,39.316c0.833,0,1.108-1.073,0.125-1.073C72.233,38.243,71.958,39.316,72.941,39.316
				L72.941,39.316z"/>
		</g>
	</g>
	<g opacity="0.5">
		
			<image overflow="visible" width="75" height="74" xlink:href="C93C11225CB96A3B.png"  transform="matrix(1 0 0 1 40.6624 -1.7837)">
		</image>
	</g>
	<g opacity="0.5">
		
			<image overflow="visible" width="75" height="74" xlink:href="C93C11225CB96A39.png"  transform="matrix(1 0 0 1 47.6624 -1.7837)">
		</image>
	</g>
	<g>
		
			<image overflow="visible" width="75" height="74" xlink:href="C93C11225CB96A3F.png"  transform="matrix(1 0 0 1 50.6624 4.2163)">
		</image>
	</g>
	<g>
		<g>
			<path fill="#639541" d="M96.647,32.068c0.274,0,1.64-0.542,0.953-0.542C97.326,31.526,95.961,32.068,96.647,32.068L96.647,32.068
				z"/>
		</g>
	</g>
	<g>
		<g>
			<path fill="#639541" d="M85.892,35.135c0.839,0,1.102-1.091,0.121-1.091C85.173,34.044,84.91,35.135,85.892,35.135L85.892,35.135
				z"/>
		</g>
	</g>
	<g>
		<g>
			<path fill="#639541" d="M88.272,33.097c0.29,0,1.646-0.57,0.945-0.57C88.928,32.528,87.572,33.097,88.272,33.097L88.272,33.097z"
				/>
		</g>
	</g>
	<g>
		<g>
			<path fill="#639541" d="M87.212,30.753c0.631,0,1.507-0.959,0.527-0.959C87.107,29.794,86.232,30.753,87.212,30.753
				L87.212,30.753z"/>
		</g>
	</g>
	<g>
		<g>
			<path fill="#639541" d="M94.045,35.366c0.522,0,1.55-0.792,0.572-0.792C94.095,34.575,93.067,35.366,94.045,35.366L94.045,35.366
				z"/>
		</g>
	</g>
	<g>
		<g>
			<path fill="#639541" d="M93.858,31.446c0.289,0,1.646-0.568,0.946-0.568C94.515,30.878,93.158,31.446,93.858,31.446
				L93.858,31.446z"/>
		</g>
	</g>
	<g>
		<g>
			<path fill="#639541" d="M103.557,28.221c0.474,0,1.565-0.718,0.591-0.718C103.674,27.502,102.582,28.221,103.557,28.221
				L103.557,28.221z"/>
		</g>
	</g>
	<g>
		<g>
			<path fill="#639541" d="M103.56,31.917c0.493,0,1.559-0.748,0.583-0.748C103.651,31.169,102.584,31.917,103.56,31.917
				L103.56,31.917z"/>
		</g>
	</g>
	<g>
		<g>
			<path fill="#639541" d="M110.528,28.306c0.42,0,1.58-0.636,0.614-0.636C110.721,27.67,109.561,28.306,110.528,28.306
				L110.528,28.306z"/>
		</g>
	</g>
	<g>
		<g>
			<path fill="#639541" d="M109.253,26.764c0.845,0,1.097-1.107,0.116-1.107C108.524,25.657,108.272,26.764,109.253,26.764
				L109.253,26.764z"/>
		</g>
	</g>
	<g>
		<g>
			<path fill="#639541" d="M111.037,34.025c0.429,0,1.578-0.649,0.61-0.649C111.219,33.377,110.069,34.025,111.037,34.025
				L111.037,34.025z"/>
		</g>
	</g>
	<g>
		<g>
			<path fill="#639541" d="M85.992,39.335c0.311,0,1.654-0.604,0.936-0.604C86.618,38.731,85.275,39.335,85.992,39.335
				L85.992,39.335z"/>
		</g>
	</g>
	<g>
		<g>
			<path fill="#639541" d="M81.49,38.716c0.586,0,1.526-0.89,0.545-0.89C81.449,37.826,80.509,38.716,81.49,38.716L81.49,38.716z"/>
		</g>
	</g>
	<g>
		<g>
			<path fill="#639541" d="M81.458,33.645c0.43,0,1.578-0.651,0.609-0.651C81.638,32.995,80.49,33.645,81.458,33.645L81.458,33.645z
				"/>
		</g>
	</g>
	<g>
		<g>
			<path fill="#639541" d="M76.14,36.362c0.496,0,1.559-0.753,0.582-0.753C76.226,35.61,75.163,36.362,76.14,36.362L76.14,36.362z"
				/>
		</g>
	</g>
	<g>
		<g>
			<path fill="#639541" d="M79.844,41.652c0.607,0,1.517-0.922,0.537-0.922C79.774,40.73,78.863,41.652,79.844,41.652L79.844,41.652
				z"/>
		</g>
	</g>
	<g>
		<g>
			<path fill="#639541" d="M96.072,37.636c0.501,0,1.557-0.76,0.58-0.76C96.151,36.876,95.095,37.636,96.072,37.636L96.072,37.636z"
				/>
		</g>
	</g>
	<g>
		<g>
			<path fill="#639541" d="M90.869,37.39c0.511,0,1.554-0.776,0.576-0.776C90.934,36.614,89.892,37.39,90.869,37.39L90.869,37.39z"
				/>
		</g>
	</g>
	<g>
		<g>
			<path fill="#639541" d="M91.64,29.299c0.557,0,1.537-0.845,0.557-0.845C91.641,28.454,90.66,29.299,91.64,29.299L91.64,29.299z"
				/>
		</g>
	</g>
	<g>
		<g>
			<path fill="#639541" d="M99.896,29.061c0.577,0,1.53-0.876,0.549-0.876C99.868,28.185,98.915,29.061,99.896,29.061L99.896,29.061
				z"/>
		</g>
	</g>
	<g>
		<g>
			<path fill="#639541" d="M93.917,40.312c0.514,0,1.553-0.78,0.575-0.78C93.977,39.531,92.939,40.312,93.917,40.312L93.917,40.312z
				"/>
		</g>
	</g>
	<g>
		<g>
			<path fill="#639541" d="M104.784,35.919c0.325,0,1.658-0.626,0.93-0.626C105.389,35.292,104.056,35.919,104.784,35.919
				L104.784,35.919z"/>
		</g>
	</g>
	<g>
		<g>
			<path fill="#639541" d="M115.464,30.793c0.82,0,1.118-1.039,0.134-1.039C114.779,29.754,114.48,30.793,115.464,30.793
				L115.464,30.793z"/>
		</g>
	</g>
	<g>
		<g>
			<path fill="#639541" d="M115.465,37.142c0.821,0,1.117-1.043,0.133-1.043C114.777,36.1,114.481,37.142,115.465,37.142
				L115.465,37.142z"/>
		</g>
	</g>
	<g>
		<g>
			<path fill="#639541" d="M112.976,41.646c0.599,0,1.521-0.91,0.54-0.91C112.917,40.736,111.996,41.646,112.976,41.646
				L112.976,41.646z"/>
		</g>
	</g>
	<g>
		<g>
			<path fill="#639541" d="M104.952,41.548c0.471,0,1.566-0.715,0.592-0.715C105.073,40.834,103.979,41.548,104.952,41.548
				L104.952,41.548z"/>
		</g>
	</g>
	<g>
		<g>
			<path fill="#639541" d="M103.029,38.431c0.836,0,1.105-1.082,0.123-1.082C102.316,37.35,102.047,38.431,103.029,38.431
				L103.029,38.431z"/>
		</g>
	</g>
	<g>
		<g>
			<path fill="#639541" d="M99.117,43.848c0.491,0,1.56-0.744,0.584-0.744C99.21,43.104,98.141,43.848,99.117,43.848L99.117,43.848z
				"/>
		</g>
	</g>
	<g>
		<g>
			<path fill="#639541" d="M99.865,34.277c0.425,0,1.579-0.643,0.611-0.643C100.051,33.633,98.897,34.277,99.865,34.277
				L99.865,34.277z"/>
		</g>
	</g>
	<g>
		<g>
			<path fill="#639541" d="M108.332,31.072c0.297,0,1.649-0.582,0.942-0.582C108.977,30.49,107.625,31.072,108.332,31.072
				L108.332,31.072z"/>
		</g>
	</g>
	<g>
		<g>
			<path fill="#639541" d="M108.379,38.623c0.464,0,1.568-0.704,0.595-0.704C108.51,37.919,107.406,38.623,108.379,38.623
				L108.379,38.623z"/>
		</g>
	</g>
	<g>
		<g>
			<path fill="#639541" d="M118.396,34.646c0.852,0,1.091-1.128,0.11-1.128C117.654,33.518,117.416,34.646,118.396,34.646
				L118.396,34.646z"/>
		</g>
	</g>
	<g>
		<g>
			<path fill="#639541" d="M117.976,38.165c0.277,0,1.641-0.548,0.951-0.548C118.65,37.616,117.286,38.165,117.976,38.165
				L117.976,38.165z"/>
		</g>
	</g>
	<g>
		<g>
			<path fill="#639541" d="M85.988,46.937c0.292,0,1.647-0.574,0.944-0.574C86.64,46.363,85.285,46.937,85.988,46.937L85.988,46.937
				z"/>
		</g>
	</g>
	<g>
		<g>
			<path fill="#639541" d="M92.148,46.31c0.556,0,1.538-0.844,0.558-0.844C92.149,45.466,91.168,46.31,92.148,46.31L92.148,46.31z"
				/>
		</g>
	</g>
	<g>
		<g>
			<path fill="#639541" d="M105.18,26.345c0.817,0,1.121-1.03,0.137-1.03C104.5,25.315,104.196,26.345,105.18,26.345L105.18,26.345z
				"/>
		</g>
	</g>
	<g>
		<g>
			<path fill="#639541" d="M121.281,42.115c0.295,0,1.648-0.579,0.943-0.579C121.928,41.536,120.575,42.115,121.281,42.115
				L121.281,42.115z"/>
		</g>
	</g>
	<g>
		<g>
			<path fill="#639541" d="M121.683,37.768c0.814,0,1.123-1.024,0.138-1.024C121.007,36.744,120.698,37.768,121.683,37.768
				L121.683,37.768z"/>
		</g>
	</g>
	<g>
		<g>
			<path fill="#639541" d="M106.883,45.201c0.6,0,1.52-0.911,0.54-0.911C106.823,44.29,105.902,45.201,106.883,45.201
				L106.883,45.201z"/>
		</g>
	</g>
	<g>
		<g>
			<path fill="#639541" d="M85.381,45.788c0.831,0,1.109-1.069,0.126-1.069C84.676,44.719,84.398,45.788,85.381,45.788
				L85.381,45.788z"/>
		</g>
	</g>
	<g>
		<g>
			<path fill="#639541" d="M89.202,43.673c0.428,0,1.578-0.647,0.61-0.647C89.384,43.026,88.234,43.673,89.202,43.673L89.202,43.673
				z"/>
		</g>
	</g>
	<g>
		<g>
			<path fill="#639541" d="M88.598,38.458c0.58,0,1.528-0.881,0.548-0.881C88.565,37.577,87.618,38.458,88.598,38.458L88.598,38.458
				z"/>
		</g>
	</g>
	<g>
		<g>
			<path fill="#639541" d="M91.123,32.947c0.512,0,1.553-0.777,0.575-0.777C91.186,32.17,90.146,32.947,91.123,32.947L91.123,32.947
				z"/>
		</g>
	</g>
	<g>
		<g>
			<path fill="#639541" d="M100.905,39.446c0.544,0,1.542-0.826,0.563-0.826C100.924,38.62,99.925,39.446,100.905,39.446
				L100.905,39.446z"/>
		</g>
	</g>
	<g>
		<g>
			<path fill="#639541" d="M97.708,41.517c0.431,0,1.577-0.652,0.609-0.652C97.886,40.865,96.74,41.517,97.708,41.517L97.708,41.517
				z"/>
		</g>
	</g>
	<g>
		<g>
			<path fill="#639541" d="M108.388,34.596c0.511,0,1.554-0.775,0.576-0.775C108.453,33.821,107.411,34.596,108.388,34.596
				L108.388,34.596z"/>
		</g>
	</g>
	<g>
		<g>
			<path fill="#639541" d="M106.047,30.436c0.296,0,1.648-0.579,0.943-0.579C106.694,29.857,105.341,30.436,106.047,30.436
				L106.047,30.436z"/>
		</g>
	</g>
	<g>
		<g>
			<path fill="#639541" d="M112.854,31.761c0.622,0,1.511-0.944,0.531-0.944C112.763,30.817,111.874,31.761,112.854,31.761
				L112.854,31.761z"/>
		</g>
	</g>
	<g>
		<g>
			<path fill="#639541" d="M110.56,38.2c0.576,0,1.53-0.874,0.55-0.874C110.533,37.326,109.579,38.2,110.56,38.2L110.56,38.2z"/>
		</g>
	</g>
	<g>
		<g>
			<path fill="#639541" d="M112.183,27.689c0.442,0,1.574-0.67,0.604-0.67C112.344,27.018,111.213,27.689,112.183,27.689
				L112.183,27.689z"/>
		</g>
	</g>
	<g>
		<g>
			<path fill="#639541" d="M115.591,42.725c0.819,0,1.119-1.037,0.135-1.037C114.907,41.688,114.607,42.725,115.591,42.725
				L115.591,42.725z"/>
		</g>
	</g>
	<g>
		<g>
			<path fill="#639541" d="M115.077,39.403c0.803,0,1.133-0.993,0.147-0.993C114.421,38.409,114.091,39.403,115.077,39.403
				L115.077,39.403z"/>
		</g>
	</g>
	<g>
		<g>
			<path fill="#639541" d="M83.785,41.674c0.636,0,1.505-0.965,0.525-0.965C83.675,40.708,82.805,41.674,83.785,41.674
				L83.785,41.674z"/>
		</g>
	</g>
	<g>
		<g>
			<path fill="#639541" d="M53.319,28.482c0.811,0,1.126-1.015,0.141-1.015C52.649,27.467,52.334,28.482,53.319,28.482
				L53.319,28.482z"/>
		</g>
	</g>
	<g>
		<g>
			<path fill="#639541" d="M47.005,35.156c0.496,0,1.559-0.752,0.582-0.752C47.091,34.404,46.028,35.156,47.005,35.156
				L47.005,35.156z"/>
		</g>
	</g>
	<g>
		<g>
			<path fill="#639541" d="M54.514,32.379c0.433,0,1.577-0.656,0.608-0.656C54.688,31.723,53.545,32.379,54.514,32.379
				L54.514,32.379z"/>
		</g>
	</g>
	<g>
		<g>
			<path fill="#639541" d="M49.204,36.334c0.542,0,1.543-0.823,0.563-0.823C49.225,35.511,48.224,36.334,49.204,36.334
				L49.204,36.334z"/>
		</g>
	</g>
	<g>
		<g>
			<path fill="#639541" d="M49.053,42.075c0.579,0,1.529-0.879,0.548-0.879C49.022,41.196,48.072,42.075,49.053,42.075
				L49.053,42.075z"/>
		</g>
	</g>
	<g>
		<g>
			<path fill="#639541" d="M68.927,36.576c0.61,0,1.516-0.926,0.536-0.926C68.852,35.65,67.946,36.576,68.927,36.576L68.927,36.576z
				"/>
		</g>
	</g>
	<g>
		<g>
			<path fill="#639541" d="M62.895,32.508c0.603,0,1.519-0.915,0.539-0.915C62.831,31.593,61.915,32.508,62.895,32.508
				L62.895,32.508z"/>
		</g>
	</g>
	<g>
		<g>
			<path fill="#639541" d="M60.853,46.624c0.298,0,1.649-0.582,0.942-0.582C61.497,46.041,60.146,46.624,60.853,46.624
				L60.853,46.624z"/>
		</g>
	</g>
	<g>
		<g>
			<path fill="#639541" d="M50.95,45.223c0.545,0,1.542-0.827,0.562-0.827C50.967,44.395,49.971,45.223,50.95,45.223L50.95,45.223z"
				/>
		</g>
	</g>
	<g>
		<g>
			<path fill="#639541" d="M36.047,40.895c0.613,0,1.515-0.931,0.534-0.931C35.969,39.964,35.067,40.895,36.047,40.895
				L36.047,40.895z"/>
		</g>
	</g>
	<g>
		<g>
			<path fill="#639541" d="M32.624,42.899c0.807,0,1.13-1.004,0.144-1.004C31.962,41.895,31.639,42.899,32.624,42.899L32.624,42.899
				z"/>
		</g>
	</g>
	<g>
		<g>
			<path fill="#639541" d="M76.684,41.212c0.827,0,1.113-1.058,0.129-1.058C75.986,40.154,75.7,41.212,76.684,41.212L76.684,41.212z
				"/>
		</g>
	</g>
	<g>
		<g>
			<path fill="#639541" d="M76.345,43.658c0.319,0,1.656-0.617,0.933-0.617C76.959,43.041,75.622,43.658,76.345,43.658
				L76.345,43.658z"/>
		</g>
	</g>
	<path opacity="0.4" fill="#FFFFFF" d="M58.531,22.593c0,0-4.824,2.222-6.855,6.284C51.676,28.877,52.818,23.482,58.531,22.593z"/>
</g>
<g>
	<g>
		<g>
			<path fill="#513F27" d="M68.934,17.58c0.813,0,1.124-1.02,0.14-1.02C68.261,16.561,67.95,17.58,68.934,17.58L68.934,17.58z"/>
		</g>
	</g>
	<g>
		<g>
			<path fill="#513F27" d="M66.317,20.244c0.42,0,1.58-0.635,0.614-0.635C66.511,19.609,65.351,20.244,66.317,20.244L66.317,20.244z
				"/>
		</g>
	</g>
	<g>
		<g>
			<path fill="#513F27" d="M72.442,16.839c0.574,0,1.531-0.871,0.551-0.871C72.419,15.969,71.462,16.839,72.442,16.839
				L72.442,16.839z"/>
		</g>
	</g>
	<g>
		<g>
			<path fill="#513F27" d="M61.619,20.304c0.855,0,1.089-1.135,0.109-1.135C60.872,19.169,60.639,20.304,61.619,20.304
				L61.619,20.304z"/>
		</g>
	</g>
	<g>
		<g>
			<path fill="#513F27" d="M60.064,23.025c0.57,0,1.532-0.865,0.552-0.865C60.046,22.16,59.083,23.025,60.064,23.025L60.064,23.025z
				"/>
		</g>
	</g>
	<g>
		<g>
			<path fill="#513F27" d="M70.624,19.156c0.28,0,1.642-0.553,0.95-0.553C71.294,18.603,69.932,19.156,70.624,19.156L70.624,19.156z
				"/>
		</g>
	</g>
	<g>
		<g>
			<path fill="#513F27" d="M75.01,17.972c0.56,0,1.536-0.85,0.556-0.85C75.006,17.121,74.03,17.972,75.01,17.972L75.01,17.972z"/>
		</g>
	</g>
	<g>
		<g>
			<path fill="#513F27" d="M79.309,17.359c0.631,0,1.507-0.958,0.527-0.958C79.206,16.401,78.329,17.359,79.309,17.359
				L79.309,17.359z"/>
		</g>
	</g>
	<g>
		<g>
			<path fill="#513F27" d="M67.889,24.254c0.819,0,1.119-1.037,0.135-1.037C67.205,23.217,66.905,24.254,67.889,24.254
				L67.889,24.254z"/>
		</g>
	</g>
	<g>
		<g>
			<path fill="#513F27" d="M63.197,22.202c0.279,0,1.642-0.552,0.95-0.552C63.868,21.65,62.506,22.202,63.197,22.202L63.197,22.202z
				"/>
		</g>
	</g>
	<g>
		<g>
			<path fill="#513F27" d="M82.75,17.237c0.84,0,1.101-1.094,0.12-1.094C82.03,16.143,81.769,17.237,82.75,17.237L82.75,17.237z"/>
		</g>
	</g>
	<g>
		<g>
			<path fill="#513F27" d="M87.559,19.233c0.465,0,1.568-0.706,0.595-0.706C87.688,18.527,86.586,19.233,87.559,19.233
				L87.559,19.233z"/>
		</g>
	</g>
	<g>
		<g>
			<path fill="#513F27" d="M74.911,19.575c0.54,0,1.544-0.819,0.564-0.819C74.936,18.756,73.932,19.575,74.911,19.575L74.911,19.575
				z"/>
		</g>
	</g>
	<g>
		<g>
			<path fill="#513F27" d="M71.872,22.173c0.576,0,1.53-0.874,0.55-0.874C71.845,21.299,70.891,22.173,71.872,22.173L71.872,22.173z
				"/>
		</g>
	</g>
	<g>
		<g>
			<path fill="#513F27" d="M79.198,22.059c0.551,0,1.54-0.836,0.56-0.836C79.207,21.223,78.218,22.059,79.198,22.059L79.198,22.059z
				"/>
		</g>
	</g>
	<g>
		<g>
			<path fill="#513F27" d="M59.32,24.825c0.819,0,1.119-1.036,0.135-1.036C58.637,23.789,58.336,24.825,59.32,24.825L59.32,24.825z"
				/>
		</g>
	</g>
	<g>
		<g>
			<path fill="#513F27" d="M55.77,27.464c0.522,0,1.55-0.792,0.572-0.792C55.819,26.672,54.791,27.464,55.77,27.464L55.77,27.464z"
				/>
		</g>
	</g>
	<g>
		<g>
			<path fill="#513F27" d="M57.112,25.439c0.318,0,1.656-0.615,0.933-0.615C57.728,24.824,56.389,25.439,57.112,25.439
				L57.112,25.439z"/>
		</g>
	</g>
	<g>
		<g>
			<path fill="#513F27" d="M78.738,19.261c0.628,0,1.508-0.954,0.528-0.954C78.637,18.307,77.757,19.261,78.738,19.261
				L78.738,19.261z"/>
		</g>
	</g>
	<g>
		<g>
			<path fill="#513F27" d="M58.472,27.619c0.843,0,1.099-1.102,0.118-1.102C57.747,26.517,57.491,27.619,58.472,27.619
				L58.472,27.619z"/>
		</g>
	</g>
	<g>
		<g>
			<path fill="#513F27" d="M63.939,19.967c0.431,0,1.577-0.652,0.609-0.652C64.118,19.315,62.971,19.967,63.939,19.967
				L63.939,19.967z"/>
		</g>
	</g>
	<g>
		<g>
			<path fill="#513F27" d="M59.805,21.557c0.843,0,1.099-1.102,0.118-1.102C59.08,20.455,58.824,21.557,59.805,21.557L59.805,21.557
				z"/>
		</g>
	</g>
	<g>
		<g>
			<path fill="#513F27" d="M63.748,25.573c0.582,0,1.528-0.883,0.547-0.883C63.713,24.69,62.767,25.573,63.748,25.573L63.748,25.573
				z"/>
		</g>
	</g>
	<g>
		<g>
			<path fill="#513F27" d="M61.586,27.367c0.562,0,1.536-0.853,0.555-0.853C61.579,26.515,60.605,27.367,61.586,27.367
				L61.586,27.367z"/>
		</g>
	</g>
	<g>
		<g>
			<path fill="#513F27" d="M68.551,21.337c0.478,0,1.564-0.725,0.589-0.725C68.662,20.612,67.576,21.337,68.551,21.337
				L68.551,21.337z"/>
		</g>
	</g>
	<g>
		<g>
			<path fill="#513F27" d="M81.848,19.746c0.473,0,1.566-0.717,0.592-0.717C81.966,19.029,80.874,19.746,81.848,19.746
				L81.848,19.746z"/>
		</g>
	</g>
	<g>
		<g>
			<path fill="#513F27" d="M76.873,16.931c0.826,0,1.114-1.054,0.13-1.054C76.178,15.877,75.89,16.931,76.873,16.931L76.873,16.931z
				"/>
		</g>
	</g>
	<g>
		<g>
			<path fill="#513F27" d="M84.829,19.835c0.464,0,1.568-0.704,0.595-0.704C84.96,19.131,83.856,19.835,84.829,19.835L84.829,19.835
				z"/>
		</g>
	</g>
	<g>
		<g>
			<path fill="#513F27" d="M72.329,26.294c0.486,0,1.562-0.737,0.586-0.737C72.43,25.557,71.354,26.294,72.329,26.294L72.329,26.294
				z"/>
		</g>
	</g>
	<g>
		<g>
			<path fill="#513F27" d="M73.341,23.532c0.547,0,1.541-0.83,0.561-0.83C73.356,22.701,72.362,23.532,73.341,23.532L73.341,23.532z
				"/>
		</g>
	</g>
</g>
<path opacity="0.3" fill="#FFFFFF" d="M20.386,128.383L132.711,22.226c0,0,53.525,52.43-0.91,111.693
	C131.801,133.919,76.212,185.305,20.386,128.383z"/>
</svg>
