<?xml version="1.0" encoding="utf-8"?>
<!-- Generator: Adobe Illustrator 17.0.0, SVG Export Plug-In . SVG Version: 6.00 Build 0)  -->
<!DOCTYPE svg PUBLIC "-//W3C//DTD SVG 1.1//EN" "http://www.w3.org/Graphics/SVG/1.1/DTD/svg11.dtd">
<svg version="1.1" id="Layer_1" xmlns="http://www.w3.org/2000/svg" xmlns:xlink="http://www.w3.org/1999/xlink" x="0px" y="0px"
	 width="157.044px" height="155.201px" viewBox="0 0 157.044 155.201" enable-background="new 0 0 157.044 155.201"
	 xml:space="preserve">
<g>
	<circle fill="#CEE5C0" cx="78.465" cy="77.333" r="77.333"/>
</g>
<path fill="#95C957" d="M50.831,29.534c0,0,2.815-8.584,12.21-8.683l1.714,10.12l-4.222,4.951L50.831,29.534z"/>
<path fill="#95C957" d="M58.639,29.433c0,0,2.324-16.933,24.373-13.632c0,0,12.162,1.765,15.963,15.482L92.62,59.98L58.639,29.433z"
	/>
<path fill="#95C957" d="M63.915,19.999c0,0,3.515-8.606,12.428-4.625v6.774L63.915,19.999z"/>
<path fill="#B1D78F" d="M74.364,78.704c0,0-8.48-0.337-6.713-3.577c0,0-7.362-0.499-3.606-5.301c0,0-2.965-3.627,1.865-4.757
	c0,0-6.564-6.285-4.427-13.377c0,0-3.973-6.023,4.324-9.476c0,0,8.014-19.699,33.01-17.639c0,0,28.038,2.957,30.238,26.73
	c0,0,3.338,15.704-7.54,23.793C121.515,75.1,86.805,86.497,74.364,78.704z"/>
<path fill="#DCEDD5" d="M34.359,74.673c0,0-6.737-1.617-4.77-4.219c0,0-5.814-1.587-1.986-5.268c0,0-1.759-3.682,2.304-3.935
	c0,0-4.189-6.601-1.27-12.568c0,0-2.158-5.967,5.078-7.744c0,0,9.775-16.25,29.452-10.537c0,0,21.962,6.982,19.677,28.437
	c0,0,0.001,14.465-10.092,19.96C72.753,78.797,43.001,83.526,34.359,74.673z"/>
<path fill="#F1F1F2" d="M30.478,77.816l6.284,51.415l0.254,1.111c0.763,5.273,21.74,6.887,21.74,6.887s14.187,1.714,33.515,0.571
	c0,0,31.706-1.523,33.039-9.712l3.999-51.32C129.309,76.769,74.467,87.274,30.478,77.816z"/>
<path fill="#95C957" d="M29.59,70.453c0,0-1.714,2.031,3.745,3.935c0,0,7.807,2.285,16.884,3.364c0,0,14.726,1.27,24.184,1.016
	c0,0,20.312,0.444,34.848-1.523c0,0,13.774-2.158,16.821-3.682c0,0,7.744-2.602,1.968-6.094l0.635-0.889
	c0,0,9.359,4.316,1.506,9.902c0,0-6.012,4.824-26.388,5.776c0,0-17.456,1.143-27.294,0.952c0,0-36.12,1.079-47.163-6.443
	c0,0-5.394-3.079-1.141-7.204L29.59,70.453z"/>
<path fill="#DCEDD5" d="M50.831,77.804c0,0,0.879,3.029,3.26,2.521c0,0,3.047-0.604,3.999,1.3c0,0,2.38,5.09,5.427,1.641
	c0,0,2.571-2.021,4.761-1.355c0,0,6.04,0.677,8.066-5.803L50.831,77.804z"/>
<path fill="#DCEDD5" d="M74.568,79.385c0,0,3.815-3.23,5.706-9.083C80.274,70.302,72.095,75.55,74.568,79.385z"/>
<g>
	<ellipse fill="#DCEDD5" cx="60.78" cy="90.004" rx="1.595" ry="1.619"/>
	<path fill="#DCEDD5" d="M59.185,90.004c0,0,0.095-1.095,1.595-3.57c0,0,1.785,2.285,1.595,4.047L59.185,90.004z"/>
</g>
<g>
	<ellipse fill="#DCEDD5" cx="60.773" cy="103.945" rx="1.595" ry="1.619"/>
	<path fill="#DCEDD5" d="M59.178,103.945c0,0,0.095-1.095,1.595-3.57c0,0,1.785,2.285,1.595,4.047L59.178,103.945z"/>
</g>
<g>
	<ellipse fill="#B1D78F" cx="113.469" cy="86.766" rx="1.595" ry="1.619"/>
	<path fill="#B1D78F" d="M111.874,86.766c0,0,0.095-1.095,1.595-3.57c0,0,1.785,2.285,1.595,4.047L111.874,86.766z"/>
</g>
<g>
	<ellipse fill="#B1D78F" cx="110.268" cy="89.064" rx="0.992" ry="1.007"/>
	<path fill="#B1D78F" d="M109.276,89.064c0,0,0.059-0.681,0.992-2.222c0,0,1.111,1.422,0.992,2.518L109.276,89.064z"/>
</g>
<path fill="#B1D78F" d="M121.848,74.843c0,0,2.764,3.819,5.811,0c0,0,0.458-2.169,1.879-2.169c0,0,2.358-0.854,0.367-3.531
	c0,0,0.304-1.585-1.733-3.407L121.848,74.843z"/>
<path fill="#B1D78F" d="M102.093,78.003c0,0,0.366,2.753,3.032,2.283c0,0,1.523-2.284,4.38-0.901c0,0,4.436,5.782,3.932-2.844
	L102.093,78.003z"/>
<path fill="#B1D78F" d="M105.802,26.112c0,0,21.067-0.644,22.763,21.912L105.802,26.112z"/>
<path fill="#B1D78F" d="M102.093,25.147c0,0,8.847-4.037,15.556,4.036l-4.173,5.407L102.093,25.147z"/>
<path fill="#B1D78F" d="M129.309,60.627c0,0,2.87,3.078,0.229,6.42l-3.262,2.81l-1.029-5.408L129.309,60.627z"/>
<path opacity="0.3" fill="#FFFFFF" d="M74.657,33.994c0,0,10.6-9.14,25.898-7.744C100.555,26.25,84.115,22.061,74.657,33.994z"/>
<path opacity="0.3" fill="#FFFFFF" d="M37.808,37.677c0,0,9.822-8.653,23.68-6.988C61.488,30.689,46.653,26.291,37.808,37.677z"/>
<path fill="#95C957" d="M58.639,21.612c0,0,1.228-4.643,6.878-4.148l1.904,6.961L58.639,21.612z"/>
<g>
	<g>
		<g>
			<path fill="#95C957" d="M48.497,33.742c0.639,0,1.504-0.97,0.524-0.97C48.382,32.772,47.517,33.742,48.497,33.742L48.497,33.742z
				"/>
		</g>
	</g>
	<g>
		<g>
			<path fill="#95C957" d="M53.786,34.344c0.431,0,1.577-0.652,0.609-0.652C53.965,33.693,52.818,34.344,53.786,34.344
				L53.786,34.344z"/>
		</g>
	</g>
	<g>
		<g>
			<path fill="#95C957" d="M45.83,34.741c0.806,0,1.131-1,0.145-1C45.17,33.74,44.845,34.741,45.83,34.741L45.83,34.741z"/>
		</g>
	</g>
	<g>
		<g>
			<path fill="#95C957" d="M41.116,37.292c0.55,0,1.54-0.835,0.56-0.835C41.125,36.457,40.136,37.292,41.116,37.292L41.116,37.292z"
				/>
		</g>
	</g>
	<g>
		<g>
			<path fill="#95C957" d="M53.812,37.487c0.555,0,1.538-0.843,0.558-0.843C53.815,36.644,52.832,37.487,53.812,37.487
				L53.812,37.487z"/>
		</g>
	</g>
	<g>
		<g>
			<path fill="#95C957" d="M51.4,35.077c0.304,0,1.651-0.593,0.939-0.593C52.035,34.483,50.687,35.077,51.4,35.077L51.4,35.077z"/>
		</g>
	</g>
	<g>
		<g>
			<path fill="#95C957" d="M60.259,33.385c0.421,0,1.58-0.637,0.613-0.637C60.451,32.748,59.292,33.385,60.259,33.385L60.259,33.385
				z"/>
		</g>
	</g>
	<g>
		<g>
			<path fill="#95C957" d="M60.089,37.147c0.276,0,1.64-0.545,0.952-0.545C60.766,36.602,59.401,37.147,60.089,37.147L60.089,37.147
				z"/>
		</g>
	</g>
	<g>
		<g>
			<path fill="#95C957" d="M56.675,37.892C57.263,37.892,58.2,37,57.22,37C56.632,37,55.694,37.892,56.675,37.892L56.675,37.892z"/>
		</g>
	</g>
	<g>
		<g>
			<path fill="#95C957" d="M56.685,34.311c0.636,0,1.505-0.966,0.525-0.966C56.574,33.345,55.705,34.311,56.685,34.311
				L56.685,34.311z"/>
		</g>
	</g>
	<g>
		<g>
			<path fill="#95C957" d="M45.192,38.026c0.46,0,1.569-0.698,0.597-0.698C45.328,37.328,44.219,38.026,45.192,38.026L45.192,38.026
				z"/>
		</g>
	</g>
	<g>
		<g>
			<path fill="#95C957" d="M38.493,38.359c0.451,0,1.572-0.684,0.601-0.684C38.642,37.675,37.522,38.359,38.493,38.359
				L38.493,38.359z"/>
		</g>
	</g>
	<g>
		<g>
			<path fill="#95C957" d="M44.138,35.988c0.505,0,1.556-0.766,0.579-0.766C44.211,35.222,43.16,35.988,44.138,35.988L44.138,35.988
				z"/>
		</g>
	</g>
	<g>
		<g>
			<path fill="#95C957" d="M42.504,38.913c0.816,0,1.122-1.029,0.137-1.029C41.824,37.884,41.519,38.913,42.504,38.913
				L42.504,38.913z"/>
		</g>
	</g>
	<g>
		<g>
			<path fill="#95C957" d="M51.152,33.128c0.583,0,1.527-0.884,0.547-0.884C51.116,32.243,50.171,33.128,51.152,33.128
				L51.152,33.128z"/>
		</g>
	</g>
	<g>
		<g>
			<path fill="#95C957" d="M51.161,38.494c0.627,0,1.509-0.953,0.529-0.953C51.062,37.541,50.18,38.494,51.161,38.494L51.161,38.494
				z"/>
		</g>
	</g>
	<g>
		<g>
			<path fill="#95C957" d="M58.57,32.294c0.815,0,1.122-1.026,0.138-1.026C57.892,31.268,57.585,32.294,58.57,32.294L58.57,32.294z"
				/>
		</g>
	</g>
	<g>
		<g>
			<path fill="#95C957" d="M65.45,41.586c0.822,0,1.117-1.044,0.133-1.044C64.761,40.542,64.466,41.586,65.45,41.586L65.45,41.586z"
				/>
		</g>
	</g>
	<g>
		<g>
			<path fill="#95C957" d="M57.834,41.779c0.824,0,1.115-1.05,0.132-1.05C57.141,40.73,56.85,41.779,57.834,41.779L57.834,41.779z"
				/>
		</g>
	</g>
	<g>
		<g>
			<path fill="#95C957" d="M51.714,40.331c0.54,0,1.544-0.82,0.564-0.82C51.738,39.512,50.735,40.331,51.714,40.331L51.714,40.331z"
				/>
		</g>
	</g>
	<g>
		<g>
			<path fill="#95C957" d="M46.73,41.47c0.535,0,1.545-0.812,0.566-0.812C46.762,40.658,45.751,41.47,46.73,41.47L46.73,41.47z"/>
		</g>
	</g>
	<g>
		<g>
			<path fill="#95C957" d="M40.911,42.276c0.635,0,1.505-0.965,0.525-0.965C40.801,41.312,39.931,42.276,40.911,42.276
				L40.911,42.276z"/>
		</g>
	</g>
	<g>
		<g>
			<path fill="#95C957" d="M64.683,39.282c0.808,0,1.129-1.006,0.143-1.006C64.019,38.276,63.698,39.282,64.683,39.282
				L64.683,39.282z"/>
		</g>
	</g>
	<g>
		<g>
			<path fill="#95C957" d="M83.7,37.452c0.51,0,1.554-0.774,0.576-0.774C83.766,36.678,82.722,37.452,83.7,37.452L83.7,37.452z"/>
		</g>
	</g>
	<g>
		<g>
			<path fill="#95C957" d="M62.97,35.095c0.81,0,1.127-1.012,0.142-1.012C62.302,34.084,61.985,35.095,62.97,35.095L62.97,35.095z"
				/>
		</g>
	</g>
	<g>
		<g>
			<path fill="#95C957" d="M69.423,38.682c0.288,0,1.646-0.567,0.946-0.567C70.081,38.115,68.724,38.682,69.423,38.682
				L69.423,38.682z"/>
		</g>
	</g>
	<g>
		<g>
			<path fill="#95C957" d="M68.844,42.202c0.496,0,1.559-0.753,0.582-0.753C68.93,41.45,67.867,42.202,68.844,42.202L68.844,42.202z
				"/>
		</g>
	</g>
	<g>
		<g>
			<path fill="#95C957" d="M72.273,42.78c0.505,0,1.556-0.766,0.579-0.766C72.347,42.014,71.296,42.78,72.273,42.78L72.273,42.78z"
				/>
		</g>
	</g>
	<g>
		<g>
			<path fill="#95C957" d="M67.122,35.698c0.458,0,1.57-0.694,0.598-0.694C67.262,35.005,66.15,35.698,67.122,35.698L67.122,35.698z
				"/>
		</g>
	</g>
	<g>
		<g>
			<path fill="#95C957" d="M35.344,44.232c0.322,0,1.657-0.622,0.931-0.622C35.953,43.609,34.618,44.232,35.344,44.232
				L35.344,44.232z"/>
		</g>
	</g>
	<g>
		<g>
			<path fill="#95C957" d="M30.18,44.08c0.461,0,1.569-0.7,0.596-0.7C30.315,43.38,29.207,44.08,30.18,44.08L30.18,44.08z"/>
		</g>
	</g>
	<g>
		<g>
			<path fill="#95C957" d="M30.208,46.849c0.597,0,1.521-0.907,0.541-0.907C30.151,45.943,29.227,46.849,30.208,46.849
				L30.208,46.849z"/>
		</g>
	</g>
	<g>
		<g>
			<path fill="#95C957" d="M43.735,45.178c0.802,0,1.133-0.992,0.147-0.992C43.079,44.186,42.748,45.178,43.735,45.178
				L43.735,45.178z"/>
		</g>
	</g>
	<g>
		<g>
			<path fill="#95C957" d="M55.881,51.102c0.431,0,1.577-0.652,0.609-0.652C56.059,50.45,54.913,51.102,55.881,51.102L55.881,51.102
				z"/>
		</g>
	</g>
	<g>
		<g>
			<path fill="#95C957" d="M50.201,47.415c0.589,0,1.525-0.895,0.544-0.895C50.156,46.52,49.22,47.415,50.201,47.415L50.201,47.415z
				"/>
		</g>
	</g>
	<g>
		<g>
			<path fill="#95C957" d="M55.688,46.33c0.417,0,1.581-0.63,0.615-0.63C55.885,45.7,54.722,46.33,55.688,46.33L55.688,46.33z"/>
		</g>
	</g>
	<g>
		<g>
			<path fill="#95C957" d="M64.094,33.551c0.302,0,1.651-0.59,0.94-0.59C64.733,32.962,63.384,33.551,64.094,33.551L64.094,33.551z"
				/>
		</g>
	</g>
	<g>
		<g>
			<path fill="#95C957" d="M64.475,47.384c0.549,0,1.54-0.833,0.561-0.833C64.486,46.551,63.495,47.384,64.475,47.384L64.475,47.384
				z"/>
		</g>
	</g>
	<g>
		<g>
			<path fill="#95C957" d="M61.416,43.723c0.492,0,1.56-0.747,0.584-0.747C61.508,42.976,60.44,43.723,61.416,43.723L61.416,43.723z
				"/>
		</g>
	</g>
	<g>
		<g>
			<path fill="#95C957" d="M74.734,38.916c0.433,0,1.577-0.656,0.608-0.656C74.909,38.261,73.765,38.916,74.734,38.916
				L74.734,38.916z"/>
		</g>
	</g>
	<g>
		<g>
			<path fill="#95C957" d="M73.261,39.316c0.833,0,1.108-1.073,0.125-1.073C72.554,38.243,72.279,39.316,73.261,39.316
				L73.261,39.316z"/>
		</g>
	</g>
	<g opacity="0.5">
		
			<image overflow="visible" width="75" height="74" xlink:href="419704D28A4FEE0D.png"  transform="matrix(1 0 0 1 41.2217 -1.9549)">
		</image>
	</g>
	<g opacity="0.5">
		
			<image overflow="visible" width="74" height="74" xlink:href="419704D28A4FEE0F.png"  transform="matrix(1 0 0 1 48.2217 -1.9549)">
		</image>
	</g>
	<g>
		
			<image overflow="visible" width="74" height="74" xlink:href="419704D28A4FEE0A.png"  transform="matrix(1 0 0 1 51.2217 4.0451)">
		</image>
	</g>
	<g>
		<g>
			<path fill="#95C957" d="M97.143,32.133c0.444,0,1.574-0.672,0.604-0.672C97.303,31.461,96.172,32.133,97.143,32.133
				L97.143,32.133z"/>
		</g>
	</g>
	<g>
		<g>
			<path fill="#95C957" d="M86.217,35.151c0.85,0,1.093-1.122,0.112-1.122C85.479,34.029,85.236,35.151,86.217,35.151L86.217,35.151
				z"/>
		</g>
	</g>
	<g>
		<g>
			<path fill="#95C957" d="M88.804,33.299c0.641,0,1.503-0.973,0.523-0.973C88.687,32.326,87.824,33.299,88.804,33.299
				L88.804,33.299z"/>
		</g>
	</g>
	<g>
		<g>
			<path fill="#95C957" d="M87.32,30.545c0.275,0,1.64-0.544,0.952-0.544C87.998,30.001,86.633,30.545,87.32,30.545L87.32,30.545z"
				/>
		</g>
	</g>
	<g>
		<g>
			<path fill="#95C957" d="M94.596,35.534c0.852,0,1.091-1.127,0.111-1.127C93.855,34.407,93.616,35.534,94.596,35.534
				L94.596,35.534z"/>
		</g>
	</g>
	<g>
		<g>
			<path fill="#95C957" d="M94.35,31.498c0.443,0,1.574-0.671,0.604-0.671C94.51,30.826,93.379,31.498,94.35,31.498L94.35,31.498z"
				/>
		</g>
	</g>
	<g>
		<g>
			<path fill="#95C957" d="M104.1,28.359c0.803,0,1.132-0.995,0.146-0.995C103.443,27.364,103.114,28.359,104.1,28.359L104.1,28.359
				z"/>
		</g>
	</g>
	<g>
		<g>
			<path fill="#95C957" d="M103.87,31.874c0.437,0,1.576-0.662,0.606-0.662C104.039,31.212,102.9,31.874,103.87,31.874
				L103.87,31.874z"/>
		</g>
	</g>
	<g>
		<g>
			<path fill="#95C957" d="M111.098,28.547c0.848,0,1.094-1.117,0.113-1.117C110.363,27.43,110.118,28.547,111.098,28.547
				L111.098,28.547z"/>
		</g>
	</g>
	<g>
		<g>
			<path fill="#95C957" d="M109.158,26.492c0.285,0,1.644-0.562,0.948-0.562C109.821,25.93,108.461,26.492,109.158,26.492
				L109.158,26.492z"/>
		</g>
	</g>
	<g>
		<g>
			<path fill="#95C957" d="M111.605,34.254c0.844,0,1.098-1.106,0.117-1.106C110.877,33.148,110.624,34.254,111.605,34.254
				L111.605,34.254z"/>
		</g>
	</g>
	<g>
		<g>
			<path fill="#95C957" d="M86.71,39.541c0.811,0,1.126-1.015,0.141-1.015C86.04,38.525,85.725,39.541,86.71,39.541L86.71,39.541z"
				/>
		</g>
	</g>
	<g>
		<g>
			<path fill="#95C957" d="M81.814,38.729c0.603,0,1.519-0.915,0.539-0.915C81.75,37.814,80.834,38.729,81.814,38.729L81.814,38.729
				z"/>
		</g>
	</g>
	<g>
		<g>
			<path fill="#95C957" d="M81.611,33.607c0.292,0,1.647-0.573,0.944-0.573C82.264,33.033,80.909,33.607,81.611,33.607
				L81.611,33.607z"/>
		</g>
	</g>
	<g>
		<g>
			<path fill="#95C957" d="M76.476,36.42c0.572,0,1.532-0.867,0.551-0.867C76.456,35.552,75.495,36.42,76.476,36.42L76.476,36.42z"
				/>
		</g>
	</g>
	<g>
		<g>
			<path fill="#95C957" d="M80.159,41.63c0.578,0,1.529-0.877,0.549-0.877C80.13,40.753,79.178,41.63,80.159,41.63L80.159,41.63z"/>
		</g>
	</g>
	<g>
		<g>
			<path fill="#95C957" d="M96.395,37.645c0.513,0,1.553-0.778,0.575-0.778C96.458,36.867,95.417,37.645,96.395,37.645
				L96.395,37.645z"/>
		</g>
	</g>
	<g>
		<g>
			<path fill="#95C957" d="M91.005,37.284c0.287,0,1.645-0.565,0.947-0.565C91.664,36.719,90.306,37.284,91.005,37.284
				L91.005,37.284z"/>
		</g>
	</g>
	<g>
		<g>
			<path fill="#95C957" d="M91.766,29.16c0.288,0,1.645-0.566,0.946-0.566C92.425,28.594,91.068,29.16,91.766,29.16L91.766,29.16z"
				/>
		</g>
	</g>
	<g>
		<g>
			<path fill="#95C957" d="M100.425,29.145c0.822,0,1.117-1.044,0.133-1.044C99.736,28.101,99.441,29.145,100.425,29.145
				L100.425,29.145z"/>
		</g>
	</g>
	<g>
		<g>
			<path fill="#95C957" d="M94.05,40.198c0.28,0,1.642-0.552,0.95-0.552C94.72,39.645,93.358,40.198,94.05,40.198L94.05,40.198z"/>
		</g>
	</g>
	<g>
		<g>
			<path fill="#95C957" d="M105.496,36.102c0.803,0,1.132-0.994,0.146-0.994C104.839,35.108,104.51,36.102,105.496,36.102
				L105.496,36.102z"/>
		</g>
	</g>
	<g>
		<g>
			<path fill="#95C957" d="M115.584,30.735c0.608,0,1.517-0.922,0.537-0.922C115.513,29.812,114.603,30.735,115.584,30.735
				L115.584,30.735z"/>
		</g>
	</g>
	<g>
		<g>
			<path fill="#95C957" d="M115.554,36.968c0.458,0,1.57-0.695,0.598-0.695C115.693,36.273,114.581,36.968,115.554,36.968
				L115.554,36.968z"/>
		</g>
	</g>
	<g>
		<g>
			<path fill="#95C957" d="M113.293,41.629c0.577,0,1.53-0.875,0.549-0.875C113.265,40.753,112.312,41.629,113.293,41.629
				L113.293,41.629z"/>
		</g>
	</g>
	<g>
		<g>
			<path fill="#95C957" d="M105.263,41.51c0.422,0,1.58-0.639,0.613-0.639C105.453,40.872,104.296,41.51,105.263,41.51
				L105.263,41.51z"/>
		</g>
	</g>
	<g>
		<g>
			<path fill="#95C957" d="M103.141,38.345c0.599,0,1.521-0.909,0.54-0.909C103.083,37.436,102.16,38.345,103.141,38.345
				L103.141,38.345z"/>
		</g>
	</g>
	<g>
		<g>
			<path fill="#95C957" d="M99.459,43.93c0.598,0,1.521-0.907,0.541-0.907C99.402,43.023,98.479,43.93,99.459,43.93L99.459,43.93z"
				/>
		</g>
	</g>
	<g>
		<g>
			<path fill="#95C957" d="M100.424,34.476c0.821,0,1.118-1.042,0.134-1.042C99.737,33.434,99.441,34.476,100.424,34.476
				L100.424,34.476z"/>
		</g>
	</g>
	<g>
		<g>
			<path fill="#95C957" d="M109.066,31.335c0.845,0,1.097-1.108,0.116-1.108C108.337,30.227,108.085,31.335,109.066,31.335
				L109.066,31.335z"/>
		</g>
	</g>
	<g>
		<g>
			<path fill="#95C957" d="M108.72,38.702c0.567,0,1.534-0.861,0.553-0.861C108.707,37.841,107.74,38.702,108.72,38.702
				L108.72,38.702z"/>
		</g>
	</g>
	<g>
		<g>
			<path fill="#95C957" d="M118.509,34.562c0.632,0,1.507-0.96,0.527-0.96C118.403,33.602,117.529,34.562,118.509,34.562
				L118.509,34.562z"/>
		</g>
	</g>
	<g>
		<g>
			<path fill="#95C957" d="M118.482,38.271c0.502,0,1.557-0.762,0.58-0.762C118.56,37.51,117.505,38.271,118.482,38.271
				L118.482,38.271z"/>
		</g>
	</g>
	<g>
		<g>
			<path fill="#95C957" d="M86.713,47.167c0.818,0,1.12-1.033,0.136-1.033C86.031,46.133,85.728,47.167,86.713,47.167L86.713,47.167
				z"/>
		</g>
	</g>
	<g>
		<g>
			<path fill="#95C957" d="M92.688,46.439c0.843,0,1.099-1.101,0.118-1.101C91.964,45.338,91.707,46.439,92.688,46.439
				L92.688,46.439z"/>
		</g>
	</g>
	<g>
		<g>
			<path fill="#95C957" d="M105.279,26.21c0.501,0,1.557-0.76,0.58-0.76C105.358,25.45,104.302,26.21,105.279,26.21L105.279,26.21z"
				/>
		</g>
	</g>
	<g>
		<g>
			<path fill="#95C957" d="M121.787,42.22c0.52,0,1.551-0.789,0.572-0.789C121.839,41.431,120.808,42.22,121.787,42.22
				L121.787,42.22z"/>
		</g>
	</g>
	<g>
		<g>
			<path fill="#95C957" d="M121.778,37.618c0.478,0,1.564-0.724,0.59-0.724C121.89,36.893,120.804,37.618,121.778,37.618
				L121.778,37.618z"/>
		</g>
	</g>
	<g>
		<g>
			<path fill="#95C957" d="M107.008,45.056c0.321,0,1.657-0.62,0.932-0.62C107.619,44.436,106.283,45.056,107.008,45.056
				L107.008,45.056z"/>
		</g>
	</g>
	<g>
		<g>
			<path fill="#95C957" d="M85.702,45.788c0.831,0,1.109-1.069,0.126-1.069C84.997,44.719,84.719,45.788,85.702,45.788
				L85.702,45.788z"/>
		</g>
	</g>
	<g>
		<g>
			<path fill="#95C957" d="M89.522,43.673c0.428,0,1.578-0.647,0.61-0.647C89.705,43.026,88.555,43.673,89.522,43.673L89.522,43.673
				z"/>
		</g>
	</g>
	<g>
		<g>
			<path fill="#95C957" d="M88.919,38.458c0.58,0,1.528-0.881,0.548-0.881C88.886,37.577,87.938,38.458,88.919,38.458L88.919,38.458
				z"/>
		</g>
	</g>
	<g>
		<g>
			<path fill="#95C957" d="M91.444,32.947c0.512,0,1.553-0.777,0.575-0.777C91.507,32.17,90.466,32.947,91.444,32.947L91.444,32.947
				z"/>
		</g>
	</g>
	<g>
		<g>
			<path fill="#95C957" d="M101.226,39.446c0.544,0,1.542-0.826,0.563-0.826C101.244,38.62,100.246,39.446,101.226,39.446
				L101.226,39.446z"/>
		</g>
	</g>
	<g>
		<g>
			<path fill="#95C957" d="M98.029,41.517c0.431,0,1.577-0.652,0.609-0.652C98.207,40.865,97.06,41.517,98.029,41.517L98.029,41.517
				z"/>
		</g>
	</g>
	<g>
		<g>
			<path fill="#95C957" d="M108.709,34.596c0.511,0,1.554-0.775,0.576-0.775C108.774,33.821,107.731,34.596,108.709,34.596
				L108.709,34.596z"/>
		</g>
	</g>
	<g>
		<g>
			<path fill="#95C957" d="M106.367,30.436c0.296,0,1.648-0.579,0.943-0.579C107.015,29.857,105.662,30.436,106.367,30.436
				L106.367,30.436z"/>
		</g>
	</g>
	<g>
		<g>
			<path fill="#95C957" d="M113.175,31.761c0.622,0,1.511-0.944,0.531-0.944C113.084,30.817,112.195,31.761,113.175,31.761
				L113.175,31.761z"/>
		</g>
	</g>
	<g>
		<g>
			<path fill="#95C957" d="M110.88,38.2c0.576,0,1.53-0.874,0.55-0.874C110.854,37.326,109.9,38.2,110.88,38.2L110.88,38.2z"/>
		</g>
	</g>
	<g>
		<g>
			<path fill="#95C957" d="M112.503,27.689c0.442,0,1.574-0.67,0.604-0.67C112.665,27.018,111.533,27.689,112.503,27.689
				L112.503,27.689z"/>
		</g>
	</g>
	<g>
		<g>
			<path fill="#95C957" d="M115.912,42.725c0.819,0,1.119-1.037,0.135-1.037C115.227,41.688,114.928,42.725,115.912,42.725
				L115.912,42.725z"/>
		</g>
	</g>
	<g>
		<g>
			<path fill="#95C957" d="M115.398,39.403c0.803,0,1.133-0.993,0.147-0.993C114.742,38.409,114.412,39.403,115.398,39.403
				L115.398,39.403z"/>
		</g>
	</g>
	<g>
		<g>
			<path fill="#95C957" d="M84.106,41.674c0.636,0,1.505-0.965,0.525-0.965C83.996,40.708,83.126,41.674,84.106,41.674
				L84.106,41.674z"/>
		</g>
	</g>
	<g>
		<g>
			<path fill="#DCEDD5" d="M53.64,28.482c0.811,0,1.126-1.015,0.141-1.015C52.969,27.467,52.655,28.482,53.64,28.482L53.64,28.482z"
				/>
		</g>
	</g>
	<g>
		<g>
			<path fill="#95C957" d="M47.325,35.156c0.496,0,1.559-0.752,0.582-0.752C47.412,34.404,46.349,35.156,47.325,35.156
				L47.325,35.156z"/>
		</g>
	</g>
	<g>
		<g>
			<path fill="#95C957" d="M54.834,32.379c0.433,0,1.577-0.656,0.608-0.656C55.009,31.723,53.866,32.379,54.834,32.379
				L54.834,32.379z"/>
		</g>
	</g>
	<g>
		<g>
			<path fill="#95C957" d="M49.525,36.334c0.542,0,1.543-0.823,0.563-0.823C49.546,35.511,48.545,36.334,49.525,36.334
				L49.525,36.334z"/>
		</g>
	</g>
	<g>
		<g>
			<path fill="#95C957" d="M49.374,42.075c0.579,0,1.529-0.879,0.548-0.879C49.343,41.196,48.393,42.075,49.374,42.075
				L49.374,42.075z"/>
		</g>
	</g>
	<g>
		<g>
			<path fill="#95C957" d="M69.248,36.576c0.61,0,1.516-0.926,0.536-0.926C69.173,35.65,68.267,36.576,69.248,36.576L69.248,36.576z
				"/>
		</g>
	</g>
	<g>
		<g>
			<path fill="#95C957" d="M63.216,32.508c0.603,0,1.519-0.915,0.539-0.915C63.152,31.593,62.235,32.508,63.216,32.508
				L63.216,32.508z"/>
		</g>
	</g>
	<g>
		<g>
			<path fill="#95C957" d="M61.174,46.624c0.298,0,1.649-0.582,0.942-0.582C61.818,46.041,60.466,46.624,61.174,46.624
				L61.174,46.624z"/>
		</g>
	</g>
	<g>
		<g>
			<path fill="#95C957" d="M51.271,45.223c0.545,0,1.542-0.827,0.562-0.827C51.288,44.395,50.291,45.223,51.271,45.223
				L51.271,45.223z"/>
		</g>
	</g>
	<g>
		<g>
			<path fill="#95C957" d="M36.368,40.895c0.613,0,1.515-0.931,0.534-0.931C36.289,39.964,35.388,40.895,36.368,40.895
				L36.368,40.895z"/>
		</g>
	</g>
	<g>
		<g>
			<path fill="#95C957" d="M32.945,42.899c0.807,0,1.13-1.004,0.144-1.004C32.282,41.895,31.96,42.899,32.945,42.899L32.945,42.899z
				"/>
		</g>
	</g>
	<g>
		<g>
			<path fill="#95C957" d="M77.004,41.212c0.827,0,1.113-1.058,0.129-1.058C76.307,40.154,76.021,41.212,77.004,41.212
				L77.004,41.212z"/>
		</g>
	</g>
	<g>
		<g>
			<path fill="#95C957" d="M76.666,43.658c0.319,0,1.656-0.617,0.933-0.617C77.28,43.041,75.943,43.658,76.666,43.658L76.666,43.658
				z"/>
		</g>
	</g>
	<path opacity="0.4" fill="#FFFFFF" d="M58.852,22.593c0,0-4.824,2.222-6.855,6.284C51.996,28.877,53.139,23.482,58.852,22.593z"/>
</g>
<g>
	<g>
		<g>
			<path fill="#DCEDD5" d="M69.255,17.58c0.813,0,1.124-1.02,0.14-1.02C68.582,16.561,68.27,17.58,69.255,17.58L69.255,17.58z"/>
		</g>
	</g>
	<g>
		<g>
			<path fill="#DCEDD5" d="M66.638,20.244c0.42,0,1.58-0.635,0.614-0.635C66.831,19.609,65.671,20.244,66.638,20.244L66.638,20.244z
				"/>
		</g>
	</g>
	<g>
		<g>
			<path fill="#DCEDD5" d="M72.763,16.839c0.574,0,1.531-0.871,0.551-0.871C72.74,15.969,71.783,16.839,72.763,16.839L72.763,16.839
				z"/>
		</g>
	</g>
	<g>
		<g>
			<path fill="#DCEDD5" d="M61.939,20.304c0.855,0,1.089-1.135,0.109-1.135C61.193,19.169,60.959,20.304,61.939,20.304
				L61.939,20.304z"/>
		</g>
	</g>
	<g>
		<g>
			<path fill="#DCEDD5" d="M60.385,23.025c0.57,0,1.532-0.865,0.552-0.865C60.367,22.16,59.404,23.025,60.385,23.025L60.385,23.025z
				"/>
		</g>
	</g>
	<g>
		<g>
			<path fill="#DCEDD5" d="M70.945,19.156c0.28,0,1.642-0.553,0.95-0.553C71.615,18.603,70.253,19.156,70.945,19.156L70.945,19.156z
				"/>
		</g>
	</g>
	<g>
		<g>
			<path fill="#DCEDD5" d="M75.331,17.972c0.56,0,1.536-0.85,0.556-0.85C75.327,17.121,74.351,17.972,75.331,17.972L75.331,17.972z"
				/>
		</g>
	</g>
	<g>
		<g>
			<path fill="#DCEDD5" d="M79.63,17.359c0.631,0,1.507-0.958,0.527-0.958C79.526,16.401,78.65,17.359,79.63,17.359L79.63,17.359z"
				/>
		</g>
	</g>
	<g>
		<g>
			<path fill="#DCEDD5" d="M68.21,24.254c0.819,0,1.119-1.037,0.135-1.037C67.526,23.217,67.226,24.254,68.21,24.254L68.21,24.254z"
				/>
		</g>
	</g>
	<g>
		<g>
			<path fill="#DCEDD5" d="M63.518,22.202c0.279,0,1.642-0.552,0.95-0.552C64.189,21.65,62.826,22.202,63.518,22.202L63.518,22.202z
				"/>
		</g>
	</g>
	<g>
		<g>
			<path fill="#DCEDD5" d="M83.071,17.237c0.84,0,1.101-1.094,0.12-1.094C82.351,16.143,82.089,17.237,83.071,17.237L83.071,17.237z
				"/>
		</g>
	</g>
	<g>
		<g>
			<path fill="#DCEDD5" d="M87.88,19.233c0.465,0,1.568-0.706,0.595-0.706C88.009,18.527,86.907,19.233,87.88,19.233L87.88,19.233z"
				/>
		</g>
	</g>
	<g>
		<g>
			<path fill="#DCEDD5" d="M75.232,19.575c0.54,0,1.544-0.819,0.564-0.819C75.256,18.756,74.252,19.575,75.232,19.575L75.232,19.575
				z"/>
		</g>
	</g>
	<g>
		<g>
			<path fill="#DCEDD5" d="M72.192,22.173c0.576,0,1.53-0.874,0.55-0.874C72.166,21.299,71.212,22.173,72.192,22.173L72.192,22.173z
				"/>
		</g>
	</g>
	<g>
		<g>
			<path fill="#DCEDD5" d="M79.519,22.059c0.551,0,1.54-0.836,0.56-0.836C79.528,21.223,78.539,22.059,79.519,22.059L79.519,22.059z
				"/>
		</g>
	</g>
	<g>
		<g>
			<path fill="#DCEDD5" d="M59.641,24.825c0.819,0,1.119-1.036,0.135-1.036C58.957,23.789,58.657,24.825,59.641,24.825
				L59.641,24.825z"/>
		</g>
	</g>
	<g>
		<g>
			<path fill="#DCEDD5" d="M56.09,27.464c0.522,0,1.55-0.792,0.572-0.792C56.14,26.672,55.112,27.464,56.09,27.464L56.09,27.464z"/>
		</g>
	</g>
	<g>
		<g>
			<path fill="#DCEDD5" d="M57.433,25.439c0.318,0,1.656-0.615,0.933-0.615C58.048,24.824,56.71,25.439,57.433,25.439L57.433,25.439
				z"/>
		</g>
	</g>
	<g>
		<g>
			<path fill="#DCEDD5" d="M79.058,19.261c0.628,0,1.508-0.954,0.528-0.954C78.958,18.307,78.078,19.261,79.058,19.261
				L79.058,19.261z"/>
		</g>
	</g>
	<g>
		<g>
			<path fill="#DCEDD5" d="M58.793,27.619c0.843,0,1.099-1.102,0.118-1.102C58.067,26.517,57.812,27.619,58.793,27.619
				L58.793,27.619z"/>
		</g>
	</g>
	<g>
		<g>
			<path fill="#DCEDD5" d="M64.26,19.967c0.431,0,1.577-0.652,0.609-0.652C64.438,19.315,63.292,19.967,64.26,19.967L64.26,19.967z"
				/>
		</g>
	</g>
	<g>
		<g>
			<path fill="#DCEDD5" d="M60.126,21.557c0.843,0,1.099-1.102,0.118-1.102C59.401,20.455,59.144,21.557,60.126,21.557
				L60.126,21.557z"/>
		</g>
	</g>
	<g>
		<g>
			<path fill="#DCEDD5" d="M64.069,25.573c0.582,0,1.528-0.883,0.547-0.883C64.034,24.69,63.088,25.573,64.069,25.573L64.069,25.573
				z"/>
		</g>
	</g>
	<g>
		<g>
			<path fill="#DCEDD5" d="M61.906,27.367c0.562,0,1.536-0.853,0.555-0.853C61.9,26.515,60.926,27.367,61.906,27.367L61.906,27.367z
				"/>
		</g>
	</g>
	<g>
		<g>
			<path fill="#DCEDD5" d="M68.872,21.337c0.478,0,1.564-0.725,0.589-0.725C68.983,20.612,67.897,21.337,68.872,21.337
				L68.872,21.337z"/>
		</g>
	</g>
	<g>
		<g>
			<path fill="#DCEDD5" d="M82.169,19.746c0.473,0,1.566-0.717,0.592-0.717C82.287,19.029,81.195,19.746,82.169,19.746
				L82.169,19.746z"/>
		</g>
	</g>
	<g>
		<g>
			<path fill="#DCEDD5" d="M77.194,16.931c0.826,0,1.114-1.054,0.13-1.054C76.499,15.877,76.211,16.931,77.194,16.931L77.194,16.931
				z"/>
		</g>
	</g>
	<g>
		<g>
			<path fill="#DCEDD5" d="M85.15,19.835c0.464,0,1.568-0.704,0.595-0.704C85.281,19.131,84.177,19.835,85.15,19.835L85.15,19.835z"
				/>
		</g>
	</g>
	<g>
		<g>
			<path fill="#DCEDD5" d="M72.65,26.294c0.486,0,1.562-0.737,0.586-0.737C72.751,25.557,71.675,26.294,72.65,26.294L72.65,26.294z"
				/>
		</g>
	</g>
	<g>
		<g>
			<path fill="#DCEDD5" d="M73.662,23.532c0.547,0,1.541-0.83,0.561-0.83C73.676,22.701,72.682,23.532,73.662,23.532L73.662,23.532z
				"/>
		</g>
	</g>
</g>
<path opacity="0.3" fill="#FFFFFF" d="M20.707,128.383L133.032,22.226c0,0,53.525,52.43-0.91,111.693
	C132.122,133.919,76.532,185.305,20.707,128.383z"/>
</svg>
