<?xml version="1.0" encoding="utf-8"?>
<!-- Generator: Adobe Illustrator 17.0.0, SVG Export Plug-In . SVG Version: 6.00 Build 0)  -->
<!DOCTYPE svg PUBLIC "-//W3C//DTD SVG 1.1//EN" "http://www.w3.org/Graphics/SVG/1.1/DTD/svg11.dtd">
<svg version="1.1" id="Layer_1" xmlns="http://www.w3.org/2000/svg" xmlns:xlink="http://www.w3.org/1999/xlink" x="0px" y="0px"
	 width="157.044px" height="155.201px" viewBox="0 0 157.044 155.201" enable-background="new 0 0 157.044 155.201"
	 xml:space="preserve">
<g>
	<circle fill="#ECEAC9" cx="78.484" cy="77.333" r="77.333"/>
</g>
<path fill="#E1D7AE" d="M50.177,30.61c0,0,2.815-8.584,12.21-8.683l1.714,10.12l-4.222,4.951L50.177,30.61z"/>
<path fill="#E1D7AE" d="M57.984,30.508c0,0,2.324-16.933,24.373-13.632c0,0,12.162,1.765,15.963,15.482l-6.355,28.697L57.984,30.508
	z"/>
<path fill="#E1D7AE" d="M63.26,21.075c0,0,3.515-8.606,12.428-4.625v6.774L63.26,21.075z"/>
<path fill="#E9B6B2" d="M73.709,79.78c0,0-8.48-0.337-6.713-3.577c0,0-7.362-0.499-3.606-5.301c0,0-2.965-3.627,1.864-4.757
	c0,0-6.564-6.285-4.427-13.377c0,0-3.973-6.023,4.324-9.476c0,0,8.014-19.699,33.01-17.639c0,0,28.038,2.957,30.238,26.73
	c0,0,3.337,15.704-7.54,23.793C120.86,76.175,86.15,87.572,73.709,79.78z"/>
<path fill="#EDDAD9" d="M33.704,75.748c0,0-6.737-1.617-4.77-4.219c0,0-5.814-1.587-1.986-5.268c0,0-1.759-3.682,2.304-3.935
	c0,0-4.189-6.601-1.27-12.568c0,0-2.158-5.967,5.078-7.744c0,0,9.775-16.25,29.452-10.537c0,0,21.962,6.982,19.677,28.437
	c0,0,0.001,14.465-10.092,19.96C72.098,79.872,42.346,84.601,33.704,75.748z"/>
<path fill="#F1F1F2" d="M29.823,78.892l6.284,51.415l0.254,1.111c0.763,5.273,21.74,6.887,21.74,6.887s14.187,1.714,33.515,0.571
	c0,0,31.706-1.523,33.039-9.712l3.999-51.32C128.654,77.844,73.812,88.349,29.823,78.892z"/>
<path fill="#E1D7AE" d="M28.935,71.528c0,0-1.714,2.031,3.745,3.935c0,0,7.807,2.285,16.884,3.364c0,0,14.726,1.27,24.184,1.016
	c0,0,20.312,0.444,34.848-1.523c0,0,13.774-2.158,16.821-3.682c0,0,7.744-2.602,1.968-6.094l0.635-0.889
	c0,0,9.359,4.316,1.506,9.902c0,0-6.012,4.824-26.388,5.776c0,0-17.456,1.143-27.294,0.952c0,0-36.12,1.079-47.163-6.443
	c0,0-5.394-3.079-1.141-7.204L28.935,71.528z"/>
<path fill="#EDDAD9" d="M50.177,78.879c0,0,0.879,3.029,3.26,2.521c0,0,3.047-0.604,3.999,1.3c0,0,2.38,5.09,5.427,1.641
	c0,0,2.571-2.021,4.761-1.355c0,0,6.04,0.677,8.066-5.803L50.177,78.879z"/>
<path fill="#EDDAD9" d="M73.913,80.46c0,0,3.815-3.23,5.706-9.083C79.619,71.377,71.44,76.625,73.913,80.46z"/>
<g>
	<ellipse fill="#EDDAD9" cx="60.125" cy="91.079" rx="1.595" ry="1.619"/>
	<path fill="#EDDAD9" d="M58.53,91.079c0,0,0.095-1.095,1.595-3.57c0,0,1.785,2.285,1.595,4.047L58.53,91.079z"/>
</g>
<g>
	<ellipse fill="#EDDAD9" cx="60.118" cy="105.021" rx="1.595" ry="1.619"/>
	<path fill="#EDDAD9" d="M58.523,105.021c0,0,0.095-1.095,1.595-3.57c0,0,1.785,2.285,1.595,4.047L58.523,105.021z"/>
</g>
<g>
	<ellipse fill="#E9B6B2" cx="112.814" cy="87.842" rx="1.595" ry="1.619"/>
	<path fill="#E9B6B2" d="M111.22,87.842c0,0,0.095-1.095,1.595-3.57c0,0,1.785,2.285,1.595,4.047L111.22,87.842z"/>
</g>
<g>
	<ellipse fill="#E9B6B2" cx="109.613" cy="90.139" rx="0.992" ry="1.007"/>
	<path fill="#E9B6B2" d="M108.621,90.139c0,0,0.059-0.681,0.992-2.222c0,0,1.111,1.422,0.992,2.518L108.621,90.139z"/>
</g>
<path fill="#E9B6B2" d="M121.193,75.919c0,0,2.764,3.819,5.811,0c0,0,0.458-2.169,1.879-2.169c0,0,2.358-0.854,0.367-3.531
	c0,0,0.304-1.585-1.733-3.407L121.193,75.919z"/>
<path fill="#E9B6B2" d="M101.438,79.078c0,0,0.366,2.753,3.032,2.283c0,0,1.523-2.284,4.38-0.901c0,0,4.436,5.782,3.932-2.844
	L101.438,79.078z"/>
<path fill="#E9B6B2" d="M105.147,27.187c0,0,21.067-0.644,22.763,21.912L105.147,27.187z"/>
<path fill="#E9B6B2" d="M101.438,26.223c0,0,8.847-4.037,15.556,4.036l-4.173,5.407L101.438,26.223z"/>
<path fill="#E9B6B2" d="M128.654,61.702c0,0,2.87,3.078,0.229,6.42l-3.262,2.81l-1.029-5.408L128.654,61.702z"/>
<path opacity="0.3" fill="#FFFFFF" d="M74.002,35.069c0,0,10.6-9.14,25.898-7.744C99.9,27.325,83.46,23.136,74.002,35.069z"/>
<path opacity="0.3" fill="#FFFFFF" d="M37.153,38.752c0,0,9.822-8.653,23.68-6.988C60.833,31.764,45.998,27.366,37.153,38.752z"/>
<path fill="#E1D7AE" d="M57.984,22.688c0,0,1.228-4.643,6.878-4.148l1.904,6.961L57.984,22.688z"/>
<g>
	<g>
		<g>
			<path fill="#E1D7AE" d="M47.842,34.817c0.639,0,1.504-0.97,0.524-0.97C47.728,33.847,46.862,34.817,47.842,34.817L47.842,34.817z
				"/>
		</g>
	</g>
	<g>
		<g>
			<path fill="#E1D7AE" d="M53.132,35.419c0.431,0,1.577-0.652,0.609-0.652C53.31,34.768,52.163,35.419,53.132,35.419L53.132,35.419
				z"/>
		</g>
	</g>
	<g>
		<g>
			<path fill="#E1D7AE" d="M45.175,35.816c0.806,0,1.131-1,0.145-1C44.515,34.816,44.19,35.816,45.175,35.816L45.175,35.816z"/>
		</g>
	</g>
	<g>
		<g>
			<path fill="#E1D7AE" d="M40.461,38.368c0.55,0,1.54-0.835,0.56-0.835C40.471,37.532,39.481,38.368,40.461,38.368L40.461,38.368z"
				/>
		</g>
	</g>
	<g>
		<g>
			<path fill="#E1D7AE" d="M53.157,38.562c0.555,0,1.538-0.843,0.558-0.843C53.16,37.719,52.177,38.562,53.157,38.562L53.157,38.562
				z"/>
		</g>
	</g>
	<g>
		<g>
			<path fill="#E1D7AE" d="M50.745,36.152c0.304,0,1.651-0.593,0.939-0.593C51.38,35.559,50.033,36.152,50.745,36.152L50.745,36.152
				z"/>
		</g>
	</g>
	<g>
		<g>
			<path fill="#E1D7AE" d="M59.604,34.46c0.421,0,1.58-0.637,0.613-0.637C59.796,33.823,58.637,34.46,59.604,34.46L59.604,34.46z"/>
		</g>
	</g>
	<g>
		<g>
			<path fill="#E1D7AE" d="M59.435,38.223c0.276,0,1.64-0.545,0.952-0.545C60.111,37.677,58.746,38.223,59.435,38.223L59.435,38.223
				z"/>
		</g>
	</g>
	<g>
		<g>
			<path fill="#E1D7AE" d="M56.02,38.967c0.588,0,1.525-0.892,0.545-0.892C55.977,38.075,55.039,38.967,56.02,38.967L56.02,38.967z"
				/>
		</g>
	</g>
	<g>
		<g>
			<path fill="#E1D7AE" d="M56.03,35.386c0.636,0,1.505-0.966,0.525-0.966C55.919,34.42,55.05,35.386,56.03,35.386L56.03,35.386z"/>
		</g>
	</g>
	<g>
		<g>
			<path fill="#E1D7AE" d="M44.537,39.101c0.46,0,1.569-0.698,0.597-0.698C44.674,38.403,43.564,39.101,44.537,39.101L44.537,39.101
				z"/>
		</g>
	</g>
	<g>
		<g>
			<path fill="#E1D7AE" d="M37.838,39.435c0.451,0,1.572-0.684,0.601-0.684C37.988,38.751,36.867,39.435,37.838,39.435
				L37.838,39.435z"/>
		</g>
	</g>
	<g>
		<g>
			<path fill="#E1D7AE" d="M43.483,37.063c0.505,0,1.556-0.766,0.579-0.766C43.557,36.298,42.506,37.063,43.483,37.063
				L43.483,37.063z"/>
		</g>
	</g>
	<g>
		<g>
			<path fill="#E1D7AE" d="M41.849,39.988c0.816,0,1.122-1.029,0.137-1.029C41.169,38.959,40.864,39.988,41.849,39.988
				L41.849,39.988z"/>
		</g>
	</g>
	<g>
		<g>
			<path fill="#E1D7AE" d="M50.497,34.203c0.583,0,1.527-0.884,0.547-0.884C50.461,33.318,49.516,34.203,50.497,34.203
				L50.497,34.203z"/>
		</g>
	</g>
	<g>
		<g>
			<path fill="#E1D7AE" d="M50.506,39.569c0.627,0,1.509-0.953,0.529-0.953C50.407,38.616,49.526,39.569,50.506,39.569
				L50.506,39.569z"/>
		</g>
	</g>
	<g>
		<g>
			<path fill="#E1D7AE" d="M57.915,33.369c0.815,0,1.122-1.026,0.138-1.026C57.238,32.343,56.93,33.369,57.915,33.369L57.915,33.369
				z"/>
		</g>
	</g>
	<g>
		<g>
			<path fill="#E1D7AE" d="M64.795,42.662c0.822,0,1.117-1.044,0.133-1.044C64.106,41.617,63.811,42.662,64.795,42.662
				L64.795,42.662z"/>
		</g>
	</g>
	<g>
		<g>
			<path fill="#E1D7AE" d="M57.179,42.855c0.824,0,1.115-1.05,0.132-1.05C56.486,41.805,56.195,42.855,57.179,42.855L57.179,42.855z
				"/>
		</g>
	</g>
	<g>
		<g>
			<path fill="#E1D7AE" d="M51.059,41.407c0.54,0,1.544-0.82,0.564-0.82C51.083,40.587,50.08,41.407,51.059,41.407L51.059,41.407z"
				/>
		</g>
	</g>
	<g>
		<g>
			<path fill="#E1D7AE" d="M46.076,42.545c0.535,0,1.545-0.812,0.566-0.812C46.107,41.733,45.096,42.545,46.076,42.545
				L46.076,42.545z"/>
		</g>
	</g>
	<g>
		<g>
			<path fill="#E1D7AE" d="M40.256,43.352c0.635,0,1.505-0.965,0.525-0.965C40.146,42.387,39.276,43.352,40.256,43.352
				L40.256,43.352z"/>
		</g>
	</g>
	<g>
		<g>
			<path fill="#E1D7AE" d="M64.028,40.357c0.808,0,1.129-1.006,0.143-1.006C63.364,39.351,63.043,40.357,64.028,40.357
				L64.028,40.357z"/>
		</g>
	</g>
	<g>
		<g>
			<path fill="#E1D7AE" d="M83.035,38.491c0.463,0,1.569-0.702,0.596-0.702C83.168,37.789,82.062,38.491,83.035,38.491
				L83.035,38.491z"/>
		</g>
	</g>
	<g>
		<g>
			<path fill="#E1D7AE" d="M62.315,36.171c0.81,0,1.127-1.012,0.142-1.012C61.647,35.159,61.33,36.171,62.315,36.171L62.315,36.171z
				"/>
		</g>
	</g>
	<g>
		<g>
			<path fill="#E1D7AE" d="M68.768,39.757c0.288,0,1.646-0.567,0.946-0.567C69.426,39.19,68.069,39.757,68.768,39.757L68.768,39.757
				z"/>
		</g>
	</g>
	<g>
		<g>
			<path fill="#E1D7AE" d="M68.189,43.277c0.496,0,1.559-0.753,0.582-0.753C68.275,42.525,67.212,43.277,68.189,43.277
				L68.189,43.277z"/>
		</g>
	</g>
	<g>
		<g>
			<path fill="#E1D7AE" d="M71.618,43.855c0.505,0,1.556-0.766,0.579-0.766C71.692,43.089,70.641,43.855,71.618,43.855
				L71.618,43.855z"/>
		</g>
	</g>
	<g>
		<g>
			<path fill="#E1D7AE" d="M66.467,36.773c0.458,0,1.57-0.694,0.598-0.694C66.607,36.08,65.495,36.773,66.467,36.773L66.467,36.773z
				"/>
		</g>
	</g>
	<g>
		<g>
			<path fill="#E1D7AE" d="M34.69,45.307c0.322,0,1.657-0.622,0.931-0.622C35.299,44.685,33.964,45.307,34.69,45.307L34.69,45.307z"
				/>
		</g>
	</g>
	<g>
		<g>
			<path fill="#E1D7AE" d="M29.525,45.155c0.461,0,1.569-0.7,0.596-0.7C29.66,44.455,28.553,45.155,29.525,45.155L29.525,45.155z"/>
		</g>
	</g>
	<g>
		<g>
			<path fill="#E1D7AE" d="M29.553,47.925c0.597,0,1.521-0.907,0.541-0.907C29.496,47.018,28.572,47.925,29.553,47.925
				L29.553,47.925z"/>
		</g>
	</g>
	<g>
		<g>
			<path fill="#E1D7AE" d="M43.08,46.254c0.802,0,1.133-0.992,0.147-0.992C42.424,45.261,42.094,46.254,43.08,46.254L43.08,46.254z"
				/>
		</g>
	</g>
	<g>
		<g>
			<path fill="#E1D7AE" d="M55.226,52.177c0.431,0,1.577-0.652,0.609-0.652C55.404,51.525,54.258,52.177,55.226,52.177
				L55.226,52.177z"/>
		</g>
	</g>
	<g>
		<g>
			<path fill="#E1D7AE" d="M49.546,48.49c0.589,0,1.525-0.895,0.544-0.895C49.501,47.595,48.565,48.49,49.546,48.49L49.546,48.49z"
				/>
		</g>
	</g>
	<g>
		<g>
			<path fill="#E1D7AE" d="M55.033,47.406c0.417,0,1.581-0.63,0.615-0.63C55.231,46.775,54.067,47.406,55.033,47.406L55.033,47.406z
				"/>
		</g>
	</g>
	<g>
		<g>
			<path fill="#E1D7AE" d="M63.439,34.627c0.302,0,1.651-0.59,0.94-0.59C64.078,34.037,62.729,34.627,63.439,34.627L63.439,34.627z"
				/>
		</g>
	</g>
	<g>
		<g>
			<path fill="#E1D7AE" d="M63.82,48.459c0.549,0,1.54-0.833,0.561-0.833C63.831,47.626,62.84,48.459,63.82,48.459L63.82,48.459z"/>
		</g>
	</g>
	<g>
		<g>
			<path fill="#E1D7AE" d="M60.761,44.798c0.492,0,1.56-0.747,0.584-0.747C60.853,44.051,59.785,44.798,60.761,44.798L60.761,44.798
				z"/>
		</g>
	</g>
	<g>
		<g>
			<path fill="#E1D7AE" d="M74.079,39.992c0.433,0,1.577-0.656,0.608-0.656C74.254,39.336,73.11,39.992,74.079,39.992L74.079,39.992
				z"/>
		</g>
	</g>
	<g>
		<g>
			<path fill="#E1D7AE" d="M72.606,40.391c0.833,0,1.108-1.073,0.125-1.073C71.899,39.318,71.624,40.391,72.606,40.391
				L72.606,40.391z"/>
		</g>
	</g>
	<g opacity="0.5">
		
			<image overflow="visible" width="75" height="74" xlink:href="231E2F9846306370.png"  transform="matrix(1 0 0 1 40.3584 -0.4549)">
		</image>
	</g>
	<g opacity="0.5">
		
			<image overflow="visible" width="75" height="74" xlink:href="231E2F9846306371.png"  transform="matrix(1 0 0 1 47.3584 -0.4549)">
		</image>
	</g>
	<g>
		
			<image overflow="visible" width="74" height="74" xlink:href="231E2F9846306377.png"  transform="matrix(1 0 0 1 50.3584 4.5451)">
		</image>
	</g>
	<g>
		<g>
			<path fill="#E1D7AE" d="M96.513,33.302c0.567,0,1.534-0.86,0.553-0.86C96.5,32.442,95.533,33.302,96.513,33.302L96.513,33.302z"
				/>
		</g>
	</g>
	<g>
		<g>
			<path fill="#E1D7AE" d="M85.147,35.954c0.295,0,1.648-0.579,0.943-0.579C85.794,35.375,84.441,35.954,85.147,35.954
				L85.147,35.954z"/>
		</g>
	</g>
	<g>
		<g>
			<path fill="#E1D7AE" d="M87.938,34.172c0.289,0,1.646-0.569,0.946-0.569C88.595,33.603,87.238,34.172,87.938,34.172
				L87.938,34.172z"/>
		</g>
	</g>
	<g>
		<g>
			<path fill="#E1D7AE" d="M86.852,31.73c0.503,0,1.556-0.764,0.579-0.764C86.928,30.967,85.875,31.73,86.852,31.73L86.852,31.73z"
				/>
		</g>
	</g>
	<g>
		<g>
			<path fill="#E1D7AE" d="M93.531,36.358c0.324,0,1.658-0.624,0.931-0.624C94.138,35.734,92.804,36.358,93.531,36.358
				L93.531,36.358z"/>
		</g>
	</g>
	<g>
		<g>
			<path fill="#E1D7AE" d="M93.523,32.519c0.286,0,1.645-0.563,0.947-0.563C94.184,31.955,92.826,32.519,93.523,32.519
				L93.523,32.519z"/>
		</g>
	</g>
	<g>
		<g>
			<path fill="#E1D7AE" d="M103.463,29.5c0.852,0,1.091-1.126,0.111-1.126C102.722,28.373,102.482,29.5,103.463,29.5L103.463,29.5z"
				/>
		</g>
	</g>
	<g>
		<g>
			<path fill="#E1D7AE" d="M103.049,32.918c0.309,0,1.653-0.601,0.937-0.601C103.678,32.318,102.334,32.918,103.049,32.918
				L103.049,32.918z"/>
		</g>
	</g>
	<g>
		<g>
			<path fill="#E1D7AE" d="M110.231,29.52c0.602,0,1.52-0.913,0.539-0.913C110.168,28.607,109.25,29.52,110.231,29.52L110.231,29.52
				z"/>
		</g>
	</g>
	<g>
		<g>
			<path fill="#E1D7AE" d="M108.673,27.616c0.435,0,1.576-0.659,0.607-0.659C108.845,26.957,107.704,27.616,108.673,27.616
				L108.673,27.616z"/>
		</g>
	</g>
	<g>
		<g>
			<path fill="#E1D7AE" d="M110.54,35.078c0.31,0,1.653-0.603,0.937-0.603C111.166,34.475,109.823,35.078,110.54,35.078
				L110.54,35.078z"/>
		</g>
	</g>
	<g>
		<g>
			<path fill="#E1D7AE" d="M85.827,40.457c0.46,0,1.569-0.698,0.597-0.698C85.964,39.759,84.855,40.457,85.827,40.457L85.827,40.457
				z"/>
		</g>
	</g>
	<g>
		<g>
			<path fill="#E1D7AE" d="M80.956,39.633c0.291,0,1.647-0.572,0.945-0.572C81.61,39.06,80.254,39.633,80.956,39.633L80.956,39.633z
				"/>
		</g>
	</g>
	<g>
		<g>
			<path fill="#E1D7AE" d="M81.374,34.961c0.853,0,1.09-1.131,0.11-1.131C80.63,33.83,80.394,34.961,81.374,34.961L81.374,34.961z"
				/>
		</g>
	</g>
	<g>
		<g>
			<path fill="#E1D7AE" d="M76.025,37.564c0.807,0,1.129-1.005,0.144-1.005C75.361,36.559,75.039,37.564,76.025,37.564
				L76.025,37.564z"/>
		</g>
	</g>
	<g>
		<g>
			<path fill="#E1D7AE" d="M79.502,42.699c0.571,0,1.532-0.866,0.552-0.866C79.484,41.833,78.522,42.699,79.502,42.699
				L79.502,42.699z"/>
		</g>
	</g>
	<g>
		<g>
			<path fill="#E1D7AE" d="M95.756,38.777c0.587,0,1.526-0.892,0.545-0.892C95.713,37.885,94.775,38.777,95.756,38.777
				L95.756,38.777z"/>
		</g>
	</g>
	<g>
		<g>
			<path fill="#E1D7AE" d="M90.358,38.391c0.326,0,1.658-0.628,0.93-0.628C90.962,37.763,89.63,38.391,90.358,38.391L90.358,38.391z
				"/>
		</g>
	</g>
	<g>
		<g>
			<path fill="#E1D7AE" d="M91.286,30.301c0.46,0,1.569-0.697,0.597-0.697C91.423,29.604,90.314,30.301,91.286,30.301L91.286,30.301
				z"/>
		</g>
	</g>
	<g>
		<g>
			<path fill="#E1D7AE" d="M99.534,30.031c0.439,0,1.575-0.665,0.606-0.665C99.7,29.366,98.564,30.031,99.534,30.031L99.534,30.031z
				"/>
		</g>
	</g>
	<g>
		<g>
			<path fill="#E1D7AE" d="M93.602,41.461c0.611,0,1.516-0.928,0.535-0.928C93.526,40.533,92.622,41.461,93.602,41.461
				L93.602,41.461z"/>
		</g>
	</g>
	<g>
		<g>
			<path fill="#E1D7AE" d="M104.618,37.038c0.471,0,1.566-0.715,0.592-0.715C104.739,36.323,103.645,37.038,104.618,37.038
				L104.618,37.038z"/>
		</g>
	</g>
	<g>
		<g>
			<path fill="#E1D7AE" d="M114.923,31.786c0.576,0,1.53-0.874,0.549-0.874C114.896,30.911,113.942,31.786,114.923,31.786
				L114.923,31.786z"/>
		</g>
	</g>
	<g>
		<g>
			<path fill="#E1D7AE" d="M114.891,38.014c0.421,0,1.58-0.636,0.613-0.636C115.084,37.378,113.924,38.014,114.891,38.014
				L114.891,38.014z"/>
		</g>
	</g>
	<g>
		<g>
			<path fill="#E1D7AE" d="M112.843,42.778c0.814,0,1.123-1.024,0.138-1.024C112.167,41.754,111.858,42.778,112.843,42.778
				L112.843,42.778z"/>
		</g>
	</g>
	<g>
		<g>
			<path fill="#E1D7AE" d="M104.637,42.692c0.56,0,1.536-0.85,0.556-0.85C104.632,41.841,103.656,42.692,104.637,42.692
				L104.637,42.692z"/>
		</g>
	</g>
	<g>
		<g>
			<path fill="#E1D7AE" d="M102.457,39.309c0.453,0,1.571-0.687,0.6-0.687C102.603,38.622,101.485,39.309,102.457,39.309
				L102.457,39.309z"/>
		</g>
	</g>
	<g>
		<g>
			<path fill="#E1D7AE" d="M98.599,44.824c0.276,0,1.64-0.545,0.952-0.545C99.275,44.279,97.91,44.824,98.599,44.824L98.599,44.824z
				"/>
		</g>
	</g>
	<g>
		<g>
			<path fill="#E1D7AE" d="M99.556,35.444c0.546,0,1.542-0.828,0.562-0.828C99.572,34.616,98.576,35.444,99.556,35.444
				L99.556,35.444z"/>
		</g>
	</g>
	<g>
		<g>
			<path fill="#E1D7AE" d="M108.205,32.335c0.63,0,1.507-0.957,0.527-0.957C108.102,31.378,107.225,32.335,108.205,32.335
				L108.205,32.335z"/>
		</g>
	</g>
	<g>
		<g>
			<path fill="#E1D7AE" d="M108.082,39.839c0.649,0,1.499-0.986,0.52-0.986C107.953,38.854,107.103,39.839,108.082,39.839
				L108.082,39.839z"/>
		</g>
	</g>
	<g>
		<g>
			<path fill="#E1D7AE" d="M117.827,35.536c0.499,0,1.558-0.757,0.581-0.757C117.909,34.779,116.85,35.536,117.827,35.536
				L117.827,35.536z"/>
		</g>
	</g>
	<g>
		<g>
			<path fill="#E1D7AE" d="M117.65,39.271c0.315,0,1.655-0.61,0.935-0.61C118.27,38.66,116.93,39.271,117.65,39.271L117.65,39.271z"
				/>
		</g>
	</g>
	<g>
		<g>
			<path fill="#E1D7AE" d="M85.651,48.002c0.281,0,1.642-0.554,0.95-0.554C86.32,47.448,84.958,48.002,85.651,48.002L85.651,48.002z
				"/>
		</g>
	</g>
	<g>
		<g>
			<path fill="#E1D7AE" d="M91.821,47.411c0.59,0,1.525-0.895,0.544-0.895C91.775,46.516,90.84,47.411,91.821,47.411L91.821,47.411z
				"/>
		</g>
	</g>
	<g>
		<g>
			<path fill="#E1D7AE" d="M104.845,27.416c0.814,0,1.124-1.022,0.139-1.022C104.17,26.394,103.86,27.416,104.845,27.416
				L104.845,27.416z"/>
		</g>
	</g>
	<g>
		<g>
			<path fill="#E1D7AE" d="M121.118,43.243c0.451,0,1.572-0.684,0.601-0.684C121.267,42.559,120.146,43.243,121.118,43.243
				L121.118,43.243z"/>
		</g>
	</g>
	<g>
		<g>
			<path fill="#E1D7AE" d="M121.131,38.72c0.513,0,1.553-0.779,0.575-0.779C121.192,37.941,120.153,38.72,121.131,38.72
				L121.131,38.72z"/>
		</g>
	</g>
	<g>
		<g>
			<path fill="#E1D7AE" d="M106.348,46.112c0.298,0,1.649-0.583,0.942-0.583C106.992,45.53,105.641,46.112,106.348,46.112
				L106.348,46.112z"/>
		</g>
	</g>
	<g>
		<g>
			<path fill="#E1D7AE" d="M85.047,46.863c0.831,0,1.109-1.069,0.126-1.069C84.342,45.794,84.064,46.863,85.047,46.863
				L85.047,46.863z"/>
		</g>
	</g>
	<g>
		<g>
			<path fill="#E1D7AE" d="M88.868,44.748c0.428,0,1.578-0.647,0.61-0.647C89.05,44.101,87.9,44.748,88.868,44.748L88.868,44.748z"
				/>
		</g>
	</g>
	<g>
		<g>
			<path fill="#E1D7AE" d="M88.264,39.533c0.58,0,1.528-0.881,0.548-0.881C88.231,38.652,87.283,39.533,88.264,39.533L88.264,39.533
				z"/>
		</g>
	</g>
	<g>
		<g>
			<path fill="#E1D7AE" d="M90.789,34.022c0.512,0,1.553-0.777,0.575-0.777C90.852,33.245,89.811,34.022,90.789,34.022
				L90.789,34.022z"/>
		</g>
	</g>
	<g>
		<g>
			<path fill="#E1D7AE" d="M100.571,40.521c0.544,0,1.542-0.826,0.563-0.826C100.589,39.695,99.591,40.521,100.571,40.521
				L100.571,40.521z"/>
		</g>
	</g>
	<g>
		<g>
			<path fill="#E1D7AE" d="M97.374,42.592c0.431,0,1.577-0.652,0.609-0.652C97.552,41.94,96.406,42.592,97.374,42.592L97.374,42.592
				z"/>
		</g>
	</g>
	<g>
		<g>
			<path fill="#E1D7AE" d="M108.054,35.672c0.511,0,1.554-0.775,0.576-0.775C108.119,34.896,107.077,35.672,108.054,35.672
				L108.054,35.672z"/>
		</g>
	</g>
	<g>
		<g>
			<path fill="#E1D7AE" d="M105.713,31.511c0.296,0,1.648-0.579,0.943-0.579C106.36,30.932,105.007,31.511,105.713,31.511
				L105.713,31.511z"/>
		</g>
	</g>
	<g>
		<g>
			<path fill="#E1D7AE" d="M112.52,32.836c0.622,0,1.511-0.944,0.531-0.944C112.429,31.892,111.54,32.836,112.52,32.836
				L112.52,32.836z"/>
		</g>
	</g>
	<g>
		<g>
			<path fill="#E1D7AE" d="M110.226,39.276c0.576,0,1.53-0.874,0.55-0.874C110.199,38.402,109.245,39.276,110.226,39.276
				L110.226,39.276z"/>
		</g>
	</g>
	<g>
		<g>
			<path fill="#E1D7AE" d="M111.849,28.764c0.442,0,1.574-0.67,0.604-0.67C112.01,28.094,110.878,28.764,111.849,28.764
				L111.849,28.764z"/>
		</g>
	</g>
	<g>
		<g>
			<path fill="#E1D7AE" d="M115.257,43.8c0.819,0,1.119-1.037,0.135-1.037C114.573,42.763,114.273,43.8,115.257,43.8L115.257,43.8z"
				/>
		</g>
	</g>
	<g>
		<g>
			<path fill="#E1D7AE" d="M114.743,40.478c0.803,0,1.133-0.993,0.147-0.993C114.087,39.485,113.757,40.478,114.743,40.478
				L114.743,40.478z"/>
		</g>
	</g>
	<g>
		<g>
			<path fill="#E1D7AE" d="M83.451,42.749c0.636,0,1.505-0.965,0.525-0.965C83.341,41.784,82.471,42.749,83.451,42.749
				L83.451,42.749z"/>
		</g>
	</g>
	<g>
		<g>
			<path fill="#E1D7AE" d="M52.985,29.557c0.811,0,1.126-1.015,0.141-1.015C52.314,28.542,52,29.557,52.985,29.557L52.985,29.557z"
				/>
		</g>
	</g>
	<g>
		<g>
			<path fill="#E1D7AE" d="M46.671,36.231c0.496,0,1.559-0.752,0.582-0.752C46.757,35.479,45.694,36.231,46.671,36.231
				L46.671,36.231z"/>
		</g>
	</g>
	<g>
		<g>
			<path fill="#E1D7AE" d="M54.179,33.454c0.433,0,1.577-0.656,0.608-0.656C54.354,32.798,53.211,33.454,54.179,33.454
				L54.179,33.454z"/>
		</g>
	</g>
	<g>
		<g>
			<path fill="#E1D7AE" d="M48.87,37.409c0.542,0,1.543-0.823,0.563-0.823C48.891,36.587,47.89,37.409,48.87,37.409L48.87,37.409z"
				/>
		</g>
	</g>
	<g>
		<g>
			<path fill="#E1D7AE" d="M48.719,43.15c0.579,0,1.529-0.879,0.548-0.879C48.688,42.271,47.738,43.15,48.719,43.15L48.719,43.15z"
				/>
		</g>
	</g>
	<g>
		<g>
			<path fill="#E1D7AE" d="M68.593,37.652c0.61,0,1.516-0.926,0.536-0.926C68.518,36.725,67.612,37.652,68.593,37.652L68.593,37.652
				z"/>
		</g>
	</g>
	<g>
		<g>
			<path fill="#E1D7AE" d="M62.561,33.584c0.603,0,1.519-0.915,0.539-0.915C62.497,32.668,61.581,33.584,62.561,33.584
				L62.561,33.584z"/>
		</g>
	</g>
	<g>
		<g>
			<path fill="#E1D7AE" d="M60.519,47.699c0.298,0,1.649-0.582,0.942-0.582C61.163,47.117,59.812,47.699,60.519,47.699
				L60.519,47.699z"/>
		</g>
	</g>
	<g>
		<g>
			<path fill="#E1D7AE" d="M50.616,46.298c0.545,0,1.542-0.827,0.562-0.827C50.633,45.471,49.636,46.298,50.616,46.298
				L50.616,46.298z"/>
		</g>
	</g>
	<g>
		<g>
			<path fill="#E1D7AE" d="M35.713,41.97c0.613,0,1.515-0.931,0.534-0.931C35.634,41.039,34.733,41.97,35.713,41.97L35.713,41.97z"
				/>
		</g>
	</g>
	<g>
		<g>
			<path fill="#E1D7AE" d="M32.29,43.974c0.807,0,1.13-1.004,0.144-1.004C31.628,42.971,31.305,43.974,32.29,43.974L32.29,43.974z"
				/>
		</g>
	</g>
	<g>
		<g>
			<path fill="#E1D7AE" d="M76.349,42.287c0.827,0,1.113-1.058,0.129-1.058C75.652,41.23,75.366,42.287,76.349,42.287L76.349,42.287
				z"/>
		</g>
	</g>
	<g>
		<g>
			<path fill="#E1D7AE" d="M76.011,44.733c0.319,0,1.656-0.617,0.933-0.617C76.625,44.116,75.288,44.733,76.011,44.733
				L76.011,44.733z"/>
		</g>
	</g>
	<path opacity="0.4" fill="#FFFFFF" d="M58.197,23.668c0,0-4.824,2.222-6.855,6.284C51.341,29.952,52.484,24.557,58.197,23.668z"/>
</g>
<g>
	<g>
		<g>
			<path fill="#E9B6B2" d="M68.6,18.656c0.813,0,1.124-1.02,0.14-1.02C67.927,17.636,67.616,18.656,68.6,18.656L68.6,18.656z"/>
		</g>
	</g>
	<g>
		<g>
			<path fill="#E9B6B2" d="M65.983,21.32c0.42,0,1.58-0.635,0.614-0.635C66.177,20.685,65.017,21.32,65.983,21.32L65.983,21.32z"/>
		</g>
	</g>
	<g>
		<g>
			<path fill="#E9B6B2" d="M72.108,17.915c0.574,0,1.531-0.871,0.551-0.871C72.085,17.044,71.128,17.915,72.108,17.915
				L72.108,17.915z"/>
		</g>
	</g>
	<g>
		<g>
			<path fill="#E9B6B2" d="M61.284,21.379c0.855,0,1.089-1.135,0.109-1.135C60.538,20.244,60.305,21.379,61.284,21.379
				L61.284,21.379z"/>
		</g>
	</g>
	<g>
		<g>
			<path fill="#E9B6B2" d="M59.73,24.101c0.57,0,1.532-0.865,0.552-0.865C59.712,23.236,58.749,24.101,59.73,24.101L59.73,24.101z"
				/>
		</g>
	</g>
	<g>
		<g>
			<path fill="#E9B6B2" d="M70.29,20.231c0.28,0,1.642-0.553,0.95-0.553C70.96,19.678,69.598,20.231,70.29,20.231L70.29,20.231z"/>
		</g>
	</g>
	<g>
		<g>
			<path fill="#E9B6B2" d="M74.676,19.047c0.56,0,1.536-0.85,0.556-0.85C74.672,18.197,73.696,19.047,74.676,19.047L74.676,19.047z"
				/>
		</g>
	</g>
	<g>
		<g>
			<path fill="#E9B6B2" d="M78.975,18.434c0.631,0,1.507-0.958,0.527-0.958C78.872,17.476,77.995,18.434,78.975,18.434
				L78.975,18.434z"/>
		</g>
	</g>
	<g>
		<g>
			<path fill="#E9B6B2" d="M67.555,25.329c0.819,0,1.119-1.037,0.135-1.037C66.871,24.292,66.571,25.329,67.555,25.329
				L67.555,25.329z"/>
		</g>
	</g>
	<g>
		<g>
			<path fill="#E9B6B2" d="M62.863,23.278c0.279,0,1.642-0.552,0.95-0.552C63.534,22.726,62.171,23.278,62.863,23.278L62.863,23.278
				z"/>
		</g>
	</g>
	<g>
		<g>
			<path fill="#E9B6B2" d="M82.416,18.312c0.84,0,1.101-1.094,0.12-1.094C81.696,17.218,81.434,18.312,82.416,18.312L82.416,18.312z
				"/>
		</g>
	</g>
	<g>
		<g>
			<path fill="#E9B6B2" d="M87.225,20.308c0.465,0,1.568-0.706,0.595-0.706C87.354,19.602,86.252,20.308,87.225,20.308
				L87.225,20.308z"/>
		</g>
	</g>
	<g>
		<g>
			<path fill="#E9B6B2" d="M74.577,20.65c0.54,0,1.544-0.819,0.564-0.819C74.601,19.831,73.597,20.65,74.577,20.65L74.577,20.65z"/>
		</g>
	</g>
	<g>
		<g>
			<path fill="#E9B6B2" d="M71.537,23.248c0.576,0,1.53-0.874,0.55-0.874C71.511,22.374,70.557,23.248,71.537,23.248L71.537,23.248z
				"/>
		</g>
	</g>
	<g>
		<g>
			<path fill="#E9B6B2" d="M78.864,23.134c0.551,0,1.54-0.836,0.56-0.836C78.873,22.298,77.884,23.134,78.864,23.134L78.864,23.134z
				"/>
		</g>
	</g>
	<g>
		<g>
			<path fill="#E9B6B2" d="M58.986,25.9c0.819,0,1.119-1.036,0.135-1.036C58.302,24.864,58.002,25.9,58.986,25.9L58.986,25.9z"/>
		</g>
	</g>
	<g>
		<g>
			<path fill="#E9B6B2" d="M55.435,28.539c0.522,0,1.55-0.792,0.572-0.792C55.485,27.747,54.457,28.539,55.435,28.539L55.435,28.539
				z"/>
		</g>
	</g>
	<g>
		<g>
			<path fill="#E9B6B2" d="M56.778,26.515c0.318,0,1.656-0.615,0.933-0.615C57.394,25.9,56.055,26.515,56.778,26.515L56.778,26.515z
				"/>
		</g>
	</g>
	<g>
		<g>
			<path fill="#E9B6B2" d="M78.403,20.337c0.628,0,1.508-0.954,0.528-0.954C78.303,19.382,77.423,20.337,78.403,20.337
				L78.403,20.337z"/>
		</g>
	</g>
	<g>
		<g>
			<path fill="#E9B6B2" d="M58.138,28.694c0.843,0,1.099-1.102,0.118-1.102C57.412,27.592,57.157,28.694,58.138,28.694
				L58.138,28.694z"/>
		</g>
	</g>
	<g>
		<g>
			<path fill="#E9B6B2" d="M63.605,21.042c0.431,0,1.577-0.652,0.609-0.652C63.784,20.391,62.637,21.042,63.605,21.042
				L63.605,21.042z"/>
		</g>
	</g>
	<g>
		<g>
			<path fill="#E9B6B2" d="M59.471,22.632c0.843,0,1.099-1.102,0.118-1.102C58.746,21.53,58.49,22.632,59.471,22.632L59.471,22.632z
				"/>
		</g>
	</g>
	<g>
		<g>
			<path fill="#E9B6B2" d="M63.414,26.649c0.582,0,1.528-0.883,0.547-0.883C63.379,25.766,62.433,26.649,63.414,26.649
				L63.414,26.649z"/>
		</g>
	</g>
	<g>
		<g>
			<path fill="#E9B6B2" d="M61.252,28.442c0.562,0,1.536-0.853,0.555-0.853C61.245,27.59,60.271,28.442,61.252,28.442L61.252,28.442
				z"/>
		</g>
	</g>
	<g>
		<g>
			<path fill="#E9B6B2" d="M68.217,22.412c0.478,0,1.564-0.725,0.589-0.725C68.328,21.687,67.242,22.412,68.217,22.412
				L68.217,22.412z"/>
		</g>
	</g>
	<g>
		<g>
			<path fill="#E9B6B2" d="M81.514,20.821c0.473,0,1.566-0.717,0.592-0.717C81.632,20.104,80.54,20.821,81.514,20.821L81.514,20.821
				z"/>
		</g>
	</g>
	<g>
		<g>
			<path fill="#E9B6B2" d="M76.539,18.006c0.826,0,1.114-1.054,0.13-1.054C75.844,16.952,75.556,18.006,76.539,18.006L76.539,18.006
				z"/>
		</g>
	</g>
	<g>
		<g>
			<path fill="#E9B6B2" d="M84.495,20.91c0.464,0,1.568-0.704,0.595-0.704C84.626,20.206,83.522,20.91,84.495,20.91L84.495,20.91z"
				/>
		</g>
	</g>
	<g>
		<g>
			<path fill="#E9B6B2" d="M71.995,27.369c0.486,0,1.562-0.737,0.586-0.737C72.096,26.632,71.02,27.369,71.995,27.369L71.995,27.369
				z"/>
		</g>
	</g>
	<g>
		<g>
			<path fill="#E9B6B2" d="M73.007,24.607c0.547,0,1.541-0.83,0.561-0.83C73.022,23.777,72.028,24.607,73.007,24.607L73.007,24.607z
				"/>
		</g>
	</g>
</g>
<path opacity="0.3" fill="#FFFFFF" d="M20.725,128.383L133.05,22.226c0,0,53.525,52.43-0.91,111.693
	C132.14,133.919,76.551,185.305,20.725,128.383z"/>
</svg>
