<?xml version="1.0" encoding="utf-8"?>
<!-- Generator: Adobe Illustrator 17.0.0, SVG Export Plug-In . SVG Version: 6.00 Build 0)  -->
<!DOCTYPE svg PUBLIC "-//W3C//DTD SVG 1.1//EN" "http://www.w3.org/Graphics/SVG/1.1/DTD/svg11.dtd">
<svg version="1.1" id="Layer_1" xmlns="http://www.w3.org/2000/svg" xmlns:xlink="http://www.w3.org/1999/xlink" x="0px" y="0px"
	 width="157.044px" height="155.201px" viewBox="0 0 157.044 155.201" enable-background="new 0 0 157.044 155.201"
	 xml:space="preserve">
<g>
	<circle fill="#DBAB7F" cx="78.652" cy="77.27" r="77.333"/>
</g>
<path fill="#E99B23" d="M50.204,29.623c0,0,2.815-8.584,12.21-8.683l1.714,10.12l-4.222,4.951L50.204,29.623z"/>
<path fill="#E99B23" d="M58.012,29.521c0,0,2.324-16.933,24.373-13.632c0,0,12.162,1.765,15.963,15.482l-6.355,28.697L58.012,29.521
	z"/>
<path fill="#E99B23" d="M63.288,20.087c0,0,3.515-8.606,12.428-4.625v6.774L63.288,20.087z"/>
<path fill="#E4A951" d="M73.737,78.792c0,0-8.48-0.337-6.713-3.577c0,0-7.362-0.499-3.606-5.301c0,0-2.965-3.627,1.865-4.757
	c0,0-6.564-6.285-4.427-13.377c0,0-3.973-6.023,4.324-9.476c0,0,8.014-19.699,33.01-17.639c0,0,28.038,2.957,30.238,26.73
	c0,0,3.338,15.704-7.54,23.793C120.888,75.188,86.177,86.585,73.737,78.792z"/>
<path fill="#E4B573" d="M33.732,74.761c0,0-6.737-1.617-4.77-4.219c0,0-5.814-1.587-1.986-5.268c0,0-1.759-3.682,2.304-3.935
	c0,0-4.189-6.601-1.27-12.568c0,0-2.158-5.967,5.078-7.744c0,0,9.775-16.25,29.452-10.537c0,0,21.962,6.982,19.677,28.437
	c0,0,0.001,14.465-10.092,19.96C72.126,78.885,42.374,83.614,33.732,74.761z"/>
<path fill="#F1F1F2" d="M29.851,77.904l6.284,51.415l0.254,1.111c0.763,5.273,21.74,6.887,21.74,6.887s14.187,1.714,33.515,0.571
	c0,0,31.706-1.523,33.039-9.712l3.999-51.32C128.682,76.857,73.839,87.362,29.851,77.904z"/>
<path fill="#ECAA25" d="M28.962,70.541c0,0-1.714,2.031,3.745,3.935c0,0,7.807,2.285,16.884,3.364c0,0,14.726,1.27,24.184,1.016
	c0,0,20.312,0.444,34.848-1.523c0,0,13.774-2.158,16.821-3.682c0,0,7.744-2.602,1.968-6.094l0.635-0.889
	c0,0,9.359,4.316,1.506,9.902c0,0-6.012,4.824-26.388,5.776c0,0-17.456,1.143-27.294,0.952c0,0-36.12,1.079-47.163-6.443
	c0,0-5.394-3.079-1.141-7.204L28.962,70.541z"/>
<path fill="#E4B573" d="M50.204,77.892c0,0,0.879,3.029,3.26,2.521c0,0,3.047-0.604,3.999,1.3c0,0,2.38,5.09,5.427,1.641
	c0,0,2.571-2.021,4.761-1.355c0,0,6.04,0.677,8.066-5.803L50.204,77.892z"/>
<path fill="#E4B573" d="M73.941,79.473c0,0,3.815-3.23,5.706-9.083C79.646,70.39,71.467,75.638,73.941,79.473z"/>
<g>
	<ellipse fill="#E4B573" cx="60.152" cy="90.092" rx="1.595" ry="1.619"/>
	<path fill="#E4B573" d="M58.558,90.092c0,0,0.095-1.095,1.595-3.57c0,0,1.785,2.285,1.595,4.047L58.558,90.092z"/>
</g>
<g>
	<ellipse fill="#F8EAC9" cx="60.145" cy="104.034" rx="1.595" ry="1.619"/>
	<path fill="#F8EAC9" d="M58.55,104.034c0,0,0.095-1.095,1.595-3.57c0,0,1.785,2.285,1.595,4.047L58.55,104.034z"/>
</g>
<g>
	<ellipse fill="#E4A951" cx="112.842" cy="86.854" rx="1.595" ry="1.619"/>
	<path fill="#E4A951" d="M111.247,86.854c0,0,0.095-1.095,1.595-3.57c0,0,1.785,2.285,1.595,4.047L111.247,86.854z"/>
</g>
<g>
	<ellipse fill="#E4A951" cx="109.641" cy="89.152" rx="0.992" ry="1.007"/>
	<path fill="#E4A951" d="M108.648,89.152c0,0,0.059-0.681,0.992-2.222c0,0,1.111,1.422,0.992,2.518L108.648,89.152z"/>
</g>
<path fill="#E4A951" d="M121.22,74.932c0,0,2.764,3.819,5.811,0c0,0,0.458-2.169,1.879-2.169c0,0,2.358-0.854,0.367-3.531
	c0,0,0.304-1.585-1.733-3.407L121.22,74.932z"/>
<path fill="#E4A951" d="M101.466,78.091c0,0,0.366,2.753,3.032,2.283c0,0,1.523-2.284,4.38-0.901c0,0,4.436,5.782,3.932-2.844
	L101.466,78.091z"/>
<path fill="#E4A951" d="M105.175,26.2c0,0,21.067-0.644,22.763,21.912L105.175,26.2z"/>
<path fill="#E4A951" d="M101.466,25.236c0,0,8.847-4.037,15.556,4.036l-4.173,5.407L101.466,25.236z"/>
<path fill="#E4A951" d="M128.682,60.715c0,0,2.87,3.078,0.229,6.42l-3.262,2.81l-1.029-5.408L128.682,60.715z"/>
<path opacity="0.3" fill="#FFFFFF" d="M74.03,34.082c0,0,10.6-9.14,25.898-7.744C99.928,26.338,83.487,22.149,74.03,34.082z"/>
<path opacity="0.3" fill="#FFFFFF" d="M37.181,37.765c0,0,9.822-8.653,23.68-6.988C60.86,30.777,46.026,26.379,37.181,37.765z"/>
<path fill="#E99B23" d="M58.012,21.7c0,0,1.228-4.643,6.878-4.148l1.904,6.961L58.012,21.7z"/>
<g>
	<g>
		<g>
			<path fill="#E99B23" d="M47.666,33.655c0.322,0,1.657-0.621,0.932-0.621C48.276,33.034,46.941,33.655,47.666,33.655
				L47.666,33.655z"/>
		</g>
	</g>
	<g>
		<g>
			<path fill="#E99B23" d="M52.999,34.421c0.326,0,1.659-0.628,0.93-0.628C53.602,33.792,52.27,34.421,52.999,34.421L52.999,34.421z
				"/>
		</g>
	</g>
	<g>
		<g>
			<path fill="#E99B23" d="M44.804,34.619c0.297,0,1.649-0.581,0.942-0.581C45.45,34.038,44.098,34.619,44.804,34.619L44.804,34.619
				z"/>
		</g>
	</g>
	<g>
		<g>
			<path fill="#E99B23" d="M40.505,37.442c0.631,0,1.507-0.958,0.527-0.958C40.402,36.484,39.525,37.442,40.505,37.442
				L40.505,37.442z"/>
		</g>
	</g>
	<g>
		<g>
			<path fill="#E99B23" d="M53.392,37.654c0.806,0,1.13-1.002,0.144-1.002C52.73,36.652,52.406,37.654,53.392,37.654L53.392,37.654z
				"/>
		</g>
	</g>
	<g>
		<g>
			<path fill="#E99B23" d="M50.936,35.188c0.423,0,1.58-0.639,0.613-0.639C51.126,34.549,49.969,35.188,50.936,35.188L50.936,35.188
				z"/>
		</g>
	</g>
	<g>
		<g>
			<path fill="#E99B23" d="M59.663,33.591c0.576,0,1.53-0.874,0.55-0.874C59.637,32.718,58.683,33.591,59.663,33.591L59.663,33.591z
				"/>
		</g>
	</g>
	<g>
		<g>
			<path fill="#E99B23" d="M59.655,37.37c0.536,0,1.545-0.813,0.566-0.813C59.685,36.556,58.676,37.37,59.655,37.37L59.655,37.37z"
				/>
		</g>
	</g>
	<g>
		<g>
			<path fill="#E99B23" d="M56.027,37.904c0.487,0,1.561-0.739,0.586-0.739C56.126,37.164,55.052,37.904,56.027,37.904
				L56.027,37.904z"/>
		</g>
	</g>
	<g>
		<g>
			<path fill="#E99B23" d="M56.257,34.449c0.83,0,1.11-1.066,0.127-1.066C55.554,33.383,55.274,34.449,56.257,34.449L56.257,34.449z
				"/>
		</g>
	</g>
	<g>
		<g>
			<path fill="#E99B23" d="M44.397,38.076c0.322,0,1.657-0.621,0.932-0.621C45.007,37.455,43.672,38.076,44.397,38.076
				L44.397,38.076z"/>
		</g>
	</g>
	<g>
		<g>
			<path fill="#E99B23" d="M37.889,38.535c0.565,0,1.534-0.858,0.554-0.858C37.878,37.676,36.909,38.535,37.889,38.535
				L37.889,38.535z"/>
		</g>
	</g>
	<g>
		<g>
			<path fill="#E99B23" d="M43.739,36.238c0.838,0,1.103-1.089,0.121-1.089C43.022,35.149,42.757,36.238,43.739,36.238
				L43.739,36.238z"/>
		</g>
	</g>
	<g>
		<g>
			<path fill="#E99B23" d="M41.886,39.037c0.843,0,1.099-1.102,0.118-1.102C41.161,37.935,40.905,39.037,41.886,39.037
				L41.886,39.037z"/>
		</g>
	</g>
	<g>
		<g>
			<path fill="#E99B23" d="M50.321,33.045c0.274,0,1.639-0.542,0.953-0.542C51,32.503,49.635,33.045,50.321,33.045L50.321,33.045z"
				/>
		</g>
	</g>
	<g>
		<g>
			<path fill="#E99B23" d="M50.736,38.646c0.836,0,1.105-1.082,0.123-1.082C50.024,37.565,49.754,38.646,50.736,38.646
				L50.736,38.646z"/>
		</g>
	</g>
	<g>
		<g>
			<path fill="#E99B23" d="M57.741,32.324c0.599,0,1.521-0.909,0.54-0.909C57.682,31.414,56.761,32.324,57.741,32.324L57.741,32.324
				z"/>
		</g>
	</g>
	<g>
		<g>
			<path fill="#E99B23" d="M64.417,41.439c0.292,0,1.647-0.574,0.944-0.574C65.069,40.865,63.714,41.439,64.417,41.439
				L64.417,41.439z"/>
		</g>
	</g>
	<g>
		<g>
			<path fill="#E99B23" d="M57.004,41.806c0.61,0,1.516-0.926,0.536-0.926C56.93,40.88,56.024,41.806,57.004,41.806L57.004,41.806z"
				/>
		</g>
	</g>
	<g>
		<g>
			<path fill="#E99B23" d="M51.309,40.555c0.839,0,1.102-1.091,0.121-1.091C50.59,39.464,50.327,40.555,51.309,40.555L51.309,40.555
				z"/>
		</g>
	</g>
	<g>
		<g>
			<path fill="#E99B23" d="M45.917,41.451c0.307,0,1.652-0.597,0.938-0.597C46.549,40.854,45.203,41.451,45.917,41.451
				L45.917,41.451z"/>
		</g>
	</g>
	<g>
		<g>
			<path fill="#E99B23" d="M40.075,42.173c0.297,0,1.649-0.581,0.942-0.581C40.721,41.592,39.369,42.173,40.075,42.173
				L40.075,42.173z"/>
		</g>
	</g>
	<g>
		<g>
			<path fill="#E99B23" d="M64.069,39.419c0.844,0,1.098-1.104,0.117-1.104C63.342,38.315,63.088,39.419,64.069,39.419
				L64.069,39.419z"/>
		</g>
	</g>
	<g>
		<g>
			<path fill="#E99B23" d="M82.895,37.463c0.321,0,1.657-0.62,0.932-0.62C83.505,36.843,82.17,37.463,82.895,37.463L82.895,37.463z"
				/>
		</g>
	</g>
	<g>
		<g>
			<path fill="#E99B23" d="M62.137,35.107c0.565,0,1.534-0.858,0.554-0.858C62.125,34.249,61.156,35.107,62.137,35.107
				L62.137,35.107z"/>
		</g>
	</g>
	<g>
		<g>
			<path fill="#E99B23" d="M68.963,38.805c0.422,0,1.58-0.638,0.613-0.638C69.154,38.168,67.996,38.805,68.963,38.805L68.963,38.805
				z"/>
		</g>
	</g>
	<g>
		<g>
			<path fill="#E99B23" d="M68.032,42.187c0.276,0,1.641-0.547,0.952-0.547C68.707,41.641,67.343,42.187,68.032,42.187
				L68.032,42.187z"/>
		</g>
	</g>
	<g>
		<g>
			<path fill="#E99B23" d="M71.658,42.913c0.564,0,1.535-0.856,0.554-0.856C71.648,42.057,70.677,42.913,71.658,42.913
				L71.658,42.913z"/>
		</g>
	</g>
	<g>
		<g>
			<path fill="#E99B23" d="M66.516,35.865c0.561,0,1.536-0.851,0.556-0.851C66.511,35.014,65.535,35.865,66.516,35.865
				L66.516,35.865z"/>
		</g>
	</g>
	<g>
		<g>
			<path fill="#E99B23" d="M34.9,44.417c0.538,0,1.544-0.816,0.565-0.816C34.928,43.6,33.921,44.417,34.9,44.417L34.9,44.417z"/>
		</g>
	</g>
	<g>
		<g>
			<path fill="#E99B23" d="M29.562,44.201c0.505,0,1.556-0.766,0.579-0.766C29.636,43.435,28.585,44.201,29.562,44.201
				L29.562,44.201z"/>
		</g>
	</g>
	<g>
		<g>
			<path fill="#E99B23" d="M29.796,47.049c0.853,0,1.091-1.129,0.11-1.129C29.053,45.92,28.816,47.049,29.796,47.049L29.796,47.049z
				"/>
		</g>
	</g>
	<g>
		<g>
			<path fill="#E99B23" d="M43.112,45.283c0.815,0,1.123-1.025,0.138-1.025C42.435,44.258,42.127,45.283,43.112,45.283
				L43.112,45.283z"/>
		</g>
	</g>
	<g>
		<g>
			<path fill="#E99B23" d="M55.291,51.328c0.611,0,1.516-0.927,0.535-0.927C55.215,50.4,54.31,51.328,55.291,51.328L55.291,51.328z"
				/>
		</g>
	</g>
	<g>
		<g>
			<path fill="#E99B23" d="M49.541,47.381c0.431,0,1.577-0.652,0.609-0.652C49.719,46.729,48.573,47.381,49.541,47.381
				L49.541,47.381z"/>
		</g>
	</g>
	<g>
		<g>
			<path fill="#E99B23" d="M54.9,46.404c0.309,0,1.653-0.602,0.937-0.602C55.527,45.802,54.183,46.404,54.9,46.404L54.9,46.404z"/>
		</g>
	</g>
	<g>
		<g>
			<path fill="#E99B23" d="M63.631,33.665c0.423,0,1.579-0.64,0.612-0.64C63.82,33.025,62.664,33.665,63.631,33.665L63.631,33.665z"
				/>
		</g>
	</g>
	<g>
		<g>
			<path fill="#E99B23" d="M63.827,47.397c0.451,0,1.572-0.684,0.601-0.684C63.977,46.714,62.856,47.397,63.827,47.397
				L63.827,47.397z"/>
		</g>
	</g>
	<g>
		<g>
			<path fill="#E99B23" d="M61.025,43.999c0.851,0,1.092-1.124,0.112-1.124C60.286,42.875,60.044,43.999,61.025,43.999
				L61.025,43.999z"/>
		</g>
	</g>
	<g>
		<g>
			<path fill="#E99B23" d="M73.945,38.989c0.324,0,1.658-0.624,0.931-0.624C74.552,38.364,73.218,38.989,73.945,38.989
				L73.945,38.989z"/>
		</g>
	</g>
	<g>
		<g>
			<path fill="#E99B23" d="M72.433,39.344c0.628,0,1.508-0.954,0.528-0.954C72.332,38.39,71.452,39.344,72.433,39.344L72.433,39.344
				z"/>
		</g>
	</g>
	<g opacity="0.5">
		
			<image overflow="visible" width="74" height="74" xlink:href="B76EB7B0500739DF.png"  transform="matrix(1 0 0 1 41.022 -1.8995)">
		</image>
	</g>
	<g opacity="0.5">
		
			<image overflow="visible" width="74" height="74" xlink:href="B76EB7B0500739DD.png"  transform="matrix(1 0 0 1 48.022 -1.8995)">
		</image>
	</g>
	<g>
		<image overflow="visible" width="75" height="74" xlink:href="B76EB7B0500739E3.png"  transform="matrix(1 0 0 1 50.022 4.1005)">
		</image>
	</g>
	<g>
		<g>
			<path fill="#E99B23" d="M96.517,32.225c0.449,0,1.572-0.681,0.601-0.681C96.668,31.544,95.546,32.225,96.517,32.225
				L96.517,32.225z"/>
		</g>
	</g>
	<g>
		<g>
			<path fill="#E99B23" d="M85.173,34.964c0.292,0,1.647-0.573,0.944-0.573C85.826,34.391,84.471,34.964,85.173,34.964
				L85.173,34.964z"/>
		</g>
	</g>
	<g>
		<g>
			<path fill="#E99B23" d="M88.136,33.236c0.443,0,1.574-0.67,0.604-0.67C88.298,32.565,87.166,33.236,88.136,33.236L88.136,33.236z
				"/>
		</g>
	</g>
	<g>
		<g>
			<path fill="#E99B23" d="M86.894,30.798c0.575,0,1.53-0.873,0.55-0.873C86.869,29.925,85.914,30.798,86.894,30.798L86.894,30.798z
				"/>
		</g>
	</g>
	<g>
		<g>
			<path fill="#E99B23" d="M93.966,35.609c0.843,0,1.099-1.102,0.118-1.102C93.24,34.508,92.984,35.609,93.966,35.609L93.966,35.609
				z"/>
		</g>
	</g>
	<g>
		<g>
			<path fill="#E99B23" d="M93.741,31.656c0.535,0,1.545-0.812,0.566-0.812C93.773,30.844,92.762,31.656,93.741,31.656
				L93.741,31.656z"/>
		</g>
	</g>
	<g>
		<g>
			<path fill="#E99B23" d="M103.255,28.327c0.497,0,1.558-0.755,0.582-0.755C103.339,27.572,102.278,28.327,103.255,28.327
				L103.255,28.327z"/>
		</g>
	</g>
	<g>
		<g>
			<path fill="#E99B23" d="M103.278,32.095c0.612,0,1.516-0.928,0.535-0.928C103.202,31.167,102.298,32.095,103.278,32.095
				L103.278,32.095z"/>
		</g>
	</g>
	<g>
		<g>
			<path fill="#E99B23" d="M110.232,28.433c0.47,0,1.566-0.713,0.593-0.713C110.354,27.72,109.258,28.433,110.232,28.433
				L110.232,28.433z"/>
		</g>
	</g>
	<g>
		<g>
			<path fill="#E99B23" d="M108.536,26.599c0.309,0,1.653-0.601,0.937-0.601C109.164,25.999,107.82,26.599,108.536,26.599
				L108.536,26.599z"/>
		</g>
	</g>
	<g>
		<g>
			<path fill="#E99B23" d="M110.567,34.087c0.306,0,1.652-0.597,0.938-0.597C111.199,33.491,109.853,34.087,110.567,34.087
				L110.567,34.087z"/>
		</g>
	</g>
	<g>
		<g>
			<path fill="#E99B23" d="M85.876,39.549c0.564,0,1.535-0.856,0.554-0.856C85.866,38.693,84.896,39.549,85.876,39.549
				L85.876,39.549z"/>
		</g>
	</g>
	<g>
		<g>
			<path fill="#E99B23" d="M81.401,38.924c0.853,0,1.09-1.13,0.11-1.13C80.658,37.794,80.421,38.924,81.401,38.924L81.401,38.924z"
				/>
		</g>
	</g>
	<g>
		<g>
			<path fill="#E99B23" d="M81.178,33.833c0.56,0,1.536-0.85,0.556-0.85C81.174,32.983,80.198,33.833,81.178,33.833L81.178,33.833z"
				/>
		</g>
	</g>
	<g>
		<g>
			<path fill="#E99B23" d="M76.062,36.613c0.835,0,1.106-1.078,0.124-1.078C75.352,35.535,75.08,36.613,76.062,36.613L76.062,36.613
				z"/>
		</g>
	</g>
	<g>
		<g>
			<path fill="#E99B23" d="M79.541,41.751c0.622,0,1.511-0.944,0.531-0.944C79.449,40.807,78.56,41.751,79.541,41.751L79.541,41.751
				z"/>
		</g>
	</g>
	<g>
		<g>
			<path fill="#E99B23" d="M95.993,37.88c0.832,0,1.108-1.073,0.125-1.073C95.286,36.807,95.01,37.88,95.993,37.88L95.993,37.88z"/>
		</g>
	</g>
	<g>
		<g>
			<path fill="#E99B23" d="M90.793,37.645c0.846,0,1.096-1.111,0.115-1.111C90.062,36.535,89.812,37.645,90.793,37.645
				L90.793,37.645z"/>
		</g>
	</g>
	<g>
		<g>
			<path fill="#E99B23" d="M91.146,29.274c0.32,0,1.657-0.618,0.932-0.618C91.759,28.656,90.422,29.274,91.146,29.274L91.146,29.274
				z"/>
		</g>
	</g>
	<g>
		<g>
			<path fill="#E99B23" d="M99.392,28.999c0.294,0,1.648-0.576,0.944-0.576C100.042,28.423,98.688,28.999,99.392,28.999
				L99.392,28.999z"/>
		</g>
	</g>
	<g>
		<g>
			<path fill="#E99B23" d="M93.631,40.479c0.618,0,1.513-0.938,0.532-0.938C93.546,39.541,92.651,40.479,93.631,40.479
				L93.631,40.479z"/>
		</g>
	</g>
	<g>
		<g>
			<path fill="#E99B23" d="M104.666,36.126c0.57,0,1.532-0.866,0.552-0.866C104.648,35.261,103.686,36.126,104.666,36.126
				L104.666,36.126z"/>
		</g>
	</g>
	<g>
		<g>
			<path fill="#E99B23" d="M114.956,30.821c0.605,0,1.518-0.918,0.538-0.918C114.889,29.902,113.976,30.821,114.956,30.821
				L114.956,30.821z"/>
		</g>
	</g>
	<g>
		<g>
			<path fill="#E99B23" d="M114.954,37.162c0.596,0,1.522-0.905,0.541-0.905C114.899,36.256,113.974,37.162,114.954,37.162
				L114.954,37.162z"/>
		</g>
	</g>
	<g>
		<g>
			<path fill="#E99B23" d="M112.634,41.599c0.422,0,1.58-0.639,0.613-0.639C112.824,40.96,111.667,41.599,112.634,41.599
				L112.634,41.599z"/>
		</g>
	</g>
	<g>
		<g>
			<path fill="#E99B23" d="M104.875,41.8c0.821,0,1.118-1.041,0.134-1.041C104.188,40.759,103.891,41.8,104.875,41.8L104.875,41.8z"
				/>
		</g>
	</g>
	<g>
		<g>
			<path fill="#E99B23" d="M102.49,38.345c0.483,0,1.563-0.733,0.587-0.733C102.595,37.612,101.515,38.345,102.49,38.345
				L102.49,38.345z"/>
		</g>
	</g>
	<g>
		<g>
			<path fill="#E99B23" d="M98.825,43.993c0.565,0,1.534-0.858,0.554-0.858C98.814,43.136,97.845,43.993,98.825,43.993
				L98.825,43.993z"/>
		</g>
	</g>
	<g>
		<g>
			<path fill="#E99B23" d="M99.574,34.421c0.499,0,1.558-0.757,0.581-0.757C99.656,33.665,98.597,34.421,99.574,34.421
				L99.574,34.421z"/>
		</g>
	</g>
	<g>
		<g>
			<path fill="#E99B23" d="M108.441,31.432c0.851,0,1.092-1.126,0.111-1.126C107.701,30.306,107.461,31.432,108.441,31.432
				L108.441,31.432z"/>
		</g>
	</g>
	<g>
		<g>
			<path fill="#E99B23" d="M107.895,38.638c0.282,0,1.643-0.556,0.949-0.556C108.562,38.081,107.201,38.638,107.895,38.638
				L107.895,38.638z"/>
		</g>
	</g>
	<g>
		<g>
			<path fill="#E99B23" d="M118.09,34.734c0.852,0,1.091-1.127,0.111-1.127C117.348,33.606,117.109,34.734,118.09,34.734
				L118.09,34.734z"/>
		</g>
	</g>
	<g>
		<g>
			<path fill="#E99B23" d="M117.862,38.384c0.535,0,1.545-0.812,0.566-0.812C117.893,37.573,116.883,38.384,117.862,38.384
				L117.862,38.384z"/>
		</g>
	</g>
	<g>
		<g>
			<path fill="#E99B23" d="M85.856,47.092c0.467,0,1.567-0.709,0.594-0.709C85.983,46.384,84.883,47.092,85.856,47.092
				L85.856,47.092z"/>
		</g>
	</g>
	<g>
		<g>
			<path fill="#E99B23" d="M91.853,46.444c0.615,0,1.514-0.934,0.533-0.934C91.771,45.509,90.873,46.444,91.853,46.444
				L91.853,46.444z"/>
		</g>
	</g>
	<g>
		<g>
			<path fill="#E99B23" d="M104.477,26.232c0.326,0,1.658-0.628,0.93-0.628C105.081,25.604,103.749,26.232,104.477,26.232
				L104.477,26.232z"/>
		</g>
	</g>
	<g>
		<g>
			<path fill="#E99B23" d="M121.148,42.266c0.465,0,1.568-0.705,0.595-0.705C121.278,41.562,120.175,42.266,121.148,42.266
				L121.148,42.266z"/>
		</g>
	</g>
	<g>
		<g>
			<path fill="#E99B23" d="M121.146,37.686c0.452,0,1.572-0.685,0.6-0.685C121.294,37.001,120.174,37.686,121.146,37.686
				L121.146,37.686z"/>
		</g>
	</g>
	<g>
		<g>
			<path fill="#E99B23" d="M106.551,45.193c0.473,0,1.566-0.718,0.591-0.718C106.669,44.475,105.577,45.193,106.551,45.193
				L106.551,45.193z"/>
		</g>
	</g>
	<g>
		<g>
			<path fill="#E99B23" d="M85.082,45.905c0.852,0,1.091-1.127,0.111-1.127C84.341,44.778,84.102,45.905,85.082,45.905
				L85.082,45.905z"/>
		</g>
	</g>
	<g>
		<g>
			<path fill="#E99B23" d="M89.13,43.945c0.811,0,1.126-1.016,0.141-1.016C88.459,42.93,88.145,43.945,89.13,43.945L89.13,43.945z"
				/>
		</g>
	</g>
	<g>
		<g>
			<path fill="#E99B23" d="M88.281,38.507c0.53,0,1.547-0.804,0.568-0.804C88.32,37.704,87.302,38.507,88.281,38.507L88.281,38.507z
				"/>
		</g>
	</g>
	<g>
		<g>
			<path fill="#E99B23" d="M91.032,33.147c0.806,0,1.13-1.001,0.145-1.001C90.371,32.146,90.047,33.147,91.032,33.147L91.032,33.147
				z"/>
		</g>
	</g>
	<g>
		<g>
			<path fill="#E99B23" d="M100.582,39.473c0.464,0,1.568-0.703,0.595-0.703C100.714,38.769,99.609,39.473,100.582,39.473
				L100.582,39.473z"/>
		</g>
	</g>
	<g>
		<g>
			<path fill="#E99B23" d="M97.641,41.809c0.828,0,1.112-1.06,0.129-1.06C96.943,40.749,96.658,41.809,97.641,41.809L97.641,41.809z
				"/>
		</g>
	</g>
	<g>
		<g>
			<path fill="#E99B23" d="M108.078,34.669c0.491,0,1.56-0.745,0.584-0.745C108.171,33.925,107.102,34.669,108.078,34.669
				L108.078,34.669z"/>
		</g>
	</g>
	<g>
		<g>
			<path fill="#E99B23" d="M105.935,30.666c0.569,0,1.533-0.864,0.552-0.864C105.919,29.803,104.955,30.666,105.935,30.666
				L105.935,30.666z"/>
		</g>
	</g>
	<g>
		<g>
			<path fill="#E99B23" d="M112.537,31.809c0.569,0,1.533-0.864,0.552-0.864C112.52,30.945,111.556,31.809,112.537,31.809
				L112.537,31.809z"/>
		</g>
	</g>
	<g>
		<g>
			<path fill="#E99B23" d="M110.054,38.133c0.285,0,1.644-0.562,0.947-0.562C110.716,37.57,109.357,38.133,110.054,38.133
				L110.054,38.133z"/>
		</g>
	</g>
	<g>
		<g>
			<path fill="#E99B23" d="M111.89,27.827c0.507,0,1.555-0.77,0.577-0.77C111.96,27.057,110.912,27.827,111.89,27.827L111.89,27.827
				z"/>
		</g>
	</g>
	<g>
		<g>
			<path fill="#E99B23" d="M115.293,42.847c0.844,0,1.098-1.104,0.117-1.104C114.567,41.743,114.312,42.847,115.293,42.847
				L115.293,42.847z"/>
		</g>
	</g>
	<g>
		<g>
			<path fill="#E99B23" d="M114.785,39.542c0.841,0,1.101-1.096,0.119-1.096C114.063,38.446,113.803,39.542,114.785,39.542
				L114.785,39.542z"/>
		</g>
	</g>
	<g>
		<g>
			<path fill="#E99B23" d="M83.462,41.697c0.551,0,1.54-0.836,0.56-0.836C83.47,40.861,82.482,41.697,83.462,41.697L83.462,41.697z"
				/>
		</g>
	</g>
	<g>
		<g>
			<path fill="#E99B23" d="M53.189,28.438c0.577,0,1.53-0.876,0.549-0.876C53.161,27.562,52.209,28.438,53.189,28.438L53.189,28.438
				z"/>
		</g>
	</g>
	<g>
		<g>
			<path fill="#E99B23" d="M46.72,35.325c0.602,0,1.52-0.914,0.539-0.914C46.657,34.411,45.739,35.325,46.72,35.325L46.72,35.325z"
				/>
		</g>
	</g>
	<g>
		<g>
			<path fill="#E99B23" d="M54.248,32.621c0.635,0,1.506-0.964,0.526-0.964C54.139,31.657,53.268,32.621,54.248,32.621
				L54.248,32.621z"/>
		</g>
	</g>
	<g>
		<g>
			<path fill="#E99B23" d="M48.897,36.421c0.541,0,1.543-0.821,0.564-0.821C48.92,35.6,47.918,36.421,48.897,36.421L48.897,36.421z"
				/>
		</g>
	</g>
	<g>
		<g>
			<path fill="#E99B23" d="M48.717,42.054c0.437,0,1.576-0.662,0.606-0.662C48.887,41.393,47.748,42.054,48.717,42.054
				L48.717,42.054z"/>
		</g>
	</g>
	<g>
		<g>
			<path fill="#E99B23" d="M68.583,36.523c0.426,0,1.579-0.645,0.611-0.645C68.768,35.879,67.615,36.523,68.583,36.523
				L68.583,36.523z"/>
		</g>
	</g>
	<g>
		<g>
			<path fill="#E99B23" d="M62.58,32.562c0.558,0,1.537-0.847,0.557-0.847C62.579,31.715,61.6,32.562,62.58,32.562L62.58,32.562z"/>
		</g>
	</g>
	<g>
		<g>
			<path fill="#E99B23" d="M60.547,46.716c0.303,0,1.651-0.591,0.94-0.591C61.185,46.125,59.836,46.716,60.547,46.716L60.547,46.716
				z"/>
		</g>
	</g>
	<g>
		<g>
			<path fill="#E99B23" d="M50.645,45.315c0.551,0,1.54-0.836,0.56-0.836C50.654,44.48,49.665,45.315,50.645,45.315L50.645,45.315z"
				/>
		</g>
	</g>
	<g>
		<g>
			<path fill="#E99B23" d="M35.734,40.959c0.582,0,1.528-0.883,0.547-0.883C35.7,40.076,34.754,40.959,35.734,40.959L35.734,40.959z
				"/>
		</g>
	</g>
	<g>
		<g>
			<path fill="#E99B23" d="M31.924,42.796c0.322,0,1.657-0.622,0.931-0.622C32.533,42.174,31.198,42.796,31.924,42.796
				L31.924,42.796z"/>
		</g>
	</g>
	<g>
		<g>
			<path fill="#E99B23" d="M75.97,41.061c0.295,0,1.648-0.578,0.943-0.578C76.618,40.482,75.265,41.061,75.97,41.061L75.97,41.061z"
				/>
		</g>
	</g>
	<g>
		<g>
			<path fill="#E99B23" d="M76.238,43.902c0.612,0,1.515-0.929,0.535-0.929C76.161,42.973,75.257,43.902,76.238,43.902
				L76.238,43.902z"/>
		</g>
	</g>
	<path opacity="0.3" fill="none" stroke="#E99B23" stroke-width="0.5" stroke-miterlimit="10" d="M58.224,22.681
		c0,0-4.824,2.222-6.855,6.284C51.369,28.965,52.512,23.57,58.224,22.681z"/>
</g>
<path opacity="0.4" fill="#FFFFFF" d="M65.556,17.515c0,0,3.396-4.174,9.331-1.98C74.887,15.536,69.682,14.286,65.556,17.515z"/>
<g>
	<g>
		<g>
			<path fill="#E4B573" d="M68.396,17.497c0.446,0,1.573-0.676,0.603-0.676C68.553,16.82,67.426,17.497,68.396,17.497L68.396,17.497
				z"/>
		</g>
	</g>
	<g>
		<g>
			<path fill="#E4B573" d="M66.05,20.48c0.612,0,1.515-0.929,0.535-0.929C65.973,19.55,65.07,20.48,66.05,20.48L66.05,20.48z"/>
		</g>
	</g>
	<g>
		<g>
			<path fill="#E4B573" d="M71.936,16.768c0.279,0,1.642-0.552,0.95-0.552C72.607,16.216,71.244,16.768,71.936,16.768L71.936,16.768
				z"/>
		</g>
	</g>
	<g>
		<g>
			<path fill="#E4B573" d="M61.089,20.251c0.562,0,1.535-0.853,0.555-0.853C61.082,19.398,60.109,20.251,61.089,20.251
				L61.089,20.251z"/>
		</g>
	</g>
	<g>
		<g>
			<path fill="#E4B573" d="M59.766,23.146c0.612,0,1.515-0.93,0.535-0.93C59.688,22.216,58.786,23.146,59.766,23.146L59.766,23.146z
				"/>
		</g>
	</g>
	<g>
		<g>
			<path fill="#E4B573" d="M70.495,19.321c0.465,0,1.568-0.706,0.595-0.706C70.624,18.615,69.522,19.321,70.495,19.321
				L70.495,19.321z"/>
		</g>
	</g>
	<g>
		<g>
			<path fill="#E4B573" d="M74.916,18.16c0.825,0,1.115-1.051,0.131-1.051C74.223,17.109,73.933,18.16,74.916,18.16L74.916,18.16z"
				/>
		</g>
	</g>
	<g>
		<g>
			<path fill="#E4B573" d="M78.795,17.257c0.294,0,1.648-0.577,0.944-0.577C79.444,16.68,78.09,17.257,78.795,17.257L78.795,17.257z
				"/>
		</g>
	</g>
	<g>
		<g>
			<path fill="#E4B573" d="M67.377,24.266c0.583,0,1.527-0.885,0.547-0.885C67.341,23.381,66.396,24.266,67.377,24.266
				L67.377,24.266z"/>
		</g>
	</g>
	<g>
		<g>
			<path fill="#E4B573" d="M63.295,22.52c0.81,0,1.127-1.011,0.142-1.011C62.627,21.509,62.31,22.52,63.295,22.52L63.295,22.52z"/>
		</g>
	</g>
	<g>
		<g>
			<path fill="#E4B573" d="M82.437,17.301c0.823,0,1.116-1.046,0.132-1.046C81.747,16.255,81.454,17.301,82.437,17.301
				L82.437,17.301z"/>
		</g>
	</g>
	<g>
		<g>
			<path fill="#E4B573" d="M87.253,19.321c0.466,0,1.568-0.707,0.594-0.707C87.381,18.614,86.279,19.321,87.253,19.321
				L87.253,19.321z"/>
		</g>
	</g>
	<g>
		<g>
			<path fill="#E4B573" d="M74.585,19.589c0.443,0,1.574-0.672,0.604-0.672C74.745,18.917,73.614,19.589,74.585,19.589
				L74.585,19.589z"/>
		</g>
	</g>
	<g>
		<g>
			<path fill="#E4B573" d="M71.367,22.11c0.291,0,1.647-0.572,0.945-0.572C72.021,21.538,70.666,22.11,71.367,22.11L71.367,22.11z"
				/>
		</g>
	</g>
	<g>
		<g>
			<path fill="#E4B573" d="M79.11,22.27c0.836,0,1.105-1.082,0.123-1.082C78.397,21.188,78.128,22.27,79.11,22.27L79.11,22.27z"/>
		</g>
	</g>
	<g>
		<g>
			<path fill="#E4B573" d="M58.803,24.819c0.558,0,1.537-0.847,0.557-0.847C58.801,23.971,57.823,24.819,58.803,24.819
				L58.803,24.819z"/>
		</g>
	</g>
	<g>
		<g>
			<path fill="#E4B573" d="M55.274,27.431c0.279,0,1.642-0.551,0.95-0.551C55.945,26.88,54.582,27.431,55.274,27.431L55.274,27.431z
				"/>
		</g>
	</g>
	<g>
		<g>
			<path fill="#E4B573" d="M56.804,25.52c0.308,0,1.653-0.6,0.937-0.6C57.432,24.92,56.088,25.52,56.804,25.52L56.804,25.52z"/>
		</g>
	</g>
	<g>
		<g>
			<path fill="#E4B573" d="M78.428,19.339c0.615,0,1.514-0.933,0.534-0.933C78.347,18.406,77.448,19.339,78.428,19.339
				L78.428,19.339z"/>
		</g>
	</g>
	<g>
		<g>
			<path fill="#E4B573" d="M57.923,27.492c0.444,0,1.574-0.672,0.604-0.672C58.082,26.82,56.952,27.492,57.923,27.492L57.923,27.492
				z"/>
		</g>
	</g>
	<g>
		<g>
			<path fill="#E4B573" d="M63.633,20.055c0.431,0,1.577-0.652,0.609-0.652C63.811,19.404,62.664,20.055,63.633,20.055
				L63.633,20.055z"/>
		</g>
	</g>
	<g>
		<g>
			<path fill="#E4B573" d="M59.499,21.645c0.843,0,1.099-1.102,0.118-1.102C58.773,20.543,58.517,21.645,59.499,21.645
				L59.499,21.645z"/>
		</g>
	</g>
	<g>
		<g>
			<path fill="#E4B573" d="M63.441,25.662c0.582,0,1.528-0.883,0.547-0.883C63.407,24.778,62.461,25.662,63.441,25.662
				L63.441,25.662z"/>
		</g>
	</g>
	<g>
		<g>
			<path fill="#E4B573" d="M61.279,27.455c0.562,0,1.536-0.853,0.555-0.853C61.273,26.603,60.299,27.455,61.279,27.455
				L61.279,27.455z"/>
		</g>
	</g>
	<g>
		<g>
			<path fill="#E4B573" d="M68.244,21.425c0.478,0,1.564-0.725,0.589-0.725C68.356,20.7,67.27,21.425,68.244,21.425L68.244,21.425z"
				/>
		</g>
	</g>
	<g>
		<g>
			<path fill="#E4B573" d="M81.541,19.834c0.473,0,1.566-0.717,0.592-0.717C81.66,19.117,80.567,19.834,81.541,19.834L81.541,19.834
				z"/>
		</g>
	</g>
	<g>
		<g>
			<path fill="#E4B573" d="M76.567,17.019c0.826,0,1.114-1.054,0.13-1.054C75.872,15.965,75.584,17.019,76.567,17.019L76.567,17.019
				z"/>
		</g>
	</g>
	<g>
		<g>
			<path fill="#E4B573" d="M84.523,19.923c0.464,0,1.568-0.704,0.595-0.704C84.654,19.219,83.55,19.923,84.523,19.923L84.523,19.923
				z"/>
		</g>
	</g>
	<g>
		<g>
			<path fill="#E4B573" d="M72.023,26.382c0.486,0,1.562-0.737,0.586-0.737C72.123,25.645,71.047,26.382,72.023,26.382
				L72.023,26.382z"/>
		</g>
	</g>
	<g>
		<g>
			<path fill="#E4B573" d="M73.035,23.62c0.547,0,1.541-0.83,0.561-0.83C73.049,22.79,72.055,23.62,73.035,23.62L73.035,23.62z"/>
		</g>
	</g>
</g>
<path opacity="0.2" fill="#FFFFFF" enable-background="new    " d="M20.893,128.321L133.218,22.163c0,0,53.525,52.43-0.91,111.693
	C132.308,133.856,76.719,185.242,20.893,128.321z"/>
</svg>
