<?xml version="1.0" encoding="utf-8"?>
<!-- Generator: Adobe Illustrator 17.0.0, SVG Export Plug-In . SVG Version: 6.00 Build 0)  -->
<!DOCTYPE svg PUBLIC "-//W3C//DTD SVG 1.1//EN" "http://www.w3.org/Graphics/SVG/1.1/DTD/svg11.dtd">
<svg version="1.1" id="Layer_1" xmlns="http://www.w3.org/2000/svg" xmlns:xlink="http://www.w3.org/1999/xlink" x="0px" y="0px"
	 width="157.044px" height="155.201px" viewBox="0 0 157.044 155.201" enable-background="new 0 0 157.044 155.201"
	 xml:space="preserve">
<g>
	<circle fill="#858D9A" cx="78.594" cy="77.333" r="77.333"/>
</g>
<path fill="#245C99" d="M50.286,30.61c0,0,2.815-8.584,12.21-8.683l1.714,10.12l-4.222,4.951L50.286,30.61z"/>
<path fill="#245C99" d="M58.094,30.508c0,0,2.324-16.933,24.373-13.632c0,0,12.162,1.765,15.963,15.482l-6.355,28.697L58.094,30.508
	z"/>
<path fill="#245C99" d="M63.37,21.075c0,0,3.515-8.606,12.428-4.625v6.774L63.37,21.075z"/>
<path fill="#687E99" d="M73.819,79.78c0,0-8.48-0.337-6.713-3.577c0,0-7.362-0.499-3.606-5.301c0,0-2.965-3.627,1.865-4.757
	c0,0-6.564-6.285-4.427-13.377c0,0-3.973-6.023,4.324-9.476c0,0,8.014-19.699,33.01-17.639c0,0,28.038,2.957,30.238,26.73
	c0,0,3.337,15.704-7.54,23.793C120.97,76.175,86.26,87.572,73.819,79.78z"/>
<path fill="#AEBFC5" d="M33.814,75.748c0,0-6.737-1.617-4.77-4.219c0,0-5.814-1.587-1.986-5.268c0,0-1.759-3.682,2.304-3.935
	c0,0-4.189-6.601-1.27-12.568c0,0-2.158-5.967,5.078-7.744c0,0,9.775-16.25,29.452-10.537c0,0,21.962,6.982,19.677,28.437
	c0,0,0.001,14.465-10.092,19.96C72.208,79.872,42.456,84.601,33.814,75.748z"/>
<path fill="#F1F1F2" d="M29.933,78.892l6.284,51.415l0.254,1.111c0.763,5.273,21.74,6.887,21.74,6.887s14.187,1.714,33.515,0.571
	c0,0,31.706-1.523,33.039-9.712l3.999-51.32C128.764,77.844,73.922,88.349,29.933,78.892z"/>
<path fill="#245C99" d="M29.045,71.528c0,0-1.714,2.031,3.745,3.935c0,0,7.807,2.285,16.884,3.364c0,0,14.726,1.27,24.184,1.016
	c0,0,20.312,0.444,34.848-1.523c0,0,13.774-2.158,16.821-3.682c0,0,7.744-2.602,1.968-6.094l0.635-0.889
	c0,0,9.359,4.316,1.506,9.902c0,0-6.012,4.824-26.388,5.776c0,0-17.456,1.143-27.294,0.952c0,0-36.12,1.079-47.163-6.443
	c0,0-5.394-3.079-1.141-7.204L29.045,71.528z"/>
<path fill="#AEBFC5" d="M50.286,78.879c0,0,0.879,3.029,3.26,2.521c0,0,3.047-0.604,3.999,1.3c0,0,2.38,5.09,5.427,1.641
	c0,0,2.571-2.021,4.761-1.355c0,0,6.04,0.677,8.066-5.803L50.286,78.879z"/>
<path fill="#AEBFC5" d="M74.023,80.46c0,0,3.815-3.23,5.706-9.083C79.729,71.377,71.55,76.625,74.023,80.46z"/>
<g>
	<ellipse fill="#AEBFC5" cx="60.235" cy="91.079" rx="1.595" ry="1.619"/>
	<path fill="#AEBFC5" d="M58.64,91.079c0,0,0.095-1.095,1.595-3.57c0,0,1.785,2.285,1.595,4.047L58.64,91.079z"/>
</g>
<g>
	<ellipse fill="#AEBFC5" cx="60.228" cy="105.021" rx="1.595" ry="1.619"/>
	<path fill="#AEBFC5" d="M58.633,105.021c0,0,0.095-1.095,1.595-3.57c0,0,1.785,2.285,1.595,4.047L58.633,105.021z"/>
</g>
<g>
	<ellipse fill="#687E99" cx="112.924" cy="87.842" rx="1.595" ry="1.619"/>
	<path fill="#687E99" d="M111.329,87.842c0,0,0.095-1.095,1.595-3.57c0,0,1.785,2.285,1.595,4.047L111.329,87.842z"/>
</g>
<g>
	<ellipse fill="#687E99" cx="109.723" cy="90.139" rx="0.992" ry="1.007"/>
	<path fill="#687E99" d="M108.731,90.139c0,0,0.059-0.681,0.992-2.222c0,0,1.111,1.422,0.992,2.518L108.731,90.139z"/>
</g>
<path fill="#687E99" d="M121.303,75.919c0,0,2.764,3.819,5.811,0c0,0,0.458-2.169,1.879-2.169c0,0,2.358-0.854,0.367-3.531
	c0,0,0.304-1.585-1.733-3.407L121.303,75.919z"/>
<path fill="#687E99" d="M101.548,79.078c0,0,0.366,2.753,3.032,2.283c0,0,1.523-2.284,4.38-0.901c0,0,4.436,5.782,3.932-2.844
	L101.548,79.078z"/>
<path fill="#687E99" d="M105.257,27.187c0,0,21.067-0.644,22.763,21.912L105.257,27.187z"/>
<path fill="#687E99" d="M101.548,26.223c0,0,8.847-4.037,15.556,4.036l-4.173,5.407L101.548,26.223z"/>
<path fill="#687E99" d="M128.764,61.702c0,0,2.87,3.078,0.229,6.42l-3.262,2.81l-1.029-5.408L128.764,61.702z"/>
<path opacity="0.3" fill="#FFFFFF" d="M74.112,35.069c0,0,10.6-9.14,25.898-7.744C100.01,27.325,83.57,23.136,74.112,35.069z"/>
<path opacity="0.3" fill="#FFFFFF" d="M37.263,38.752c0,0,9.822-8.653,23.68-6.988C60.943,31.764,46.108,27.366,37.263,38.752z"/>
<path fill="#245C99" d="M58.094,22.688c0,0,1.228-4.643,6.878-4.148l1.904,6.961L58.094,22.688z"/>
<g>
	<g>
		<g>
			<path fill="#245C99" d="M47.952,34.817c0.639,0,1.504-0.97,0.524-0.97C47.837,33.847,46.972,34.817,47.952,34.817L47.952,34.817z
				"/>
		</g>
	</g>
	<g>
		<g>
			<path fill="#245C99" d="M53.241,35.419c0.431,0,1.577-0.652,0.609-0.652C53.42,34.768,52.273,35.419,53.241,35.419L53.241,35.419
				z"/>
		</g>
	</g>
	<g>
		<g>
			<path fill="#245C99" d="M45.285,35.816c0.806,0,1.131-1,0.145-1C44.625,34.816,44.3,35.816,45.285,35.816L45.285,35.816z"/>
		</g>
	</g>
	<g>
		<g>
			<path fill="#245C99" d="M40.571,38.368c0.55,0,1.54-0.835,0.56-0.835C40.581,37.532,39.591,38.368,40.571,38.368L40.571,38.368z"
				/>
		</g>
	</g>
	<g>
		<g>
			<path fill="#245C99" d="M53.267,38.562c0.555,0,1.538-0.843,0.558-0.843C53.27,37.719,52.287,38.562,53.267,38.562L53.267,38.562
				z"/>
		</g>
	</g>
	<g>
		<g>
			<path fill="#245C99" d="M50.855,36.152c0.304,0,1.651-0.593,0.939-0.593C51.49,35.559,50.142,36.152,50.855,36.152L50.855,36.152
				z"/>
		</g>
	</g>
	<g>
		<g>
			<path fill="#245C99" d="M59.714,34.46c0.421,0,1.58-0.637,0.613-0.637C59.906,33.823,58.747,34.46,59.714,34.46L59.714,34.46z"/>
		</g>
	</g>
	<g>
		<g>
			<path fill="#245C99" d="M59.545,38.223c0.276,0,1.64-0.545,0.952-0.545C60.221,37.677,58.856,38.223,59.545,38.223L59.545,38.223
				z"/>
		</g>
	</g>
	<g>
		<g>
			<path fill="#245C99" d="M56.13,38.967c0.588,0,1.525-0.892,0.545-0.892C56.087,38.075,55.149,38.967,56.13,38.967L56.13,38.967z"
				/>
		</g>
	</g>
	<g>
		<g>
			<path fill="#245C99" d="M56.14,35.386c0.636,0,1.505-0.966,0.525-0.966C56.029,34.42,55.16,35.386,56.14,35.386L56.14,35.386z"/>
		</g>
	</g>
	<g>
		<g>
			<path fill="#245C99" d="M44.647,39.101c0.46,0,1.569-0.698,0.597-0.698C44.783,38.403,43.674,39.101,44.647,39.101L44.647,39.101
				z"/>
		</g>
	</g>
	<g>
		<g>
			<path fill="#245C99" d="M37.948,39.435c0.451,0,1.572-0.684,0.601-0.684C38.097,38.751,36.977,39.435,37.948,39.435
				L37.948,39.435z"/>
		</g>
	</g>
	<g>
		<g>
			<path fill="#245C99" d="M43.593,37.063c0.505,0,1.556-0.766,0.579-0.766C43.667,36.298,42.615,37.063,43.593,37.063
				L43.593,37.063z"/>
		</g>
	</g>
	<g>
		<g>
			<path fill="#245C99" d="M41.959,39.988c0.816,0,1.122-1.029,0.137-1.029C41.279,38.959,40.974,39.988,41.959,39.988
				L41.959,39.988z"/>
		</g>
	</g>
	<g>
		<g>
			<path fill="#245C99" d="M50.607,34.203c0.583,0,1.527-0.884,0.547-0.884C50.571,33.318,49.626,34.203,50.607,34.203
				L50.607,34.203z"/>
		</g>
	</g>
	<g>
		<g>
			<path fill="#245C99" d="M50.616,39.569c0.627,0,1.509-0.953,0.529-0.953C50.517,38.616,49.636,39.569,50.616,39.569
				L50.616,39.569z"/>
		</g>
	</g>
	<g>
		<g>
			<path fill="#245C99" d="M58.025,33.369c0.815,0,1.122-1.026,0.138-1.026C57.347,32.343,57.04,33.369,58.025,33.369L58.025,33.369
				z"/>
		</g>
	</g>
	<g>
		<g>
			<path fill="#245C99" d="M64.905,42.662c0.822,0,1.117-1.044,0.133-1.044C64.216,41.617,63.921,42.662,64.905,42.662
				L64.905,42.662z"/>
		</g>
	</g>
	<g>
		<g>
			<path fill="#245C99" d="M57.289,42.855c0.824,0,1.115-1.05,0.132-1.05C56.596,41.805,56.305,42.855,57.289,42.855L57.289,42.855z
				"/>
		</g>
	</g>
	<g>
		<g>
			<path fill="#245C99" d="M51.169,41.407c0.54,0,1.544-0.82,0.564-0.82C51.193,40.587,50.19,41.407,51.169,41.407L51.169,41.407z"
				/>
		</g>
	</g>
	<g>
		<g>
			<path fill="#245C99" d="M46.185,42.545c0.535,0,1.545-0.812,0.566-0.812C46.217,41.733,45.206,42.545,46.185,42.545
				L46.185,42.545z"/>
		</g>
	</g>
	<g>
		<g>
			<path fill="#245C99" d="M40.366,43.352c0.635,0,1.505-0.965,0.525-0.965C40.256,42.387,39.386,43.352,40.366,43.352
				L40.366,43.352z"/>
		</g>
	</g>
	<g>
		<g>
			<path fill="#245C99" d="M64.138,40.357c0.808,0,1.129-1.006,0.143-1.006C63.474,39.351,63.153,40.357,64.138,40.357
				L64.138,40.357z"/>
		</g>
	</g>
	<g>
		<g>
			<path fill="#245C99" d="M83.375,38.657c0.818,0,1.121-1.033,0.136-1.033C82.693,37.624,82.39,38.657,83.375,38.657L83.375,38.657
				z"/>
		</g>
	</g>
	<g>
		<g>
			<path fill="#245C99" d="M62.425,36.171c0.81,0,1.127-1.012,0.142-1.012C61.757,35.159,61.44,36.171,62.425,36.171L62.425,36.171z
				"/>
		</g>
	</g>
	<g>
		<g>
			<path fill="#245C99" d="M68.878,39.757c0.288,0,1.646-0.567,0.946-0.567C69.536,39.19,68.179,39.757,68.878,39.757L68.878,39.757
				z"/>
		</g>
	</g>
	<g>
		<g>
			<path fill="#245C99" d="M68.299,43.277c0.496,0,1.559-0.753,0.582-0.753C68.385,42.525,67.322,43.277,68.299,43.277
				L68.299,43.277z"/>
		</g>
	</g>
	<g>
		<g>
			<path fill="#245C99" d="M71.728,43.855c0.505,0,1.556-0.766,0.579-0.766C71.802,43.089,70.751,43.855,71.728,43.855
				L71.728,43.855z"/>
		</g>
	</g>
	<g>
		<g>
			<path fill="#245C99" d="M66.577,36.773c0.458,0,1.57-0.694,0.598-0.694C66.717,36.08,65.605,36.773,66.577,36.773L66.577,36.773z
				"/>
		</g>
	</g>
	<g>
		<g>
			<path fill="#245C99" d="M34.799,45.307c0.322,0,1.657-0.622,0.931-0.622C35.409,44.685,34.074,45.307,34.799,45.307
				L34.799,45.307z"/>
		</g>
	</g>
	<g>
		<g>
			<path fill="#245C99" d="M29.635,45.155c0.461,0,1.569-0.7,0.596-0.7C29.77,44.455,28.662,45.155,29.635,45.155L29.635,45.155z"/>
		</g>
	</g>
	<g>
		<g>
			<path fill="#245C99" d="M29.663,47.925c0.597,0,1.521-0.907,0.541-0.907C29.606,47.018,28.682,47.925,29.663,47.925
				L29.663,47.925z"/>
		</g>
	</g>
	<g>
		<g>
			<path fill="#245C99" d="M43.19,46.254c0.802,0,1.133-0.992,0.147-0.992C42.534,45.261,42.203,46.254,43.19,46.254L43.19,46.254z"
				/>
		</g>
	</g>
	<g>
		<g>
			<path fill="#245C99" d="M55.336,52.177c0.431,0,1.577-0.652,0.609-0.652C55.514,51.525,54.368,52.177,55.336,52.177
				L55.336,52.177z"/>
		</g>
	</g>
	<g>
		<g>
			<path fill="#245C99" d="M49.656,48.49c0.589,0,1.525-0.895,0.544-0.895C49.611,47.595,48.675,48.49,49.656,48.49L49.656,48.49z"
				/>
		</g>
	</g>
	<g>
		<g>
			<path fill="#245C99" d="M55.143,47.406c0.417,0,1.581-0.63,0.615-0.63C55.34,46.775,54.177,47.406,55.143,47.406L55.143,47.406z"
				/>
		</g>
	</g>
	<g>
		<g>
			<path fill="#245C99" d="M63.549,34.627c0.302,0,1.651-0.59,0.94-0.59C64.188,34.037,62.839,34.627,63.549,34.627L63.549,34.627z"
				/>
		</g>
	</g>
	<g>
		<g>
			<path fill="#245C99" d="M63.93,48.459c0.549,0,1.54-0.833,0.561-0.833C63.941,47.626,62.95,48.459,63.93,48.459L63.93,48.459z"/>
		</g>
	</g>
	<g>
		<g>
			<path fill="#245C99" d="M60.871,44.798c0.492,0,1.56-0.747,0.584-0.747C60.963,44.051,59.895,44.798,60.871,44.798L60.871,44.798
				z"/>
		</g>
	</g>
	<g>
		<g>
			<path fill="#245C99" d="M74.189,39.992c0.433,0,1.577-0.656,0.608-0.656C74.364,39.336,73.22,39.992,74.189,39.992L74.189,39.992
				z"/>
		</g>
	</g>
	<g>
		<g>
			<path fill="#245C99" d="M72.716,40.391c0.833,0,1.108-1.073,0.125-1.073C72.009,39.318,71.734,40.391,72.716,40.391
				L72.716,40.391z"/>
		</g>
	</g>
	<g opacity="0.5">
		
			<image overflow="visible" width="75" height="74" xlink:href="6959F3F65274312.png"  transform="matrix(1 0 0 1 40.6104 -0.9881)">
		</image>
	</g>
	<g opacity="0.5">
		
			<image overflow="visible" width="74" height="74" xlink:href="6959F3F65274316.png"  transform="matrix(1 0 0 1 47.6104 -0.9881)">
		</image>
	</g>
	<g>
		<image overflow="visible" width="74" height="74" xlink:href="6959F3F65274311.png"  transform="matrix(1 0 0 1 50.6104 5.0119)">
		</image>
	</g>
	<g>
		<g>
			<path fill="#245C99" d="M96.632,33.334c0.609,0,1.517-0.924,0.536-0.924C96.559,32.41,95.651,33.334,96.632,33.334L96.632,33.334
				z"/>
		</g>
	</g>
	<g>
		<g>
			<path fill="#245C99" d="M85.43,36.014c0.461,0,1.569-0.698,0.597-0.698C85.566,35.316,84.457,36.014,85.43,36.014L85.43,36.014z"
				/>
		</g>
	</g>
	<g>
		<g>
			<path fill="#245C99" d="M88.257,34.367c0.632,0,1.507-0.959,0.527-0.959C88.152,33.408,87.277,34.367,88.257,34.367
				L88.257,34.367z"/>
		</g>
	</g>
	<g>
		<g>
			<path fill="#245C99" d="M86.983,31.811c0.609,0,1.517-0.925,0.536-0.925C86.91,30.886,86.003,31.811,86.983,31.811L86.983,31.811
				z"/>
		</g>
	</g>
	<g>
		<g>
			<path fill="#245C99" d="M94.04,36.567c0.821,0,1.117-1.042,0.133-1.042C93.352,35.524,93.056,36.567,94.04,36.567L94.04,36.567z"
				/>
		</g>
	</g>
	<g>
		<g>
			<path fill="#245C99" d="M93.832,32.675c0.577,0,1.53-0.875,0.549-0.875C93.805,31.8,92.851,32.675,93.832,32.675L93.832,32.675z"
				/>
		</g>
	</g>
	<g>
		<g>
			<path fill="#245C99" d="M103.326,29.274c0.446,0,1.573-0.675,0.603-0.675C103.484,28.599,102.356,29.274,103.326,29.274
				L103.326,29.274z"/>
		</g>
	</g>
	<g>
		<g>
			<path fill="#245C99" d="M103.361,33.084c0.614,0,1.514-0.933,0.534-0.933C103.281,32.152,102.38,33.084,103.361,33.084
				L103.361,33.084z"/>
		</g>
	</g>
	<g>
		<g>
			<path fill="#245C99" d="M110.134,29.337c0.276,0,1.641-0.546,0.952-0.546C110.81,28.79,109.446,29.337,110.134,29.337
				L110.134,29.337z"/>
		</g>
	</g>
	<g>
		<g>
			<path fill="#245C99" d="M109.02,27.808c0.822,0,1.117-1.044,0.133-1.044C108.332,26.764,108.036,27.808,109.02,27.808
				L109.02,27.808z"/>
		</g>
	</g>
	<g>
		<g>
			<path fill="#245C99" d="M110.816,35.112c0.444,0,1.574-0.672,0.604-0.672C110.976,34.44,109.846,35.112,110.816,35.112
				L110.816,35.112z"/>
		</g>
	</g>
	<g>
		<g>
			<path fill="#245C99" d="M85.949,40.499c0.515,0,1.552-0.781,0.574-0.781C86.008,39.718,84.971,40.499,85.949,40.499
				L85.949,40.499z"/>
		</g>
	</g>
	<g>
		<g>
			<path fill="#245C99" d="M81.277,39.833c0.64,0,1.503-0.972,0.523-0.972C81.16,38.86,80.297,39.833,81.277,39.833L81.277,39.833z"
				/>
		</g>
	</g>
	<g>
		<g>
			<path fill="#245C99" d="M81.261,34.822c0.562,0,1.535-0.853,0.555-0.853C81.254,33.969,80.281,34.822,81.261,34.822
				L81.261,34.822z"/>
		</g>
	</g>
	<g>
		<g>
			<path fill="#245C99" d="M75.738,37.361c0.308,0,1.653-0.599,0.938-0.599C76.368,36.762,75.023,37.361,75.738,37.361
				L75.738,37.361z"/>
		</g>
	</g>
	<g>
		<g>
			<path fill="#245C99" d="M79.617,42.718c0.595,0,1.523-0.903,0.542-0.903C79.564,41.815,78.637,42.718,79.617,42.718
				L79.617,42.718z"/>
		</g>
	</g>
	<g>
		<g>
			<path fill="#245C99" d="M95.878,38.822c0.647,0,1.5-0.983,0.52-0.983C95.751,37.839,94.898,38.822,95.878,38.822L95.878,38.822z"
				/>
		</g>
	</g>
	<g>
		<g>
			<path fill="#245C99" d="M90.672,38.565c0.642,0,1.502-0.976,0.522-0.976C90.552,37.589,89.692,38.565,90.672,38.565
				L90.672,38.565z"/>
		</g>
	</g>
	<g>
		<g>
			<path fill="#245C99" d="M91.629,30.478c0.825,0,1.114-1.053,0.131-1.053C90.935,29.426,90.646,30.478,91.629,30.478
				L91.629,30.478z"/>
		</g>
	</g>
	<g>
		<g>
			<path fill="#245C99" d="M99.889,30.255c0.847,0,1.095-1.113,0.114-1.113C99.156,29.142,98.908,30.255,99.889,30.255
				L99.889,30.255z"/>
		</g>
	</g>
	<g>
		<g>
			<path fill="#245C99" d="M93.717,41.479c0.635,0,1.505-0.965,0.525-0.965C93.607,40.514,92.737,41.479,93.717,41.479
				L93.717,41.479z"/>
		</g>
	</g>
	<g>
		<g>
			<path fill="#245C99" d="M104.97,37.247c0.854,0,1.089-1.133,0.109-1.133C104.225,36.114,103.99,37.247,104.97,37.247
				L104.97,37.247z"/>
		</g>
	</g>
	<g>
		<g>
			<path fill="#245C99" d="M114.835,31.634c0.291,0,1.647-0.572,0.945-0.572C115.489,31.063,114.133,31.634,114.835,31.634
				L114.835,31.634z"/>
		</g>
	</g>
	<g>
		<g>
			<path fill="#245C99" d="M115.251,38.256c0.849,0,1.093-1.12,0.113-1.12C114.514,37.136,114.27,38.256,115.251,38.256
				L115.251,38.256z"/>
		</g>
	</g>
	<g>
		<g>
			<path fill="#245C99" d="M112.741,42.681c0.546,0,1.541-0.829,0.562-0.829C112.757,41.852,111.762,42.681,112.741,42.681
				L112.741,42.681z"/>
		</g>
	</g>
	<g>
		<g>
			<path fill="#245C99" d="M104.555,42.565c0.306,0,1.652-0.597,0.938-0.597C105.187,41.968,103.841,42.565,104.555,42.565
				L104.555,42.565z"/>
		</g>
	</g>
	<g>
		<g>
			<path fill="#245C99" d="M102.582,39.367c0.529,0,1.548-0.803,0.569-0.803C102.622,38.564,101.603,39.367,102.582,39.367
				L102.582,39.367z"/>
		</g>
	</g>
	<g>
		<g>
			<path fill="#245C99" d="M99.131,45.12c0.855,0,1.088-1.137,0.108-1.137C98.383,43.983,98.151,45.12,99.131,45.12L99.131,45.12z"
				/>
		</g>
	</g>
	<g>
		<g>
			<path fill="#245C99" d="M99.473,35.313c0.288,0,1.645-0.566,0.946-0.566C100.132,34.747,98.774,35.313,99.473,35.313
				L99.473,35.313z"/>
		</g>
	</g>
	<g>
		<g>
			<path fill="#245C99" d="M108.518,32.399c0.837,0,1.104-1.086,0.122-1.086C107.803,31.313,107.536,32.399,108.518,32.399
				L108.518,32.399z"/>
		</g>
	</g>
	<g>
		<g>
			<path fill="#245C99" d="M108.388,39.876c0.828,0,1.112-1.059,0.129-1.059C107.689,38.817,107.404,39.876,108.388,39.876
				L108.388,39.876z"/>
		</g>
	</g>
	<g>
		<g>
			<path fill="#245C99" d="M117.937,35.537c0.501,0,1.557-0.76,0.58-0.76C118.017,34.777,116.96,35.537,117.937,35.537
				L117.937,35.537z"/>
		</g>
	</g>
	<g>
		<g>
			<path fill="#245C99" d="M117.755,39.253c0.293,0,1.647-0.575,0.944-0.575C118.406,38.678,117.052,39.253,117.755,39.253
				L117.755,39.253z"/>
		</g>
	</g>
	<g>
		<g>
			<path fill="#245C99" d="M85.963,48.169c0.585,0,1.527-0.888,0.546-0.888C85.924,47.281,84.982,48.169,85.963,48.169
				L85.963,48.169z"/>
		</g>
	</g>
	<g>
		<g>
			<path fill="#245C99" d="M91.93,47.41c0.588,0,1.525-0.893,0.545-0.893C91.886,46.517,90.949,47.41,91.93,47.41L91.93,47.41z"/>
		</g>
	</g>
	<g>
		<g>
			<path fill="#245C99" d="M104.965,27.454c0.842,0,1.1-1.098,0.119-1.098C104.242,26.356,103.984,27.454,104.965,27.454
				L104.965,27.454z"/>
		</g>
	</g>
	<g>
		<g>
			<path fill="#245C99" d="M121.46,43.419c0.819,0,1.119-1.037,0.135-1.037C120.776,42.383,120.476,43.419,121.46,43.419
				L121.46,43.419z"/>
		</g>
	</g>
	<g>
		<g>
			<path fill="#245C99" d="M121.253,38.766c0.573,0,1.531-0.87,0.551-0.87C121.23,37.896,120.272,38.766,121.253,38.766
				L121.253,38.766z"/>
		</g>
	</g>
	<g>
		<g>
			<path fill="#245C99" d="M106.874,46.387c0.854,0,1.089-1.133,0.109-1.133C106.129,45.254,105.894,46.387,106.874,46.387
				L106.874,46.387z"/>
		</g>
	</g>
	<g>
		<g>
			<path fill="#245C99" d="M85.157,46.863c0.831,0,1.109-1.069,0.126-1.069C84.452,45.794,84.174,46.863,85.157,46.863
				L85.157,46.863z"/>
		</g>
	</g>
	<g>
		<g>
			<path fill="#245C99" d="M88.977,44.748c0.428,0,1.578-0.647,0.61-0.647C89.16,44.101,88.01,44.748,88.977,44.748L88.977,44.748z"
				/>
		</g>
	</g>
	<g>
		<g>
			<path fill="#245C99" d="M88.374,39.533c0.58,0,1.528-0.881,0.548-0.881C88.341,38.652,87.393,39.533,88.374,39.533L88.374,39.533
				z"/>
		</g>
	</g>
	<g>
		<g>
			<path fill="#245C99" d="M90.899,34.022c0.512,0,1.553-0.777,0.575-0.777C90.962,33.245,89.921,34.022,90.899,34.022
				L90.899,34.022z"/>
		</g>
	</g>
	<g>
		<g>
			<path fill="#245C99" d="M100.681,40.521c0.544,0,1.542-0.826,0.563-0.826C100.699,39.695,99.701,40.521,100.681,40.521
				L100.681,40.521z"/>
		</g>
	</g>
	<g>
		<g>
			<path fill="#245C99" d="M97.484,42.592c0.431,0,1.577-0.652,0.609-0.652C97.662,41.94,96.515,42.592,97.484,42.592L97.484,42.592
				z"/>
		</g>
	</g>
	<g>
		<g>
			<path fill="#245C99" d="M108.164,35.672c0.511,0,1.554-0.775,0.576-0.775C108.229,34.896,107.186,35.672,108.164,35.672
				L108.164,35.672z"/>
		</g>
	</g>
	<g>
		<g>
			<path fill="#245C99" d="M105.822,31.511c0.296,0,1.648-0.579,0.943-0.579C106.47,30.932,105.117,31.511,105.822,31.511
				L105.822,31.511z"/>
		</g>
	</g>
	<g>
		<g>
			<path fill="#245C99" d="M112.63,32.836c0.622,0,1.511-0.944,0.531-0.944C112.539,31.892,111.65,32.836,112.63,32.836
				L112.63,32.836z"/>
		</g>
	</g>
	<g>
		<g>
			<path fill="#245C99" d="M110.335,39.276c0.576,0,1.53-0.874,0.55-0.874C110.309,38.402,109.355,39.276,110.335,39.276
				L110.335,39.276z"/>
		</g>
	</g>
	<g>
		<g>
			<path fill="#245C99" d="M111.958,28.764c0.442,0,1.574-0.67,0.604-0.67C112.12,28.094,110.988,28.764,111.958,28.764
				L111.958,28.764z"/>
		</g>
	</g>
	<g>
		<g>
			<path fill="#245C99" d="M115.367,43.8c0.819,0,1.119-1.037,0.135-1.037C114.682,42.763,114.383,43.8,115.367,43.8L115.367,43.8z"
				/>
		</g>
	</g>
	<g>
		<g>
			<path fill="#245C99" d="M114.853,40.478c0.803,0,1.133-0.993,0.147-0.993C114.197,39.485,113.867,40.478,114.853,40.478
				L114.853,40.478z"/>
		</g>
	</g>
	<g>
		<g>
			<path fill="#245C99" d="M83.561,42.749c0.636,0,1.505-0.965,0.525-0.965C83.451,41.784,82.581,42.749,83.561,42.749
				L83.561,42.749z"/>
		</g>
	</g>
	<g>
		<g>
			<path fill="#245C99" d="M53.095,29.557c0.811,0,1.126-1.015,0.141-1.015C52.424,28.542,52.11,29.557,53.095,29.557L53.095,29.557
				z"/>
		</g>
	</g>
	<g>
		<g>
			<path fill="#245C99" d="M46.78,36.231c0.496,0,1.559-0.752,0.582-0.752C46.867,35.479,45.804,36.231,46.78,36.231L46.78,36.231z"
				/>
		</g>
	</g>
	<g>
		<g>
			<path fill="#245C99" d="M54.289,33.454c0.433,0,1.577-0.656,0.608-0.656C54.464,32.798,53.321,33.454,54.289,33.454
				L54.289,33.454z"/>
		</g>
	</g>
	<g>
		<g>
			<path fill="#245C99" d="M48.98,37.409c0.542,0,1.543-0.823,0.563-0.823C49.001,36.587,48,37.409,48.98,37.409L48.98,37.409z"/>
		</g>
	</g>
	<g>
		<g>
			<path fill="#245C99" d="M48.829,43.15c0.579,0,1.529-0.879,0.548-0.879C48.798,42.271,47.848,43.15,48.829,43.15L48.829,43.15z"
				/>
		</g>
	</g>
	<g>
		<g>
			<path fill="#245C99" d="M68.703,37.652c0.61,0,1.516-0.926,0.536-0.926C68.628,36.725,67.722,37.652,68.703,37.652L68.703,37.652
				z"/>
		</g>
	</g>
	<g>
		<g>
			<path fill="#245C99" d="M62.671,33.584c0.603,0,1.519-0.915,0.539-0.915C62.607,32.668,61.69,33.584,62.671,33.584L62.671,33.584
				z"/>
		</g>
	</g>
	<g>
		<g>
			<path fill="#245C99" d="M60.629,47.699c0.298,0,1.649-0.582,0.942-0.582C61.273,47.117,59.922,47.699,60.629,47.699
				L60.629,47.699z"/>
		</g>
	</g>
	<g>
		<g>
			<path fill="#245C99" d="M50.726,46.298c0.545,0,1.542-0.827,0.562-0.827C50.743,45.471,49.746,46.298,50.726,46.298
				L50.726,46.298z"/>
		</g>
	</g>
	<g>
		<g>
			<path fill="#245C99" d="M35.823,41.97c0.613,0,1.515-0.931,0.534-0.931C35.744,41.039,34.843,41.97,35.823,41.97L35.823,41.97z"
				/>
		</g>
	</g>
	<g>
		<g>
			<path fill="#245C99" d="M32.4,43.974c0.807,0,1.13-1.004,0.144-1.004C31.737,42.971,31.415,43.974,32.4,43.974L32.4,43.974z"/>
		</g>
	</g>
	<g>
		<g>
			<path fill="#245C99" d="M76.459,42.287c0.827,0,1.113-1.058,0.129-1.058C75.762,41.23,75.476,42.287,76.459,42.287L76.459,42.287
				z"/>
		</g>
	</g>
	<g>
		<g>
			<path fill="#245C99" d="M76.121,44.733c0.319,0,1.656-0.617,0.933-0.617C76.735,44.116,75.398,44.733,76.121,44.733
				L76.121,44.733z"/>
		</g>
	</g>
	<path opacity="0.4" fill="#FFFFFF" d="M58.307,23.668c0,0-4.824,2.222-6.855,6.284C51.451,29.952,52.594,24.557,58.307,23.668z"/>
</g>
<g>
	<g>
		<g>
			<path fill="#AEBFC5" d="M68.71,18.656c0.813,0,1.124-1.02,0.14-1.02C68.037,17.636,67.725,18.656,68.71,18.656L68.71,18.656z"/>
		</g>
	</g>
	<g>
		<g>
			<path fill="#AEBFC5" d="M66.093,21.32c0.42,0,1.58-0.635,0.614-0.635C66.286,20.685,65.126,21.32,66.093,21.32L66.093,21.32z"/>
		</g>
	</g>
	<g>
		<g>
			<path fill="#AEBFC5" d="M72.218,17.915c0.574,0,1.531-0.871,0.551-0.871C72.195,17.044,71.238,17.915,72.218,17.915
				L72.218,17.915z"/>
		</g>
	</g>
	<g>
		<g>
			<path fill="#AEBFC5" d="M61.394,21.379c0.855,0,1.089-1.135,0.109-1.135C60.648,20.244,60.414,21.379,61.394,21.379
				L61.394,21.379z"/>
		</g>
	</g>
	<g>
		<g>
			<path fill="#AEBFC5" d="M59.84,24.101c0.57,0,1.532-0.865,0.552-0.865C59.822,23.236,58.859,24.101,59.84,24.101L59.84,24.101z"
				/>
		</g>
	</g>
	<g>
		<g>
			<path fill="#AEBFC5" d="M70.4,20.231c0.28,0,1.642-0.553,0.95-0.553C71.07,19.678,69.708,20.231,70.4,20.231L70.4,20.231z"/>
		</g>
	</g>
	<g>
		<g>
			<path fill="#AEBFC5" d="M74.786,19.047c0.56,0,1.536-0.85,0.556-0.85C74.782,18.197,73.806,19.047,74.786,19.047L74.786,19.047z"
				/>
		</g>
	</g>
	<g>
		<g>
			<path fill="#AEBFC5" d="M79.085,18.434c0.631,0,1.507-0.958,0.527-0.958C78.981,17.476,78.105,18.434,79.085,18.434
				L79.085,18.434z"/>
		</g>
	</g>
	<g>
		<g>
			<path fill="#AEBFC5" d="M67.665,25.329c0.819,0,1.119-1.037,0.135-1.037C66.981,24.292,66.681,25.329,67.665,25.329
				L67.665,25.329z"/>
		</g>
	</g>
	<g>
		<g>
			<path fill="#AEBFC5" d="M62.973,23.278c0.279,0,1.642-0.552,0.95-0.552C63.644,22.726,62.281,23.278,62.973,23.278L62.973,23.278
				z"/>
		</g>
	</g>
	<g>
		<g>
			<path fill="#AEBFC5" d="M82.526,18.312c0.84,0,1.101-1.094,0.12-1.094C81.806,17.218,81.544,18.312,82.526,18.312L82.526,18.312z
				"/>
		</g>
	</g>
	<g>
		<g>
			<path fill="#AEBFC5" d="M87.335,20.308c0.465,0,1.568-0.706,0.595-0.706C87.464,19.602,86.362,20.308,87.335,20.308
				L87.335,20.308z"/>
		</g>
	</g>
	<g>
		<g>
			<path fill="#AEBFC5" d="M74.687,20.65c0.54,0,1.544-0.819,0.564-0.819C74.711,19.831,73.707,20.65,74.687,20.65L74.687,20.65z"/>
		</g>
	</g>
	<g>
		<g>
			<path fill="#AEBFC5" d="M71.647,23.248c0.576,0,1.53-0.874,0.55-0.874C71.621,22.374,70.667,23.248,71.647,23.248L71.647,23.248z
				"/>
		</g>
	</g>
	<g>
		<g>
			<path fill="#AEBFC5" d="M78.974,23.134c0.551,0,1.54-0.836,0.56-0.836C78.983,22.298,77.994,23.134,78.974,23.134L78.974,23.134z
				"/>
		</g>
	</g>
	<g>
		<g>
			<path fill="#AEBFC5" d="M59.096,25.9c0.819,0,1.119-1.036,0.135-1.036C58.412,24.864,58.112,25.9,59.096,25.9L59.096,25.9z"/>
		</g>
	</g>
	<g>
		<g>
			<path fill="#AEBFC5" d="M55.545,28.539c0.522,0,1.55-0.792,0.572-0.792C55.595,27.747,54.567,28.539,55.545,28.539L55.545,28.539
				z"/>
		</g>
	</g>
	<g>
		<g>
			<path fill="#AEBFC5" d="M56.888,26.515c0.318,0,1.656-0.615,0.933-0.615C57.503,25.9,56.165,26.515,56.888,26.515L56.888,26.515z
				"/>
		</g>
	</g>
	<g>
		<g>
			<path fill="#AEBFC5" d="M78.513,20.337c0.628,0,1.508-0.954,0.528-0.954C78.413,19.382,77.533,20.337,78.513,20.337
				L78.513,20.337z"/>
		</g>
	</g>
	<g>
		<g>
			<path fill="#AEBFC5" d="M58.248,28.694c0.843,0,1.099-1.102,0.118-1.102C57.522,27.592,57.267,28.694,58.248,28.694
				L58.248,28.694z"/>
		</g>
	</g>
	<g>
		<g>
			<path fill="#AEBFC5" d="M63.715,21.042c0.431,0,1.577-0.652,0.609-0.652C63.893,20.391,62.747,21.042,63.715,21.042
				L63.715,21.042z"/>
		</g>
	</g>
	<g>
		<g>
			<path fill="#AEBFC5" d="M59.581,22.632c0.843,0,1.099-1.102,0.118-1.102C58.856,21.53,58.599,22.632,59.581,22.632L59.581,22.632
				z"/>
		</g>
	</g>
	<g>
		<g>
			<path fill="#AEBFC5" d="M63.524,26.649c0.582,0,1.528-0.883,0.547-0.883C63.489,25.766,62.543,26.649,63.524,26.649
				L63.524,26.649z"/>
		</g>
	</g>
	<g>
		<g>
			<path fill="#AEBFC5" d="M61.361,28.442c0.562,0,1.536-0.853,0.555-0.853C61.355,27.59,60.381,28.442,61.361,28.442L61.361,28.442
				z"/>
		</g>
	</g>
	<g>
		<g>
			<path fill="#AEBFC5" d="M68.327,22.412c0.478,0,1.564-0.725,0.589-0.725C68.438,21.687,67.352,22.412,68.327,22.412
				L68.327,22.412z"/>
		</g>
	</g>
	<g>
		<g>
			<path fill="#AEBFC5" d="M81.624,20.821c0.473,0,1.566-0.717,0.592-0.717C81.742,20.104,80.65,20.821,81.624,20.821L81.624,20.821
				z"/>
		</g>
	</g>
	<g>
		<g>
			<path fill="#AEBFC5" d="M76.649,18.006c0.826,0,1.114-1.054,0.13-1.054C75.954,16.952,75.666,18.006,76.649,18.006L76.649,18.006
				z"/>
		</g>
	</g>
	<g>
		<g>
			<path fill="#AEBFC5" d="M84.605,20.91c0.464,0,1.568-0.704,0.595-0.704C84.736,20.206,83.632,20.91,84.605,20.91L84.605,20.91z"
				/>
		</g>
	</g>
	<g>
		<g>
			<path fill="#AEBFC5" d="M72.105,27.369c0.486,0,1.562-0.737,0.586-0.737C72.206,26.632,71.13,27.369,72.105,27.369L72.105,27.369
				z"/>
		</g>
	</g>
	<g>
		<g>
			<path fill="#AEBFC5" d="M73.117,24.607c0.547,0,1.541-0.83,0.561-0.83C73.132,23.777,72.137,24.607,73.117,24.607L73.117,24.607z
				"/>
		</g>
	</g>
</g>
<path opacity="0.3" fill="#FFFFFF" d="M20.835,128.383L133.16,22.226c0,0,53.525,52.43-0.91,111.693
	C132.25,133.919,76.661,185.305,20.835,128.383z"/>
</svg>
