<?xml version="1.0" encoding="utf-8"?>
<!-- Generator: Adobe Illustrator 17.0.0, SVG Export Plug-In . SVG Version: 6.00 Build 0)  -->
<!DOCTYPE svg PUBLIC "-//W3C//DTD SVG 1.1//EN" "http://www.w3.org/Graphics/SVG/1.1/DTD/svg11.dtd">
<svg version="1.1" id="Layer_1" xmlns="http://www.w3.org/2000/svg" xmlns:xlink="http://www.w3.org/1999/xlink" x="0px" y="0px"
	 width="295.5px" height="337px" viewBox="0 11.5 295.5 337" enable-background="new 0 11.5 295.5 337" xml:space="preserve">
<path fill="#3BC1D7" d="M72.942,58.431c0,0,7.392-22.538,32.058-22.799l4.5,26.572l-11.087,13L72.942,58.431z"/>
<path fill="#3BC1D7" d="M93.441,58.165c0,0,6.101-44.46,63.997-35.794c0,0,31.934,4.633,41.915,40.65l-16.686,75.35L93.441,58.165z"
	/>
<path fill="#3BC1D7" d="M107.296,33.395c0,0,9.229-22.598,32.633-12.144v17.787L107.296,33.395z"/>
<path fill="#8ED4E4" d="M134.73,187.537c0,0-22.266-0.885-17.626-9.392c0,0-19.33-1.31-9.467-13.92c0,0-7.786-9.523,4.896-12.492
	c0,0-17.235-16.502-11.623-35.124c0,0-10.433-15.815,11.354-24.881c0,0,21.043-51.724,86.675-46.315c0,0,73.62,7.764,79.395,70.185
	c0,0,8.763,41.234-19.798,62.474C258.535,178.071,167.396,207.997,134.73,187.537z"/>
<path fill="#D2ECF2" d="M29.69,176.95c0,0-17.69-4.246-12.524-11.079c0,0-15.265-4.167-5.216-13.833c0,0-4.617-9.667,6.049-10.333
	c0,0-11-17.333-3.333-33c0,0-5.667-15.667,13.333-20.333c0,0,25.667-42.667,77.333-27.667c0,0,57.667,18.333,51.667,74.667
	c0,0,0.002,37.982-26.499,52.408C130.501,187.779,52.381,200.196,29.69,176.95z"/>
<path fill="#F1F1F2" d="M19.5,185.205l16.5,135l0.667,2.917c2.002,13.845,57.083,18.083,57.083,18.083s37.25,4.5,88,1.5
	c0,0,83.25-4,86.75-25.5l10.5-134.75C279,182.455,135,210.038,19.5,185.205z"/>
<path fill="#3BC1D7" d="M17.167,165.871c0,0-4.5,5.333,9.833,10.333c0,0,20.5,6,44.333,8.833c0,0,38.667,3.333,63.5,2.667
	c0,0,53.333,1.167,91.5-4c0,0,36.167-5.667,44.167-9.667c0,0,20.333-6.833,5.167-16l1.667-2.333c0,0,24.574,11.333,3.954,26
	c0,0-15.787,12.667-69.287,15.167c0,0-45.833,3-71.667,2.5c0,0-94.839,2.833-123.836-16.917c0,0-14.164-8.083-2.997-18.917
	L17.167,165.871z"/>
<g>
	<g>
		<defs>
			<rect id="SVGID_1_" x="-15.642" y="150.105" width="311.142" height="240.428"/>
		</defs>
		<clipPath id="SVGID_2_">
			<use xlink:href="#SVGID_1_"  overflow="visible"/>
		</clipPath>
		<g clip-path="url(#SVGID_2_)">
			<defs>
				<rect id="SVGID_3_" x="-15.642" y="150.105" width="311.142" height="240.428"/>
			</defs>
			<clipPath id="SVGID_4_">
				<use xlink:href="#SVGID_3_"  overflow="visible"/>
			</clipPath>
			<path clip-path="url(#SVGID_4_)" fill="#36C2DF" d="M151.931,209.646c-21.802-0.157-39.774,17.609-40.109,38.748
				c-0.348,21.971,16.873,40.795,39.77,40.779c22.949-0.016,39.873-18.667,39.702-39.765
				C191.588,228.503,174.478,209.809,151.931,209.646 M151.473,284.021c-18.674,0.179-35.15-15.629-34.535-35.667
				c0.558-18.175,15.266-33.753,34.945-33.621c19.529,0.13,34.965,16.219,34.363,35.881
				C185.68,269.077,170.144,284.259,151.473,284.021"/>
			<path clip-path="url(#SVGID_4_)" fill="#36C2DF" d="M142.22,255.864c0.295-1.153-0.344-2.05-1.574-2.981
				c-3.271-2.477-4.219-7.124-2.438-10.769c1.835-3.755,6.098-5.78,10.122-4.808c4.035,0.975,6.934,4.695,6.89,8.841
				c-0.043,4.035-2.961,7.804-7.022,8.481c-2.286,0.381-4.036,0.631-3.428,3.601c0.141,0.689-0.525,1.211-1.335,1.171
				c-0.722-0.036-1.137-0.484-1.201-1.17C142.172,257.564,142.22,256.887,142.22,255.864"/>
			<path clip-path="url(#SVGID_4_)" fill="#6E7172" d="M151.645,257.563c3.758,0.029,3.812,0.031,3.731,3.744
				c-0.033,1.516,0.293,2.814,1.117,4.093c1.239,1.924,2.34,3.938,3.483,5.922c0.865,1.501,0.711,2.146-0.901,2.863
				c-3.047,1.354-6.291,1.434-9.542,1.194c-1.887-0.139-3.786-0.326-5.526-1.216c-1.275-0.651-1.717-1.464-0.84-2.794
				c0.83-1.257,1.471-2.641,2.324-3.881c1.694-2.465,2.776-5.065,2.297-8.133c-0.179-1.148,0.404-1.649,1.511-1.677
				C150.082,257.658,150.863,257.602,151.645,257.563"/>
			<path clip-path="url(#SVGID_4_)" fill="#6E7172" d="M162.224,253.497c-0.845,0.217-0.587,0.883-0.593,1.39
				c-0.024,2.182-0.017,4.365-0.007,6.549c0.004,0.854-0.14,1.646-1.173,1.695c-1.12,0.053-1.384-0.745-1.387-1.681
				c-0.005-2.071-0.06-4.144,0.022-6.212c0.039-1-0.304-1.445-1.267-1.532c-0.383-0.035-0.765-0.158-1.131-0.287
				c-2.092-0.735-2.069-0.774-1.118-2.783c1.654-3.497,1.526-6.953-0.594-10.211c-0.629-0.966-0.468-1.347,0.463-1.857
				c3.242-1.774,7.288-1.209,9.882,1.454c2.607,2.677,3.186,6.961,1.001,10.011c-1.073,1.497-1.404,2.94-1.277,4.645
				c0.038,0.5,0.027,1.009-0.018,1.509c-0.062,0.68-0.398,1.163-1.132,1.24c-0.84,0.088-1.22-0.426-1.404-1.141
				C162.256,255.378,162.662,254.397,162.224,253.497"/>
			<path clip-path="url(#SVGID_4_)" fill="#35C2DF" d="M163.343,235.098c0.194,1.197-0.087,1.696-1.706,1.278
				c-2.508-0.648-5.038-0.358-7.232,1.18c-0.898,0.63-1.483,0.483-2.365-0.056c-0.97-0.592-0.874-1.244-0.688-2.103
				c0.547-2.534-0.169-4.802-1.765-6.734c-0.794-0.962-0.596-1.304,0.384-1.808C155.973,223.77,163.297,228.169,163.343,235.098"/>
			<path clip-path="url(#SVGID_4_)" fill="#6E7172" d="M149.946,233.975c0.004,2.139,0.002,2.147-2.036,1.79
				c-3.395-0.593-6.324,0.431-8.768,2.736c-0.927,0.874-1.369,0.74-2.05-0.172c-1.795-2.403-1.874-5.979-0.114-8.483
				c1.774-2.522,5.029-3.615,8.03-2.695C147.996,228.067,149.941,230.754,149.946,233.975"/>
			<path clip-path="url(#SVGID_4_)" fill="#35C2DF" d="M169.158,246.199c-0.085-3.513-1.332-6.328-4.127-8.329
				c-0.563-0.403-0.365-0.848-0.335-1.331c0.108-1.737,0.13-3.464-0.583-5.112c-0.268-0.621-0.378-1.114,0.596-1.289
				c3.803-0.682,8.021,2.12,9.201,6.184C175.074,240.329,173.05,244.66,169.158,246.199"/>
			<path clip-path="url(#SVGID_4_)" fill="#35C2DF" d="M134.054,233.672c0.218,2.446,0.829,4.732,2.745,6.449
				c0.533,0.477,0.316,0.979,0.082,1.52c-0.716,1.655-1.232,3.368-0.961,5.195c0.132,0.886-0.405,0.762-0.9,0.721
				c-2.875-0.236-5.771-3.314-5.992-6.351C128.756,237.464,130.711,234.5,134.054,233.672"/>
			<rect x="82.225" y="304.16" clip-path="url(#SVGID_4_)" fill="#6D6E70" width="3.561" height="15.154"/>
			<path clip-path="url(#SVGID_4_)" fill="#6D6E70" d="M103.169,309.894h-3.925c0,0-0.785-2.972-4.206-2.579
				c0,0-2.341,0.238-3.14,2.579c0,0-1.262,3.477,1.346,5.285c0,0,1.094,0.967,2.566,0.925c0,0,2.818,0.168,3.617-2.523l3.743-0.042
				c0,0-0.799,3.911-3.911,5.173c0,0-6.098,2.608-10.01-2.565c0,0-2.86-4.74,0.169-8.868c0,0,2.142-3.203,6.181-3.161
				C95.597,304.118,100.898,303.6,103.169,309.894"/>
			<polygon clip-path="url(#SVGID_4_)" fill="#6D6E70" points="113.431,307.343 113.431,304.108 105.103,304.108 105.103,319.175 
				113.431,319.175 113.431,315.812 108.762,315.812 108.762,313.514 113.431,313.514 113.431,309.811 108.762,309.811 
				108.762,307.343 			"/>
			<rect x="115.618" y="310.09" clip-path="url(#SVGID_4_)" fill="#6D6E70" width="8.622" height="3.154"/>
			<path clip-path="url(#SVGID_4_)" fill="#6D6E70" d="M141.777,309.947h-3.925c0,0-0.785-2.972-4.206-2.579
				c0,0-2.341,0.238-3.14,2.579c0,0-1.262,3.477,1.346,5.285c0,0,1.094,0.967,2.566,0.925c0,0,2.818,0.168,3.617-2.523l3.743-0.042
				c0,0-0.799,3.911-3.911,5.173c0,0-6.098,2.608-10.01-2.565c0,0-2.86-4.74,0.169-8.868c0,0,2.142-3.203,6.181-3.161
				C134.205,304.171,139.506,303.652,141.777,309.947"/>
			<polygon clip-path="url(#SVGID_4_)" fill="#6D6E70" points="166.31,319.147 172.366,304.16 175.225,304.16 181.169,319.147 
				172.702,319.147 172.646,315.95 176.067,315.894 173.992,310.511 170.291,319.147 			"/>
			<polygon clip-path="url(#SVGID_4_)" fill="#6D6E70" points="182.403,319.147 182.403,304.16 187.394,304.16 190.31,310.286 
				193.338,304.16 198.216,304.16 198.216,319.147 194.571,319.147 194.571,308.324 191.711,314.268 188.964,314.324 
				185.936,308.156 185.88,319.147 			"/>
			<rect x="201.973" y="317.24" clip-path="url(#SVGID_4_)" fill="#33C2DE" width="18.898" height="1.907"/>
			<rect x="201.973" y="304.16" clip-path="url(#SVGID_4_)" fill="#33C2DE" width="18.898" height="1.907"/>
			<polygon clip-path="url(#SVGID_4_)" fill="#6D6E70" points="206.796,315.586 209.959,307.758 211.453,307.758 214.558,315.586 
				210.135,315.586 210.106,313.916 211.892,313.887 210.809,311.075 208.875,315.586 			"/>
			<polygon clip-path="url(#SVGID_4_)" fill="#6D6E70" points="201.973,307.758 203.936,307.758 203.936,313.875 206.375,313.875 
				206.375,315.474 201.973,315.474 			"/>
			<path clip-path="url(#SVGID_4_)" fill="#6D7071" d="M151.711,314.148c0,0,3.632-0.924,3.518-4.561c0,0,0.198-4.185-3.745-5.427
				h-7.268h-0.337v15.127h3.802v-4.734l3.461,4.734h4.54L151.711,314.148z M149.98,311.724h-2.327v-4.388h2.128
				c2.185,0.606,1.93,2.454,1.93,2.454C151.54,311.291,149.98,311.724,149.98,311.724"/>
			<polygon clip-path="url(#SVGID_4_)" fill="#6D6E70" points="165.244,307.343 165.244,304.108 156.917,304.108 156.917,319.175 
				165.244,319.175 165.244,315.812 160.576,315.812 160.576,313.514 165.244,313.514 165.244,309.811 160.576,309.811 
				160.576,307.343 			"/>
			<path clip-path="url(#SVGID_4_)" fill="#6D6E70" d="M219.903,311.394c0,0,0.799-0.589,0.715-1.654c0,0-0.154-1.776-1.976-1.982
				h-3.154v0.117v7.71h3.617c0,0,1.907-0.336,1.879-2.383C220.983,313.202,220.997,311.927,219.903,311.394 M217.226,309.53h1.354
				c0.448,0.799-0.046,1.36-0.046,1.36h-1.309V309.53z M218.691,313.875h-1.465v-1.36h1.516
				C219.244,313.315,218.691,313.875,218.691,313.875"/>
		</g>
	</g>
</g>
<g>
	<g>
		<path fill="#4EC6E5" d="M66.801,68.671c0.482,0,2.486-0.932,1.397-0.932C67.716,67.739,65.713,68.671,66.801,68.671L66.801,68.671
			z"/>
	</g>
</g>
<g>
	<g>
		<path fill="#4EC6E5" d="M80.803,70.676c0.49,0,2.488-0.943,1.395-0.943C81.708,69.733,79.709,70.676,80.803,70.676L80.803,70.676z
			"/>
	</g>
</g>
<g>
	<g>
		<path fill="#4EC6E5" d="M59.293,71.224c0.445,0,2.473-0.872,1.413-0.872C60.261,70.352,58.234,71.224,59.293,71.224L59.293,71.224
			z"/>
	</g>
</g>
<g>
	<g>
		<path fill="#4EC6E5" d="M47.771,78.423c0.946,0,2.261-1.437,0.791-1.437C47.616,76.986,46.301,78.423,47.771,78.423L47.771,78.423
			z"/>
	</g>
</g>
<g>
	<g>
		<path fill="#4EC6E5" d="M81.392,78.956c1.209,0,1.695-1.503,0.216-1.503C80.399,77.453,79.913,78.956,81.392,78.956L81.392,78.956
			z"/>
	</g>
</g>
<g>
	<g>
		<path fill="#4EC6E5" d="M75.207,72.684c0.634,0,2.369-0.958,0.919-0.958C75.492,71.726,73.757,72.684,75.207,72.684L75.207,72.684
			z"/>
	</g>
</g>
<g>
	<g>
		<path fill="#4EC6E5" d="M98.088,68.36c0.863,0,2.295-1.311,0.825-1.311C98.049,67.049,96.617,68.36,98.088,68.36L98.088,68.36z"/>
	</g>
</g>
<g>
	<g>
		<path fill="#4EC6E5" d="M98.076,78.315c0.804,0,2.318-1.22,0.849-1.22C98.121,77.095,96.607,78.315,98.076,78.315L98.076,78.315z"
			/>
	</g>
</g>
<g>
	<g>
		<path fill="#4EC6E5" d="M88.561,79.759c0.731,0,2.342-1.109,0.878-1.109C88.708,78.65,87.097,79.759,88.561,79.759L88.561,79.759z
			"/>
	</g>
</g>
<g>
	<g>
		<path fill="#4EC6E5" d="M88.905,70.504c1.245,0,1.665-1.599,0.191-1.599C87.85,68.905,87.43,70.504,88.905,70.504L88.905,70.504z"
			/>
	</g>
</g>
<g>
	<g>
		<path fill="#4EC6E5" d="M58.218,80.277c0.482,0,2.486-0.932,1.398-0.932C59.133,79.345,57.13,80.277,58.218,80.277L58.218,80.277z
			"/>
	</g>
</g>
<g>
	<g>
		<path fill="#4EC6E5" d="M40.918,81.348c0.848,0,2.301-1.287,0.831-1.287C40.9,80.061,39.448,81.348,40.918,81.348L40.918,81.348z"
			/>
	</g>
</g>
<g>
	<g>
		<path fill="#4EC6E5" d="M56.034,75.188c1.258,0,1.654-1.634,0.181-1.634C54.958,73.555,54.561,75.188,56.034,75.188L56.034,75.188
			z"/>
	</g>
</g>
<g>
	<g>
		<path fill="#4EC6E5" d="M51.167,82.531c1.264,0,1.648-1.653,0.176-1.653C50.079,80.878,49.695,82.531,51.167,82.531L51.167,82.531
			z"/>
	</g>
</g>
<g>
	<g>
		<path fill="#4EC6E5" d="M73.785,67.111c0.411,0,2.459-0.813,1.429-0.813C74.804,66.298,72.755,67.111,73.785,67.111L73.785,67.111
			z"/>
	</g>
</g>
<g>
	<g>
		<path fill="#4EC6E5" d="M74.408,81.516c1.254,0,1.658-1.622,0.185-1.622C73.339,79.894,72.934,81.516,74.408,81.516L74.408,81.516
			z"/>
	</g>
</g>
<g>
	<g>
		<path fill="#4EC6E5" d="M93.036,65.012c0.899,0,2.281-1.364,0.81-1.364C92.948,63.648,91.565,65.012,93.036,65.012L93.036,65.012z
			"/>
	</g>
</g>
<g>
	<g>
		<path fill="#4EC6E5" d="M110.792,89.135c0.438,0,2.471-0.861,1.417-0.861C111.77,88.274,109.738,89.135,110.792,89.135
			L110.792,89.135z"/>
	</g>
</g>
<g>
	<g>
		<path fill="#4EC6E5" d="M91.098,89.899c0.915,0,2.274-1.389,0.804-1.389C90.987,88.51,89.627,89.899,91.098,89.899L91.098,89.899z
			"/>
	</g>
</g>
<g>
	<g>
		<path fill="#4EC6E5" d="M75.91,86.523c1.259,0,1.653-1.636,0.181-1.636C74.832,84.887,74.437,86.523,75.91,86.523L75.91,86.523z"
			/>
	</g>
</g>
<g>
	<g>
		<path fill="#4EC6E5" d="M62.213,89.153c0.46,0,2.478-0.896,1.407-0.896C63.16,88.257,61.142,89.153,62.213,89.153L62.213,89.153z"
			/>
	</g>
</g>
<g>
	<g>
		<path fill="#4EC6E5" d="M46.876,91.057c0.445,0,2.473-0.871,1.414-0.871C47.845,90.186,45.817,91.057,46.876,91.057L46.876,91.057
			z"/>
	</g>
</g>
<g>
	<g>
		<path fill="#4EC6E5" d="M109.412,83.533c1.266,0,1.647-1.656,0.175-1.656C108.322,81.877,107.94,83.533,109.412,83.533
			L109.412,83.533z"/>
	</g>
</g>
<g>
	<path fill="#4EC6E5" d="M160,78.205"/>
</g>
<g>
	<g>
		<path fill="#4EC6E5" d="M104.585,72.348c0.848,0,2.301-1.287,0.831-1.287C104.567,71.061,103.114,72.348,104.585,72.348
			L104.585,72.348z"/>
	</g>
</g>
<g>
	<g>
		<path fill="#4EC6E5" d="M122.54,82.183c0.633,0,2.37-0.956,0.919-0.956C122.827,81.227,121.09,82.183,122.54,82.183L122.54,82.183
			z"/>
	</g>
</g>
<g>
	<g>
		<path fill="#4EC6E5" d="M120.286,91.115c0.414,0,2.461-0.82,1.427-0.82C121.299,90.295,119.253,91.115,120.286,91.115
			L120.286,91.115z"/>
	</g>
</g>
<g>
	<g>
		<path fill="#4EC6E5" d="M129.933,92.724c0.82,0,1.119-1.038,0.135-1.038C129.248,91.686,128.949,92.724,129.933,92.724
			L129.933,92.724z"/>
	</g>
</g>
<g>
	<g>
		<path fill="#4EC6E5" d="M116.083,74.343c0.841,0,2.304-1.277,0.834-1.277C116.076,73.066,114.613,74.343,116.083,74.343
			L116.083,74.343z"/>
	</g>
</g>
<g>
	<g>
		<path fill="#4EC6E5" d="M33.076,96.817c0.807,0,2.317-1.224,0.848-1.224C33.117,95.592,31.607,96.817,33.076,96.817L33.076,96.817
			z"/>
	</g>
</g>
<g>
	<g>
		<path fill="#4EC6E5" d="M19.066,96.279c0.757,0,2.334-1.149,0.868-1.149C19.177,95.13,17.6,96.279,19.066,96.279L19.066,96.279z"
			/>
	</g>
</g>
<g>
	<g>
		<path fill="#4EC6E5" d="M19.417,103.551c1.279,0,1.636-1.693,0.165-1.693C18.304,101.858,17.947,103.551,19.417,103.551
			L19.417,103.551z"/>
	</g>
</g>
<g>
	<g>
		<path fill="#4EC6E5" d="M54.396,98.974c1.223,0,1.684-1.538,0.207-1.538C53.381,97.436,52.919,98.974,54.396,98.974L54.396,98.974
			z"/>
	</g>
</g>
<g>
	<g>
		<path fill="#4EC6E5" d="M86.598,114.9c0.916,0,2.274-1.391,0.803-1.391C86.485,113.509,85.128,114.9,86.598,114.9L86.598,114.9z"
			/>
	</g>
</g>
<g>
	<g>
		<path fill="#4EC6E5" d="M71.543,104.694c0.646,0,2.366-0.978,0.914-0.978C71.81,103.716,70.091,104.694,71.543,104.694
			L71.543,104.694z"/>
	</g>
</g>
<g>
	<g>
		<path fill="#4EC6E5" d="M85.797,102.156c0.464,0,2.48-0.903,1.405-0.903C86.739,101.253,84.723,102.156,85.797,102.156
			L85.797,102.156z"/>
	</g>
</g>
<g>
	<g>
		<path fill="#4EC6E5" d="M108.541,68.685c0.635,0,2.369-0.96,0.918-0.96C108.824,67.725,107.09,68.685,108.541,68.685
			L108.541,68.685z"/>
	</g>
</g>
<g>
	<g>
		<path fill="#4EC6E5" d="M109.05,104.717c0.677,0,2.358-1.025,0.901-1.025C109.274,103.692,107.593,104.717,109.05,104.717
			L109.05,104.717z"/>
	</g>
</g>
<g>
	<g>
		<path fill="#4EC6E5" d="M101.416,95.548c1.276,0,1.638-1.686,0.168-1.686C100.308,93.862,99.946,95.548,101.416,95.548
			L101.416,95.548z"/>
	</g>
</g>
<g>
	<g>
		<path fill="#4EC6E5" d="M136.208,82.577c0.491,0,1.56-0.744,0.584-0.744C136.302,81.832,135.232,82.577,136.208,82.577
			L136.208,82.577z"/>
	</g>
</g>
<g>
	<g>
		<path fill="#4EC6E5" d="M131.734,83.174c0.618,0,1.513-0.939,0.532-0.939C131.648,82.235,130.753,83.174,131.734,83.174
			L131.734,83.174z"/>
	</g>
</g>
<path fill="#D2ECF2" d="M72.942,185.172c0,0,2.308,7.954,8.558,6.619c0,0,8-1.586,10.5,3.414c0,0,6.25,13.365,14.25,4.308
	c0,0,6.75-5.308,12.5-3.558c0,0,15.858,1.776,21.179-15.237L72.942,185.172z"/>
<path fill="#D2ECF2" d="M135.267,189.324c0,0,10.017-8.481,14.981-23.85C150.248,165.474,128.772,179.255,135.267,189.324z"/>
<g>
	<ellipse fill="#D2ECF2" cx="99.062" cy="217.205" rx="4.188" ry="4.25"/>
	<path fill="#D2ECF2" d="M94.875,217.205c0,0,0.25-2.875,4.187-9.375c0,0,4.688,6,4.188,10.625L94.875,217.205z"/>
</g>
<g>
	<ellipse fill="#D2ECF2" cx="99.044" cy="253.812" rx="4.188" ry="4.25"/>
	<path fill="#D2ECF2" d="M94.856,253.812c0,0,0.25-2.875,4.188-9.375c0,0,4.688,6,4.188,10.625L94.856,253.812z"/>
</g>
<g>
	<ellipse fill="#8ED4E4" cx="237.409" cy="208.705" rx="4.188" ry="4.25"/>
	<path fill="#8ED4E4" d="M233.222,208.705c0,0,0.25-2.875,4.188-9.375c0,0,4.688,6,4.188,10.625L233.222,208.705z"/>
</g>
<g>
	<ellipse fill="#8ED4E4" cx="229.004" cy="214.737" rx="2.606" ry="2.645"/>
	<path fill="#8ED4E4" d="M226.398,214.737c0,0,0.156-1.789,2.606-5.834c0,0,2.917,3.734,2.606,6.612L226.398,214.737z"/>
</g>
<path fill="#8ED4E4" d="M259.408,177.399c0,0,7.258,10.028,15.258,0c0,0,1.202-5.694,4.934-5.694c0,0,6.191-2.242,0.962-9.271
	c0,0,0.797-4.162-4.55-8.946L259.408,177.399z"/>
<path fill="#8ED4E4" d="M207.54,185.696c0,0,0.96,7.228,7.96,5.994c0,0,4-5.996,11.5-2.365c0,0,11.646,15.183,10.323-7.468
	L207.54,185.696z"/>
<path fill="#8ED4E4" d="M217.278,49.444c0,0,55.315-1.691,59.768,57.534L217.278,49.444z"/>
<path fill="#8ED4E4" d="M207.54,46.912c0,0,23.23-10.6,40.845,10.596l-10.957,14.196L207.54,46.912z"/>
<path fill="#8ED4E4" d="M279,140.07c0,0,7.535,8.081,0.601,16.858l-8.566,7.378l-2.702-14.201L279,140.07z"/>
<path opacity="0.08" fill="#36C2DF" d="M279,183.166l-149,160.57c0,0,129.875,2.844,138.333-25.754L279,183.166z"/>
<path opacity="0.3" fill="#FFFFFF" d="M135.5,70.141c0,0,27.833-24,68-20.333C203.5,49.807,160.333,38.807,135.5,70.141z"/>
<path opacity="0.3" fill="#FFFFFF" d="M38.746,79.811c0,0,25.789-22.721,62.175-18.348C100.921,61.463,61.97,49.915,38.746,79.811z"
	/>
<path fill="#3BC1D7" d="M93.441,37.63c0,0,3.225-12.191,18.059-10.892l5,18.278L93.441,37.63z"/>
<g opacity="0.5">
	<image overflow="visible" width="75" height="75" xlink:href="AB0752FEF8B3B2C3.png"  transform="matrix(1 0 0 1 108.25 36.2047)">
	</image>
</g>
<g opacity="0.5">
	<image overflow="visible" width="75" height="75" xlink:href="AB0752FEF8B3B2C6.png"  transform="matrix(1 0 0 1 126.25 36.2047)">
	</image>
</g>
<g>
	<image overflow="visible" width="76" height="75" xlink:href="AB0752FEF8B3B2C5.png"  transform="matrix(1 0 0 1 133.25 50.2047)">
	</image>
</g>
<g>
	<g>
		<path fill="#4EC6E5" d="M194.399,64.981c0.628,0,3.31-1.219,1.87-1.219C195.64,63.762,192.959,64.981,194.399,64.981
			L194.399,64.981z"/>
	</g>
</g>
<g>
	<g>
		<path fill="#4EC6E5" d="M165.572,72.303c0.788,0,2.323-1.196,0.855-1.196C165.639,71.107,164.105,72.303,165.572,72.303
			L165.572,72.303z"/>
	</g>
</g>
<g>
	<g>
		<path fill="#4EC6E5" d="M172.625,67.47c0.44,0,2.471-0.864,1.416-0.864C173.601,66.606,171.57,67.47,172.625,67.47L172.625,67.47z
			"/>
	</g>
</g>
<g>
	<g>
		<path fill="#4EC6E5" d="M169.89,61.115c1.203,0,1.7-1.487,0.221-1.487C168.907,59.628,168.41,61.115,169.89,61.115L169.89,61.115z
			"/>
	</g>
</g>
<g>
	<g>
		<path fill="#4EC6E5" d="M187.907,73.515c1.253,0,1.659-1.62,0.185-1.62C186.84,71.895,186.434,73.515,187.907,73.515
			L187.907,73.515z"/>
	</g>
</g>
<g>
	<g>
		<path fill="#4EC6E5" d="M187.571,63.296c0.78,0,2.326-1.183,0.859-1.183C187.65,62.113,186.103,63.296,187.571,63.296
			L187.571,63.296z"/>
	</g>
</g>
<g>
	<g>
		<path fill="#4EC6E5" d="M212.607,54.766c0.959,0,2.255-1.457,0.785-1.457C212.433,53.31,211.138,54.766,212.607,54.766
			L212.607,54.766z"/>
	</g>
</g>
<g>
	<g>
		<path fill="#4EC6E5" d="M212.892,64.456c1.209,0,1.695-1.502,0.217-1.502C211.9,62.954,211.413,64.456,212.892,64.456
			L212.892,64.456z"/>
	</g>
</g>
<g>
	<g>
		<path fill="#4EC6E5" d="M230.923,55.035c0.874,0,2.291-1.327,0.82-1.327C230.869,53.708,229.452,55.035,230.923,55.035
			L230.923,55.035z"/>
	</g>
</g>
<g>
	<g>
		<path fill="#4EC6E5" d="M226.888,50.237c0.702,0,2.351-1.065,0.89-1.065C227.076,49.172,225.428,50.237,226.888,50.237
			L226.888,50.237z"/>
	</g>
</g>
<g>
	<g>
		<path fill="#4EC6E5" d="M232.24,69.973c0.793,0,2.321-1.204,0.853-1.204C232.3,68.769,230.772,69.973,232.24,69.973L232.24,69.973
			z"/>
	</g>
</g>
<g>
	<g>
		<path fill="#4EC6E5" d="M166.907,83.975c0.795,0,2.321-1.206,0.852-1.206C166.965,82.768,165.439,83.975,166.907,83.975
			L166.907,83.975z"/>
	</g>
</g>
<g>
	<g>
		<path fill="#4EC6E5" d="M154.553,81.896c0.692,0,2.354-1.049,0.895-1.049C154.755,80.847,153.094,81.896,154.553,81.896
			L154.553,81.896z"/>
	</g>
</g>
<g>
	<g>
		<path fill="#4EC6E5" d="M154.582,69.005c0.835,0,2.306-1.267,0.836-1.267C154.584,67.738,153.112,69.005,154.582,69.005
			L154.582,69.005z"/>
	</g>
</g>
<g>
	<g>
		<path fill="#4EC6E5" d="M140.584,76.013c0.846,0,2.302-1.283,0.832-1.283C140.57,74.73,139.114,76.013,140.584,76.013
			L140.584,76.013z"/>
	</g>
</g>
<g>
	<g>
		<path fill="#4EC6E5" d="M150.27,89.753c0.941,0,2.263-1.43,0.793-1.43C150.122,88.323,148.8,89.753,150.27,89.753L150.27,89.753z"
			/>
	</g>
</g>
<g>
	<g>
		<path fill="#4EC6E5" d="M192.629,79.149c0.455,0,2.477-0.889,1.409-0.889C193.582,78.26,191.561,79.149,192.629,79.149
			L192.629,79.149z"/>
	</g>
</g>
<g>
	<g>
		<path fill="#4EC6E5" d="M179.207,78.517c0.634,0,2.369-0.958,0.919-0.958C179.492,77.559,177.757,78.517,179.207,78.517
			L179.207,78.517z"/>
	</g>
</g>
<g>
	<g>
		<path fill="#4EC6E5" d="M181.219,57.228c0.69,0,2.354-1.046,0.895-1.046C181.425,56.182,179.76,57.228,181.219,57.228
			L181.219,57.228z"/>
	</g>
</g>
<g>
	<g>
		<path fill="#4EC6E5" d="M202.93,56.727c0.908,0,2.277-1.379,0.806-1.379C202.828,55.349,201.459,56.727,202.93,56.727
			L202.93,56.727z"/>
	</g>
</g>
<g>
	<g>
		<path fill="#4EC6E5" d="M187.246,86.327c0.82,0,2.312-1.244,0.842-1.244C187.268,85.083,185.776,86.327,187.246,86.327
			L187.246,86.327z"/>
	</g>
</g>
<g>
	<g>
		<path fill="#4EC6E5" d="M216.272,75.093c0.95,0,2.259-1.443,0.789-1.443C216.111,73.65,214.802,75.093,216.272,75.093
			L216.272,75.093z"/>
	</g>
</g>
<g>
	<g>
		<path fill="#4EC6E5" d="M243.215,60.88c0.671,0,2.359-1.017,0.903-1.017C243.447,59.863,241.759,60.88,243.215,60.88
			L243.215,60.88z"/>
	</g>
</g>
<g>
	<g>
		<path fill="#4EC6E5" d="M242.956,77.461c0.43,0,2.467-0.846,1.42-0.846C243.947,76.615,241.91,77.461,242.956,77.461
			L242.956,77.461z"/>
	</g>
</g>
<g>
	<g>
		<path fill="#4EC6E5" d="M237.26,89.713c0.889,0,2.285-1.349,0.814-1.349C237.185,88.364,235.789,89.713,237.26,89.713
			L237.26,89.713z"/>
	</g>
</g>
<g>
	<g>
		<path fill="#4EC6E5" d="M216.562,89.802c1.219,0,1.687-1.528,0.21-1.528C215.553,88.274,215.084,89.802,216.562,89.802
			L216.562,89.802z"/>
	</g>
</g>
<g>
	<g>
		<path fill="#4EC6E5" d="M210.556,80.908c0.708,0,2.349-1.074,0.888-1.074C210.736,79.835,209.095,80.908,210.556,80.908
			L210.556,80.908z"/>
	</g>
</g>
<g>
	<g>
		<path fill="#4EC6E5" d="M200.619,95.447c0.414,0,2.461-0.819,1.428-0.819C201.633,94.629,199.587,95.447,200.619,95.447
			L200.619,95.447z"/>
	</g>
</g>
<g>
	<g>
		<path fill="#4EC6E5" d="M202.631,70.492c0.468,0,2.481-0.908,1.404-0.908C203.568,69.584,201.554,70.492,202.631,70.492
			L202.631,70.492z"/>
	</g>
</g>
<g>
	<g>
		<path fill="#4EC6E5" d="M225.602,62.414c0.935,0,2.266-1.42,0.795-1.42C225.463,60.995,224.132,62.414,225.602,62.414
			L225.602,62.414z"/>
	</g>
</g>
<g>
	<g>
		<path fill="#4EC6E5" d="M225.273,82.095c0.953,0,2.258-1.448,0.788-1.448C225.107,80.647,223.803,82.095,225.273,82.095
			L225.273,82.095z"/>
	</g>
</g>
<g>
	<g>
		<path fill="#4EC6E5" d="M250.895,70.927c0.733,0,2.341-1.112,0.878-1.112C251.039,69.815,249.431,70.927,250.895,70.927
			L250.895,70.927z"/>
	</g>
</g>
<g>
	<g>
		<path fill="#4EC6E5" d="M250.873,80.847c0.629,0,2.37-0.951,0.921-0.951C251.164,79.896,249.423,80.847,250.873,80.847
			L250.873,80.847z"/>
	</g>
</g>
<g>
	<g>
		<path fill="#4EC6E5" d="M167.247,104.206c1.271,0,1.643-1.67,0.172-1.67C166.149,102.536,165.776,104.206,167.247,104.206
			L167.247,104.206z"/>
	</g>
</g>
<g>
	<g>
		<path fill="#4EC6E5" d="M182.292,101.802c0.439,0,2.471-0.861,1.416-0.861C183.27,100.941,181.238,101.802,182.292,101.802
			L182.292,101.802z"/>
	</g>
</g>
<g>
	<g>
		<path fill="#4EC6E5" d="M215.966,49.163c0.473,0,2.483-0.916,1.402-0.916C216.895,48.247,214.885,49.163,215.966,49.163
			L215.966,49.163z"/>
	</g>
</g>
<g>
	<g>
		<path fill="#4EC6E5" d="M259.292,91.135c0.439,0,2.471-0.861,1.416-0.861C260.269,90.274,258.237,91.135,259.292,91.135
			L259.292,91.135z"/>
	</g>
</g>
<g>
	<g>
		<path fill="#4EC6E5" d="M259.298,79.158c0.466,0,2.481-0.906,1.404-0.906C260.236,78.252,258.222,79.158,259.298,79.158
			L259.298,79.158z"/>
	</g>
</g>
<g>
	<g>
		<path fill="#4EC6E5" d="M221.582,99.211c1.274,0,1.64-1.678,0.17-1.678C220.478,97.532,220.111,99.211,221.582,99.211
			L221.582,99.211z"/>
	</g>
</g>
<g>
	<g>
		<path fill="#4EC6E5" d="M164.058,100.357c0.862,0,3.155-1.305,1.218-1.305C164.413,99.052,162.121,100.357,164.058,100.357
			L164.058,100.357z"/>
	</g>
</g>
<g>
	<g>
		<path fill="#4EC6E5" d="M174.798,95.631c1.221,0,3.032-1.853,1.071-1.853C174.648,93.778,172.837,95.631,174.798,95.631
			L174.798,95.631z"/>
	</g>
</g>
<g>
	<g>
		<path fill="#4EC6E5" d="M173.53,81.735c1.634,0,2.242-2.06,0.274-2.06C172.17,79.674,171.561,81.735,173.53,81.735L173.53,81.735z
			"/>
	</g>
</g>
<g>
	<g>
		<path fill="#4EC6E5" d="M179.79,67.267c1.18,0,3.049-1.792,1.088-1.792C179.697,65.476,177.828,67.267,179.79,67.267
			L179.79,67.267z"/>
	</g>
</g>
<g>
	<g>
		<path fill="#4EC6E5" d="M205.055,83.944c0.583,0,3.293-1.144,1.89-1.144C206.362,82.799,203.651,83.944,205.055,83.944
			L205.055,83.944z"/>
	</g>
</g>
<g>
	<g>
		<path fill="#4EC6E5" d="M196.718,89.595c0.565,0,3.286-1.114,1.898-1.114C198.051,88.481,195.329,89.595,196.718,89.595
			L196.718,89.595z"/>
	</g>
</g>
<g>
	<g>
		<path fill="#4EC6E5" d="M224.732,71.316c0.631,0,3.31-1.223,1.869-1.223C225.97,70.093,223.291,71.316,224.732,71.316
			L224.732,71.316z"/>
	</g>
</g>
<g>
	<g>
		<path fill="#4EC6E5" d="M219.065,60.647c0.628,0,3.309-1.218,1.87-1.218C220.307,59.429,217.626,60.647,219.065,60.647
			L219.065,60.647z"/>
	</g>
</g>
<g>
	<g>
		<path fill="#4EC6E5" d="M236.749,63.784c0.983,0,3.12-1.491,1.168-1.491C236.935,62.292,234.797,63.784,236.749,63.784
			L236.749,63.784z"/>
	</g>
</g>
<g>
	<g>
		<path fill="#4EC6E5" d="M230.756,80.807c1.013,0,3.11-1.537,1.156-1.537C230.898,79.269,228.801,80.807,230.756,80.807
			L230.756,80.807z"/>
	</g>
</g>
<g>
	<g>
		<path fill="#4EC6E5" d="M235.081,53.445c0.975,0,3.122-1.48,1.171-1.48C235.277,51.965,233.13,53.445,235.081,53.445
			L235.081,53.445z"/>
	</g>
</g>
<g>
	<g>
		<path fill="#4EC6E5" d="M243.876,92.782c1.668,0,2.213-2.154,0.249-2.154C242.456,90.628,241.911,92.782,243.876,92.782
			L243.876,92.782z"/>
	</g>
</g>
<g>
	<g>
		<path fill="#4EC6E5" d="M242.089,83.806c1.012,0,3.11-1.536,1.156-1.536C242.233,82.27,240.134,83.806,242.089,83.806
			L242.089,83.806z"/>
	</g>
</g>
<g>
	<g>
		<path fill="#4EC6E5" d="M160.889,90.163c1.703,0,2.183-2.251,0.223-2.251C159.409,87.913,158.928,90.163,160.889,90.163
			L160.889,90.163z"/>
	</g>
</g>
<g>
	<g>
		<path fill="#D2ECF2" d="M120.897,26.381c0.893,0,3.146-1.353,1.205-1.353C121.21,25.028,118.956,26.381,120.897,26.381
			L120.897,26.381z"/>
	</g>
</g>
<g>
	<g>
		<path fill="#D2ECF2" d="M114.715,34.134c1.224,0,3.031-1.859,1.07-1.859C114.56,32.275,112.754,34.134,114.715,34.134
			L114.715,34.134z"/>
	</g>
</g>
<g>
	<g>
		<path fill="#D2ECF2" d="M130.3,24.507c0.559,0,3.284-1.104,1.9-1.104C131.641,23.403,128.916,24.507,130.3,24.507L130.3,24.507z"
			/>
	</g>
</g>
<g>
	<g>
		<path fill="#D2ECF2" d="M101.695,33.558c1.124,0,3.071-1.706,1.11-1.706C101.681,31.852,99.734,33.558,101.695,33.558
			L101.695,33.558z"/>
	</g>
</g>
<g>
	<g>
		<path fill="#D2ECF2" d="M98.215,41.134c1.225,0,3.03-1.859,1.069-1.859C98.06,39.275,96.254,41.134,98.215,41.134L98.215,41.134z"
			/>
	</g>
</g>
<g>
	<g>
		<path fill="#D2ECF2" d="M126.405,31.16c0.931,0,3.136-1.411,1.189-1.411C126.664,29.749,124.459,31.16,126.405,31.16
			L126.405,31.16z"/>
	</g>
</g>
<g>
	<g>
		<path fill="#D2ECF2" d="M137.869,28.006c1.649,0,2.229-2.102,0.262-2.102C136.482,25.904,135.902,28.006,137.869,28.006
			L137.869,28.006z"/>
	</g>
</g>
<g>
	<g>
		<path fill="#D2ECF2" d="M148.306,25.782c0.588,0,3.296-1.154,1.887-1.154C149.605,24.628,146.898,25.782,148.306,25.782
			L148.306,25.782z"/>
	</g>
</g>
<g>
	<g>
		<path fill="#D2ECF2" d="M118.203,44.089c1.166,0,3.055-1.769,1.094-1.769C118.131,42.32,116.242,44.089,118.203,44.089
			L118.203,44.089z"/>
	</g>
</g>
<g>
	<g>
		<path fill="#D2ECF2" d="M107.358,39.466c1.619,0,2.254-2.023,0.284-2.023C106.022,37.443,105.388,39.466,107.358,39.466
			L107.358,39.466z"/>
	</g>
</g>
<g>
	<g>
		<path fill="#D2ECF2" d="M79.951,57.58c1.154,0,3.059-1.752,1.098-1.752C79.895,55.829,77.99,57.58,79.951,57.58L79.951,57.58z"/>
	</g>
</g>
<g>
	<g>
		<path fill="#D2ECF2" d="M157.618,25.751c1.646,0,2.232-2.093,0.265-2.093C156.237,23.658,155.65,25.751,157.618,25.751
			L157.618,25.751z"/>
	</g>
</g>
<g>
	<g>
		<path fill="#D2ECF2" d="M170.406,31.162c0.933,0,3.135-1.415,1.188-1.415C170.661,29.747,168.459,31.162,170.406,31.162
			L170.406,31.162z"/>
	</g>
</g>
<g>
	<g>
		<path fill="#D2ECF2" d="M137.146,31.876c0.887,0,3.148-1.343,1.208-1.343C137.467,30.533,135.206,31.876,137.146,31.876
			L137.146,31.876z"/>
	</g>
</g>
<g>
	<g>
		<path fill="#D2ECF2" d="M128.805,38.526c0.582,0,3.293-1.143,1.89-1.143C130.113,37.383,127.402,38.526,128.805,38.526
			L128.805,38.526z"/>
	</g>
</g>
<g>
	<g>
		<path fill="#D2ECF2" d="M148.877,38.787c1.672,0,2.21-2.165,0.246-2.165C147.451,36.622,146.913,38.787,148.877,38.787
			L148.877,38.787z"/>
	</g>
</g>
<g>
	<g>
		<path fill="#D2ECF2" d="M95.693,45.552c1.117,0,3.074-1.695,1.113-1.695C95.69,43.857,93.733,45.552,95.693,45.552L95.693,45.552z
			"/>
	</g>
</g>
<g>
	<g>
		<path fill="#D2ECF2" d="M86.55,52.506c0.558,0,3.283-1.102,1.901-1.102C87.893,51.404,85.167,52.506,86.55,52.506L86.55,52.506z"
			/>
	</g>
</g>
<g>
	<g>
		<path fill="#D2ECF2" d="M90.563,47.472c0.617,0,3.306-1.2,1.874-1.2C91.82,46.271,89.131,47.472,90.563,47.472L90.563,47.472z"/>
	</g>
</g>
<g>
	<g>
		<path fill="#D2ECF2" d="M147.216,31.138c1.229,0,3.029-1.866,1.068-1.866C147.055,29.272,145.255,31.138,147.216,31.138
			L147.216,31.138z"/>
	</g>
</g>
<g>
	<g>
		<path fill="#D2ECF2" d="M93.396,52.627c0.888,0,3.148-1.345,1.207-1.345C93.716,51.282,91.456,52.627,93.396,52.627L93.396,52.627
			z"/>
	</g>
</g>
<g>
	<g>
		<path fill="#4EC6E5" d="M64.096,72.89c0.903,0,2.279-1.371,0.808-1.371C64.001,71.519,62.625,72.89,64.096,72.89L64.096,72.89z"/>
	</g>
</g>
<g>
	<g>
		<path fill="#4EC6E5" d="M83.856,65.761c0.952,0,2.258-1.446,0.788-1.446C83.692,64.315,82.386,65.761,83.856,65.761L83.856,65.761
			z"/>
	</g>
</g>
<g>
	<g>
		<path fill="#4EC6E5" d="M69.827,75.82c0.811,0,2.315-1.231,0.846-1.231C69.862,74.589,68.358,75.82,69.827,75.82L69.827,75.82z"/>
	</g>
</g>
<g>
	<g>
		<path fill="#4EC6E5" d="M69.378,90.701c0.656,0,2.364-0.992,0.91-0.992C69.633,89.708,67.925,90.701,69.378,90.701L69.378,90.701z
			"/>
	</g>
</g>
<g>
	<g>
		<path fill="#4EC6E5" d="M121.542,76.188c0.639,0,2.368-0.967,0.917-0.967C121.819,75.221,120.09,76.188,121.542,76.188
			L121.542,76.188z"/>
	</g>
</g>
<g>
	<g>
		<path fill="#4EC6E5" d="M105.749,65.673c0.837,0,2.305-1.27,0.835-1.27C105.747,64.403,104.279,65.673,105.749,65.673
			L105.749,65.673z"/>
	</g>
</g>
<g>
	<g>
		<path fill="#4EC6E5" d="M100.628,102.981c0.454,0,2.476-0.886,1.41-0.886C101.584,102.095,99.562,102.981,100.628,102.981
			L100.628,102.981z"/>
	</g>
</g>
<g>
	<g>
		<path fill="#4EC6E5" d="M74.413,99.165c0.826,0,2.31-1.253,0.84-1.253C74.427,97.911,72.944,99.165,74.413,99.165L74.413,99.165z"
			/>
	</g>
</g>
<g>
	<g>
		<path fill="#4EC6E5" d="M35.256,87.7c0.873,0,2.292-1.325,0.821-1.325C35.204,86.376,33.785,87.7,35.256,87.7L35.256,87.7z"/>
	</g>
</g>
<g>
	<g>
		<path fill="#4EC6E5" d="M25.468,92.671c0.484,0,2.486-0.933,1.397-0.933C26.382,91.738,24.379,92.671,25.468,92.671L25.468,92.671
			z"/>
	</g>
</g>
<g>
	<g>
		<path fill="#4EC6E5" d="M141.126,88.139c0.443,0,2.472-0.868,1.415-0.868C142.098,87.271,140.068,88.139,141.126,88.139
			L141.126,88.139z"/>
	</g>
</g>
<g>
	<g>
		<path fill="#4EC6E5" d="M141.599,95.402c0.918,0,2.273-1.394,0.802-1.394C141.483,94.008,140.128,95.402,141.599,95.402
			L141.599,95.402z"/>
	</g>
</g>
<path opacity="0.4" fill="#D2ECF2" d="M94,40.205c0,0-12.667,5.833-18,16.5C76,56.705,79,42.538,94,40.205z"/>
<path opacity="0.4" fill="#D2ECF2" d="M113.25,26.642c0,0,8.917-10.958,24.5-5.198C137.75,21.444,124.083,18.162,113.25,26.642z"/>
<g>
	<g>
		<path fill="#D2ECF2" d="M108.391,33.106c0.861,0,3.155-1.303,1.218-1.303C108.748,31.803,106.454,33.106,108.391,33.106
			L108.391,33.106z"/>
	</g>
</g>
<g>
	<g>
		<path fill="#D2ECF2" d="M97.382,37.14c1.686,0,2.198-2.203,0.235-2.203C95.932,34.937,95.42,37.14,97.382,37.14L97.382,37.14z"/>
	</g>
</g>
<g>
	<g>
		<path fill="#D2ECF2" d="M107.87,47.755c1.164,0,3.055-1.766,1.094-1.766C107.8,45.988,105.908,47.755,107.87,47.755L107.87,47.755
			z"/>
	</g>
</g>
<g>
	<g>
		<path fill="#D2ECF2" d="M102.195,52.474c1.123,0,3.071-1.705,1.111-1.705C102.182,50.769,100.234,52.474,102.195,52.474
			L102.195,52.474z"/>
	</g>
</g>
<g>
	<g>
		<path fill="#D2ECF2" d="M120.494,36.68c0.956,0,3.128-1.451,1.179-1.451C120.716,35.229,118.545,36.68,120.494,36.68
			L120.494,36.68z"/>
	</g>
</g>
<g>
	<g>
		<path fill="#D2ECF2" d="M155.408,32.505c0.946,0,3.131-1.435,1.183-1.435C155.646,31.071,153.46,32.505,155.408,32.505
			L155.408,32.505z"/>
	</g>
</g>
<g>
	<g>
		<path fill="#D2ECF2" d="M142.203,25.009c1.651,0,2.228-2.108,0.261-2.108C140.813,22.901,140.236,25.009,142.203,25.009
			L142.203,25.009z"/>
	</g>
</g>
<g>
	<g>
		<path fill="#D2ECF2" d="M163.238,32.742c0.929,0,3.136-1.408,1.19-1.408C163.5,31.334,161.292,32.742,163.238,32.742
			L163.238,32.742z"/>
	</g>
</g>
<g>
	<g>
		<path fill="#D2ECF2" d="M130.414,49.692c0.971,0,3.123-1.474,1.173-1.474C130.615,48.218,128.463,49.692,130.414,49.692
			L130.414,49.692z"/>
	</g>
</g>
<g>
	<g>
		<path fill="#D2ECF2" d="M133.064,42.41c1.094,0,3.082-1.66,1.123-1.66C133.092,40.749,131.104,42.41,133.064,42.41L133.064,42.41z
			"/>
	</g>
</g>
</svg>
