<?xml version="1.0" encoding="utf-8"?>
<!-- Generator: Adobe Illustrator 17.0.0, SVG Export Plug-In . SVG Version: 6.00 Build 0)  -->
<!DOCTYPE svg PUBLIC "-//W3C//DTD SVG 1.1//EN" "http://www.w3.org/Graphics/SVG/1.1/DTD/svg11.dtd">
<svg version="1.1" xmlns="http://www.w3.org/2000/svg" xmlns:xlink="http://www.w3.org/1999/xlink" x="0px" y="0px" width="295.5px"
	 height="354px" viewBox="0 0 295.5 354" enable-background="new 0 0 295.5 354" xml:space="preserve">
<g id="Layer_1">
	<path fill="#CC3746" d="M68.477,48.137c0,0,7.701-23.482,33.401-23.754l4.688,27.685L95.016,65.613L68.477,48.137z"/>
	<path fill="#CC3746" d="M89.836,47.86c0,0,6.356-46.323,66.677-37.293c0,0,33.271,4.827,43.67,42.353l-17.385,78.506L89.836,47.86z
		"/>
	<path fill="#CC3746" d="M102.907,22.092c0,0,9.616-23.544,34-12.653v18.532L102.907,22.092z"/>
	<path fill="#CE5B61" d="M132.854,182.651c0,0-23.199-0.922-18.364-9.785c0,0-20.14-1.365-9.864-14.503
		c0,0-8.112-9.921,5.101-13.015c0,0-17.957-17.193-12.11-36.596c0,0-10.87-16.478,11.83-25.924c0,0,21.925-53.89,90.306-48.255
		c0,0,76.704,8.09,82.72,73.125c0,0,9.13,42.962-20.628,65.091C261.846,172.789,166.888,203.968,132.854,182.651z"/>
	<path fill="#F19C9D" d="M23.414,171.621c0,0-18.431-4.424-13.048-11.543c0,0-15.905-4.341-5.434-14.413
		c0,0-4.811-10.072,6.303-10.766c0,0-11.461-18.059-3.473-34.382c0,0-5.904-16.323,13.892-21.185c0,0,26.742-44.454,80.573-28.826
		c0,0,60.082,19.101,53.831,77.794c0,0,0.002,39.573-27.609,54.603C128.448,182.903,47.055,195.84,23.414,171.621z"/>
	<path fill="#F1F2F2" d="M12.797,180.221l17.191,140.655l0.695,3.039c2.086,14.425,59.475,18.841,59.475,18.841
		s38.81,4.688,91.686,1.563c0,0,86.737-4.168,90.384-26.568l10.94-140.395C283.168,177.356,133.135,206.095,12.797,180.221z"/>
	<path fill="#CC3746" d="M10.366,160.078c0,0-4.689,5.557,10.245,10.766c0,0,21.359,6.251,46.19,9.203c0,0,40.286,3.473,66.16,2.778
		c0,0,55.567,1.216,95.333-4.168c0,0,37.682-5.904,46.017-10.072c0,0,21.185-7.12,5.383-16.67l1.737-2.431
		c0,0,25.603,11.808,4.119,27.089c0,0-16.448,13.197-72.189,15.802c0,0-47.753,3.126-74.669,2.605c0,0-98.812,2.952-129.024-17.625
		c0,0-14.757-8.422-3.123-19.709L10.366,160.078z"/>
	<path fill="#F19C9D" d="M68.477,180.187c0,0,2.405,8.288,8.917,6.896c0,0,8.335-1.652,10.94,3.557c0,0,6.512,13.925,14.847,4.488
		c0,0,7.033-5.53,13.024-3.707c0,0,16.522,1.851,22.066-15.875L68.477,180.187z"/>
	<path fill="#F19C9D" d="M133.413,184.513c0,0,10.437-8.836,15.609-24.849C149.022,159.664,126.647,174.022,133.413,184.513z"/>
	<g>
		<ellipse fill="#F19C9D" cx="95.693" cy="213.562" rx="4.363" ry="4.428"/>
		<path fill="#F19C9D" d="M91.33,213.562c0,0,0.26-2.995,4.363-9.768c0,0,4.884,6.251,4.363,11.07L91.33,213.562z"/>
	</g>
	<g>
		<ellipse fill="#F19C9D" cx="95.673" cy="251.702" rx="4.363" ry="4.428"/>
		<path fill="#F19C9D" d="M91.31,251.702c0,0,0.26-2.995,4.363-9.768c0,0,4.884,6.251,4.363,11.07L91.31,251.702z"/>
	</g>
	<g>
		<ellipse fill="#CE5B61" cx="239.835" cy="204.705" rx="4.363" ry="4.428"/>
		<path fill="#CE5B61" d="M235.472,204.705c0,0,0.26-2.995,4.363-9.768c0,0,4.884,6.251,4.363,11.07L235.472,204.705z"/>
	</g>
	<g>
		<ellipse fill="#CE5B61" cx="231.077" cy="210.99" rx="2.715" ry="2.756"/>
		<path fill="#CE5B61" d="M228.362,210.99c0,0,0.162-1.864,2.715-6.079c0,0,3.039,3.89,2.715,6.889L228.362,210.99z"/>
	</g>
	<path fill="#CE5B61" d="M262.755,172.088c0,0,7.562,10.448,15.897,0c0,0,1.252-5.933,5.141-5.933c0,0,6.451-2.336,1.003-9.659
		c0,0,0.83-4.336-4.74-9.32L262.755,172.088z"/>
	<path fill="#CE5B61" d="M208.714,180.733c0,0,1.001,7.531,8.294,6.245c0,0,4.168-6.247,11.982-2.464
		c0,0,12.134,15.819,10.756-7.781L208.714,180.733z"/>
	<path fill="#CE5B61" d="M218.86,38.774c0,0,57.632-1.762,62.272,59.945L218.86,38.774z"/>
	<path fill="#CE5B61" d="M208.714,36.136c0,0,24.203-11.044,42.556,11.04l-11.416,14.791L208.714,36.136z"/>
	<path fill="#CE5B61" d="M283.168,133.196c0,0,7.851,8.419,0.626,17.564l-8.925,7.687l-2.815-14.795L283.168,133.196z"/>
	<path opacity="0.3" fill="#FFFFFF" d="M133.656,60.337c0,0,28.999-25.005,70.848-21.185
		C204.505,39.152,159.53,27.691,133.656,60.337z"/>
	<path opacity="0.3" fill="#FFFFFF" d="M32.849,70.413c0,0,26.87-23.673,64.78-19.117C97.629,51.296,57.047,39.264,32.849,70.413z"
		/>
	<path fill="#CC3746" d="M89.836,26.465c0,0,3.361-12.702,18.815-11.348l5.209,19.043L89.836,26.465z"/>
	<g>
		<g>
			<g>
				<path fill="#CC3746" d="M62.342,58.631c0.322,0,1.657-0.621,0.932-0.621C62.952,58.01,61.617,58.631,62.342,58.631
					L62.342,58.631z"/>
			</g>
		</g>
		<g>
			<g>
				<path fill="#CC3746" d="M76.93,60.718c0.326,0,1.659-0.628,0.93-0.628C77.533,60.09,76.201,60.718,76.93,60.718L76.93,60.718z"
					/>
			</g>
		</g>
		<g>
			<g>
				<path fill="#CC3746" d="M54.523,61.302c0.297,0,1.649-0.581,0.942-0.581C55.168,60.721,53.816,61.302,54.523,61.302
					L54.523,61.302z"/>
			</g>
		</g>
		<g>
			<g>
				<path fill="#CC3746" d="M42.401,68.697c0.631,0,1.507-0.958,0.527-0.958C42.298,67.739,41.421,68.697,42.401,68.697
					L42.401,68.697z"/>
			</g>
		</g>
		<g>
			<g>
				<path fill="#CC3746" d="M77.322,69.24c0.806,0,1.13-1.002,0.144-1.002C76.66,68.238,76.337,69.24,77.322,69.24L77.322,69.24z"/>
			</g>
		</g>
		<g>
			<g>
				<path fill="#CC3746" d="M71.01,62.807c0.423,0,1.58-0.639,0.613-0.639C71.2,62.168,70.043,62.807,71.01,62.807L71.01,62.807z"/>
			</g>
		</g>
		<g>
			<g>
				<path fill="#CC3746" d="M94.832,58.236c0.576,0,1.53-0.874,0.55-0.874C94.806,57.362,93.851,58.236,94.832,58.236L94.832,58.236
					z"/>
			</g>
		</g>
		<g>
			<g>
				<path fill="#CC3746" d="M94.824,68.625c0.536,0,1.545-0.813,0.566-0.813C94.854,67.811,93.844,68.625,94.824,68.625
					L94.824,68.625z"/>
			</g>
		</g>
		<g>
			<g>
				<path fill="#CC3746" d="M84.916,70.151c0.487,0,1.561-0.739,0.586-0.739C85.014,69.411,83.94,70.151,84.916,70.151
					L84.916,70.151z"/>
			</g>
		</g>
		<g>
			<g>
				<path fill="#CC3746" d="M85.145,60.416c0.83,0,1.11-1.066,0.127-1.066C84.442,59.35,84.162,60.416,85.145,60.416L85.145,60.416z
					"/>
			</g>
		</g>
		<g>
			<g>
				<path fill="#CC3746" d="M53.399,70.723c0.322,0,1.657-0.621,0.932-0.621C54.009,70.102,52.674,70.723,53.399,70.723
					L53.399,70.723z"/>
			</g>
		</g>
		<g>
			<g>
				<path fill="#CC3746" d="M35.268,71.773c0.565,0,1.534-0.858,0.554-0.858C35.257,70.915,34.288,71.773,35.268,71.773
					L35.268,71.773z"/>
			</g>
		</g>
		<g>
			<g>
				<path fill="#CC3746" d="M50.896,65.29c0.838,0,1.103-1.089,0.121-1.089C50.179,64.2,49.914,65.29,50.896,65.29L50.896,65.29z"/>
			</g>
		</g>
		<g>
			<g>
				<path fill="#CC3746" d="M45.824,72.936c0.843,0,1.099-1.102,0.118-1.102C45.098,71.835,44.842,72.936,45.824,72.936
					L45.824,72.936z"/>
			</g>
		</g>
		<g>
			<g>
				<path fill="#CC3746" d="M69.625,57.028c0.274,0,1.639-0.542,0.953-0.542C70.304,56.486,68.938,57.028,69.625,57.028
					L69.625,57.028z"/>
			</g>
		</g>
		<g>
			<g>
				<path fill="#CC3746" d="M70.04,71.884c0.836,0,1.105-1.082,0.123-1.082C69.327,70.803,69.057,71.884,70.04,71.884L70.04,71.884z
					"/>
			</g>
		</g>
		<g>
			<g>
				<path fill="#CC3746" d="M89.566,54.737c0.599,0,1.521-0.909,0.54-0.909C89.507,53.828,88.585,54.737,89.566,54.737
					L89.566,54.737z"/>
			</g>
		</g>
		<g>
			<g>
				<path fill="#CC3746" d="M108.179,79.966c0.292,0,1.647-0.574,0.944-0.574C108.831,79.392,107.476,79.966,108.179,79.966
					L108.179,79.966z"/>
			</g>
		</g>
		<g>
			<g>
				<path fill="#CC3746" d="M87.545,80.663c0.61,0,1.516-0.926,0.536-0.926C87.471,79.737,86.565,80.663,87.545,80.663
					L87.545,80.663z"/>
			</g>
		</g>
		<g>
			<g>
				<path fill="#CC3746" d="M71.604,77.099c0.839,0,1.102-1.091,0.121-1.091C70.885,76.008,70.622,77.099,71.604,77.099
					L71.604,77.099z"/>
			</g>
		</g>
		<g>
			<g>
				<path fill="#CC3746" d="M57.564,79.977c0.307,0,1.652-0.597,0.938-0.597C58.195,79.38,56.849,79.977,57.564,79.977
					L57.564,79.977z"/>
			</g>
		</g>
		<g>
			<g>
				<path fill="#CC3746" d="M41.586,81.966c0.297,0,1.649-0.581,0.942-0.581C42.232,81.385,40.88,81.966,41.586,81.966
					L41.586,81.966z"/>
			</g>
		</g>
		<g>
			<g>
				<path fill="#CC3746" d="M106.509,73.98c0.844,0,1.098-1.104,0.117-1.104C105.782,72.875,105.528,73.98,106.509,73.98
					L106.509,73.98z"/>
			</g>
		</g>
		<g>
			<g>
				<path fill="#CC3746" d="M158.717,69.049c0.321,0,1.657-0.62,0.932-0.62C159.328,68.429,157.992,69.049,158.717,69.049
					L158.717,69.049z"/>
			</g>
		</g>
		<g>
			<g>
				<path fill="#CC3746" d="M101.602,62.396c0.565,0,1.534-0.858,0.554-0.858C101.59,61.538,100.622,62.396,101.602,62.396
					L101.602,62.396z"/>
			</g>
		</g>
		<g>
			<g>
				<path fill="#CC3746" d="M120.326,72.704c0.422,0,1.58-0.638,0.613-0.638C120.518,72.067,119.36,72.704,120.326,72.704
					L120.326,72.704z"/>
			</g>
		</g>
		<g>
			<g>
				<path fill="#CC3746" d="M118.073,82.036c0.276,0,1.641-0.547,0.952-0.547C118.749,81.489,117.384,82.036,118.073,82.036
					L118.073,82.036z"/>
			</g>
		</g>
		<g>
			<g>
				<path fill="#CC3746" d="M127.649,83.753c0.564,0,1.535-0.856,0.554-0.856C127.639,82.897,126.669,83.753,127.649,83.753
					L127.649,83.753z"/>
			</g>
		</g>
		<g>
			<g>
				<path fill="#CC3746" d="M113.583,64.476c0.561,0,1.536-0.851,0.556-0.851C113.578,63.625,112.602,64.476,113.583,64.476
					L113.583,64.476z"/>
			</g>
		</g>
		<g>
			<g>
				<path fill="#CC3746" d="M27.101,87.901c0.538,0,1.544-0.816,0.565-0.816C27.128,87.085,26.122,87.901,27.101,87.901
					L27.101,87.901z"/>
			</g>
		</g>
		<g>
			<g>
				<path fill="#CC3746" d="M12.508,87.355c0.505,0,1.556-0.766,0.579-0.766C12.582,86.589,11.531,87.355,12.508,87.355
					L12.508,87.355z"/>
			</g>
		</g>
		<g>
			<g>
				<path fill="#CC3746" d="M12.742,94.83c0.853,0,1.091-1.129,0.11-1.129C12,93.701,11.762,94.83,12.742,94.83L12.742,94.83z"/>
			</g>
		</g>
		<g>
			<g>
				<path fill="#CC3746" d="M49.194,90.089c0.815,0,1.123-1.025,0.138-1.025C48.517,89.064,48.21,90.089,49.194,90.089
					L49.194,90.089z"/>
			</g>
		</g>
		<g>
			<g>
				<path fill="#CC3746" d="M82.857,106.711c0.611,0,1.516-0.927,0.535-0.927C82.782,105.783,81.877,106.711,82.857,106.711
					L82.857,106.711z"/>
			</g>
		</g>
		<g>
			<g>
				<path fill="#CC3746" d="M67.192,96.154c0.431,0,1.577-0.652,0.609-0.652C67.37,95.502,66.224,96.154,67.192,96.154
					L67.192,96.154z"/>
			</g>
		</g>
		<g>
			<g>
				<path fill="#CC3746" d="M82.135,93.524c0.309,0,1.653-0.602,0.937-0.602C82.763,92.922,81.419,93.524,82.135,93.524
					L82.135,93.524z"/>
			</g>
		</g>
		<g>
			<g>
				<path fill="#CC3746" d="M105.74,58.64c0.423,0,1.579-0.64,0.612-0.64C105.929,58,104.773,58.64,105.74,58.64L105.74,58.64z"/>
			</g>
		</g>
		<g>
			<g>
				<path fill="#CC3746" d="M106.267,96.17c0.451,0,1.572-0.684,0.601-0.684C106.417,95.486,105.296,96.17,106.267,96.17
					L106.267,96.17z"/>
			</g>
		</g>
		<g>
			<g>
				<path fill="#CC3746" d="M98.176,86.492c0.851,0,1.092-1.124,0.112-1.124C97.437,85.368,97.196,86.492,98.176,86.492
					L98.176,86.492z"/>
			</g>
		</g>
		<g>
			<g>
				<path fill="#CC3746" d="M134.233,73.219c0.324,0,1.658-0.624,0.931-0.624C134.84,72.594,133.506,73.219,134.233,73.219
					L134.233,73.219z"/>
			</g>
		</g>
		<g>
			<g>
				<path fill="#CC3746" d="M129.746,73.904c0.628,0,1.508-0.954,0.528-0.954C129.646,72.95,128.766,73.904,129.746,73.904
					L129.746,73.904z"/>
			</g>
		</g>
		<g opacity="0.5">
			
				<image overflow="visible" width="306" height="304" xlink:href="B90E32D8BC8B8E72.png"  transform="matrix(0.24 0 0 0.24 107.5519 27.6191)">
			</image>
		</g>
		<g opacity="0.5">
			
				<image overflow="visible" width="306" height="304" xlink:href="B90E32D8BC8B8E74.png"  transform="matrix(0.24 0 0 0.24 126.304 27.6048)">
			</image>
		</g>
		<g>
			
				<image overflow="visible" width="306" height="304" xlink:href="B90E32D8BC8B8E7B.png"  transform="matrix(0.24 0 0 0.24 134.2924 42.5428)">
			</image>
		</g>
		<g>
			<g>
				<path fill="#CC3746" d="M195.695,54.667c0.449,0,1.572-0.681,0.601-0.681C195.847,53.986,194.724,54.667,195.695,54.667
					L195.695,54.667z"/>
			</g>
		</g>
		<g>
			<g>
				<path fill="#CC3746" d="M164.962,62.253c0.292,0,1.647-0.573,0.944-0.573C165.614,61.68,164.259,62.253,164.962,62.253
					L164.962,62.253z"/>
			</g>
		</g>
		<g>
			<g>
				<path fill="#CC3746" d="M172.772,57.44c0.443,0,1.574-0.67,0.604-0.67C172.934,56.769,171.802,57.44,172.772,57.44
					L172.772,57.44z"/>
			</g>
		</g>
		<g>
			<g>
				<path fill="#CC3746" d="M169.327,50.595c0.575,0,1.53-0.873,0.55-0.873C169.302,49.722,168.346,50.595,169.327,50.595
					L169.327,50.595z"/>
			</g>
		</g>
		<g>
			<g>
				<path fill="#CC3746" d="M188.297,63.559c0.843,0,1.099-1.102,0.118-1.102C187.572,62.458,187.315,63.559,188.297,63.559
					L188.297,63.559z"/>
			</g>
		</g>
		<g>
			<g>
				<path fill="#CC3746" d="M188.072,52.996c0.535,0,1.545-0.812,0.566-0.812C188.104,52.184,187.093,52.996,188.072,52.996
					L188.072,52.996z"/>
			</g>
		</g>
		<g>
			<g>
				<path fill="#CC3746" d="M214.112,43.937c0.497,0,1.558-0.755,0.582-0.755C214.196,43.183,213.136,43.937,214.112,43.937
					L214.112,43.937z"/>
			</g>
		</g>
		<g>
			<g>
				<path fill="#CC3746" d="M214.135,54.096c0.612,0,1.516-0.928,0.535-0.928C214.059,53.167,213.155,54.096,214.135,54.096
					L214.135,54.096z"/>
			</g>
		</g>
		<g>
			<g>
				<path fill="#CC3746" d="M233.208,44.264c0.47,0,1.566-0.713,0.593-0.713C233.33,43.551,232.234,44.264,233.208,44.264
					L233.208,44.264z"/>
			</g>
		</g>
		<g>
			<g>
				<path fill="#CC3746" d="M228.868,39.345c0.309,0,1.653-0.601,0.937-0.601C229.496,38.745,228.152,39.345,228.868,39.345
					L228.868,39.345z"/>
			</g>
		</g>
		<g>
			<g>
				<path fill="#CC3746" d="M234.424,59.834c0.306,0,1.652-0.597,0.938-0.597C235.056,59.237,233.71,59.834,234.424,59.834
					L234.424,59.834z"/>
			</g>
		</g>
		<g>
			<g>
				<path fill="#CC3746" d="M166.546,74.55c0.564,0,1.535-0.856,0.554-0.856C166.536,73.694,165.566,74.55,166.546,74.55
					L166.546,74.55z"/>
			</g>
		</g>
		<g>
			<g>
				<path fill="#CC3746" d="M153.918,72.603c0.853,0,1.09-1.13,0.11-1.13C153.175,71.473,152.938,72.603,153.918,72.603
					L153.918,72.603z"/>
			</g>
		</g>
		<g>
			<g>
				<path fill="#CC3746" d="M153.695,58.919c0.56,0,1.536-0.85,0.556-0.85C153.691,58.069,152.715,58.919,153.695,58.919
					L153.695,58.919z"/>
			</g>
		</g>
		<g>
			<g>
				<path fill="#CC3746" d="M139.325,66.326c0.835,0,1.106-1.078,0.124-1.078C138.614,65.248,138.343,66.326,139.325,66.326
					L139.325,66.326z"/>
			</g>
		</g>
		<g>
			<g>
				<path fill="#CC3746" d="M149.193,80.498c0.622,0,1.511-0.944,0.531-0.944C149.102,79.554,148.213,80.498,149.193,80.498
					L149.193,80.498z"/>
			</g>
		</g>
		<g>
			<g>
				<path fill="#CC3746" d="M193.85,69.796c0.832,0,1.108-1.073,0.125-1.073C193.143,68.724,192.867,69.796,193.85,69.796
					L193.85,69.796z"/>
			</g>
		</g>
		<g>
			<g>
				<path fill="#CC3746" d="M179.616,69.121c0.846,0,1.096-1.111,0.115-1.111C178.885,68.01,178.635,69.121,179.616,69.121
					L179.616,69.121z"/>
			</g>
		</g>
		<g>
			<g>
				<path fill="#CC3746" d="M181.291,46.647c0.32,0,1.657-0.618,0.932-0.618C181.903,46.029,180.567,46.647,181.291,46.647
					L181.291,46.647z"/>
			</g>
		</g>
		<g>
			<g>
				<path fill="#CC3746" d="M203.859,45.932c0.294,0,1.648-0.576,0.944-0.576C204.509,45.356,203.155,45.932,203.859,45.932
					L203.859,45.932z"/>
			</g>
		</g>
		<g>
			<g>
				<path fill="#CC3746" d="M187.742,77.022c0.618,0,1.513-0.938,0.532-0.938C187.657,76.084,186.762,77.022,187.742,77.022
					L187.742,77.022z"/>
			</g>
		</g>
		<g>
			<g>
				<path fill="#CC3746" d="M217.947,65.178c0.57,0,1.532-0.866,0.552-0.866C217.929,64.312,216.967,65.178,217.947,65.178
					L217.947,65.178z"/>
			</g>
		</g>
		<g>
			<g>
				<path fill="#CC3746" d="M246.085,50.618c0.605,0,1.518-0.918,0.538-0.918C246.018,49.699,245.105,50.618,246.085,50.618
					L246.085,50.618z"/>
			</g>
		</g>
		<g>
			<g>
				<path fill="#CC3746" d="M246.083,67.976c0.596,0,1.522-0.905,0.541-0.905C246.028,67.071,245.103,67.976,246.083,67.976
					L246.083,67.976z"/>
			</g>
		</g>
		<g>
			<g>
				<path fill="#CC3746" d="M239.796,80.345c0.422,0,1.58-0.639,0.613-0.639C239.987,79.707,238.83,80.345,239.796,80.345
					L239.796,80.345z"/>
			</g>
		</g>
		<g>
			<g>
				<path fill="#CC3746" d="M218.156,80.547c0.821,0,1.118-1.041,0.134-1.041C217.469,79.505,217.172,80.547,218.156,80.547
					L218.156,80.547z"/>
			</g>
		</g>
		<g>
			<g>
				<path fill="#CC3746" d="M212.025,71.363c0.483,0,1.563-0.733,0.587-0.733C212.13,70.63,211.05,71.363,212.025,71.363
					L212.025,71.363z"/>
			</g>
		</g>
		<g>
			<g>
				<path fill="#CC3746" d="M201.97,86.706c0.565,0,1.534-0.858,0.554-0.858C201.959,85.849,200.99,86.706,201.97,86.706
					L201.97,86.706z"/>
			</g>
		</g>
		<g>
			<g>
				<path fill="#CC3746" d="M204.041,60.609c0.499,0,1.558-0.757,0.581-0.757C204.123,59.852,203.064,60.609,204.041,60.609
					L204.041,60.609z"/>
			</g>
		</g>
		<g>
			<g>
				<path fill="#CC3746" d="M227.892,52.111c0.851,0,1.092-1.126,0.111-1.126C227.152,50.985,226.911,52.111,227.892,52.111
					L227.892,52.111z"/>
			</g>
		</g>
		<g>
			<g>
				<path fill="#CC3746" d="M227.126,72.316c0.282,0,1.643-0.556,0.949-0.556C227.793,71.76,226.432,72.316,227.126,72.316
					L227.126,72.316z"/>
			</g>
		</g>
		<g>
			<g>
				<path fill="#CC3746" d="M254.287,61.141c0.852,0,1.091-1.127,0.111-1.127C253.545,60.014,253.306,61.141,254.287,61.141
					L254.287,61.141z"/>
			</g>
		</g>
		<g>
			<g>
				<path fill="#CC3746" d="M254.059,71.402c0.535,0,1.545-0.812,0.566-0.812C254.09,70.591,253.08,71.402,254.059,71.402
					L254.059,71.402z"/>
			</g>
		</g>
		<g>
			<g>
				<path fill="#CC3746" d="M166.526,95.314c0.467,0,1.567-0.709,0.594-0.709C166.653,94.606,165.553,95.314,166.526,95.314
					L166.526,95.314z"/>
			</g>
		</g>
		<g>
			<g>
				<path fill="#CC3746" d="M182.879,93.343c0.615,0,1.514-0.934,0.533-0.934C182.797,92.409,181.899,93.343,182.879,93.343
					L182.879,93.343z"/>
			</g>
		</g>
		<g>
			<g>
				<path fill="#CC3746" d="M217.758,38.317c0.326,0,1.658-0.628,0.93-0.628C218.362,37.689,217.03,38.317,217.758,38.317
					L217.758,38.317z"/>
			</g>
		</g>
		<g>
			<g>
				<path fill="#CC3746" d="M263.074,82.115c0.465,0,1.568-0.705,0.595-0.705C263.204,81.41,262.101,82.115,263.074,82.115
					L263.074,82.115z"/>
			</g>
		</g>
		<g>
			<g>
				<path fill="#CC3746" d="M263.072,69.602c0.452,0,1.572-0.685,0.6-0.685C263.22,68.917,262.1,69.602,263.072,69.602
					L263.072,69.602z"/>
			</g>
		</g>
		<g>
			<g>
				<path fill="#CC3746" d="M223.137,90.109c0.473,0,1.566-0.718,0.591-0.718C223.255,89.391,222.163,90.109,223.137,90.109
					L223.137,90.109z"/>
			</g>
		</g>
		<g>
			<g>
				<path fill="#CC3746" d="M163.989,91.703c0.852,0,1.091-1.127,0.111-1.127C163.248,90.576,163.009,91.703,163.989,91.703
					L163.989,91.703z"/>
			</g>
		</g>
		<g>
			<g>
				<path fill="#CC3746" d="M175.088,86.438c0.811,0,1.126-1.016,0.141-1.016C174.417,85.422,174.103,86.438,175.088,86.438
					L175.088,86.438z"/>
			</g>
		</g>
		<g>
			<g>
				<path fill="#CC3746" d="M173.138,71.745c0.53,0,1.547-0.804,0.568-0.804C173.177,70.942,172.159,71.745,173.138,71.745
					L173.138,71.745z"/>
			</g>
		</g>
		<g>
			<g>
				<path fill="#CC3746" d="M180.295,56.911c0.806,0,1.13-1.001,0.145-1.001C179.634,55.909,179.31,56.911,180.295,56.911
					L180.295,56.911z"/>
			</g>
		</g>
		<g>
			<g>
				<path fill="#CC3746" d="M206.812,74.474c0.464,0,1.568-0.703,0.595-0.703C206.943,73.77,205.839,74.474,206.812,74.474
					L206.812,74.474z"/>
			</g>
		</g>
		<g>
			<g>
				<path fill="#CC3746" d="M198.363,80.556c0.828,0,1.112-1.06,0.129-1.06C197.664,79.496,197.38,80.556,198.363,80.556
					L198.363,80.556z"/>
			</g>
		</g>
		<g>
			<g>
				<path fill="#CC3746" d="M227.308,61.297c0.491,0,1.56-0.745,0.584-0.745C227.401,60.552,226.332,61.297,227.308,61.297
					L227.308,61.297z"/>
			</g>
		</g>
		<g>
			<g>
				<path fill="#CC3746" d="M221.42,50.243c0.569,0,1.533-0.864,0.552-0.864C221.403,49.38,220.439,50.243,221.42,50.243
					L221.42,50.243z"/>
			</g>
		</g>
		<g>
			<g>
				<path fill="#CC3746" d="M239.479,53.369c0.569,0,1.533-0.864,0.552-0.864C239.463,52.505,238.499,53.369,239.479,53.369
					L239.479,53.369z"/>
			</g>
		</g>
		<g>
			<g>
				<path fill="#CC3746" d="M233.03,70.93c0.285,0,1.644-0.562,0.947-0.562C233.692,70.368,232.333,70.93,233.03,70.93L233.03,70.93
					z"/>
			</g>
		</g>
		<g>
			<g>
				<path fill="#CC3746" d="M237.73,42.556c0.507,0,1.555-0.77,0.577-0.77C237.8,41.786,236.753,42.556,237.73,42.556L237.73,42.556
					z"/>
			</g>
		</g>
		<g>
			<g>
				<path fill="#CC3746" d="M246.643,83.356c0.844,0,1.098-1.104,0.117-1.104C245.916,82.253,245.662,83.356,246.643,83.356
					L246.643,83.356z"/>
			</g>
		</g>
		<g>
			<g>
				<path fill="#CC3746" d="M245.253,74.323c0.841,0,1.101-1.096,0.119-1.096C244.531,73.227,244.271,74.323,245.253,74.323
					L245.253,74.323z"/>
			</g>
		</g>
		<g>
			<g>
				<path fill="#CC3746" d="M159.945,80.444c0.551,0,1.54-0.836,0.56-0.836C159.953,79.608,158.965,80.444,159.945,80.444
					L159.945,80.444z"/>
			</g>
		</g>
		<g>
			<g>
				<path fill="#CC3746" d="M77.12,44.136c0.577,0,1.53-0.876,0.549-0.876C77.092,43.26,76.139,44.136,77.12,44.136L77.12,44.136z"
					/>
			</g>
		</g>
		<g>
			<g>
				<path fill="#CC3746" d="M59.413,62.945c0.602,0,1.52-0.914,0.539-0.914C59.35,62.031,58.432,62.945,59.413,62.945L59.413,62.945
					z"/>
			</g>
		</g>
		<g>
			<g>
				<path fill="#CC3746" d="M79.997,55.503c0.635,0,1.506-0.964,0.526-0.964C79.888,54.539,79.017,55.503,79.997,55.503
					L79.997,55.503z"/>
			</g>
		</g>
		<g>
			<g>
				<path fill="#CC3746" d="M65.391,66.024c0.541,0,1.543-0.821,0.564-0.821C65.414,65.203,64.412,66.024,65.391,66.024
					L65.391,66.024z"/>
			</g>
		</g>
		<g>
			<g>
				<path fill="#CC3746" d="M64.936,81.572c0.437,0,1.576-0.662,0.606-0.662C65.105,80.911,63.966,81.572,64.936,81.572
					L64.936,81.572z"/>
			</g>
		</g>
		<g>
			<g>
				<path fill="#CC3746" d="M119.285,66.457c0.426,0,1.579-0.645,0.611-0.645C119.47,65.812,118.318,66.457,119.285,66.457
					L119.285,66.457z"/>
			</g>
		</g>
		<g>
			<g>
				<path fill="#CC3746" d="M102.816,55.444c0.558,0,1.537-0.847,0.557-0.847C102.815,54.597,101.836,55.444,102.816,55.444
					L102.816,55.444z"/>
			</g>
		</g>
		<g>
			<g>
				<path fill="#CC3746" d="M97.589,94.387c0.303,0,1.651-0.591,0.94-0.591C98.226,93.796,96.878,94.387,97.589,94.387
					L97.589,94.387z"/>
			</g>
		</g>
		<g>
			<g>
				<path fill="#CC3746" d="M70.169,90.342c0.551,0,1.54-0.836,0.56-0.836C70.178,89.506,69.189,90.342,70.169,90.342L70.169,90.342
					z"/>
			</g>
		</g>
		<g>
			<g>
				<path fill="#CC3746" d="M29.368,78.384c0.582,0,1.528-0.883,0.547-0.883C29.333,77.501,28.387,78.384,29.368,78.384
					L29.368,78.384z"/>
			</g>
		</g>
		<g>
			<g>
				<path fill="#CC3746" d="M19.278,83.637c0.322,0,1.657-0.622,0.931-0.622C19.886,83.014,18.551,83.637,19.278,83.637
					L19.278,83.637z"/>
			</g>
		</g>
		<g>
			<g>
				<path fill="#CC3746" d="M139.783,78.926c0.295,0,1.648-0.578,0.943-0.578C140.431,78.348,139.078,78.926,139.783,78.926
					L139.783,78.926z"/>
			</g>
		</g>
		<g>
			<g>
				<path fill="#CC3746" d="M140.161,86.395c0.612,0,1.515-0.929,0.535-0.929C140.084,85.466,139.181,86.395,140.161,86.395
					L140.161,86.395z"/>
			</g>
		</g>
		<path opacity="0.3" fill="#FFFFFF" d="M90.418,29.147c0,0-13.197,6.078-18.754,17.191C71.664,46.338,74.79,31.578,90.418,29.147z"
			/>
	</g>
	<path opacity="0.4" fill="#FFFFFF" d="M109.111,15.056c0,0,9.29-11.417,25.526-5.415C134.637,9.641,120.398,6.221,109.111,15.056z"
		/>
	<g>
		<g>
			<g>
				<path fill="#F19C9D" d="M118.769,14.378c0.446,0,1.573-0.676,0.603-0.676C118.925,13.702,117.798,14.378,118.769,14.378
					L118.769,14.378z"/>
			</g>
		</g>
		<g>
			<g>
				<path fill="#F19C9D" d="M112.291,22.319c0.612,0,1.515-0.929,0.535-0.929C112.213,21.389,111.31,22.319,112.291,22.319
					L112.291,22.319z"/>
			</g>
		</g>
		<g>
			<g>
				<path fill="#F19C9D" d="M128.753,12.492c0.279,0,1.642-0.552,0.95-0.552C129.424,11.941,128.062,12.492,128.753,12.492
					L128.753,12.492z"/>
			</g>
		</g>
		<g>
			<g>
				<path fill="#F19C9D" d="M98.736,21.76c0.562,0,1.535-0.853,0.555-0.853C98.729,20.906,97.756,21.76,98.736,21.76L98.736,21.76z"
					/>
			</g>
		</g>
		<g>
			<g>
				<path fill="#F19C9D" d="M95.1,29.612c0.612,0,1.515-0.93,0.535-0.93C95.022,28.682,94.119,29.612,95.1,29.612L95.1,29.612z"/>
			</g>
		</g>
		<g>
			<g>
				<path fill="#F19C9D" d="M124.503,19.342c0.465,0,1.568-0.706,0.595-0.706C124.632,18.636,123.53,19.342,124.503,19.342
					L124.503,19.342z"/>
			</g>
		</g>
		<g>
			<g>
				<path fill="#F19C9D" d="M136.196,15.868c0.825,0,1.115-1.051,0.131-1.051C135.502,14.817,135.212,15.868,136.196,15.868
					L136.196,15.868z"/>
			</g>
		</g>
		<g>
			<g>
				<path fill="#F19C9D" d="M147.511,13.807c0.294,0,1.648-0.577,0.944-0.577C148.16,13.23,146.806,13.807,147.511,13.807
					L147.511,13.807z"/>
			</g>
		</g>
		<g>
			<g>
				<path fill="#F19C9D" d="M115.931,32.715c0.583,0,1.527-0.885,0.547-0.885C115.895,31.831,114.951,32.715,115.931,32.715
					L115.931,32.715z"/>
			</g>
		</g>
		<g>
			<g>
				<path fill="#F19C9D" d="M104.413,27.83c0.81,0,1.127-1.011,0.142-1.011C103.745,26.818,103.427,27.83,104.413,27.83
					L104.413,27.83z"/>
			</g>
		</g>
		<g>
			<g>
				<path fill="#F19C9D" d="M156.772,13.521c0.823,0,1.116-1.046,0.132-1.046C156.082,12.475,155.788,13.521,156.772,13.521
					L156.772,13.521z"/>
			</g>
		</g>
		<g>
			<g>
				<path fill="#F19C9D" d="M170.346,19.342c0.466,0,1.568-0.707,0.594-0.707C170.474,18.635,169.373,19.342,170.346,19.342
					L170.346,19.342z"/>
			</g>
		</g>
		<g>
			<g>
				<path fill="#F19C9D" d="M135.699,20.106c0.443,0,1.574-0.672,0.604-0.672C135.859,19.434,134.729,20.106,135.699,20.106
					L135.699,20.106z"/>
			</g>
		</g>
		<g>
			<g>
				<path fill="#F19C9D" d="M127.193,27.089c0.291,0,1.647-0.572,0.945-0.572C127.847,26.517,126.491,27.089,127.193,27.089
					L127.193,27.089z"/>
			</g>
		</g>
		<g>
			<g>
				<path fill="#F19C9D" d="M147.66,27.084c0.836,0,1.105-1.082,0.123-1.082C146.947,26.001,146.678,27.084,147.66,27.084
					L147.66,27.084z"/>
			</g>
		</g>
		<g>
			<g>
				<path fill="#F19C9D" d="M92.484,34.259c0.558,0,1.537-0.847,0.557-0.847C92.482,33.412,91.504,34.259,92.484,34.259
					L92.484,34.259z"/>
			</g>
		</g>
		<g>
			<g>
				<path fill="#F19C9D" d="M83.17,41.665c0.279,0,1.642-0.551,0.95-0.551C83.842,41.114,82.479,41.665,83.17,41.665L83.17,41.665z"
					/>
			</g>
		</g>
		<g>
			<g>
				<path fill="#F19C9D" d="M87.345,36.393c0.308,0,1.653-0.6,0.937-0.6C87.973,35.793,86.629,36.393,87.345,36.393L87.345,36.393z"
					/>
			</g>
		</g>
		<g>
			<g>
				<path fill="#F19C9D" d="M146.153,19.195c0.615,0,1.514-0.933,0.534-0.933C146.072,18.262,145.172,19.195,146.153,19.195
					L146.153,19.195z"/>
			</g>
		</g>
		<g>
			<g>
				<path fill="#F19C9D" d="M90.116,41.725c0.444,0,1.574-0.672,0.604-0.672C90.276,41.053,89.146,41.725,90.116,41.725
					L90.116,41.725z"/>
			</g>
		</g>
		<g>
			<g>
				<path fill="#F19C9D" d="M105.742,21.398c0.431,0,1.577-0.652,0.609-0.652C105.92,20.747,104.773,21.398,105.742,21.398
					L105.742,21.398z"/>
			</g>
		</g>
		<g>
			<g>
				<path fill="#F19C9D" d="M94.006,25.357c0.843,0,1.099-1.102,0.118-1.102C93.281,24.255,93.024,25.357,94.006,25.357
					L94.006,25.357z"/>
			</g>
		</g>
		<g>
			<g>
				<path fill="#F19C9D" d="M105.165,36.535c0.582,0,1.528-0.883,0.547-0.883C105.13,35.651,104.184,36.535,105.165,36.535
					L105.165,36.535z"/>
			</g>
		</g>
		<g>
			<g>
				<path fill="#F19C9D" d="M99.257,41.468c0.562,0,1.536-0.853,0.555-0.853C99.25,40.616,98.277,41.468,99.257,41.468
					L99.257,41.468z"/>
			</g>
		</g>
		<g>
			<g>
				<path fill="#F19C9D" d="M118.341,25.082c0.478,0,1.564-0.725,0.589-0.725C118.452,24.356,117.366,25.082,118.341,25.082
					L118.341,25.082z"/>
			</g>
		</g>
		<g>
			<g>
				<path fill="#F19C9D" d="M154.719,20.737c0.473,0,1.566-0.717,0.592-0.717C154.838,20.019,153.745,20.737,154.719,20.737
					L154.719,20.737z"/>
			</g>
		</g>
		<g>
			<g>
				<path fill="#F19C9D" d="M140.711,12.743c0.826,0,1.114-1.054,0.13-1.054C140.016,11.689,139.727,12.743,140.711,12.743
					L140.711,12.743z"/>
			</g>
		</g>
		<g>
			<g>
				<path fill="#F19C9D" d="M162.879,20.99c0.464,0,1.568-0.704,0.595-0.704C163.01,20.286,161.906,20.99,162.879,20.99
					L162.879,20.99z"/>
			</g>
		</g>
		<g>
			<g>
				<path fill="#F19C9D" d="M128.675,38.632c0.486,0,1.562-0.737,0.586-0.737C128.775,37.895,127.699,38.632,128.675,38.632
					L128.675,38.632z"/>
			</g>
		</g>
		<g>
			<g>
				<path fill="#F19C9D" d="M131.422,30.995c0.547,0,1.541-0.83,0.561-0.83C131.437,30.165,130.442,30.995,131.422,30.995
					L131.422,30.995z"/>
			</g>
		</g>
	</g>
	<g>
		<g>
			<defs>
				<rect id="SVGID_1_" x="-17.3" y="143.758" width="311.142" height="240.428"/>
			</defs>
			<clipPath id="SVGID_2_">
				<use xlink:href="#SVGID_1_"  overflow="visible"/>
			</clipPath>
			<g clip-path="url(#SVGID_2_)">
				<defs>
					<rect id="SVGID_3_" x="-17.3" y="143.758" width="311.142" height="240.428"/>
				</defs>
				<clipPath id="SVGID_4_">
					<use xlink:href="#SVGID_3_"  overflow="visible"/>
				</clipPath>
				<path clip-path="url(#SVGID_4_)" fill="#CC3746" d="M150.273,203.299c-21.802-0.157-39.774,17.609-40.109,38.748
					c-0.348,21.971,16.873,40.795,39.77,40.779c22.949-0.016,39.873-18.667,39.702-39.765
					C189.93,222.155,172.82,203.461,150.273,203.299 M149.815,277.673c-18.674,0.179-35.15-15.629-34.535-35.667
					c0.558-18.175,15.266-33.753,34.945-33.621c19.529,0.13,34.965,16.219,34.363,35.881
					C184.021,262.73,168.486,277.912,149.815,277.673"/>
				<path clip-path="url(#SVGID_4_)" fill="#CC3746" d="M140.562,249.517c0.295-1.153-0.344-2.05-1.574-2.981
					c-3.271-2.477-4.219-7.124-2.438-10.769c1.835-3.755,6.098-5.78,10.122-4.808c4.035,0.975,6.934,4.695,6.89,8.841
					c-0.043,4.035-2.961,7.804-7.022,8.481c-2.286,0.381-4.036,0.631-3.428,3.601c0.141,0.689-0.525,1.211-1.335,1.171
					c-0.722-0.036-1.137-0.484-1.201-1.17C140.514,251.216,140.562,250.54,140.562,249.517"/>
				<path clip-path="url(#SVGID_4_)" fill="#6E7072" d="M149.987,251.216c3.758,0.029,3.812,0.031,3.731,3.744
					c-0.033,1.516,0.293,2.814,1.117,4.093c1.239,1.924,2.34,3.938,3.483,5.922c0.865,1.501,0.711,2.146-0.901,2.863
					c-3.047,1.354-6.291,1.434-9.542,1.193c-1.887-0.139-3.786-0.326-5.526-1.215c-1.275-0.651-1.717-1.464-0.84-2.794
					c0.83-1.257,1.471-2.641,2.324-3.881c1.694-2.465,2.776-5.065,2.297-8.133c-0.179-1.148,0.404-1.649,1.511-1.677
					C148.424,251.311,149.205,251.255,149.987,251.216"/>
				<path clip-path="url(#SVGID_4_)" fill="#6E7072" d="M160.566,247.15c-0.845,0.217-0.587,0.883-0.593,1.39
					c-0.024,2.182-0.017,4.365-0.007,6.549c0.004,0.854-0.14,1.646-1.173,1.695c-1.12,0.053-1.384-0.745-1.387-1.681
					c-0.005-2.071-0.06-4.144,0.022-6.212c0.039-1-0.304-1.445-1.267-1.532c-0.383-0.035-0.765-0.158-1.131-0.287
					c-2.092-0.735-2.069-0.774-1.118-2.783c1.654-3.497,1.526-6.953-0.594-10.211c-0.629-0.966-0.468-1.347,0.463-1.857
					c3.242-1.774,7.288-1.209,9.882,1.454c2.607,2.677,3.186,6.961,1.001,10.011c-1.073,1.497-1.404,2.94-1.277,4.645
					c0.038,0.5,0.027,1.009-0.018,1.509c-0.062,0.68-0.398,1.163-1.132,1.24c-0.84,0.088-1.22-0.426-1.404-1.141
					C160.598,249.031,161.004,248.05,160.566,247.15"/>
				<path clip-path="url(#SVGID_4_)" fill="#CC3746" d="M161.685,228.75c0.194,1.197-0.087,1.696-1.706,1.278
					c-2.508-0.648-5.038-0.358-7.232,1.18c-0.898,0.63-1.483,0.483-2.365-0.056c-0.97-0.592-0.874-1.244-0.688-2.103
					c0.547-2.534-0.169-4.802-1.765-6.734c-0.794-0.962-0.596-1.304,0.384-1.808C154.315,217.422,161.638,221.822,161.685,228.75"/>
				<path clip-path="url(#SVGID_4_)" fill="#6E7072" d="M148.288,227.628c0.004,2.139,0.002,2.147-2.036,1.79
					c-3.395-0.593-6.324,0.431-8.768,2.736c-0.927,0.874-1.369,0.74-2.05-0.172c-1.795-2.403-1.874-5.979-0.114-8.483
					c1.774-2.522,5.029-3.615,8.03-2.695C146.338,221.719,148.283,224.407,148.288,227.628"/>
				<path clip-path="url(#SVGID_4_)" fill="#CC3746" d="M167.5,239.852c-0.085-3.513-1.332-6.328-4.127-8.329
					c-0.563-0.403-0.365-0.848-0.335-1.331c0.108-1.737,0.13-3.464-0.583-5.112c-0.268-0.622-0.378-1.114,0.596-1.289
					c3.803-0.682,8.021,2.12,9.201,6.184C173.416,233.982,171.392,238.313,167.5,239.852"/>
				<path clip-path="url(#SVGID_4_)" fill="#CC3746" d="M132.395,227.325c0.218,2.446,0.829,4.732,2.745,6.449
					c0.534,0.477,0.316,0.979,0.082,1.52c-0.716,1.655-1.232,3.368-0.961,5.195c0.132,0.886-0.405,0.762-0.9,0.721
					c-2.875-0.236-5.771-3.314-5.992-6.351C127.098,231.117,129.053,228.153,132.395,227.325"/>
				<rect x="80.567" y="297.813" clip-path="url(#SVGID_4_)" fill="#6D6E70" width="3.561" height="15.154"/>
				<path clip-path="url(#SVGID_4_)" fill="#6D6E70" d="M101.511,303.547h-3.925c0,0-0.785-2.972-4.206-2.579
					c0,0-2.341,0.238-3.14,2.579c0,0-1.262,3.477,1.346,5.285c0,0,1.094,0.967,2.566,0.925c0,0,2.818,0.168,3.617-2.523l3.743-0.042
					c0,0-0.799,3.911-3.911,5.173c0,0-6.098,2.608-10.01-2.565c0,0-2.86-4.74,0.169-8.868c0,0,2.142-3.203,6.181-3.161
					C93.939,297.771,99.24,297.253,101.511,303.547"/>
				<polygon clip-path="url(#SVGID_4_)" fill="#6D6E70" points="111.772,300.995 111.772,297.761 103.445,297.761 103.445,312.828 
					111.772,312.828 111.772,309.465 107.104,309.465 107.104,307.167 111.772,307.167 111.772,303.464 107.104,303.464 
					107.104,300.995 				"/>
				<rect x="113.959" y="303.743" clip-path="url(#SVGID_4_)" fill="#6D6E70" width="8.622" height="3.154"/>
				<path clip-path="url(#SVGID_4_)" fill="#6D6E70" d="M140.119,303.599h-3.925c0,0-0.785-2.972-4.206-2.579
					c0,0-2.341,0.238-3.14,2.579c0,0-1.262,3.477,1.346,5.285c0,0,1.094,0.967,2.566,0.925c0,0,2.818,0.168,3.617-2.523l3.743-0.042
					c0,0-0.799,3.911-3.911,5.173c0,0-6.098,2.608-10.01-2.565c0,0-2.86-4.74,0.169-8.868c0,0,2.142-3.203,6.181-3.161
					C132.547,297.824,137.847,297.305,140.119,303.599"/>
				<polygon clip-path="url(#SVGID_4_)" fill="#6D6E70" points="164.651,312.799 170.708,297.813 173.567,297.813 179.511,312.799 
					171.044,312.799 170.988,309.603 174.408,309.547 172.334,304.164 168.633,312.799 				"/>
				<polygon clip-path="url(#SVGID_4_)" fill="#6D6E70" points="180.745,312.799 180.745,297.813 185.736,297.813 188.652,303.939 
					191.68,297.813 196.558,297.813 196.558,312.799 192.913,312.799 192.913,301.977 190.053,307.921 187.306,307.977 
					184.278,301.808 184.222,312.799 				"/>
				<rect x="200.315" y="310.893" clip-path="url(#SVGID_4_)" fill="#CC3746" width="18.898" height="1.907"/>
				<rect x="200.315" y="297.813" clip-path="url(#SVGID_4_)" fill="#CC3746" width="18.898" height="1.907"/>
				<polygon clip-path="url(#SVGID_4_)" fill="#6D6E70" points="205.138,309.239 208.301,301.411 209.795,301.411 212.899,309.239 
					208.477,309.239 208.448,307.569 210.234,307.54 209.15,304.728 207.217,309.239 				"/>
				<polygon clip-path="url(#SVGID_4_)" fill="#6D6E70" points="200.315,301.411 202.278,301.411 202.278,307.528 204.717,307.528 
					204.717,309.126 200.315,309.126 				"/>
				<path clip-path="url(#SVGID_4_)" fill="#6D7071" d="M150.053,307.801c0,0,3.632-0.924,3.518-4.561c0,0,0.198-4.185-3.745-5.427
					h-7.268h-0.337v15.127h3.802v-4.734l3.461,4.734h4.54L150.053,307.801z M148.322,305.376h-2.327v-4.388h2.128
					c2.185,0.606,1.93,2.454,1.93,2.454C149.882,304.943,148.322,305.376,148.322,305.376"/>
				<polygon clip-path="url(#SVGID_4_)" fill="#6D6E70" points="163.586,300.995 163.586,297.761 155.259,297.761 155.259,312.828 
					163.586,312.828 163.586,309.465 158.918,309.465 158.918,307.167 163.586,307.167 163.586,303.464 158.918,303.464 
					158.918,300.995 				"/>
				<path clip-path="url(#SVGID_4_)" fill="#6D6E70" d="M218.245,305.047c0,0,0.799-0.589,0.715-1.654c0,0-0.154-1.776-1.976-1.982
					h-3.154v0.117v7.71h3.617c0,0,1.907-0.336,1.879-2.383C219.325,306.855,219.339,305.58,218.245,305.047 M215.568,303.183h1.354
					c0.448,0.799-0.046,1.36-0.046,1.36h-1.309V303.183z M217.033,307.528h-1.465v-1.36h1.516
					C217.586,306.968,217.033,307.528,217.033,307.528"/>
			</g>
		</g>
	</g>
</g>
<g id="Layer_2">
	<path opacity="0.1" fill="#F19C9D" d="M283.214,178.915L133.244,345.279c0,0,130.844,1.865,139.303-27.575L283.214,178.915z"/>
</g>
</svg>
