<?xml version="1.0" encoding="utf-8"?>
<!-- Generator: Adobe Illustrator 17.0.0, SVG Export Plug-In . SVG Version: 6.00 Build 0)  -->
<!DOCTYPE svg PUBLIC "-//W3C//DTD SVG 1.1//EN" "http://www.w3.org/Graphics/SVG/1.1/DTD/svg11.dtd">
<svg version="1.1" id="Layer_1" xmlns="http://www.w3.org/2000/svg" xmlns:xlink="http://www.w3.org/1999/xlink" x="0px" y="0px"
	 width="283.479px" height="335.806px" viewBox="7.683 4.643 283.479 335.806" enable-background="new 7.683 4.643 283.479 335.806"
	 xml:space="preserve">
<g opacity="0.6">
	
		<image overflow="visible" enable-background="new    " width="1354" height="479" xlink:href="5FCE4158E5E934C.png"  transform="matrix(0.2393 0 0 0.2385 -12.3427 259.0156)">
	</image>
</g>
<path fill="#F7E06D" d="M73.099,46.584c0,0,7.392-22.538,32.058-22.799l4.5,26.572l-11.087,13L73.099,46.584z"/>
<path fill="#F7E06D" d="M93.598,46.318c0,0,6.101-44.46,63.997-35.794c0,0,31.934,4.633,41.915,40.65l-16.686,75.35L93.598,46.318z"
	/>
<path fill="#F7E06D" d="M107.453,21.548c0,0,9.229-22.598,32.633-12.144v17.787L107.453,21.548z"/>
<path fill="#F8EB9F" d="M134.888,175.689c0,0-22.266-0.885-17.626-9.392c0,0-19.33-1.31-9.467-13.92c0,0-7.786-9.523,4.896-12.492
	c0,0-17.235-16.502-11.623-35.124c0,0-10.433-15.815,11.354-24.881c0,0,21.043-51.724,86.675-46.315c0,0,73.62,7.764,79.395,70.185
	c0,0,8.763,41.234-19.798,62.474C258.693,166.224,167.553,196.149,134.888,175.689z"/>
<path fill="#FDF7B8" d="M29.848,165.103c0,0-17.69-4.246-12.524-11.079c0,0-15.265-4.167-5.216-13.833c0,0-4.617-9.667,6.049-10.333
	c0,0-11-17.333-3.333-33c0,0-5.667-15.667,13.333-20.333c0,0,25.667-42.667,77.333-27.667c0,0,57.667,18.333,51.667,74.667
	c0,0,0.002,37.982-26.499,52.408C130.658,175.932,52.538,188.349,29.848,165.103z"/>
<path fill="#F1F2F2" d="M19.657,173.358l16.5,135l0.667,2.917c2.002,13.845,57.083,18.083,57.083,18.083s37.25,4.5,88,1.5
	c0,0,83.25-4,86.75-25.5l10.5-134.75C279.157,170.608,135.157,198.191,19.657,173.358z"/>
<path fill="#F7E06D" d="M17.324,154.024c0,0-4.5,5.333,9.833,10.333c0,0,20.5,6,44.333,8.833c0,0,38.667,3.333,63.5,2.667
	c0,0,53.333,1.167,91.5-4c0,0,36.167-5.667,44.167-9.667c0,0,20.333-6.833,5.167-16l1.667-2.333c0,0,24.574,11.333,3.954,26
	c0,0-15.787,12.667-69.287,15.167c0,0-45.833,3-71.667,2.5c0,0-94.839,2.833-123.836-16.917c0,0-14.164-8.083-2.997-18.917
	L17.324,154.024z"/>
<g>
	<g>
		<g>
			<defs>
				<rect id="SVGID_1_" x="-15.485" y="138.258" width="311.142" height="240.428"/>
			</defs>
			<clipPath id="SVGID_2_">
				<use xlink:href="#SVGID_1_"  overflow="visible"/>
			</clipPath>
			<g clip-path="url(#SVGID_2_)">
				<g>
					<defs>
						<rect id="SVGID_3_" x="-15.485" y="138.258" width="311.142" height="240.428"/>
					</defs>
					<defs>
						<rect id="SVGID_4_" x="-15.485" y="138.258" width="311.142" height="240.428"/>
					</defs>
					<defs>
						<rect id="SVGID_5_" x="-15.485" y="138.258" width="311.142" height="240.428"/>
					</defs>
					<defs>
						<rect id="SVGID_6_" x="-15.485" y="138.258" width="311.142" height="240.428"/>
					</defs>
					<defs>
						<rect id="SVGID_7_" x="-15.485" y="138.258" width="311.142" height="240.428"/>
					</defs>
					<defs>
						<rect id="SVGID_8_" x="-15.485" y="138.258" width="311.142" height="240.428"/>
					</defs>
					<defs>
						<rect id="SVGID_9_" x="-15.485" y="138.258" width="311.142" height="240.428"/>
					</defs>
					<defs>
						<rect id="SVGID_10_" x="-15.485" y="138.258" width="311.142" height="240.428"/>
					</defs>
					<defs>
						<rect id="SVGID_11_" x="-15.485" y="138.258" width="311.142" height="240.428"/>
					</defs>
					<defs>
						<rect id="SVGID_12_" x="-15.485" y="138.258" width="311.142" height="240.428"/>
					</defs>
					<defs>
						<rect id="SVGID_13_" x="-15.485" y="138.258" width="311.142" height="240.428"/>
					</defs>
					<defs>
						<rect id="SVGID_14_" x="-15.485" y="138.258" width="311.142" height="240.428"/>
					</defs>
					<defs>
						<rect id="SVGID_15_" x="-15.485" y="138.258" width="311.142" height="240.428"/>
					</defs>
					<defs>
						<rect id="SVGID_16_" x="-15.485" y="138.258" width="311.142" height="240.428"/>
					</defs>
					<defs>
						<rect id="SVGID_17_" x="-15.485" y="138.258" width="311.142" height="240.428"/>
					</defs>
					<defs>
						<rect id="SVGID_18_" x="-15.485" y="138.258" width="311.142" height="240.428"/>
					</defs>
					<defs>
						<rect id="SVGID_19_" x="-15.485" y="138.258" width="311.142" height="240.428"/>
					</defs>
					<defs>
						<rect id="SVGID_20_" x="-15.485" y="138.258" width="311.142" height="240.428"/>
					</defs>
					<defs>
						<rect id="SVGID_21_" x="-15.485" y="138.258" width="311.142" height="240.428"/>
					</defs>
					<defs>
						<rect id="SVGID_22_" x="-15.485" y="138.258" width="311.142" height="240.428"/>
					</defs>
					<defs>
						<rect id="SVGID_23_" x="-15.485" y="138.258" width="311.142" height="240.428"/>
					</defs>
					<defs>
						<rect id="SVGID_24_" x="-15.485" y="138.258" width="311.142" height="240.428"/>
					</defs>
					<clipPath id="SVGID_25_">
						<use xlink:href="#SVGID_3_"  overflow="visible"/>
					</clipPath>
					<clipPath id="SVGID_26_" clip-path="url(#SVGID_25_)">
						<use xlink:href="#SVGID_4_"  overflow="visible"/>
					</clipPath>
					<clipPath id="SVGID_27_" clip-path="url(#SVGID_26_)">
						<use xlink:href="#SVGID_5_"  overflow="visible"/>
					</clipPath>
					<clipPath id="SVGID_28_" clip-path="url(#SVGID_27_)">
						<use xlink:href="#SVGID_6_"  overflow="visible"/>
					</clipPath>
					<clipPath id="SVGID_29_" clip-path="url(#SVGID_28_)">
						<use xlink:href="#SVGID_7_"  overflow="visible"/>
					</clipPath>
					<clipPath id="SVGID_30_" clip-path="url(#SVGID_29_)">
						<use xlink:href="#SVGID_8_"  overflow="visible"/>
					</clipPath>
					<clipPath id="SVGID_31_" clip-path="url(#SVGID_30_)">
						<use xlink:href="#SVGID_9_"  overflow="visible"/>
					</clipPath>
					<clipPath id="SVGID_32_" clip-path="url(#SVGID_31_)">
						<use xlink:href="#SVGID_10_"  overflow="visible"/>
					</clipPath>
					<clipPath id="SVGID_33_" clip-path="url(#SVGID_32_)">
						<use xlink:href="#SVGID_11_"  overflow="visible"/>
					</clipPath>
					<clipPath id="SVGID_34_" clip-path="url(#SVGID_33_)">
						<use xlink:href="#SVGID_12_"  overflow="visible"/>
					</clipPath>
					<clipPath id="SVGID_35_" clip-path="url(#SVGID_34_)">
						<use xlink:href="#SVGID_13_"  overflow="visible"/>
					</clipPath>
					<clipPath id="SVGID_36_" clip-path="url(#SVGID_35_)">
						<use xlink:href="#SVGID_14_"  overflow="visible"/>
					</clipPath>
					<clipPath id="SVGID_37_" clip-path="url(#SVGID_36_)">
						<use xlink:href="#SVGID_15_"  overflow="visible"/>
					</clipPath>
					<clipPath id="SVGID_38_" clip-path="url(#SVGID_37_)">
						<use xlink:href="#SVGID_16_"  overflow="visible"/>
					</clipPath>
					<clipPath id="SVGID_39_" clip-path="url(#SVGID_38_)">
						<use xlink:href="#SVGID_17_"  overflow="visible"/>
					</clipPath>
					<clipPath id="SVGID_40_" clip-path="url(#SVGID_39_)">
						<use xlink:href="#SVGID_18_"  overflow="visible"/>
					</clipPath>
					<clipPath id="SVGID_41_" clip-path="url(#SVGID_40_)">
						<use xlink:href="#SVGID_19_"  overflow="visible"/>
					</clipPath>
					<clipPath id="SVGID_42_" clip-path="url(#SVGID_41_)">
						<use xlink:href="#SVGID_20_"  overflow="visible"/>
					</clipPath>
					<clipPath id="SVGID_43_" clip-path="url(#SVGID_42_)">
						<use xlink:href="#SVGID_21_"  overflow="visible"/>
					</clipPath>
					<clipPath id="SVGID_44_" clip-path="url(#SVGID_43_)">
						<use xlink:href="#SVGID_22_"  overflow="visible"/>
					</clipPath>
					<clipPath id="SVGID_45_" clip-path="url(#SVGID_44_)">
						<use xlink:href="#SVGID_23_"  overflow="visible"/>
					</clipPath>
					<clipPath id="SVGID_46_" clip-path="url(#SVGID_45_)">
						<use xlink:href="#SVGID_24_"  overflow="visible"/>
					</clipPath>
					<path clip-path="url(#SVGID_46_)" fill="#F7E06D" d="M152.089,197.799c-21.802-0.157-39.774,17.609-40.109,38.748
						c-0.348,21.971,16.873,40.795,39.77,40.779c22.949-0.016,39.873-18.667,39.702-39.765
						C191.745,216.656,174.635,197.961,152.089,197.799 M151.63,272.173c-18.674,0.179-35.15-15.629-34.535-35.667
						c0.558-18.175,15.266-33.753,34.945-33.621c19.529,0.13,34.965,16.219,34.363,35.881
						C185.837,257.23,170.301,272.412,151.63,272.173"/>
					<path clip-path="url(#SVGID_46_)" fill="#F7E06D" d="M142.378,244.017c0.295-1.153-0.344-2.05-1.574-2.981
						c-3.271-2.477-4.219-7.124-2.438-10.769c1.835-3.755,6.098-5.78,10.122-4.808c4.035,0.975,6.934,4.695,6.89,8.841
						c-0.043,4.035-2.961,7.804-7.022,8.481c-2.286,0.381-4.036,0.631-3.428,3.601c0.141,0.689-0.525,1.211-1.335,1.171
						c-0.722-0.036-1.137-0.484-1.201-1.17C142.329,245.716,142.378,245.04,142.378,244.017"/>
					<path clip-path="url(#SVGID_46_)" fill="#6E7072" d="M151.802,245.716c3.758,0.029,3.812,0.031,3.731,3.744
						c-0.033,1.516,0.293,2.814,1.117,4.093c1.239,1.924,2.34,3.938,3.483,5.922c0.865,1.501,0.711,2.146-0.901,2.863
						c-3.047,1.354-6.291,1.434-9.542,1.193c-1.887-0.139-3.786-0.326-5.526-1.215c-1.275-0.651-1.717-1.464-0.84-2.794
						c0.83-1.257,1.471-2.641,2.324-3.881c1.694-2.465,2.776-5.065,2.297-8.133c-0.179-1.148,0.404-1.649,1.511-1.677
						C150.239,245.811,151.02,245.755,151.802,245.716"/>
					<path clip-path="url(#SVGID_46_)" fill="#6E7072" d="M162.381,241.65c-0.845,0.217-0.587,0.883-0.593,1.39
						c-0.024,2.182-0.017,4.365-0.007,6.549c0.004,0.854-0.14,1.646-1.173,1.695c-1.12,0.053-1.384-0.745-1.387-1.681
						c-0.005-2.071-0.06-4.144,0.022-6.212c0.039-1-0.304-1.445-1.267-1.532c-0.383-0.035-0.765-0.158-1.131-0.287
						c-2.092-0.735-2.069-0.774-1.118-2.783c1.654-3.497,1.526-6.953-0.594-10.211c-0.629-0.966-0.468-1.347,0.463-1.857
						c3.242-1.774,7.288-1.209,9.882,1.454c2.607,2.677,3.186,6.961,1.001,10.011c-1.073,1.497-1.404,2.94-1.277,4.645
						c0.038,0.5,0.027,1.009-0.018,1.509c-0.062,0.68-0.398,1.163-1.132,1.24c-0.84,0.088-1.22-0.426-1.404-1.141
						C162.413,243.531,162.82,242.55,162.381,241.65"/>
					<path clip-path="url(#SVGID_46_)" fill="#F7E06D" d="M163.501,223.25c0.194,1.197-0.087,1.696-1.706,1.278
						c-2.508-0.648-5.038-0.358-7.232,1.18c-0.898,0.63-1.483,0.483-2.365-0.056c-0.97-0.592-0.874-1.244-0.688-2.103
						c0.547-2.534-0.169-4.802-1.765-6.734c-0.794-0.962-0.596-1.304,0.384-1.808C156.13,211.922,163.454,216.322,163.501,223.25"/>
					<path clip-path="url(#SVGID_46_)" fill="#6E7072" d="M150.104,222.128c0.004,2.139,0.002,2.147-2.036,1.79
						c-3.395-0.593-6.324,0.431-8.768,2.736c-0.927,0.874-1.369,0.74-2.05-0.172c-1.795-2.403-1.874-5.979-0.114-8.483
						c1.774-2.522,5.029-3.615,8.03-2.695C148.153,216.219,150.098,218.907,150.104,222.128"/>
					<path clip-path="url(#SVGID_46_)" fill="#F7E06D" d="M169.315,234.352c-0.085-3.513-1.332-6.328-4.127-8.329
						c-0.563-0.403-0.365-0.848-0.335-1.331c0.108-1.737,0.13-3.464-0.583-5.112c-0.268-0.621-0.378-1.114,0.596-1.289
						c3.803-0.682,8.021,2.12,9.201,6.184C175.231,228.482,173.208,232.813,169.315,234.352"/>
					<path clip-path="url(#SVGID_46_)" fill="#F7E06D" d="M134.211,221.825c0.218,2.446,0.829,4.732,2.745,6.449
						c0.533,0.477,0.316,0.979,0.082,1.52c-0.716,1.655-1.232,3.368-0.961,5.195c0.132,0.886-0.405,0.762-0.9,0.721
						c-2.875-0.236-5.771-3.314-5.992-6.351C128.914,225.617,130.868,222.653,134.211,221.825"/>
					<rect x="82.382" y="292.313" clip-path="url(#SVGID_46_)" fill="#6D6E70" width="3.561" height="15.154"/>
					<path clip-path="url(#SVGID_46_)" fill="#6D6E70" d="M103.326,298.047h-3.925c0,0-0.785-2.972-4.206-2.579
						c0,0-2.341,0.238-3.14,2.579c0,0-1.262,3.477,1.346,5.285c0,0,1.094,0.967,2.566,0.925c0,0,2.818,0.168,3.617-2.523
						l3.743-0.042c0,0-0.799,3.911-3.911,5.173c0,0-6.098,2.608-10.01-2.565c0,0-2.86-4.74,0.169-8.868c0,0,2.142-3.203,6.181-3.161
						C95.755,292.271,101.055,291.753,103.326,298.047"/>
					<polygon clip-path="url(#SVGID_46_)" fill="#6D6E70" points="113.588,295.495 113.588,292.261 105.26,292.261 105.26,307.328 
						113.588,307.328 113.588,303.965 108.92,303.965 108.92,301.667 113.588,301.667 113.588,297.964 108.92,297.964 
						108.92,295.495 					"/>
					<rect x="115.775" y="298.243" clip-path="url(#SVGID_46_)" fill="#6D6E70" width="8.622" height="3.154"/>
					<path clip-path="url(#SVGID_46_)" fill="#6D6E70" d="M141.934,298.099h-3.925c0,0-0.785-2.972-4.206-2.579
						c0,0-2.341,0.238-3.14,2.579c0,0-1.262,3.477,1.346,5.285c0,0,1.094,0.967,2.566,0.925c0,0,2.818,0.168,3.617-2.523
						l3.743-0.042c0,0-0.799,3.911-3.911,5.173c0,0-6.098,2.608-10.01-2.565c0,0-2.86-4.74,0.169-8.868c0,0,2.142-3.203,6.181-3.161
						C134.362,292.324,139.663,291.805,141.934,298.099"/>
					<polygon clip-path="url(#SVGID_46_)" fill="#6D6E70" points="166.467,307.299 172.523,292.313 175.383,292.313 
						181.327,307.299 172.859,307.299 172.803,304.103 176.224,304.047 174.149,298.664 170.448,307.299 					"/>
					<polygon clip-path="url(#SVGID_46_)" fill="#6D6E70" points="182.56,307.299 182.56,292.313 187.551,292.313 190.467,298.439 
						193.495,292.313 198.374,292.313 198.374,307.299 194.729,307.299 194.729,296.477 191.869,302.421 189.121,302.477 
						186.093,296.308 186.037,307.299 					"/>
					<rect x="202.13" y="305.393" clip-path="url(#SVGID_46_)" fill="#F7E06D" width="18.898" height="1.907"/>
					<rect x="202.13" y="292.313" clip-path="url(#SVGID_46_)" fill="#F7E06D" width="18.898" height="1.907"/>
					<polygon clip-path="url(#SVGID_46_)" fill="#6D6E70" points="206.953,303.739 210.116,295.911 211.61,295.911 214.715,303.739 
						210.292,303.739 210.263,302.069 212.049,302.04 210.966,299.228 209.033,303.739 					"/>
					<polygon clip-path="url(#SVGID_46_)" fill="#6D6E70" points="202.131,295.911 204.093,295.911 204.093,302.028 
						206.533,302.028 206.533,303.626 202.131,303.626 					"/>
					<path clip-path="url(#SVGID_46_)" fill="#6D7071" d="M151.868,302.301c0,0,3.632-0.924,3.518-4.561
						c0,0,0.198-4.185-3.745-5.427h-7.268h-0.337v15.127h3.802v-4.734l3.461,4.734h4.54L151.868,302.301z M150.137,299.876h-2.327
						v-4.388h2.128c2.185,0.606,1.93,2.454,1.93,2.454C151.698,299.443,150.137,299.876,150.137,299.876"/>
					<polygon clip-path="url(#SVGID_46_)" fill="#6D6E70" points="165.401,295.495 165.401,292.261 157.074,292.261 
						157.074,307.328 165.401,307.328 165.401,303.965 160.733,303.965 160.733,301.667 165.401,301.667 165.401,297.964 
						160.733,297.964 160.733,295.495 					"/>
					<path clip-path="url(#SVGID_46_)" fill="#6D6E70" d="M220.061,299.547c0,0,0.799-0.589,0.715-1.654
						c0,0-0.154-1.776-1.976-1.982h-3.154v0.117v7.71h3.617c0,0,1.907-0.336,1.879-2.383
						C221.14,301.355,221.154,300.08,220.061,299.547 M217.383,297.683h1.354c0.448,0.799-0.046,1.36-0.046,1.36h-1.309v-1.36
						H217.383z M218.848,302.028h-1.465v-1.36h1.516C219.401,301.468,218.848,302.028,218.848,302.028"/>
				</g>
			</g>
		</g>
		<path fill="#FDF7B8" d="M73.099,173.325c0,0,2.308,7.954,8.558,6.619c0,0,8-1.586,10.5,3.414c0,0,6.25,13.365,14.25,4.307
			c0,0,6.75-5.307,12.5-3.557c0,0,15.858,1.776,21.179-15.237L73.099,173.325z"/>
		<path fill="#FDF7B8" d="M135.424,177.477c0,0,10.017-8.481,14.981-23.85C150.405,153.627,128.93,167.407,135.424,177.477z"/>
		<g>
			<ellipse fill="#FDF7B8" cx="99.22" cy="205.358" rx="4.188" ry="4.25"/>
			<path fill="#FDF7B8" d="M95.032,205.358c0,0,0.25-2.875,4.187-9.375c0,0,4.688,6,4.188,10.625L95.032,205.358z"/>
		</g>
		<g>
			<ellipse fill="#FDF7B8" cx="99.201" cy="241.965" rx="4.188" ry="4.25"/>
			<path fill="#FDF7B8" d="M95.014,241.965c0,0,0.25-2.875,4.188-9.375c0,0,4.688,6,4.188,10.625L95.014,241.965z"/>
		</g>
		<g>
			<ellipse fill="#F8EB9F" cx="237.567" cy="196.858" rx="4.188" ry="4.25"/>
			<path fill="#F8EB9F" d="M233.379,196.858c0,0,0.25-2.875,4.188-9.375c0,0,4.688,6,4.188,10.625L233.379,196.858z"/>
		</g>
		<g>
			<ellipse fill="#F8EB9F" cx="229.161" cy="202.89" rx="2.606" ry="2.645"/>
			<path fill="#F8EB9F" d="M226.555,202.89c0,0,0.156-1.789,2.606-5.834c0,0,2.917,3.734,2.606,6.612L226.555,202.89z"/>
		</g>
		<path fill="#F8EB9F" d="M259.566,165.552c0,0,7.258,10.028,15.258,0c0,0,1.202-5.694,4.934-5.694c0,0,6.191-2.242,0.962-9.271
			c0,0,0.797-4.162-4.55-8.946L259.566,165.552z"/>
		<path fill="#F8EB9F" d="M207.697,173.849c0,0,0.96,7.228,7.96,5.994c0,0,4-5.996,11.5-2.365c0,0,11.646,15.183,10.323-7.468
			L207.697,173.849z"/>
		<path fill="#F8EB9F" d="M217.436,37.597c0,0,55.315-1.691,59.768,57.534L217.436,37.597z"/>
		<path fill="#F8EB9F" d="M207.697,35.065c0,0,23.23-10.6,40.845,10.596l-10.957,14.196L207.697,35.065z"/>
		<path fill="#F8EB9F" d="M279.157,128.223c0,0,7.535,8.081,0.601,16.858l-8.566,7.378l-2.702-14.201L279.157,128.223z"/>
		<path opacity="0.3" fill="#FDF7B8" d="M279.157,171.319l-149,160.57c0,0,129.875,2.844,138.333-25.754L279.157,171.319z"/>
		<path opacity="0.3" fill="#FFFFFF" enable-background="new    " d="M135.657,58.293c0,0,27.833-24,68-20.333
			C203.657,37.96,160.491,26.96,135.657,58.293z"/>
		<path opacity="0.3" fill="#FFFFFF" enable-background="new    " d="M38.903,67.964c0,0,25.789-22.721,62.175-18.348
			C101.078,49.616,62.128,38.067,38.903,67.964z"/>
		<path fill="#F7E06D" d="M93.598,25.783c0,0,3.225-12.191,18.059-10.892l5,18.278L93.598,25.783z"/>
		<g>
			<g>
				<path fill="#FDF7B8" d="M121.516,14.871c1.621,0,2.253-2.026,0.283-2.026C120.178,12.844,119.546,14.871,121.516,14.871
					L121.516,14.871z"/>
			</g>
		</g>
		<g>
			<g>
				<path fill="#FDF7B8" d="M115.296,22.485c1.704,0,2.182-2.254,0.222-2.254C113.814,20.231,113.336,22.485,115.296,22.485
					L115.296,22.485z"/>
			</g>
		</g>
		<g>
			<g>
				<path fill="#FDF7B8" d="M131.26,13.099c1.604,0,2.267-1.982,0.295-1.982C129.951,11.117,129.288,13.099,131.26,13.099
					L131.26,13.099z"/>
			</g>
		</g>
		<g>
			<g>
				<path fill="#FDF7B8" d="M101.855,21.72c1.136,0,3.066-1.725,1.105-1.725C101.824,19.995,99.894,21.72,101.855,21.72
					L101.855,21.72z"/>
			</g>
		</g>
		<g>
			<g>
				<path fill="#FDF7B8" d="M97.959,28.918c0.568,0,3.288-1.12,1.896-1.12C99.287,27.798,96.568,28.918,97.959,28.918L97.959,28.918
					z"/>
			</g>
		</g>
		<g>
			<g>
				<path fill="#FDF7B8" d="M127.028,19.665c1.654,0,2.225-2.116,0.259-2.116C125.633,17.55,125.061,19.665,127.028,19.665
					L127.028,19.665z"/>
			</g>
		</g>
		<g>
			<g>
				<path fill="#FDF7B8" d="M137.593,15.928c1.082,0,3.087-1.642,1.128-1.642C137.639,14.287,135.635,15.928,137.593,15.928
					L137.593,15.928z"/>
			</g>
		</g>
		<g>
			<g>
				<path fill="#FDF7B8" d="M148.467,13.947c0.603,0,3.301-1.178,1.881-1.178C149.745,12.769,147.047,13.947,148.467,13.947
					L148.467,13.947z"/>
			</g>
		</g>
		<g>
			<g>
				<path fill="#FDF7B8" d="M118.314,32.068c0.937,0,3.134-1.421,1.187-1.421C118.564,30.647,116.367,32.068,118.314,32.068
					L118.314,32.068z"/>
			</g>
		</g>
		<g>
			<g>
				<path fill="#FDF7B8" d="M106.724,27.221c0.634,0,3.311-1.227,1.867-1.227C107.957,25.994,105.28,27.221,106.724,27.221
					L106.724,27.221z"/>
			</g>
		</g>
		<g>
			<g>
				<path fill="#FDF7B8" d="M80.137,45.84c1.293,0,3.001-1.964,1.041-1.964C79.885,43.876,78.177,45.84,80.137,45.84L80.137,45.84z"
					/>
			</g>
		</g>
		<g>
			<g>
				<path fill="#FDF7B8" d="M157.332,13.637c1.027,0,3.106-1.559,1.15-1.559C157.455,12.078,155.377,13.637,157.332,13.637
					L157.332,13.637z"/>
			</g>
		</g>
		<g>
			<g>
				<path fill="#FDF7B8" d="M170.617,19.516c1.197,0,3.042-1.817,1.081-1.817C170.501,17.699,168.656,19.516,170.617,19.516
					L170.617,19.516z"/>
			</g>
		</g>
		<g>
			<g>
				<path fill="#FDF7B8" d="M137.298,20.008c0.859,0,3.155-1.3,1.219-1.3C137.657,18.707,135.362,20.008,137.298,20.008
					L137.298,20.008z"/>
			</g>
		</g>
		<g>
			<g>
				<path fill="#FDF7B8" d="M129.355,26.97c1.136,0,3.066-1.725,1.105-1.725C129.324,25.245,127.394,26.97,129.355,26.97
					L129.355,26.97z"/>
			</g>
		</g>
		<g>
			<g>
				<path fill="#FDF7B8" d="M148.57,26.589c0.965,0,3.126-1.464,1.175-1.464C148.78,25.126,146.619,26.589,148.57,26.589
					L148.57,26.589z"/>
			</g>
		</g>
		<g>
			<g>
				<path fill="#FDF7B8" d="M95.828,33.619c1.004,0,3.113-1.523,1.159-1.523C95.983,32.096,93.874,33.619,95.828,33.619
					L95.828,33.619z"/>
			</g>
		</g>
		<g>
			<g>
				<path fill="#FDF7B8" d="M87.124,41.041c1.23,0,3.028-1.867,1.067-1.867C86.961,39.174,85.163,41.041,87.124,41.041
					L87.124,41.041z"/>
			</g>
		</g>
		<g>
			<g>
				<path fill="#FDF7B8" d="M91.118,35.937c1.203,0,3.04-1.826,1.078-1.826C90.994,34.111,89.157,35.937,91.118,35.937
					L91.118,35.937z"/>
			</g>
		</g>
		<g>
			<g>
				<path fill="#FDF7B8" d="M147.762,19.357c1.61,0,2.262-1.999,0.29-1.999C146.442,17.358,145.791,19.357,147.762,19.357
					L147.762,19.357z"/>
			</g>
		</g>
		<g>
			<g>
				<path fill="#FDF7B8" d="M94.044,41.226c1.698,0,2.188-2.236,0.227-2.236C92.573,38.99,92.083,41.226,94.044,41.226
					L94.044,41.226z"/>
			</g>
		</g>
		<g>
			<g>
				<g>
					<path fill="#F4D44D" d="M66.726,56.979c0.643,0,3.314-1.242,1.863-1.242C67.946,55.737,65.275,56.979,66.726,56.979
						L66.726,56.979z"/>
				</g>
			</g>
			<g>
				<g>
					<path fill="#F4D44D" d="M80.728,58.986c0.653,0,3.317-1.257,1.859-1.257C81.934,57.729,79.27,58.986,80.728,58.986
						L80.728,58.986z"/>
				</g>
			</g>
			<g>
				<g>
					<path fill="#F4D44D" d="M59.215,59.522c0.594,0,3.298-1.163,1.885-1.163C60.506,58.36,57.802,59.522,59.215,59.522
						L59.215,59.522z"/>
				</g>
			</g>
			<g>
				<g>
					<path fill="#F4D44D" d="M47.797,66.815c1.261,0,3.015-1.915,1.054-1.915C47.59,64.9,45.836,66.815,47.797,66.815L47.797,66.815
						z"/>
				</g>
			</g>
			<g>
				<g>
					<path fill="#F4D44D" d="M81.513,67.36c1.612,0,2.26-2.004,0.289-2.004C80.189,65.355,79.542,67.36,81.513,67.36L81.513,67.36z"
						/>
				</g>
			</g>
			<g>
				<g>
					<path fill="#F4D44D" d="M75.211,60.996c0.845,0,3.159-1.278,1.225-1.278C75.591,59.719,73.278,60.996,75.211,60.996
						L75.211,60.996z"/>
				</g>
			</g>
			<g>
				<g>
					<path fill="#F4D44D" d="M98.108,56.731c1.151,0,3.06-1.747,1.099-1.747C98.056,54.984,96.147,56.731,98.108,56.731
						L98.108,56.731z"/>
				</g>
			</g>
			<g>
				<g>
					<path fill="#F4D44D" d="M98.091,66.671c1.072,0,3.09-1.627,1.132-1.627C98.151,65.044,96.133,66.671,98.091,66.671
						L98.091,66.671z"/>
				</g>
			</g>
			<g>
				<g>
					<path fill="#F4D44D" d="M88.572,68.097c0.975,0,3.122-1.479,1.171-1.479C88.768,66.618,86.62,68.097,88.572,68.097
						L88.572,68.097z"/>
				</g>
			</g>
			<g>
				<g>
					<path fill="#F4D44D" d="M89.03,58.924c1.66,0,2.22-2.133,0.254-2.133C87.624,56.791,87.064,58.924,89.03,58.924L89.03,58.924z"
						/>
				</g>
			</g>
			<g>
				<g>
					<path fill="#F4D44D" d="M58.142,68.585c0.643,0,3.314-1.242,1.863-1.242C59.362,67.343,56.691,68.585,58.142,68.585
						L58.142,68.585z"/>
				</g>
			</g>
			<g>
				<g>
					<path fill="#F4D44D" d="M40.937,69.716c1.131,0,3.068-1.717,1.108-1.717C40.913,67.999,38.976,69.716,40.937,69.716
						L40.937,69.716z"/>
				</g>
			</g>
			<g>
				<g>
					<path fill="#F4D44D" d="M56.161,63.613c1.677,0,2.206-2.178,0.242-2.178C54.726,61.435,54.198,63.613,56.161,63.613
						L56.161,63.613z"/>
				</g>
			</g>
			<g>
				<g>
					<path fill="#F4D44D" d="M51.295,70.959c1.686,0,2.198-2.203,0.235-2.203C49.844,68.756,49.332,70.959,51.295,70.959
						L51.295,70.959z"/>
				</g>
			</g>
			<g>
				<g>
					<path fill="#F4D44D" d="M73.704,55.4c0.548,0,3.279-1.084,1.906-1.084C75.063,54.316,72.331,55.4,73.704,55.4L73.704,55.4z"/>
				</g>
			</g>
			<g>
				<g>
					<path fill="#F4D44D" d="M74.534,69.939c1.671,0,2.21-2.163,0.246-2.163C73.109,67.776,72.57,69.939,74.534,69.939
						L74.534,69.939z"/>
				</g>
			</g>
			<g>
				<g>
					<path fill="#F4D44D" d="M93.058,53.392c1.198,0,3.042-1.819,1.08-1.819C92.94,51.573,91.097,53.392,93.058,53.392
						L93.058,53.392z"/>
				</g>
			</g>
			<g>
				<g>
					<path fill="#F4D44D" d="M110.713,77.431c0.585,0,3.294-1.148,1.889-1.148C112.017,76.284,109.307,77.431,110.713,77.431
						L110.713,77.431z"/>
				</g>
			</g>
			<g>
				<g>
					<path fill="#F4D44D" d="M91.122,78.283c1.22,0,3.033-1.851,1.071-1.851C90.973,76.432,89.16,78.283,91.122,78.283
						L91.122,78.283z"/>
				</g>
			</g>
			<g>
				<g>
					<path fill="#F4D44D" d="M76.037,74.948c1.678,0,2.205-2.182,0.241-2.182C74.6,72.767,74.073,74.948,76.037,74.948
						L76.037,74.948z"/>
				</g>
			</g>
			<g>
				<g>
					<path fill="#F4D44D" d="M62.136,77.455c0.613,0,3.305-1.195,1.876-1.195C63.399,76.26,60.707,77.455,62.136,77.455
						L62.136,77.455z"/>
				</g>
			</g>
			<g>
				<g>
					<path fill="#F4D44D" d="M46.798,79.355c0.593,0,3.297-1.162,1.885-1.162C48.09,78.193,45.386,79.355,46.798,79.355
						L46.798,79.355z"/>
				</g>
			</g>
			<g>
				<g>
					<path fill="#F4D44D" d="M109.54,71.962c1.688,0,2.196-2.209,0.234-2.209C108.087,69.753,107.578,71.962,109.54,71.962
						L109.54,71.962z"/>
				</g>
			</g>
			<g>
				<g>
					<path fill="#F4D44D" d="M160.045,67.48c1.701,0,2.185-2.245,0.224-2.245C158.569,65.235,158.084,67.48,160.045,67.48
						L160.045,67.48z"/>
				</g>
			</g>
			<g>
				<g>
					<path fill="#F4D44D" d="M104.603,60.716c1.131,0,3.068-1.716,1.108-1.716C104.58,58.999,102.643,60.716,104.603,60.716
						L104.603,60.716z"/>
				</g>
			</g>
			<g>
				<g>
					<path fill="#F4D44D" d="M122.544,70.495c0.843,0,3.159-1.275,1.226-1.275C122.927,69.22,120.611,70.495,122.544,70.495
						L122.544,70.495z"/>
				</g>
			</g>
			<g>
				<g>
					<path fill="#F4D44D" d="M120.206,79.404c0.553,0,3.281-1.093,1.903-1.093C121.556,78.311,118.828,79.404,120.206,79.404
						L120.206,79.404z"/>
				</g>
			</g>
			<g>
				<g>
					<path fill="#F4D44D" d="M129.637,81.341c1.295,0,3-1.967,1.04-1.967C129.382,79.374,127.678,81.341,129.637,81.341
						L129.637,81.341z"/>
				</g>
			</g>
			<g>
				<g>
					<path fill="#F4D44D" d="M116.102,62.709c1.122,0,3.072-1.702,1.111-1.702C116.091,61.006,114.141,62.709,116.102,62.709
						L116.102,62.709z"/>
				</g>
			</g>
			<g>
				<g>
					<path fill="#F4D44D" d="M33.092,85.174c1.076,0,3.089-1.633,1.13-1.633C33.147,83.541,31.134,85.174,33.092,85.174
						L33.092,85.174z"/>
				</g>
			</g>
			<g>
				<g>
					<path fill="#F4D44D" d="M19.079,84.624c1.009,0,3.111-1.532,1.157-1.532C19.226,83.092,17.124,84.624,19.079,84.624
						L19.079,84.624z"/>
				</g>
			</g>
			<g>
				<g>
					<path fill="#F4D44D" d="M19.547,91.987c1.705,0,2.181-2.258,0.221-2.258C18.062,89.729,17.587,91.987,19.547,91.987
						L19.547,91.987z"/>
				</g>
			</g>
			<g>
				<g>
					<path fill="#F4D44D" d="M54.519,87.383c1.63,0,2.245-2.051,0.276-2.051C53.165,85.332,52.55,87.383,54.519,87.383
						L54.519,87.383z"/>
				</g>
			</g>
			<g>
				<g>
					<path fill="#F4D44D" d="M86.622,103.285c1.221,0,3.032-1.854,1.071-1.854C86.471,101.43,84.661,103.285,86.622,103.285
						L86.622,103.285z"/>
				</g>
			</g>
			<g>
				<g>
					<path fill="#F4D44D" d="M71.548,93.01c0.862,0,3.155-1.304,1.218-1.304C71.905,91.706,69.612,93.01,71.548,93.01L71.548,93.01z
						"/>
				</g>
			</g>
			<g>
				<g>
					<path fill="#F4D44D" d="M85.72,90.459c0.619,0,3.306-1.203,1.874-1.203C86.975,89.256,84.288,90.459,85.72,90.459L85.72,90.459
						z"/>
				</g>
			</g>
			<g>
				<g>
					<path fill="#F4D44D" d="M108.545,56.997c0.846,0,3.159-1.28,1.225-1.28C108.923,55.718,106.611,56.997,108.545,56.997
						L108.545,56.997z"/>
				</g>
			</g>
			<g>
				<g>
					<path fill="#F4D44D" d="M109.057,93.041c0.902,0,3.144-1.367,1.201-1.367C109.356,91.674,107.114,93.041,109.057,93.041
						L109.057,93.041z"/>
				</g>
			</g>
			<g>
				<g>
					<path fill="#F4D44D" d="M101.546,83.981c1.702,0,2.184-2.247,0.223-2.247C100.067,81.734,99.585,83.981,101.546,83.981
						L101.546,83.981z"/>
				</g>
			</g>
			<g>
				<g>
					<path fill="#F4D44D" d="M135.714,70.934c0.588,0,3.295-1.153,1.887-1.153C137.013,69.781,134.305,70.934,135.714,70.934
						L135.714,70.934z"/>
				</g>
			</g>
			<g>
				<g>
					<path fill="#F4D44D" d="M131.545,71.498c0.846,0,3.159-1.28,1.225-1.28C131.923,70.218,129.611,71.498,131.545,71.498
						L131.545,71.498z"/>
				</g>
			</g>
			<g opacity="0.5">
				
					<image overflow="visible" enable-background="new    " width="317" height="313" xlink:href="5FCE4158E5E934D.png"  transform="matrix(0.2362 0 0 0.2362 108.4298 24.9949)">
				</image>
			</g>
			<g opacity="0.5">
				
					<image overflow="visible" enable-background="new    " width="317" height="313" xlink:href="5FCE4158E5E934E.png"  transform="matrix(0.2362 0 0 0.2362 126.4261 24.9662)">
				</image>
			</g>
			<g>
				
					<image overflow="visible" enable-background="new    " width="317" height="313" xlink:href="5FCE4158E5E934B.png"  transform="matrix(0.2362 0 0 0.2362 134.0939 39.3082)">
				</image>
			</g>
			<g>
				<g>
					<path fill="#F4D44D" d="M194.542,53.081c0.564,0,3.286-1.113,1.898-1.113C195.875,51.968,193.153,53.081,194.542,53.081
						L194.542,53.081z"/>
				</g>
			</g>
			<g>
				<g>
					<path fill="#F4D44D" d="M165.587,60.655c1.051,0,3.097-1.595,1.14-1.595C165.676,59.06,163.63,60.655,165.587,60.655
						L165.587,60.655z"/>
				</g>
			</g>
			<g>
				<g>
					<path fill="#F4D44D" d="M172.547,55.767c0.587,0,3.295-1.151,1.888-1.151C173.848,54.615,171.139,55.767,172.547,55.767
						L172.547,55.767z"/>
				</g>
			</g>
			<g>
				<g>
					<path fill="#F4D44D" d="M170.01,49.516c1.604,0,2.267-1.983,0.294-1.983C168.7,47.533,168.038,49.516,170.01,49.516
						L170.01,49.516z"/>
				</g>
			</g>
			<g>
				<g>
					<path fill="#F4D44D" d="M188.034,61.937c1.67,0,2.211-2.16,0.247-2.16C186.611,59.778,186.069,61.937,188.034,61.937
						L188.034,61.937z"/>
				</g>
			</g>
			<g>
				<g>
					<path fill="#F4D44D" d="M187.585,51.646c1.039,0,3.101-1.578,1.145-1.578C187.69,50.069,185.628,51.646,187.585,51.646
						L187.585,51.646z"/>
				</g>
			</g>
			<g>
				<g>
					<path fill="#F4D44D" d="M212.634,43.162c1.279,0,3.007-1.943,1.047-1.943C212.402,41.22,210.674,43.162,212.634,43.162
						L212.634,43.162z"/>
				</g>
			</g>
			<g>
				<g>
					<path fill="#F4D44D" d="M213.013,52.859c1.612,0,2.261-2.002,0.289-2.002C211.69,50.856,211.041,52.859,213.013,52.859
						L213.013,52.859z"/>
				</g>
			</g>
			<g>
				<g>
					<path fill="#F4D44D" d="M230.944,43.409c1.165,0,3.055-1.769,1.094-1.769C230.872,41.64,228.983,43.409,230.944,43.409
						L230.944,43.409z"/>
				</g>
			</g>
			<g>
				<g>
					<path fill="#F4D44D" d="M226.897,38.567c0.936,0,3.134-1.42,1.187-1.42C227.148,37.148,224.95,38.567,226.897,38.567
						L226.897,38.567z"/>
				</g>
			</g>
			<g>
				<g>
					<path fill="#F4D44D" d="M232.255,58.327c1.058,0,3.095-1.605,1.137-1.605C232.335,56.722,230.298,58.327,232.255,58.327
						L232.255,58.327z"/>
				</g>
			</g>
			<g>
				<g>
					<path fill="#F4D44D" d="M166.922,72.329c1.06,0,3.094-1.609,1.137-1.609C166.999,70.72,164.965,72.329,166.922,72.329
						L166.922,72.329z"/>
				</g>
			</g>
			<g>
				<g>
					<path fill="#F4D44D" d="M154.561,70.224c0.922,0,3.138-1.399,1.193-1.399C154.831,68.825,152.616,70.224,154.561,70.224
						L154.561,70.224z"/>
				</g>
			</g>
			<g>
				<g>
					<path fill="#F4D44D" d="M154.6,57.369c1.113,0,3.075-1.689,1.115-1.689C154.602,55.68,152.64,57.369,154.6,57.369L154.6,57.369
						z"/>
				</g>
			</g>
			<g>
				<g>
					<path fill="#F4D44D" d="M140.603,64.38c1.128,0,3.07-1.711,1.109-1.711C140.584,62.669,138.642,64.38,140.603,64.38
						L140.603,64.38z"/>
				</g>
			</g>
			<g>
				<g>
					<path fill="#F4D44D" d="M150.296,78.144c1.255,0,3.017-1.906,1.057-1.906C150.097,76.238,148.335,78.144,150.296,78.144
						L150.296,78.144z"/>
				</g>
			</g>
			<g>
				<g>
					<path fill="#F4D44D" d="M192.551,67.45c0.607,0,3.302-1.185,1.879-1.185C193.823,66.265,191.127,67.45,192.551,67.45
						L192.551,67.45z"/>
				</g>
			</g>
			<g>
				<g>
					<path fill="#F4D44D" d="M179.211,66.83c0.845,0,3.159-1.278,1.225-1.278C179.592,65.552,177.278,66.83,179.211,66.83
						L179.211,66.83z"/>
				</g>
			</g>
			<g>
				<g>
					<path fill="#F4D44D" d="M181.227,45.555c0.92,0,3.139-1.394,1.194-1.394C181.501,44.16,179.282,45.555,181.227,45.555
						L181.227,45.555z"/>
				</g>
			</g>
			<g>
				<g>
					<path fill="#F4D44D" d="M202.953,45.11c1.211,0,3.036-1.838,1.075-1.838C202.817,43.272,200.992,45.11,202.953,45.11
						L202.953,45.11z"/>
				</g>
			</g>
			<g>
				<g>
					<path fill="#F4D44D" d="M187.262,74.687c1.093,0,3.082-1.659,1.123-1.659C187.292,73.028,185.303,74.687,187.262,74.687
						L187.262,74.687z"/>
				</g>
			</g>
			<g>
				<g>
					<path fill="#F4D44D" d="M216.298,63.486c1.267,0,3.012-1.924,1.052-1.924C216.083,61.562,214.338,63.486,216.298,63.486
						L216.298,63.486z"/>
				</g>
			</g>
			<g>
				<g>
					<path fill="#F4D44D" d="M243.222,49.202c0.895,0,3.146-1.356,1.204-1.356C243.531,47.846,241.28,49.202,243.222,49.202
						L243.222,49.202z"/>
				</g>
			</g>
			<g>
				<g>
					<path fill="#F4D44D" d="M242.877,65.755c0.573,0,3.29-1.128,1.894-1.128C244.198,64.627,241.481,65.755,242.877,65.755
						L242.877,65.755z"/>
				</g>
			</g>
			<g>
				<g>
					<path fill="#F4D44D" d="M237.281,78.09c1.185,0,3.047-1.799,1.086-1.799C237.182,76.292,235.32,78.09,237.281,78.09
						L237.281,78.09z"/>
				</g>
			</g>
			<g>
				<g>
					<path fill="#F4D44D" d="M216.684,78.21c1.625,0,2.25-2.037,0.28-2.037C215.339,76.172,214.714,78.21,216.684,78.21
						L216.684,78.21z"/>
				</g>
			</g>
			<g>
				<g>
					<path fill="#F4D44D" d="M210.565,69.24c0.944,0,3.132-1.431,1.184-1.431C210.806,67.809,208.617,69.24,210.565,69.24
						L210.565,69.24z"/>
				</g>
			</g>
			<g>
				<g>
					<path fill="#F4D44D" d="M200.539,83.737c0.552,0,3.281-1.091,1.904-1.091C201.891,82.645,199.162,83.737,200.539,83.737
						L200.539,83.737z"/>
				</g>
			</g>
			<g>
				<g>
					<path fill="#F4D44D" d="M202.555,58.796c0.623,0,3.308-1.211,1.872-1.211C203.803,57.586,201.119,58.796,202.555,58.796
						L202.555,58.796z"/>
				</g>
			</g>
			<g>
				<g>
					<path fill="#F4D44D" d="M225.627,50.804c1.247,0,3.021-1.893,1.06-1.893C225.441,48.911,223.666,50.804,225.627,50.804
						L225.627,50.804z"/>
				</g>
			</g>
			<g>
				<g>
					<path fill="#F4D44D" d="M225.299,70.49c1.271,0,3.01-1.931,1.05-1.931C225.078,68.559,223.339,70.49,225.299,70.49
						L225.299,70.49z"/>
				</g>
			</g>
			<g>
				<g>
					<path fill="#F4D44D" d="M250.906,59.266c0.977,0,3.122-1.483,1.17-1.483C251.098,57.783,248.954,59.266,250.906,59.266
						L250.906,59.266z"/>
				</g>
			</g>
			<g>
				<g>
					<path fill="#F4D44D" d="M250.877,69.159c0.839,0,3.16-1.268,1.228-1.268C251.265,67.89,248.944,69.159,250.877,69.159
						L250.877,69.159z"/>
				</g>
			</g>
			<g>
				<g>
					<path fill="#F4D44D" d="M167.376,92.638c1.694,0,2.191-2.227,0.229-2.227C165.911,90.411,165.414,92.638,167.376,92.638
						L167.376,92.638z"/>
				</g>
			</g>
			<g>
				<g>
					<path fill="#F4D44D" d="M182.213,90.098c0.585,0,3.294-1.148,1.889-1.148C183.517,88.95,180.807,90.098,182.213,90.098
						L182.213,90.098z"/>
				</g>
			</g>
			<g>
				<g>
					<path fill="#F4D44D" d="M215.89,37.468c0.63,0,3.31-1.221,1.869-1.221C217.128,36.247,214.448,37.468,215.89,37.468
						L215.89,37.468z"/>
				</g>
			</g>
			<g>
				<g>
					<path fill="#F4D44D" d="M259.213,79.432c0.585,0,3.294-1.148,1.888-1.148C260.516,78.283,257.807,79.432,259.213,79.432
						L259.213,79.432z"/>
				</g>
			</g>
			<g>
				<g>
					<path fill="#F4D44D" d="M259.221,67.462c0.622,0,3.307-1.209,1.872-1.209C260.471,66.253,257.786,67.462,259.221,67.462
						L259.221,67.462z"/>
				</g>
			</g>
			<g>
				<g>
					<path fill="#F4D44D" d="M221.711,87.643c1.698,0,2.187-2.238,0.226-2.238C220.239,85.405,219.75,87.643,221.711,87.643
						L221.711,87.643z"/>
				</g>
			</g>
			<g>
				<g>
					<path fill="#F4D44D" d="M164.238,88.596c0.973,0,3.123-1.476,1.172-1.476C164.437,87.119,162.287,88.596,164.238,88.596
						L164.238,88.596z"/>
				</g>
			</g>
			<g>
				<g>
					<path fill="#F4D44D" d="M174.953,83.778c1.212,0,3.036-1.84,1.074-1.84C174.816,81.937,172.992,83.778,174.953,83.778
						L174.953,83.778z"/>
				</g>
			</g>
			<g>
				<g>
					<path fill="#F4D44D" d="M173.229,69.561c0.928,0,3.137-1.407,1.191-1.407C173.492,68.154,171.283,69.561,173.229,69.561
						L173.229,69.561z"/>
				</g>
			</g>
			<g>
				<g>
					<path fill="#F4D44D" d="M180.375,55.633c1.691,0,2.193-2.218,0.231-2.218C178.915,53.415,178.413,55.633,180.375,55.633
						L180.375,55.633z"/>
				</g>
			</g>
			<g>
				<g>
					<path fill="#F4D44D" d="M205.226,72.148c0.646,0,3.315-1.247,1.862-1.247C206.442,70.901,203.773,72.148,205.226,72.148
						L205.226,72.148z"/>
				</g>
			</g>
			<g>
				<g>
					<path fill="#F4D44D" d="M196.892,77.811c0.642,0,3.314-1.24,1.864-1.24C198.114,76.571,195.442,77.811,196.892,77.811
						L196.892,77.811z"/>
				</g>
			</g>
			<g>
				<g>
					<path fill="#F4D44D" d="M225.27,59.716c1.131,0,3.068-1.717,1.108-1.717C225.246,57.999,223.31,59.716,225.27,59.716
						L225.27,59.716z"/>
				</g>
			</g>
			<g>
				<g>
					<path fill="#F4D44D" d="M220.037,49.282c1.678,0,2.204-2.183,0.241-2.183C218.599,47.1,218.073,49.282,220.037,49.282
						L220.037,49.282z"/>
				</g>
			</g>
			<g>
				<g>
					<path fill="#F4D44D" d="M236.967,52.163c1.28,0,3.006-1.945,1.046-1.945C236.733,50.219,235.008,52.163,236.967,52.163
						L236.967,52.163z"/>
				</g>
			</g>
			<g>
				<g>
					<path fill="#F4D44D" d="M230.921,68.988c1.051,0,3.097-1.595,1.14-1.595C231.01,67.394,228.963,68.988,230.921,68.988
						L230.921,68.988z"/>
				</g>
			</g>
			<g>
				<g>
					<path fill="#F4D44D" d="M235.244,41.618c1.002,0,3.114-1.521,1.16-1.521C235.402,40.097,233.29,41.618,235.244,41.618
						L235.244,41.618z"/>
				</g>
			</g>
			<g>
				<g>
					<path fill="#F4D44D" d="M243.546,80.501c0.851,0,3.158-1.287,1.223-1.287C243.918,79.214,241.611,80.501,243.546,80.501
						L243.546,80.501z"/>
				</g>
			</g>
			<g>
				<g>
					<path fill="#F4D44D" d="M242.239,71.931c0.976,0,3.122-1.481,1.171-1.481C242.434,70.451,240.287,71.931,242.239,71.931
						L242.239,71.931z"/>
				</g>
			</g>
			<g>
				<g>
					<path fill="#F4D44D" d="M161.013,78.192c1.612,0,2.26-2.003,0.289-2.003C159.69,76.19,159.041,78.192,161.013,78.192
						L161.013,78.192z"/>
				</g>
			</g>
			<g>
				<g>
					<path fill="#F4D44D" d="M64.118,61.272c1.204,0,3.039-1.828,1.078-1.828C63.992,59.444,62.157,61.272,64.118,61.272
						L64.118,61.272z"/>
				</g>
			</g>
			<g>
				<g>
					<path fill="#F4D44D" d="M83.882,54.155c1.269,0,3.011-1.928,1.051-1.928C83.664,52.227,81.922,54.155,83.882,54.155
						L83.882,54.155z"/>
				</g>
			</g>
			<g>
				<g>
					<path fill="#F4D44D" d="M69.843,64.178c1.082,0,3.087-1.642,1.128-1.642C69.889,62.537,67.885,64.178,69.843,64.178
						L69.843,64.178z"/>
				</g>
			</g>
			<g>
				<g>
					<path fill="#F4D44D" d="M69.384,79.019c0.874,0,3.152-1.323,1.213-1.323C69.723,77.696,67.446,79.019,69.384,79.019
						L69.384,79.019z"/>
				</g>
			</g>
			<g>
				<g>
					<path fill="#F4D44D" d="M121.546,64.502c0.852,0,3.157-1.289,1.222-1.289C121.916,63.213,119.611,64.502,121.546,64.502
						L121.546,64.502z"/>
				</g>
			</g>
			<g>
				<g>
					<path fill="#F4D44D" d="M105.767,54.038c1.116,0,3.074-1.694,1.114-1.694C105.765,52.344,103.807,54.038,105.767,54.038
						L105.767,54.038z"/>
				</g>
			</g>
			<g>
				<g>
					<path fill="#F4D44D" d="M100.551,91.282c0.605,0,3.302-1.181,1.88-1.181C101.825,90.1,99.129,91.282,100.551,91.282
						L100.551,91.282z"/>
				</g>
			</g>
			<g>
				<g>
					<path fill="#F4D44D" d="M74.431,87.526c1.101,0,3.079-1.671,1.12-1.671C74.45,85.855,72.471,87.526,74.431,87.526
						L74.431,87.526z"/>
				</g>
			</g>
			<g>
				<g>
					<path fill="#F4D44D" d="M35.277,76.074c1.164,0,3.056-1.766,1.094-1.766C35.207,74.308,33.316,76.074,35.277,76.074
						L35.277,76.074z"/>
				</g>
			</g>
			<g>
				<g>
					<path fill="#F4D44D" d="M25.393,80.98c0.645,0,3.315-1.245,1.863-1.245C26.61,79.735,23.941,80.98,25.393,80.98L25.393,80.98z"
						/>
				</g>
			</g>
			<g>
				<g>
					<path fill="#F4D44D" d="M141.048,76.436c0.59,0,3.296-1.157,1.886-1.157C142.344,75.279,139.637,76.436,141.048,76.436
						L141.048,76.436z"/>
				</g>
			</g>
			<g>
				<g>
					<path fill="#F4D44D" d="M141.622,83.787c1.224,0,3.031-1.858,1.07-1.858C141.468,81.928,139.661,83.787,141.622,83.787
						L141.622,83.787z"/>
				</g>
			</g>
		</g>
		<path opacity="0.4" fill="#FFFFFF" enable-background="new    " d="M94.157,28.358c0,0-12.667,5.833-18,16.5
			C76.157,44.858,79.157,30.691,94.157,28.358z"/>
		<path opacity="0.4" fill="#FFFFFF" enable-background="new    " d="M113.407,14.794c0,0,8.917-10.958,24.5-5.198
			C137.907,9.597,124.241,6.315,113.407,14.794z"/>
		<g>
			<g>
				<path fill="#FDF7B8" d="M108.548,21.259c0.861,0,3.155-1.303,1.218-1.303C108.905,19.956,106.612,21.259,108.548,21.259
					L108.548,21.259z"/>
			</g>
		</g>
		<g>
			<g>
				<path fill="#FDF7B8" d="M97.54,25.292c1.686,0,2.198-2.203,0.235-2.203C96.089,23.089,95.577,25.292,97.54,25.292L97.54,25.292z
					"/>
			</g>
		</g>
		<g>
			<g>
				<path fill="#FDF7B8" d="M108.027,35.907c1.164,0,3.055-1.766,1.094-1.766C107.957,34.141,106.066,35.907,108.027,35.907
					L108.027,35.907z"/>
			</g>
		</g>
		<g>
			<g>
				<path fill="#FDF7B8" d="M102.352,40.627c1.123,0,3.071-1.705,1.111-1.705C102.339,38.922,100.392,40.627,102.352,40.627
					L102.352,40.627z"/>
			</g>
		</g>
		<g>
			<g>
				<path fill="#FDF7B8" d="M120.651,24.833c0.956,0,3.128-1.451,1.179-1.451C120.874,23.382,118.702,24.833,120.651,24.833
					L120.651,24.833z"/>
			</g>
		</g>
		<g>
			<g>
				<path fill="#FDF7B8" d="M155.566,20.658c0.946,0,3.131-1.435,1.183-1.435C155.803,19.224,153.618,20.658,155.566,20.658
					L155.566,20.658z"/>
			</g>
		</g>
		<g>
			<g>
				<path fill="#FDF7B8" d="M142.36,13.162c1.651,0,2.228-2.108,0.261-2.108C140.97,11.054,140.393,13.162,142.36,13.162
					L142.36,13.162z"/>
			</g>
		</g>
		<g>
			<g>
				<path fill="#FDF7B8" d="M163.396,20.895c0.929,0,3.136-1.408,1.19-1.408C163.657,19.487,161.449,20.895,163.396,20.895
					L163.396,20.895z"/>
			</g>
		</g>
		<g>
			<g>
				<path fill="#FDF7B8" d="M130.571,37.845c0.971,0,3.123-1.474,1.173-1.474C130.772,36.371,128.62,37.845,130.571,37.845
					L130.571,37.845z"/>
			</g>
		</g>
		<g>
			<g>
				<path fill="#FDF7B8" d="M133.221,30.563c1.094,0,3.082-1.66,1.123-1.66C133.25,28.902,131.262,30.563,133.221,30.563
					L133.221,30.563z"/>
			</g>
		</g>
	</g>
</g>
</svg>
