<?xml version="1.0" encoding="utf-8"?>
<!-- Generator: Adobe Illustrator 17.0.0, SVG Export Plug-In . SVG Version: 6.00 Build 0)  -->
<!DOCTYPE svg PUBLIC "-//W3C//DTD SVG 1.1//EN" "http://www.w3.org/Graphics/SVG/1.1/DTD/svg11.dtd">
<svg version="1.1" id="Layer_1" xmlns="http://www.w3.org/2000/svg" xmlns:xlink="http://www.w3.org/1999/xlink" x="0px" y="0px"
	 width="320.88px" height="320.665px" viewBox="0 0 320.88 320.665" enable-background="new 0 0 320.88 320.665"
	 xml:space="preserve">
<g opacity="0.6" enable-background="new    ">
	<ellipse id="SVGID_1_" fill="#FFFFFF" cx="159.915" cy="160.333" rx="159.915" ry="160.333"/>
</g>
<path fill="#F2F2F2" d="M10.025,107.631c0,0,22.808-80.434,112.404-103.384c0,0,27.263,49.05,9.596,93.384l-6.333,25.333
	l-17.667-17.333l-10-9.667l-7.667-2l-14.667-1c0,0-17,1.667-19,1.667s-41.667,10.333-41.667,10.333L10.025,107.631z"/>
<g>
	<g>
		<g>
			<defs>
				<circle id="SVGID_2_" cx="160.44" cy="160.225" r="160.44"/>
			</defs>
			<clipPath id="SVGID_3_">
				<use xlink:href="#SVGID_2_"  overflow="visible"/>
			</clipPath>
			<g clip-path="url(#SVGID_3_)">
				<g>
					<g>
						<g>
							<defs>
								<circle id="SVGID_4_" cx="153.082" cy="160.225" r="160.44"/>
							</defs>
							<clipPath id="SVGID_5_">
								<use xlink:href="#SVGID_4_"  overflow="visible"/>
							</clipPath>
							<g clip-path="url(#SVGID_5_)">
								<path fill="none" d="M133.529,72.81c0.097-0.992,0.152-1.891,0.178-2.681c-0.001,0.009-0.002,0.019-0.003,0.028
									C133.705,70.157,133.668,71.157,133.529,72.81z"/>
								<path fill="none" d="M102.86,43.317c2.429,3.837,4.012,6.248,4.012,6.248c0.557,0.947,1.13,1.882,1.711,2.799
									c-0.255-0.441-0.5-0.881-0.731-1.317C107.852,51.046,105.593,47.577,102.86,43.317z"/>
								<path fill="none" d="M117.853,65.139c1.49,1.829,2.446,2.909,2.446,2.909c0.392,0.457,0.764,0.91,1.119,1.358
									c-1.021-1.389-2.112-2.757-3.051-3.669C118.366,65.736,118.171,65.512,117.853,65.139z"/>
								<path fill="none" d="M119.568,92.058c0.002,0.005,0.004,0.009,0.006,0.014c0.394-2.424,0.368-4.545,0.127-6.326
									C119.943,87.898,119.818,90.122,119.568,92.058z"/>
								<path fill="#CCCCCC" d="M142.025,61.332c0,0-0.754-8.751-3.998-20.896c0,0-6.337-22.453-7.619-25.319
									c0,0-3.847-11.797-4.828-12.797h-9.731c0,0,5.921,12.56,11.495,31.09c0,0,4.021,13.637,4.803,17.844
									c0,0,2.263,12.406,1.56,18.844c-0.026,0.79-0.081,1.704-0.178,2.696c-0.367,4.37-1.453,13.338-4.499,20.654l-2.218,8.32
									c0.144,0.122,0.279,0.251,0.428,0.371c0,0,1.44,1.956,2.581,5.18c0.835-2.326,2.139-5.691,3.908-9.475
									c0,0,6.183-13.579,6.937-18.482C140.667,79.362,142.854,73.402,142.025,61.332z"/>
								<path fill="#F2F2F2" d="M107.852,51.046c0.231,0.436,0.476,0.876,0.731,1.317c3.34,5.267,6.952,9.93,9.269,12.775
									c0.318,0.374,0.514,0.598,0.514,0.598c0.94,0.912,2.031,2.28,3.051,3.669c5.452,6.879,6.649,12.6,6.649,12.6
									c2.037,9.58-1.36,18.26-1.36,18.26c-0.121,0.307-0.252,0.679-0.387,1.081c0.16,0.144,0.327,0.284,0.493,0.425l2.218-8.316
									c3.045-7.316,4.131-16.276,4.499-20.646c0.139-1.653,0.175-2.653,0.175-2.653c0.001-0.009,0.002-0.019,0.003-0.028
									c0.703-6.438-1.56-18.813-1.56-18.813c-0.782-4.207-4.803-17.906-4.803-17.906c-5.573-18.529-11.495-31.09-11.495-31.09
									H80.32c-0.131,0-0.177,0.246-0.158,0.457c5.154,12.128,16.596,30.837,22.698,40.477
									C105.593,47.515,107.852,51.046,107.852,51.046z"/>
								<path fill="#F2F2F2" d="M115.721,111.877c-0.419-0.52-0.901-1.051-1.457-1.588c0,0-9.505-5.281-13.427-11.165
									c0,0-2.565-3.772-8.6-4.979c0,0-18.013-4.603-43.556-1.462c-0.669,0.15-26.829,6.061-42.905,13.543l-8.714,14.32
									c0.087-0.055,41.051-26.098,86.263-25.495c0,0,5.286-0.226,8.454,2.188c0,0,5.886,4.262,7.471,5.695
									c0,0,12.243,11.572,15.854,14.943c-0.006-0.024-0.01-0.045-0.01-0.045C115.236,115.874,115.456,113.864,115.721,111.877z"/>
								<path fill="#F2F2F2" d="M62.083,55.052c0,0,23.979,1.367,42.535,10.721c0,0,10.556,8.875,14.026,23.374
									c0.155,0.647,0.291,1.218,0.419,1.755c0.132,0.327,0.302,0.719,0.504,1.156c0.25-1.936,0.376-4.16,0.133-6.313
									c-0.566-4.177-2.268-6.498-2.268-6.498c-0.754-0.754-4.375-5.092-4.375-5.092c-7.242-6.638-23.686-34.926-23.686-34.926
									c-4.073-6.185-20.517-36.66-20.517-36.66L39.179,51.334C46.461,52.824,54.438,54.213,62.083,55.052z"/>
								<polygon fill="#F2F2F2" points="-2.957,2.32 -2.96,2.32 -2.945,84.747 -2.944,83.675 								"/>
								<polygon fill="#F2F2F2" points="-2.941,109.878 -2.939,120.32 -2.938,120.32 -2.939,111.107 								"/>
								<path fill="#FFFFFF" d="M126.813,101.772c-0.166-0.141-0.333-0.282-0.493-0.425c-0.791,2.362-1.73,5.944-1.73,5.944
									c-1.358,3.772-0.688,10.429-0.688,10.429c0.151,5.884-4.106,5.318-4.106,5.318c-0.296-0.025-0.569-0.089-0.832-0.17
									c0.995,5.964,3.147,10.959,3.147,10.959c5.28,9.957,3.168,19.766,3.168,19.766c-2.867,9.957-0.453,20.372-0.453,20.372
									c1.66,11.315,0.302,19.17,0.302,19.17c-2.263,14.182-0.302,25.063-0.302,25.063c1.207,10.259,0.905,19.005,0.905,19.005
									c-0.905,7.996-0.151,23.117-0.151,23.117h6.035c0.905-18-0.453-26.21-0.453-26.21c-0.905-6.487,0.302-13.483,0.302-13.483
									c1.81-8.298-0.453-27.485-0.453-27.485c-0.754-8.298,1.056-16.609,1.056-16.609c3.017-14.936-0.754-26.258-0.754-26.258
									c-0.604-6.336,0.604-8.603,0.604-8.603c3.168-9.656,0-16.446,0-16.446c-1.66-2.112-1.207-5.583-1.207-5.583
									c1.039-4.896,0.215-9.203-0.889-12.322c-1.141-3.224-2.581-5.18-2.581-5.18
									C127.092,102.021,126.957,101.894,126.813,101.772z"/>
								<path fill="#FFFFFF" d="M119.064,90.902c-0.128-0.537-0.264-1.109-0.419-1.755c-3.47-14.499-14.026-23.374-14.026-23.374
									c-18.557-9.354-42.535-10.721-42.535-10.721c-7.645-0.839-15.623-2.228-22.904-3.718L5.777,106.227
									c16.076-7.482,42.237-13.392,42.905-13.543c25.543-3.141,43.556,1.462,43.556,1.462c6.035,1.207,8.6,4.979,8.6,4.979
									c3.923,5.884,13.427,11.165,13.427,11.165c0.556,0.537,1.037,1.068,1.457,1.588c1.288-9.652,3.673-18.768,3.673-18.768
									c0.073-0.355,0.124-0.694,0.179-1.037c-0.002-0.005-0.004-0.009-0.006-0.014C119.366,91.62,119.196,91.229,119.064,90.902z"
									/>
								<path fill="#D6D6D6" d="M123.902,117.719c0,0-0.669-6.657,0.688-10.429c0,0,0.939-3.582,1.73-5.944
									c0.135-0.402,0.266-0.774,0.387-1.081c0,0,3.397-8.68,1.36-18.26c0,0-1.197-5.72-6.649-12.6
									c-0.355-0.448-0.727-0.901-1.119-1.358c0,0-0.956-1.08-2.446-2.909c-2.317-2.845-5.929-7.508-9.269-12.775
									c-0.582-0.917-1.155-1.852-1.711-2.799c0,0-1.583-2.411-4.012-6.248c-6.102-9.64-17.544-28.411-22.698-40.539
									c-0.047-0.11-0.099-0.457-0.144-0.457H69.306h-0.453c0,0,16.445,30.599,20.518,36.785c0,0,16.445,28.35,23.686,34.988
									c0,0,3.621,4.369,4.375,5.123c0,0,1.701,2.337,2.268,6.513c0.241,1.781,0.267,3.91-0.127,6.334
									c-0.056,0.343-0.106,0.686-0.179,1.041c0,0-2.385,9.119-3.673,18.77c-0.265,1.988-0.485,3.998-0.627,5.956
									c0,0,0.005,0.021,0.01,0.045c0.098,0.412,1.059,4.133,3.858,4.991c0.263,0.081,0.536,0.145,0.832,0.17
									C119.795,123.037,124.052,123.603,123.902,117.719z"/>
								<polygon fill="#FFFFFF" points="-2.944,83.861 -2.945,85.259 -2.788,95.32 -2.617,95.32 -2.617,94.657 -2.617,95.32 
									-2.958,95.32 -2.94,110.277 -2.939,111.42 								"/>
								<polygon opacity="0.3" fill="#FFFFFF" enable-background="new    " points="-2.938,120.548 -2.937,120.546 -2.938,120.547 
																	"/>
								<path fill="#F2F2F2" d="M-2.884,43.529c0,0,7.606-0.566,15.049,1.245c0,0,12.025,3.369,27.015,6.436L68.854,2.32H-2.957
									l0.013,81.417L-2.884,43.529z"/>
								<path opacity="0.3" fill="#FFFFFF" enable-background="new    " d="M-2.884,43.529c0,0,7.606-0.566,15.049,1.245
									c0,0,12.025,3.369,27.015,6.436L68.854,2.32H-2.957l0.013,81.417L-2.884,43.529z"/>
								<path fill="#F2F2F2" d="M-2.617,111.306v-0.029l-0.33,9.044h0.005l8.877-14.207C2.427,107.747-0.617,109.567-2.617,111.306z
									"/>
								<path opacity="0.3" fill="#FFFFFF" enable-background="new    " d="M-2.617,111.306v-0.029l-0.33,9.044h0.005l8.877-14.207
									C2.427,107.747-0.617,109.567-2.617,111.306z"/>
								<path fill="#FFFFFF" d="M39.179,51.334c-14.99-3.067-27.015-6.56-27.015-6.56c-7.443-1.81-15.049-1.245-15.049-1.245
									l0.102,40.332l0.166,27.416v0.029c2-1.739,5.046-3.446,8.555-5.079L39.179,51.334z"/>
								<path opacity="0.3" fill="#FFFFFF" enable-background="new    " d="M39.179,51.334c-14.99-3.067-27.015-6.56-27.015-6.56
									c-7.443-1.81-15.049-1.245-15.049-1.245l0.102,40.332l0.166,27.416v0.029c2-1.739,5.046-3.446,8.555-5.079L39.179,51.334z"
									/>
							</g>
						</g>
					</g>
					<g>
						<g>
							<defs>
								<circle id="SVGID_6_" cx="160.44" cy="160.225" r="160.44"/>
							</defs>
							<clipPath id="SVGID_7_">
								<use xlink:href="#SVGID_6_"  overflow="visible"/>
							</clipPath>
							<path clip-path="url(#SVGID_7_)" fill="#D6D6D6" d="M63.037,197.041c0,0-8.272,15.51,0,24.816
								c0,0,71.001,24.471,196.113,0.689c0,0,8.617-11.029,0.345-25.505C259.494,197.041,164.367,225.993,63.037,197.041z"/>
						</g>
						<g>
							<g>
								<defs>
									<circle id="SVGID_8_" cx="160.44" cy="160.225" r="160.44"/>
								</defs>
								<clipPath id="SVGID_9_">
									<use xlink:href="#SVGID_8_"  overflow="visible"/>
								</clipPath>
								<path clip-path="url(#SVGID_9_)" fill="#F2F2F2" d="M63.037,221.857c0,0,6.666,84.787,91.739,94.093
									c0,0,87.83,9.995,104.374-93.404C259.15,222.546,141.103,245.122,63.037,221.857z"/>
							</g>
							<g>
								<g>
									<defs>
										<circle id="SVGID_10_" cx="160.44" cy="160.225" r="160.44"/>
									</defs>
									<clipPath id="SVGID_11_">
										<use xlink:href="#SVGID_10_"  overflow="visible"/>
									</clipPath>
									<path clip-path="url(#SVGID_11_)" fill="#E6E6E6" d="M259.818,196.88c-122.872-18.612-197.007,0-197.007,0
										s41.014,13.442,91.965,13.006c0,0,48.81,1.552,100.675-11.721L259.818,196.88z"/>
								</g>
								<g>
									<g>
										<defs>
											<circle id="SVGID_12_" cx="160.44" cy="160.225" r="160.44"/>
										</defs>
										<clipPath id="SVGID_13_">
											<use xlink:href="#SVGID_12_"  overflow="visible"/>
										</clipPath>
										<path clip-path="url(#SVGID_13_)" fill="#CCCCCC" d="M98.809,205.23c0,0,56.882-10.509,120.586,0.137
											C219.394,205.367,156.225,215.912,98.809,205.23z"/>
									</g>
									<g>
										<g>
											<defs>
												<circle id="SVGID_14_" cx="160.44" cy="160.225" r="160.44"/>
											</defs>
											<clipPath id="SVGID_15_">
												<use xlink:href="#SVGID_14_"  overflow="visible"/>
											</clipPath>
											<path opacity="0.8" clip-path="url(#SVGID_15_)" fill="#999999" enable-background="new    " d="M62.81,221.582
												c0,0,74.846,28.71,196.339,0.792C259.15,222.374,146.046,244.157,62.81,221.582z"/>
										</g>
										<g>
											<g>
												<defs>
													<circle id="SVGID_16_" cx="160.44" cy="160.225" r="160.44"/>
												</defs>
												<clipPath id="SVGID_17_">
													<use xlink:href="#SVGID_16_"  overflow="visible"/>
												</clipPath>
												<path clip-path="url(#SVGID_17_)" fill="#FFFFFF" d="M125.522,189.296c0,0-1.959,10.512,1.107,19.506
													c0,0,2.292,0.248,3.901,0.356c0,0,3.288-9.155,0-20.085C130.53,189.073,127.685,184.099,125.522,189.296z"/>
											</g>
											<g>
												<g>
													<defs>
														<circle id="SVGID_18_" cx="160.44" cy="160.225" r="160.44"/>
													</defs>
													<clipPath id="SVGID_19_">
														<use xlink:href="#SVGID_18_"  overflow="visible"/>
													</clipPath>
													<path opacity="0.2" clip-path="url(#SVGID_19_)" fill="#FFFFFF" enable-background="new    " d="M68.641,291.26
														L234.957,17.694c0,0-105.49-60.867-196.434,38.243c0,0-41.311,45.978-38.33,112.197
														C0.193,168.133,0.434,243.519,68.641,291.26z"/>
												</g>
											</g>
										</g>
									</g>
								</g>
							</g>
						</g>
					</g>
				</g>
			</g>
		</g>
	</g>
</g>
</svg>
