<?xml version="1.0" encoding="utf-8"?>
<!-- Generator: Adobe Illustrator 17.0.0, SVG Export Plug-In . SVG Version: 6.00 Build 0)  -->
<!DOCTYPE svg PUBLIC "-//W3C//DTD SVG 1.1//EN" "http://www.w3.org/Graphics/SVG/1.1/DTD/svg11.dtd">
<svg version="1.1" id="Layer_1" xmlns="http://www.w3.org/2000/svg" xmlns:xlink="http://www.w3.org/1999/xlink" x="0px" y="0px"
	 width="530.973px" height="522.538px" viewBox="0 0 530.973 522.538" enable-background="new 0 0 530.973 522.538"
	 xml:space="preserve">
<circle opacity="0.6" fill="#FFFFFF" enable-background="new    " cx="265.55" cy="260.644" r="256.644"/>
<g>
	<path fill="#3CC3DA" d="M258.129,30.21c3.572,0,7.144,0,10.715,0c0.867,0.072,1.733,0.188,2.601,0.21
		c8.857,0.22,17.659,1.081,26.413,2.388c10.585,1.58,21.013,3.9,31.284,6.932c15.732,4.645,30.785,10.919,45.175,18.772
		c20.089,10.963,38.167,24.616,54.265,40.876c7.813,7.891,15.021,16.31,21.643,25.231c9.92,13.364,18.3,27.635,25.168,42.785
		c7.322,16.152,12.684,32.944,16.1,50.351c2.064,10.516,3.426,21.121,3.99,31.825c0.131,2.493,0.29,4.985,0.437,7.477
		c0,3.648,0,7.296,0,10.943c-0.064,0.562-0.148,1.123-0.189,1.686c-0.463,6.397-0.798,12.807-1.405,19.191
		c-1.018,10.707-3.091,21.241-5.773,31.646c-4.888,18.959-12.108,36.998-21.593,54.133c-10.899,19.688-24.378,37.418-40.374,53.233
		c-8.277,8.183-17.135,15.69-26.536,22.563c-12.941,9.461-26.722,17.478-41.31,24.093c-16.15,7.324-32.941,12.688-50.348,16.103
		c-10.517,2.063-21.12,3.426-31.825,3.992c-2.575,0.136-5.149,0.291-7.723,0.437c-3.572,0-7.144,0-10.715,0
		c-0.715-0.069-1.428-0.181-2.145-0.199c-9.73-0.244-19.39-1.219-28.999-2.741c-16.157-2.558-31.869-6.777-47.112-12.714
		c-24.106-9.389-46.061-22.414-65.84-39.094c-19.856-16.745-36.497-36.238-49.884-58.495c-7.799-12.966-14.278-26.568-19.404-40.81
		c-4.089-11.361-7.264-22.972-9.528-34.83c-1.924-10.076-3.192-20.235-3.729-30.483c-0.131-2.495-0.29-4.989-0.436-7.483
		c0-3.648,0-7.296,0-10.943c0.064-0.562,0.171-1.123,0.184-1.686c0.233-9.922,1.211-19.774,2.771-29.57
		c1.82-11.436,4.484-22.673,8.002-33.708c6.161-19.328,14.763-37.511,25.686-54.592c9.338-14.602,20.203-27.982,32.524-40.171
		c9.198-9.1,19.078-17.396,29.658-24.849c19.711-13.887,41.041-24.521,64.041-31.778c11.881-3.749,23.975-6.616,36.331-8.226
		c6.807-0.887,13.661-1.42,20.499-2.058C253.201,30.419,255.668,30.351,258.129,30.21z M263.436,482.536
		c121.314,0.069,220.569-99.153,219.945-221.097c-0.616-120.444-99.275-219.3-221.095-218.684
		C142.017,43.363,43.673,141.57,43.592,262.533C43.512,383.681,142.229,482.478,263.436,482.536z"/>
	<path fill="#3CC3DA" d="M296.393,179.507c10.935-35.32,21.865-70.622,32.877-106.19c0.727,1.06,1.305,1.882,1.863,2.716
		c21.911,32.787,43.819,65.577,65.729,98.364c17.278,25.855,34.557,51.71,51.854,77.552c0.458,0.685,0.486,1.227,0.162,1.967
		c-17.682,40.421-35.348,80.85-53.013,121.278c-4.465,10.218-8.936,20.434-13.366,30.668c-0.382,0.882-0.814,1.23-1.814,1.233
		c-6.991,0.023-13.982,0.109-20.972,0.208c-0.722,0.01-1.132-0.205-1.568-0.808c-3.548-4.916-7.016-9.899-10.779-14.647
		c-2.73-3.444-5.941-6.502-8.815-9.838c-4.051-4.703-9.038-8.341-13.886-12.083c-5.51-4.252-11.275-8.206-17.156-11.932
		c-3.529-2.236-7.518-3.735-11.25-5.662c-5.14-2.655-10.72-4.097-16.174-5.844c-3.032-0.971-6.27-1.315-9.428-1.869
		c-2.533-0.444-5.074-0.911-7.632-1.13c-3.212-0.275-6.443-0.361-9.667-0.434c-5.772-0.13-11.546-0.283-17.318-0.251
		c-4.821,0.027-9.656,0.135-14.456,0.538c-2.49,0.209-4.935,1.077-7.373,1.748c-9.393,2.588-18.835,5.021-28.139,7.898
		c-6.199,1.917-12.276,4.295-18.264,6.81c-10.952,4.6-21.73,9.58-31.832,15.909c-3.335,2.089-6.788,3.989-10.318,6.053
		c-22.175-38.908-44.357-77.828-66.557-116.78c3.161-3.635,6.292-7.243,9.43-10.845c4.364-5.009,8.732-10.014,13.098-15.021
		c4.44-5.093,8.883-10.184,13.318-15.282c4.884-5.613,9.755-11.236,14.641-16.846c4.862-5.582,9.74-11.149,14.602-16.731
		c4.339-4.981,8.662-9.975,13-14.957c4.362-5.01,8.738-10.007,13.101-15.017c4.363-5.009,8.714-10.029,13.075-15.04
		c4.81-5.526,9.626-11.048,14.441-16.569c3.294-3.776,6.699-7.463,9.834-11.368c1.163-1.449,2.597-1.523,4.058-1.788
		c8.926-1.62,17.86-3.196,26.794-4.772c8.786-1.55,17.575-3.084,26.362-4.625c0.919-0.161,1.836-0.329,2.958-0.53
		c-6.118,25.106-12.185,50.004-18.309,75.138C251.847,180.32,274.039,179.915,296.393,179.507z M238.138,272.791
		c0.144,0.024,0.287,0.048,0.431,0.072c0.516,2.933,1.002,5.871,1.556,8.797c0.767,4.043,1.418,8.119,2.422,12.104
		c1.521,6.04,4.119,11.702,6.962,17.208c1.622,3.143,3.578,6.188,5.822,8.917c2.642,3.212,5.724,6.068,8.683,9.011
		c1.366,1.358,2.729,2.84,4.372,3.776c5.584,3.182,11.579,5.398,17.91,6.542c5.467,0.988,10.949,2.1,16.473,2.519
		c5.699,0.432,11.461,0.223,17.188,0.035c2.856-0.094,5.708-0.683,8.535-1.194c5.153-0.931,9.494-3.651,13.739-6.517
		c1.751-1.182,3.214-2.716,4.017-4.682c0.635-1.553,0.662-3.233-0.085-4.816c-0.872-1.848-2.627-2.5-4.369-3.186
		c-6.076-2.391-11.862-5.311-17.186-9.14c-5.072-3.648-9.662-7.842-14.076-12.225c-3.891-3.865-7.942-7.572-10.836-12.374
		c-3.942-6.54-8.416-12.779-10.92-20.089c-1.932-5.642-3.72-11.334-5.707-16.955c-0.692-1.958,0.279-3.174,1.379-4.42
		c0.442-0.5,1.07-0.841,1.63-1.23c2.731-1.897,5.285-4.16,8.237-5.607c8.929-4.375,17.975-8.519,27.048-12.59
		c9.972-4.475,19.502-9.716,28.531-15.865c4.523-3.08,7.91-6.953,8.224-12.756c0.123-2.27,0.142-4.586-1.156-6.575
		c-1.487-2.277-3.922-3.358-6.425-3.483c-6.346-0.316-12.551,0.304-18.58,2.808c-16.998,7.061-33.112,15.658-47.81,26.778
		c-10.46,7.913-20.807,15.976-31.205,23.97c-1.255,0.965-2.518,1.918-3.777,2.877c-0.069-0.328-0.009-0.501,0.061-0.669
		c4.896-11.722,9.831-23.428,14.667-35.174c1.65-4.008,3.601-7.889,4.648-12.156c0.957-3.901-1.386-7.582-3.611-8.831
		c-2.265-1.271-4.859-1.919-7.503-2.003c-5.321-0.169-10.61,0.233-15.876,1.014c-5.932,0.88-11.639,2.613-17.287,4.545
		c-1.882,0.644-3.919,1.294-5.412,2.518c-3.237,2.655-5.941,5.955-7.843,9.658c-3.764,7.329-7.265,14.798-10.694,22.292
		c-10.54,23.032-21.023,46.093-30.089,69.759c-3.431,8.957-7.333,17.741-10.023,26.977c-0.837,2.874-1.854,5.719-1.66,8.745
		c0.089,1.393,0.392,2.946,1.128,4.085c1.254,1.943,2.729,3.752,5.027,4.769c1.399,0.619,2.81,0.774,4.246,1.054
		c3.092,0.602,6.175,0.253,9.123-0.49c8.18-2.059,15.091-6.49,21.272-12.116c4.647-4.23,8.617-9.043,12.263-14.163
		c5.896-8.279,11.099-16.991,16.442-25.619C231.35,283.359,234.769,278.091,238.138,272.791z"/>
	<path fill="#3CC3DA" d="M361.539,416.356c5.869,0,11.579,0,17.428,0c-2.517,5.664-4.954,11.15-7.464,16.801
		C368.134,427.476,364.832,421.908,361.539,416.356z"/>
</g>
<path opacity="0.2" fill="#FFFFFF" enable-background="new    " d="M86.615,444.622L414.262,51.453
	c0,0,121.759,77.482,106.697,234.495c0,0-9.402,128.895-118.732,191.954C402.227,477.902,241.333,585.283,86.615,444.622z"/>
</svg>
