<?xml version="1.0" encoding="utf-8"?>
<!-- Generator: Adobe Illustrator 17.0.0, SVG Export Plug-In . SVG Version: 6.00 Build 0)  -->
<!DOCTYPE svg PUBLIC "-//W3C//DTD SVG 1.1//EN" "http://www.w3.org/Graphics/SVG/1.1/DTD/svg11.dtd">
<svg version="1.1" id="Layer_1" xmlns="http://www.w3.org/2000/svg" xmlns:xlink="http://www.w3.org/1999/xlink" x="0px" y="0px"
	 width="368.103px" height="295.69px" viewBox="0 0 368.103 295.69" enable-background="new 0 0 368.103 295.69"
	 xml:space="preserve">
<g>
	<path fill="#35C3E0" d="M187.792,8.215c-55.495-0.4-101.242,44.822-102.095,98.632C84.81,162.773,128.648,210.69,186.93,210.649
		c58.416-0.041,101.496-47.517,101.059-101.221C288.738,56.213,245.185,8.628,187.792,8.215z M186.626,197.532
		c-47.535,0.456-89.472-39.783-87.907-90.789c1.42-46.265,38.858-85.916,88.951-85.582c49.712,0.332,89.004,41.286,87.469,91.333
		C273.698,159.494,234.153,198.139,186.626,197.532z"/>
	<path fill="#35C3E0" d="M163.074,125.86c0.751-2.935-0.876-5.217-4.007-7.588c-8.325-6.305-10.739-18.132-6.206-27.411
		c4.67-9.559,15.521-14.713,25.763-12.238c10.272,2.482,17.651,11.95,17.538,22.504c-0.109,10.27-7.535,19.864-17.873,21.589
		c-5.818,0.971-10.273,1.605-8.726,9.166c0.359,1.754-1.336,3.083-3.398,2.98c-1.84-0.092-2.895-1.232-3.058-2.979
		C162.95,130.186,163.074,128.464,163.074,125.86z"/>
	<path fill="#6E7072" d="M187.064,130.185c9.566,0.075,9.703,0.078,9.498,9.53c-0.083,3.859,0.745,7.163,2.843,10.418
		c3.155,4.897,5.956,10.023,8.867,15.075c2.201,3.821,1.811,5.463-2.294,7.287c-7.754,3.446-16.014,3.651-24.289,3.038
		c-4.805-0.356-9.637-0.831-14.066-3.094c-3.245-1.658-4.37-3.726-2.137-7.111c2.112-3.201,3.745-6.722,5.914-9.879
		c4.314-6.275,7.066-12.893,5.848-20.703c-0.456-2.922,1.028-4.199,3.846-4.271C183.085,130.426,185.074,130.286,187.064,130.185z"
		/>
	<path fill="#6E7072" d="M213.992,119.836c-2.151,0.552-1.495,2.248-1.509,3.537c-0.061,5.556-0.042,11.113-0.016,16.669
		c0.01,2.173-0.357,4.189-2.988,4.315c-2.851,0.136-3.523-1.897-3.529-4.279c-0.013-5.271-0.152-10.549,0.055-15.812
		c0.1-2.545-0.774-3.677-3.225-3.9c-0.975-0.089-1.948-0.403-2.881-0.731c-5.325-1.87-5.267-1.971-2.847-7.085
		c4.211-8.901,3.884-17.699-1.511-25.991c-1.601-2.46-1.191-3.43,1.178-4.726c8.253-4.516,18.552-3.077,25.154,3.702
		c6.637,6.814,8.111,17.719,2.549,25.481c-2.732,3.812-3.574,7.483-3.249,11.824c0.095,1.274,0.068,2.57-0.048,3.842
		c-0.158,1.731-1.012,2.96-2.882,3.156c-2.138,0.225-3.105-1.085-3.574-2.905C214.074,124.623,215.108,122.126,213.992,119.836z"/>
	<path fill="#35C3E0" d="M216.841,73c0.493,3.046-0.221,4.317-4.342,3.253c-6.385-1.649-12.825-0.911-18.409,3.004
		c-2.287,1.603-3.775,1.23-6.021-0.142c-2.468-1.508-2.225-3.165-1.752-5.354c1.393-6.45-0.43-12.224-4.494-17.143
		c-2.022-2.447-1.517-3.32,0.977-4.602C198.08,44.165,216.722,55.363,216.841,73z"/>
	<path fill="#6E7072" d="M182.74,70.142c0.009,5.444,0.005,5.464-5.182,4.557c-8.641-1.51-16.097,1.095-22.319,6.963
		c-2.359,2.225-3.485,1.883-5.219-0.438c-4.568-6.115-4.771-15.219-0.289-21.592c4.514-6.419,12.802-9.201,20.44-6.86
		C177.776,55.103,182.726,61.944,182.74,70.142z"/>
	<path fill="#35C3E0" d="M231.643,101.259c-0.217-8.942-3.391-16.107-10.505-21.202c-1.432-1.026-0.929-2.159-0.852-3.388
		c0.276-4.422,0.33-8.817-1.484-13.012c-0.684-1.581-0.961-2.835,1.518-3.28c9.68-1.736,20.417,5.397,23.42,15.74
		C246.701,86.317,241.551,97.341,231.643,101.259z"/>
	<path fill="#35C3E0" d="M142.286,69.372c0.554,6.226,2.109,12.046,6.988,16.415c1.358,1.216,0.805,2.492,0.208,3.87
		c-1.823,4.213-3.136,8.574-2.446,13.224c0.335,2.256-1.032,1.939-2.29,1.836c-7.317-0.6-14.69-8.435-15.252-16.167
		C128.802,79.024,133.776,71.479,142.286,69.372z"/>
	<g>
		<rect x="10.357" y="248.797" fill="#6D6E70" width="9.064" height="38.575"/>
		<path fill="#6D6E70" d="M63.67,263.392h-9.992c0,0-1.998-7.565-10.705-6.566c0,0-5.959,0.607-7.993,6.566
			c0,0-3.212,8.85,3.426,13.453c0,0,2.783,2.462,6.53,2.355c0,0,7.173,0.428,9.207-6.423l9.528-0.107c0,0-2.034,9.956-9.956,13.168
			c0,0-15.523,6.637-25.479-6.53c0,0-7.28-12.065,0.428-22.572c0,0,5.452-8.152,15.733-8.045
			C44.396,248.69,57.889,247.37,63.67,263.392z"/>
		<polygon fill="#6D6E70" points="89.791,256.897 89.791,248.663 68.594,248.663 68.594,287.015 89.791,287.015 89.791,278.456 
			77.908,278.456 77.908,272.606 89.791,272.606 89.791,263.181 77.908,263.181 77.908,256.897 		"/>
		<rect x="95.357" y="263.891" fill="#6D6E70" width="21.946" height="8.029"/>
		<path fill="#6D6E70" d="M161.944,263.525h-9.992c0,0-1.998-7.565-10.705-6.566c0,0-5.959,0.607-7.993,6.566
			c0,0-3.212,8.85,3.426,13.453c0,0,2.783,2.462,6.53,2.355c0,0,7.173,0.428,9.207-6.423l9.528-0.107c0,0-2.034,9.956-9.956,13.168
			c0,0-15.523,6.637-25.479-6.53c0,0-7.28-12.065,0.428-22.572c0,0,5.452-8.152,15.733-8.045
			C142.671,248.823,156.163,247.503,161.944,263.525z"/>
		<polygon fill="#6D6E70" points="224.392,286.943 239.808,248.797 247.087,248.797 262.217,286.943 240.664,286.943 
			240.521,278.807 249.228,278.665 243.947,264.962 234.526,286.943 		"/>
		<polygon fill="#6D6E70" points="265.358,286.943 265.358,248.797 278.061,248.797 285.484,264.391 293.191,248.797 
			305.61,248.797 305.61,286.943 296.332,286.943 296.332,259.395 289.052,274.525 282.058,274.668 274.35,258.967 274.207,286.943 
					"/>
		<rect x="315.173" y="282.09" fill="#33C3DF" width="48.103" height="4.853"/>
		<rect x="315.173" y="248.797" fill="#33C3DF" width="48.103" height="4.853"/>
		<polygon fill="#6D6E70" points="327.448,277.88 335.5,257.955 339.302,257.955 347.205,277.88 335.948,277.88 335.873,273.63 
			340.421,273.556 337.662,266.398 332.742,277.88 		"/>
		<polygon fill="#6D6E70" points="315.173,257.955 320.169,257.955 320.169,273.526 326.378,273.526 326.378,277.594 
			315.173,277.594 		"/>
		<path fill="#6D7071" d="M187.231,274.221c0,0,9.245-2.351,8.956-11.61c0,0,0.506-10.655-9.534-13.814h-18.5h-0.856V287.3h9.678
			v-12.05l8.812,12.051h11.556L187.231,274.221z M182.826,268.049h-5.923V256.88h5.417c5.561,1.543,4.911,6.246,4.911,6.246
			C186.798,266.946,182.826,268.049,182.826,268.049z"/>
		<polygon fill="#6D6E70" points="221.68,256.897 221.68,248.663 200.483,248.663 200.483,287.015 221.68,287.015 221.68,278.456 
			209.797,278.456 209.797,272.606 221.68,272.606 221.68,263.181 209.797,263.181 209.797,256.897 		"/>
		<path fill="#6D6E70" d="M360.813,267.21c0,0,2.034-1.499,1.82-4.211c0,0-0.393-4.521-5.031-5.044h-8.029v0.298v19.626h9.207
			c0,0,4.853-0.856,4.782-6.066C363.561,271.813,363.597,268.566,360.813,267.21z M353.998,262.464h3.448
			c1.14,2.034-0.117,3.461-0.117,3.461h-3.331V262.464z M357.727,273.526h-3.729v-3.461h3.86
			C359.134,272.099,357.727,273.526,357.727,273.526z"/>
	</g>
</g>
</svg>
