<?xml version="1.0" encoding="utf-8"?>
<!-- Generator: Adobe Illustrator 17.0.0, SVG Export Plug-In . SVG Version: 6.00 Build 0)  -->
<!DOCTYPE svg PUBLIC "-//W3C//DTD SVG 1.1//EN" "http://www.w3.org/Graphics/SVG/1.1/DTD/svg11.dtd">
<svg version="1.1" id="Layer_1" xmlns="http://www.w3.org/2000/svg" xmlns:xlink="http://www.w3.org/1999/xlink" x="0px" y="0px"
	 width="320.497px" height="322.345px" viewBox="0 0 320.497 322.345" enable-background="new 0 0 320.497 322.345"
	 xml:space="preserve">
<g opacity="0.6" enable-background="new    ">
	<g>
		<ellipse id="SVGID_1_" fill="#FFFFFF" cx="160.582" cy="162.012" rx="159.915" ry="160.333"/>
	</g>
</g>
<g>
	<path fill="#4D4D4D" d="M222.908,182.063c0,0,6.096,4.457,9.312,0.033l-7.034-67.776h-9.379L222.908,182.063z"/>
	<path fill="#3AD9EF" stroke="#3AD9EF" stroke-miterlimit="10" d="M76.883,63.871c0,0-2.286-10.501,4.949-12.109
		c0,0,4.484-0.829,7.298-0.025c0,0,56.103-9.257,85.446-6.846c0,0,59.605,1.602,111.858,30.542c0,0,2.47,2.007,0.058,5.222
		c0,0-29.715,4.42-49.813,31.351c0,0-1.191,5.225-20.083,4.019l-18.482,0.18c0,0-7.231,2.144-9.643-2.278
		c0,0-4.016-7.107-11.251-4.107H74.883V89.897c0,0,2-1.005,2-3.015V63.871z"/>
	<path fill="#3AD9EF" stroke="#3AD9EF" stroke-miterlimit="10" d="M208.068,116.108l0.102,20.415c0,0,1.608,7.415-7.436,6.41
		l-14.47,0.887h-26.38v-8.905c0,0,1.835-4.22-2.787-4.421c0,0-5.916,0.201-6.519-8.24c0,0-0.446-8.039-10.092-14.269l38.867-0.247
		c0,0,4.845-0.389,8.572,4.551c0,0,1.739,4.258,7.565,4.07L208.068,116.108z"/>
	<path fill="#808080" d="M225.721,184.303l4.555,43.061c0,0,3.216,1.608,4.02,0l-4.287-43.061
		C230.009,184.303,229.741,184.386,225.721,184.303z"/>
	<path fill="#4D4D4D" d="M228.908,227.364c0,0,3.475-3.082,7.475,0.134v3.886c0,0,4.316,2.01,2.172,6.297l-9.566,7.637l-5.017-13.8
		l4.461-0.536L228.908,227.364z"/>
	<circle fill="#CCCCCC" cx="234.564" cy="235.939" r="2.948"/>
	<line fill="none" stroke="#333333" stroke-miterlimit="10" x1="232.822" y1="236.475" x2="236.306" y2="235.675"/>
	<line fill="none" stroke="#333333" stroke-miterlimit="10" x1="234.217" y1="234.006" x2="234.887" y2="238.026"/>
	<path fill="#3AD9EF" stroke="#3AD9EF" stroke-miterlimit="10" d="M195.516,142.938l43.594,137.216c0,0-6.958,2.814-38.042,1.474
		l-21.437-65.853c0,0,9.379-0.644,9.647-9.483l0.268-26.307c0,0,0.536-3.509-4.555-5.384l-0.075-32.047L195.516,142.938z"/>
	<polygon fill="#2A9FA8" points="178.949,215.32 169.18,215.32 182.847,255.715 193.535,259.519 	"/>
	<polygon fill="#2A9FA8" points="197.317,271.32 188.474,271.32 189.814,276.943 200.733,282.398 	"/>
	<path fill="#3AD9EF" d="M56.902,272.022c0,0-2.144-14.29-1.072-19.649c0,0,0.134-1.987,3.484-1.585c0,0,35.908-1.529,51.986-1.261
		c0,0,39.793-0.43,59.489,5.198c0,0,3.886,0.924,6.699,0.79l5.359,0.194l10.94,4.163l3.53,11.449h-8.843l-1.206,2.876
		c0,0-0.536,5.39-15.676,6.194c0,0-16.346,2.159-45.822,2.293l1.474,12.133l-24.921,0.64l-3.35-2.159c0,0-2.278-12.602-1.072-19.569
		c0,0,0.402-3.889,5.761-3.353c0,0,57.613-0.672,66.322-3.485c0,0-16.346-2.681-21.973-3.752c0,0-19.428-2.948-47.966-2.278
		l-19.16,0.845l2.278,11.615H62.262C62.262,273.32,59.18,273.404,56.902,272.022z"/>
	<path fill="#E6E6E6" d="M56.5,157.96l-0.67,30.881c0,0,0.268,14.003,7.503,23.516c0,0,13.13,19.026,31.754,19.294
		c0,0,26.663,4.153,39.659-9.647c0,0,13.934-11.389,15.14-28.137c0,0,2.412-31.218,1.206-33.898
		C151.092,159.97,97.097,166.267,56.5,157.96z"/>
	<path fill="#E6E6E6" stroke="#E6E6E6" stroke-miterlimit="10" d="M56.108,170.555c0,0-6.225-0.402-7.225,4.689v28.806
		c0,0,0.794,3.886,3.943,4.02l8.544,0.473l-0.717-1.764l-3.029,0.085c0,0-3.04-1.474-3.04-4.421l-0.113-28.672
		c0,0-0.722-1.876,1.824-1.34L56.108,170.555z"/>
	<path fill="#B3B3B3" stroke="#E6E6E6" stroke-width="2" stroke-miterlimit="10" d="M56.768,154.227c0,0-9.23,1.884,4.027,4.551
		c0,0,35.468,5.741,70.185,2.797c0,0,23.328-0.75,23.328-3.254c0,0,1.313-3.235-17.016-4.094
		C137.292,154.227,83.967,150.627,56.768,154.227z"/>
	<path fill="#3AD9EF" stroke="#3AD9EF" stroke-miterlimit="10" d="M74.709,107.798l-2.826-0.885v20.767c0,0,0.281,2.948,2.826,3.082
		c0,0,78.923,0.268,80.765,0l1.946-0.268c0,0-5.932-0.004-6.624-7.639c0,0-0.707-8.707-10.437-14.87L74.709,107.798z"/>
	<path fill="#3AD9EF" d="M160.383,132.325v20.729c0,0-0.178,4.581-33.272,3.618l-3.728-6.106v-9.219c0,0,0.523-2.948-3.228-3.886
		c0,0-13.606-7.771-18.965,0.536l-9.55,18.833c0,0-28.828,0.862-41.824-3.425c0,0-2.433,0.134-2.433-3.484V131.7
		c0,0-2.342-5.091,24.723-8.039c0,0-1.239,7.088,2.715,7.101l81.954-0.268C156.775,130.494,160.383,131.085,160.383,132.325z"/>
	<path fill="#F2F2F2" stroke="#F2F2F2" stroke-miterlimit="10" d="M83.883,66.584v8.843c0,0-9,1.34-29-1.876v-8.575
		C54.883,64.976,72.883,67.388,83.883,66.584z"/>
	<polygon fill="#F2F2F2" stroke="#F2F2F2" stroke-miterlimit="10" points="56.674,64.563 67.883,65.83 67.883,62.564 	"/>
	<path fill="#3AD9EF" stroke="#3AD9EF" stroke-miterlimit="10" d="M111.883,182.345v12.059c0,0,9.221,1.206,13.642,0l23.435-0.904
		l0.926,4.321h0.804c0,0-1.474,9.412,2.144,12.226c0,0,9.111,4.84,12.059,5.376c0,0,23.488,3.358,23.669-6.691l0.922-29.845
		c0,0,0.324-6.553-20.172-5.591c0,0-4.368,0.524-6.604-1.476h-4.782c0,0-7.542,0.171-7.243,9.014
		C150.683,180.835,118.883,184.489,111.883,182.345z"/>
	<path fill="#F2F2F2" stroke="#F2F2F2" stroke-miterlimit="10" d="M104.883,157.023c0,0,10,1.206,15,0.134v-22.241
		c0,0,0.264-1.34-2.148-1.34c0,0-1.074-12.059,6.965-12.594c0,0,28.193,0.804,34.356,2.412c0,0,7.827,4.02,7.827,12.862v30.816
		c0,0-4.967-1.742-4.699,2.211c0,0,0.699,3.685,8.699,2.881v15.006c0,0-7.892,10.987,3.198,16.882c0,0,9.49,3.219,12.34-5.627
		c0,0,2.5-3.484-1.251-10.183l-0.224-45.688c0,0,4.31-4.689,3.506-8.441c0,0-0.525-8.025-8.832-8.97c0,0-3.418,0.127-5.19,2.271
		c0,0-3.913-13.934-17.043-13.666l-31.619-1.876c0,0-16.003,1.34-17.075,21.169l-3.81,1.072L104.883,157.023L104.883,157.023z"/>
	<circle fill="#CCCCCC" cx="177.981" cy="196.355" r="5.364"/>
	<line fill="none" stroke="#999999" stroke-miterlimit="10" x1="174.811" y1="197.331" x2="181.151" y2="195.876"/>
	<line fill="none" stroke="#999999" stroke-miterlimit="10" x1="177.35" y1="192.839" x2="178.569" y2="200.154"/>
	<circle fill="#CCCCCC" cx="180.981" cy="134.355" r="5.364"/>
	<line fill="none" stroke="#999999" stroke-miterlimit="10" x1="177.811" y1="135.331" x2="184.151" y2="133.876"/>
	<line fill="none" stroke="#999999" stroke-miterlimit="10" x1="180.35" y1="130.839" x2="181.569" y2="138.154"/>
</g>
<polygon fill="#F2F2F2" points="117.383,157.32 117.383,161.312 120.383,161.25 120.383,157.32 "/>
<polygon fill="#F2F2F2" points="111.383,157.32 111.383,161.438 114.383,161.359 114.383,157.32 "/>
<polygon fill="#F2F2F2" points="104.383,157.32 104.383,161.354 107.383,161.438 107.383,157.32 "/>
<path opacity="0.2" fill="#FFFFFF" enable-background="new    " d="M69.258,293.939L235.574,20.373
	c0,0-105.241-61.04-196.574,36.627c0,0-42.667,46.667-38.19,113.812C0.81,170.812,1.051,246.199,69.258,293.939z"/>
<path opacity="0.6" fill="#FFFFFF" enable-background="new    " d="M101.5,160c0,0,1-6.667-7-5.5c0,0-5.5-4.167-8,2.5
	c0,0-4.333,0.5-3.333,6.167c0,0-1.333,5.667,3,6.667c0,0,6.167,4.5,8.5-1.333c0,0,6.913,1.167,6.873-3.667
	C101.54,164.833,104.167,161.5,101.5,160z"/>
<path opacity="0.6" fill="#FFFFFF" enable-background="new    " d="M114.5,167c0,0,1-6.667-7-5.5c0,0-5.5-4.167-8,2.5
	c0,0-4.333,0.5-3.333,6.167c0,0-1.333,5.667,3,6.667c0,0,6.167,4.5,8.5-1.333c0,0,6.913,1.167,6.873-3.667
	C114.54,171.833,117.167,168.5,114.5,167z"/>
<path opacity="0.6" fill="#FFFFFF" enable-background="new    " d="M71.5,148c0,0,1-6.667-7-5.5c0,0-5.5-4.167-8,2.5
	c0,0-4.333,0.5-3.333,6.167c0,0-1.333,5.667,3,6.667c0,0,6.167,4.5,8.5-1.333c0,0,6.913,1.167,6.873-3.667
	C71.54,152.833,74.167,149.5,71.5,148z"/>
<path opacity="0.7" fill="#FFFFFF" enable-background="new    " d="M94.5,169c0,0,1-6.667-7-5.5c0,0-5.5-4.167-8,2.5
	c0,0-4.333,0.5-3.333,6.167c0,0-1.333,5.667,3,6.667c0,0,6.167,4.5,8.5-1.333c0,0,6.913,1.167,6.873-3.667
	C94.54,173.833,97.167,170.5,94.5,169z"/>
<path opacity="0.6" fill="#FFFFFF" enable-background="new    " d="M94.5,155c0,0,1-6.667-7-5.5c0,0-5.5-4.167-8,2.5
	c0,0-4.333,0.5-3.333,6.167c0,0-1.333,5.667,3,6.667c0,0,6.167,4.5,8.5-1.333c0,0,6.913,1.167,6.873-3.667
	C94.54,159.833,97.167,156.5,94.5,155z"/>
<path opacity="0.6" fill="#FFFFFF" enable-background="new    " d="M136.5,157c0,0,1-6.667-7-5.5c0,0-5.5-4.167-8,2.5
	c0,0-4.333,0.5-3.333,6.167c0,0-1.333,5.667,3,6.667c0,0,6.167,4.5,8.5-1.333c0,0,6.913,1.167,6.873-3.667
	C136.54,161.833,139.167,158.5,136.5,157z"/>
<path opacity="0.6" fill="#FFFFFF" enable-background="new    " d="M128.5,166c0,0,1-6.667-7-5.5c0,0-5.5-4.167-8,2.5
	c0,0-4.333,0.5-3.333,6.167c0,0-1.333,5.667,3,6.667c0,0,6.167,4.5,8.5-1.333c0,0,6.913,1.167,6.873-3.667
	C128.54,170.833,131.167,167.5,128.5,166z"/>
<path opacity="0.6" fill="#FFFFFF" enable-background="new    " d="M143.5,166c0,0,1-6.667-7-5.5c0,0-5.5-4.167-8,2.5
	c0,0-4.333,0.5-3.333,6.167c0,0-1.333,5.667,3,6.667c0,0,6.167,4.5,8.5-1.333c0,0,6.913,1.167,6.873-3.667
	C143.54,170.833,146.167,167.5,143.5,166z"/>
<path opacity="0.6" fill="#FFFFFF" enable-background="new    " d="M142.5,143c0,0,1-6.667-7-5.5c0,0-5.5-4.167-8,2.5
	c0,0-4.333,0.5-3.333,6.167c0,0-1.333,5.667,3,6.667c0,0,6.167,4.5,8.5-1.333c0,0,6.913,1.167,6.873-3.667
	C142.54,147.833,145.167,144.5,142.5,143z"/>
<path opacity="0.6" fill="#FFFFFF" enable-background="new    " d="M153.5,156c0,0,1-6.667-7-5.5c0,0-5.5-4.167-8,2.5
	c0,0-4.333,0.5-3.333,6.167c0,0-1.333,5.667,3,6.667c0,0,6.167,4.5,8.5-1.333c0,0,6.913,1.167,6.873-3.667
	C153.54,160.833,156.167,157.5,153.5,156z"/>
<path opacity="0.7" fill="#FFFFFF" enable-background="new    " d="M88.5,150c0,0,1-6.667-7-5.5c0,0-5.5-4.167-8,2.5
	c0,0-4.333,0.5-3.333,6.167c0,0-1.333,5.667,3,6.667c0,0,6.167,4.5,8.5-1.333c0,0,6.913,1.167,6.873-3.667
	C88.54,154.833,91.167,151.5,88.5,150z"/>
<path opacity="0.7" fill="#FFFFFF" enable-background="new    " d="M81.5,164c0,0,1-6.667-7-5.5c0,0-5.5-4.167-8,2.5
	c0,0-4.333,0.5-3.333,6.167c0,0-1.333,5.667,3,6.667c0,0,6.167,4.5,8.5-1.333c0,0,6.913,1.167,6.873-3.667
	C81.54,168.833,84.167,165.5,81.5,164z"/>
</svg>
