<?xml version="1.0" encoding="utf-8"?>
<!-- Generator: Adobe Illustrator 17.0.0, SVG Export Plug-In . SVG Version: 6.00 Build 0)  -->
<!DOCTYPE svg PUBLIC "-//W3C//DTD SVG 1.1//EN" "http://www.w3.org/Graphics/SVG/1.1/DTD/svg11.dtd">
<svg version="1.1" id="Layer_1" xmlns="http://www.w3.org/2000/svg" xmlns:xlink="http://www.w3.org/1999/xlink" x="0px" y="0px"
	 width="530.973px" height="522.538px" viewBox="0 0 530.973 522.538" enable-background="new 0 0 530.973 522.538"
	 xml:space="preserve">
<circle opacity="0.6" fill="#FFFFFF" enable-background="new    " cx="265.55" cy="260.644" r="256.644"/>
<polygon fill="none" stroke="#3CC3DA" stroke-width="3" stroke-miterlimit="10" points="303.486,213.341 260.262,188.293 
	259.55,138.341 302.063,113.436 345.288,138.484 345.999,188.436 "/>
<polygon fill="none" stroke="#3CC3DA" stroke-width="3" stroke-miterlimit="10" points="303.486,360.805 260.262,335.757 
	259.55,285.805 302.063,260.9 345.288,285.948 345.999,335.9 "/>
<polyline fill="none" stroke="#3CC3DA" stroke-width="3" stroke-miterlimit="10" points="303.486,213.341 302.063,260.9 
	345.288,285.948 388.115,260.9 388.115,240.396 "/>
<polyline fill="none" stroke="#3CC3DA" stroke-width="3" stroke-miterlimit="10" points="345.999,188.436 388.115,211.396 
	388.115,225.396 "/>
<polygon fill="#3CC3DA" points="302.063,260.9 328.115,228.896 424.615,228.896 435.115,266.396 428.615,266.396 419.115,235.896 
	334.615,234.396 "/>
<polygon fill="#3CC3DA" points="388.115,260.9 419.615,280.396 423.615,272.896 "/>
<line fill="none" stroke="#3CC3DA" stroke-width="3" stroke-miterlimit="10" x1="260.262" y1="188.293" x2="240.115" y2="221.896"/>
<line fill="none" stroke="#3CC3DA" stroke-width="3" stroke-miterlimit="10" x1="259.55" y1="285.805" x2="240.115" y2="249.644"/>
<line fill="none" stroke="#3CC3DA" stroke-width="3" stroke-miterlimit="10" x1="259.55" y1="136.896" x2="230.115" y2="121.396"/>
<polyline fill="none" stroke="#3CC3DA" stroke-width="3" stroke-miterlimit="10" points="202.615,121.396 175.115,136.896 
	145.115,121.396 "/>
<line fill="none" stroke="#3CC3DA" stroke-width="3" stroke-miterlimit="10" x1="169.741" y1="134.119" x2="169.741" y2="171.396"/>
<line fill="none" stroke="#3CC3DA" stroke-width="3" stroke-miterlimit="10" x1="179.115" y1="134.119" x2="179.115" y2="171.396"/>
<line fill="none" stroke="#3CC3DA" stroke-width="3" stroke-miterlimit="10" x1="302.775" y1="352.396" x2="339.115" y2="331.396"/>
<polyline fill="none" stroke="#3CC3DA" stroke-width="3" stroke-miterlimit="10" points="145.115,352.396 173.865,336.396 
	202.615,352.396 "/>
<line fill="none" stroke="#3CC3DA" stroke-width="3" stroke-miterlimit="10" x1="179.115" y1="302.896" x2="179.115" y2="339.317"/>
<line fill="none" stroke="#3CC3DA" stroke-width="3" stroke-miterlimit="10" x1="169.741" y1="302.896" x2="169.741" y2="338.691"/>
<line fill="none" stroke="#3CC3DA" stroke-width="3" stroke-miterlimit="10" x1="267.615" y1="141.396" x2="267.615" y2="181.896"/>
<line fill="none" stroke="#3CC3DA" stroke-width="3" stroke-miterlimit="10" x1="302.063" y1="205.094" x2="339.115" y2="181.896"/>
<line fill="none" stroke="#3CC3DA" stroke-width="3" stroke-miterlimit="10" x1="302.775" y1="121.396" x2="337.115" y2="141.396"/>
<g>
	<text transform="matrix(1 0 0 1 163.3436 198.1992)" fill="#3CC3DA" font-family="'Lato-Regular'" font-size="43.2293">o</text>
</g>
<g>
	<text transform="matrix(1 0 0 1 204.8436 124.1992)" fill="#3CC3DA" font-family="'Lato-Regular'" font-size="43.2293">o</text>
</g>
<text transform="matrix(1 0 0 1 220.8436 248.6455)" fill="#3CC3DA" font-family="'Lato-Regular'" font-size="43.2293">o</text>
<text transform="matrix(1 0 0 1 163.344 296.1454)" fill="#3CC3DA" font-family="'Lato-Regular'" font-size="43.2293">o</text>
<text transform="matrix(1 0 0 1 204.8433 371.6454)" fill="#3CC3DA" font-family="'Lato-Regular'" font-size="43.2293">o</text>
<text transform="matrix(1 0 0 1 424.6151 296.1455)" fill="#3CC3DA" font-family="'Lato-Regular'" font-size="31">N</text>
<text transform="matrix(1 0 0 1 424.1151 351.6455)" fill="#3CC3DA" font-family="'Lato-Regular'" font-size="31">CH</text>
<line fill="none" stroke="#3CC3DA" stroke-width="3" stroke-miterlimit="10" x1="435.115" y1="299.896" x2="435.115" y2="323.896"/>
<text transform="matrix(1 0 0 1 86.6148 124.1992)" fill="#3CC3DA" font-family="'Lato-Regular'" font-size="30">H  C</text>
<g>
	<text transform="matrix(1 0 0 1 109.6148 129.1192)" fill="#3CC3DA" font-family="'Lato-Regular'" font-size="20">3</text>
</g>
<text transform="matrix(1 0 0 1 86.6148 371.6453)" fill="#3CC3DA" font-family="'Lato-Regular'" font-size="30">H  C</text>
<g>
	<text transform="matrix(1 0 0 1 109.6148 376.5652)" fill="#3CC3DA" font-family="'Lato-Regular'" font-size="20">3</text>
</g>
<g>
	<text transform="matrix(1 0 0 1 467.6148 356.5652)" fill="#3CC3DA" font-family="'Lato-Regular'" font-size="20">3</text>
</g>
<line fill="none" stroke="#3CC3DA" stroke-width="3" stroke-miterlimit="10" x1="230.115" y1="348.896" x2="234.115" y2="356.565"/>
<line fill="none" stroke="#3CC3DA" stroke-width="3" stroke-miterlimit="10" x1="237.615" y1="346.729" x2="240.115" y2="351.646"/>
<line fill="none" stroke="#3CC3DA" stroke-width="3" stroke-miterlimit="10" x1="245.615" y1="343.302" x2="246.781" y2="346.656"/>
<line fill="none" stroke="#3CC3DA" stroke-width="3" stroke-miterlimit="10" x1="252.781" y1="339.317" x2="253.615" y2="341.062"/>
<path opacity="0.2" fill="#FFFFFF" enable-background="new    " d="M86.615,444.622L414.262,51.453
	c0,0,121.759,77.482,106.697,234.495c0,0-9.402,128.895-118.732,191.954C402.227,477.902,241.333,585.283,86.615,444.622z"/>
</svg>
